%TF.GenerationSoftware,KiCad,Pcbnew,10.0.4*%
%TF.CreationDate,2026-07-03T12:24:13+02:00*%
%TF.ProjectId,RoadrunnerVmaxModule01,526f6164-7275-46e6-9e65-72566d61784d,rev?*%
%TF.SameCoordinates,Original*%
%TF.FileFunction,Legend,Bot*%
%TF.FilePolarity,Positive*%
%FSLAX46Y46*%
G04 Gerber Fmt 4.6, Leading zero omitted, Abs format (unit mm)*
G04 Created by KiCad (PCBNEW 10.0.4) date 2026-07-03 12:24:13*
%MOMM*%
%LPD*%
G01*
G04 APERTURE LIST*
%ADD10C,0.200000*%
G04 APERTURE END LIST*
%TO.C,M1*%
D10*
X117850000Y-71700002D02*
X117850000Y-68499999D01*
X117850000Y-83800002D02*
X117850000Y-73400000D01*
X117850000Y-85700002D02*
X117850000Y-85400002D01*
X117850000Y-85700002D02*
X133250000Y-85700002D01*
X119350000Y-65100004D02*
X134649999Y-65100002D01*
X134649997Y-71800000D02*
X134649997Y-67000000D01*
X134649997Y-78000002D02*
X134649997Y-75300002D01*
X134649997Y-80700000D02*
X134649997Y-79599997D01*
X134649997Y-84250002D02*
X134650002Y-82700002D01*
X134649999Y-65400000D02*
X134649999Y-65100002D01*
%TO.C,M2*%
X153349999Y-60600007D02*
X194150002Y-60600007D01*
X153349999Y-100500006D02*
X153349999Y-60600007D01*
X153349999Y-100500006D02*
X195449999Y-100500006D01*
X194150002Y-60600007D02*
X195450002Y-60600007D01*
X195449999Y-100500006D02*
X195450002Y-60600007D01*
%TO.C,M3*%
X153350002Y-102484365D02*
X153750007Y-102084360D01*
X153350002Y-115009366D02*
X153350002Y-102484365D01*
X153350002Y-115009366D02*
X154900002Y-116559366D01*
X153750007Y-102084360D02*
X183650000Y-102084363D01*
X154900002Y-116559366D02*
X183230000Y-116559366D01*
X183225002Y-116559366D02*
X184150000Y-115634369D01*
X183650000Y-102084363D02*
X184150000Y-102584363D01*
X184150000Y-115634369D02*
X184150000Y-102584363D01*
%TD*%
M02*
