M48
; DRILL file KiCad 10.0.4 date 2026-07-03T12:07:32
; FORMAT={-:-/ absolute / metric / decimal}
; #@! TF.CreationDate,2026-07-03T12:07:32+02:00
; #@! TF.GenerationSoftware,Kicad,Pcbnew,10.0.4
; #@! TF.FileFunction,Plated,1,2,PTH
FMAT,2
METRIC
; #@! TA.AperFunction,Plated,PTH,ComponentDrill
T1C0.300
; #@! TA.AperFunction,Plated,PTH,ComponentDrill
T2C1.000
%
G90
G05
T1
X134.45Y-81.2
X134.45Y-82.2
X153.55Y-96.8
X153.55Y-97.8
X153.55Y-70.4
X153.55Y-71.4
X153.55Y-72.4
X153.55Y-73.4
X153.55Y-74.4
X153.55Y-75.4
X153.55Y-84.4
X153.55Y-60.8
X153.55Y-76.4
X153.55Y-77.4
X153.55Y-78.4
X153.55Y-79.4
X153.55Y-80.4
X153.55Y-81.4
X153.55Y-82.4
X153.55Y-83.4
X153.55Y-90.4
X153.95Y-100.3
X156.35Y-100.3
X157.55Y-100.3
X158.75Y-100.3
X159.55Y-60.8
X159.95Y-100.3
X160.35Y-60.8
X161.15Y-60.8
X161.15Y-100.3
X162.35Y-100.3
X163.55Y-100.3
X164.75Y-100.3
X165.95Y-100.3
X167.15Y-100.3
X168.35Y-100.3
X168.95Y-60.8
X169.55Y-100.3
X169.75Y-60.8
X170.55Y-60.8
X170.75Y-100.3
X171.35Y-60.8
X171.95Y-100.3
X172.15Y-60.8
X173.15Y-100.3
X174.35Y-100.3
X175.55Y-100.3
X176.75Y-100.3
X177.65Y-60.8
X177.95Y-100.3
X178.45Y-60.8
X179.15Y-100.3
X179.25Y-60.8
X180.05Y-60.8
X180.35Y-100.3
X180.85Y-60.8
X181.55Y-100.3
X181.65Y-60.8
X182.45Y-60.8
X182.75Y-100.3
X183.25Y-60.8
X183.95Y-100.3
X184.05Y-60.8
X184.85Y-60.8
X185.15Y-100.3
X185.65Y-60.8
X186.35Y-100.3
X186.45Y-60.8
X187.25Y-60.8
X187.55Y-100.3
X188.05Y-60.8
X188.75Y-100.3
X188.85Y-60.8
X189.65Y-60.8
X189.85Y-100.3
X190.45Y-60.8
X191.05Y-100.3
X191.25Y-60.8
X192.05Y-60.8
X192.25Y-100.3
X192.85Y-60.8
X193.45Y-100.3
X193.65Y-60.8
X194.45Y-60.8
X194.65Y-100.3
X195.25Y-67.4
X195.25Y-68.2
X195.25Y-72.2
X195.25Y-73.0
X195.25Y-73.8
X195.25Y-77.0
X195.25Y-77.8
X195.25Y-86.6
X195.25Y-97.3
X195.25Y-60.8
X195.25Y-63.4
X195.25Y-64.2
X195.25Y-65.0
X195.25Y-65.8
X195.25Y-66.6
X195.25Y-69.0
X195.25Y-69.8
X195.25Y-70.6
X195.25Y-71.4
X195.25Y-74.6
X195.25Y-75.4
X195.25Y-76.2
X195.25Y-78.6
X195.25Y-79.4
X195.25Y-80.2
X195.25Y-81.0
X195.25Y-81.8
X195.25Y-82.6
X195.25Y-83.4
X195.25Y-84.2
X195.25Y-85.0
X195.25Y-85.8
X195.25Y-87.4
X195.25Y-88.2
X195.25Y-89.0
X195.25Y-89.8
X195.25Y-90.6
X195.25Y-98.1
T2
X118.5Y-65.75
X118.5Y-67.6
X118.5Y-72.55
X118.5Y-84.6
X134.0Y-66.2
X134.0Y-72.6
X134.0Y-74.5
X134.0Y-78.8
X134.0Y-85.05
M30
