%TF.GenerationSoftware,KiCad,Pcbnew,10.0.4*%
%TF.CreationDate,2026-07-03T13:53:00+02:00*%
%TF.ProjectId,RoadrunnerVmaxModule,526f6164-7275-46e6-9e65-72566d61784d,rev?*%
%TF.SameCoordinates,Original*%
%TF.FileFunction,Copper,L1,Top*%
%TF.FilePolarity,Positive*%
%FSLAX46Y46*%
G04 Gerber Fmt 4.6, Leading zero omitted, Abs format (unit mm)*
G04 Created by KiCad (PCBNEW 10.0.4) date 2026-07-03 13:53:00*
%MOMM*%
%LPD*%
G01*
G04 APERTURE LIST*
%TA.AperFunction,ComponentPad*%
%ADD10C,0.600000*%
%TD*%
%TA.AperFunction,SMDPad,CuDef*%
%ADD11R,0.200000X2.300000*%
%TD*%
%TA.AperFunction,SMDPad,CuDef*%
%ADD12R,0.200000X5.400000*%
%TD*%
%TA.AperFunction,SMDPad,CuDef*%
%ADD13R,0.200000X8.600000*%
%TD*%
%TA.AperFunction,SMDPad,CuDef*%
%ADD14R,0.200000X5.000000*%
%TD*%
%TA.AperFunction,SMDPad,CuDef*%
%ADD15R,1.400000X0.200000*%
%TD*%
%TA.AperFunction,SMDPad,CuDef*%
%ADD16R,5.000000X0.200000*%
%TD*%
%TA.AperFunction,SMDPad,CuDef*%
%ADD17R,6.800000X0.200000*%
%TD*%
%TA.AperFunction,SMDPad,CuDef*%
%ADD18R,4.500000X0.200000*%
%TD*%
%TA.AperFunction,SMDPad,CuDef*%
%ADD19R,0.200000X1.600000*%
%TD*%
%TA.AperFunction,SMDPad,CuDef*%
%ADD20R,0.200000X5.700000*%
%TD*%
%TA.AperFunction,SMDPad,CuDef*%
%ADD21R,0.200000X2.000000*%
%TD*%
G04 APERTURE END LIST*
D10*
%TO.P,M1,E1,SPI2_SCK/CAN2_TX_E1*%
%TO.N,unconnected-(M1-SPI2_SCK{slash}CAN2_TX-PadE1)*%
X186250001Y-65900005D03*
%TO.P,M1,E2,SPI2_MISO_E2*%
%TO.N,unconnected-(M1-SPI2_MISO-PadE2)*%
X186250001Y-66700006D03*
%TO.P,M1,E3,SPI2_MOSI_E3*%
%TO.N,unconnected-(M1-SPI2_MOSI-PadE3)*%
X186250001Y-67500004D03*
%TO.P,M1,E4,SPI2_CS/CAN2_RX_E4*%
%TO.N,unconnected-(M1-SPI2_CS{slash}CAN2_RX-PadE4)*%
X186250001Y-68300005D03*
%TO.P,M1,E6,OUT_IO3_E6*%
%TO.N,unconnected-(M1-OUT_IO3-PadE6)*%
X186250001Y-69100006D03*
%TO.P,M1,E7,OUT_IO5_E7*%
%TO.N,unconnected-(M1-OUT_IO5-PadE7)*%
X186249998Y-69900004D03*
%TO.P,M1,E8,OUT_IO1_E8*%
%TO.N,unconnected-(M1-OUT_IO1-PadE8)*%
X186249998Y-70700005D03*
%TO.P,M1,E9,OUT_IO6_E9*%
%TO.N,unconnected-(M1-OUT_IO6-PadE9)*%
X186250001Y-71500009D03*
%TO.P,M1,E10,OUT_IO10_E10*%
%TO.N,unconnected-(M1-OUT_IO10-PadE10)*%
X186250001Y-72300005D03*
%TO.P,M1,E11,OUT_IO9_E11*%
%TO.N,unconnected-(M1-OUT_IO9-PadE11)*%
X186250001Y-73100005D03*
%TO.P,M1,E12,OUT_IO2_E12*%
%TO.N,unconnected-(M1-OUT_IO2-PadE12)*%
X186250001Y-73900006D03*
%TO.P,M1,E13,OUT_IO12_E13*%
%TO.N,unconnected-(M1-OUT_IO12-PadE13)*%
X186249998Y-74700005D03*
%TO.P,M1,E14,OUT_PWM5_E14*%
%TO.N,unconnected-(M1-OUT_PWM5-PadE14)*%
X186249998Y-75500006D03*
%TO.P,M1,E15,OUT_PWM4_E15*%
%TO.N,unconnected-(M1-OUT_PWM4-PadE15)*%
X186249998Y-76300007D03*
%TO.P,M1,E16,OUT_PWM3_E16*%
%TO.N,unconnected-(M1-OUT_PWM3-PadE16)*%
X186250001Y-77100005D03*
%TO.P,M1,E17,OUT_PWM2_E17*%
%TO.N,unconnected-(M1-OUT_PWM2-PadE17)*%
X186250001Y-77900006D03*
%TO.P,M1,E18,OUT_INJ2_E18*%
%TO.N,unconnected-(M1-OUT_INJ2-PadE18)*%
X186250001Y-78700004D03*
%TO.P,M1,E19,OUT_INJ1_E19*%
%TO.N,unconnected-(M1-OUT_INJ1-PadE19)*%
X186249998Y-79500005D03*
%TO.P,M1,E20,OUT_IO13_E20*%
%TO.N,unconnected-(M1-OUT_IO13-PadE20)*%
X186249998Y-80300006D03*
%TO.P,M1,E21,OUT_IO4_E21*%
%TO.N,unconnected-(M1-OUT_IO4-PadE21)*%
X186250001Y-81100005D03*
%TO.P,M1,E22,OUT_IO8_E22*%
%TO.N,unconnected-(M1-OUT_IO8-PadE22)*%
X186250001Y-81900006D03*
%TO.P,M1,E23,OUT_IO7_E23*%
%TO.N,unconnected-(M1-OUT_IO7-PadE23)*%
X186250001Y-82700007D03*
%TO.P,M1,E24,OUT_IO11_E24*%
%TO.N,unconnected-(M1-OUT_IO11-PadE24)*%
X186250001Y-83500005D03*
%TO.P,M1,E25,OUT_PWM7_E25*%
%TO.N,unconnected-(M1-OUT_PWM7-PadE25)*%
X186250001Y-84300006D03*
%TO.P,M1,E26,OUT_PWM6_E26*%
%TO.N,unconnected-(M1-OUT_PWM6-PadE26)*%
X186250001Y-85100004D03*
%TO.P,M1,E27,OUT_PWM1_E27*%
%TO.N,unconnected-(M1-OUT_PWM1-PadE27)*%
X186250001Y-85900005D03*
%TO.P,M1,E28,OUT_PWM8_E28*%
%TO.N,unconnected-(M1-OUT_PWM8-PadE28)*%
X186250001Y-86700006D03*
%TO.P,M1,E29,OUT_INJ3_E29*%
%TO.N,unconnected-(M1-OUT_INJ3-PadE29)*%
X186250001Y-87500005D03*
%TO.P,M1,E30,OUT_INJ4_E30*%
%TO.N,unconnected-(M1-OUT_INJ4-PadE30)*%
X186250001Y-88300006D03*
%TO.P,M1,E31,OUT_INJ5_E31*%
%TO.N,unconnected-(M1-OUT_INJ5-PadE31)*%
X186249998Y-89100004D03*
%TO.P,M1,E32,OUT_INJ6_E32*%
%TO.N,unconnected-(M1-OUT_INJ6-PadE32)*%
X186250001Y-89900007D03*
%TO.P,M1,E33,OUT_INJ7_E33*%
%TO.N,unconnected-(M1-OUT_INJ7-PadE33)*%
X186250001Y-90700006D03*
%TO.P,M1,E34,OUT_INJ8_E34*%
%TO.N,unconnected-(M1-OUT_INJ8-PadE34)*%
X186250001Y-91500004D03*
%TO.P,M1,E35,IO6_E35*%
%TO.N,unconnected-(M1-IO6-PadE35)*%
X186250001Y-92300005D03*
%TO.P,M1,E36,IO7_E36*%
%TO.N,unconnected-(M1-IO7-PadE36)*%
X186250001Y-93100006D03*
%TO.P,M1,E38,V5A_SWITCHABLE_E38*%
%TO.N,unconnected-(M1-V5A_SWITCHABLE-PadE38)*%
X186249998Y-99800000D03*
%TO.P,M1,E39,GNDA_E39*%
%TO.N,unconnected-(M1-GNDA-PadE39)*%
X186250001Y-100600001D03*
D11*
%TO.P,M1,G,GND_G*%
%TO.N,unconnected-(M1-GND-PadG)*%
X144349996Y-101950001D03*
D12*
X144349998Y-96099998D03*
D13*
X144349999Y-68100001D03*
D14*
X144349999Y-89900001D03*
D15*
X146150005Y-103000004D03*
D16*
X147550000Y-63100003D03*
D17*
X156050003Y-63100003D03*
D18*
X165900006Y-63100003D03*
D19*
X186450001Y-64600002D03*
D20*
X186450001Y-96450005D03*
D21*
X186450001Y-102099998D03*
D10*
%TO.P,M1,N1,USBID_N1*%
%TO.N,unconnected-(M1-USBID-PadN1)*%
X186250001Y-63300002D03*
%TO.P,M1,N2,USBM_N2*%
%TO.N,unconnected-(M1-USBM-PadN2)*%
X185450003Y-63300000D03*
%TO.P,M1,N3,USBP_N3*%
%TO.N,unconnected-(M1-USBP-PadN3)*%
X184650002Y-63300000D03*
%TO.P,M1,N4,VBUS_N4*%
%TO.N,unconnected-(M1-VBUS-PadN4)*%
X183850003Y-63300002D03*
%TO.P,M1,N5,BOOT0_N5*%
%TO.N,unconnected-(M1-BOOT0-PadN5)*%
X183050002Y-63300002D03*
%TO.P,M1,N6,SWO_N6*%
%TO.N,unconnected-(M1-SWO-PadN6)*%
X182250001Y-63300002D03*
%TO.P,M1,N7,SWDIO_N7*%
%TO.N,unconnected-(M1-SWDIO-PadN7)*%
X181450003Y-63300002D03*
%TO.P,M1,N8,SWCLK_N8*%
%TO.N,unconnected-(M1-SWCLK-PadN8)*%
X180650002Y-63300000D03*
%TO.P,M1,N9,nReset_N9*%
%TO.N,unconnected-(M1-nReset-PadN9)*%
X179850004Y-63300002D03*
%TO.P,M1,N10,SPI3_CS_N10*%
%TO.N,unconnected-(M1-SPI3_CS-PadN10)*%
X179050003Y-63300002D03*
%TO.P,M1,N11,SPI3_SCK_N11*%
%TO.N,unconnected-(M1-SPI3_SCK-PadN11)*%
X178250002Y-63300002D03*
%TO.P,M1,N12,SPI3_MISO_N12*%
%TO.N,unconnected-(M1-SPI3_MISO-PadN12)*%
X177450001Y-63300002D03*
%TO.P,M1,N13,SPI3_MOSI_N13*%
%TO.N,unconnected-(M1-SPI3_MOSI-PadN13)*%
X176650002Y-63300002D03*
%TO.P,M1,N14,I2C_SCL_N14*%
%TO.N,unconnected-(M1-I2C_SCL-PadN14)*%
X175850001Y-63300002D03*
%TO.P,M1,N15,I2C_SDA_N15*%
%TO.N,unconnected-(M1-I2C_SDA-PadN15)*%
X175050000Y-63300000D03*
%TO.P,M1,N16,IO1_N16*%
%TO.N,unconnected-(M1-IO1-PadN16)*%
X174250000Y-63300000D03*
%TO.P,M1,N17,UART2_TX_N17*%
%TO.N,unconnected-(M1-UART2_TX-PadN17)*%
X173450001Y-63300002D03*
%TO.P,M1,N18,UART2_RX_N18*%
%TO.N,unconnected-(M1-UART2_RX-PadN18)*%
X172650000Y-63300002D03*
%TO.P,M1,N19,IO2_N19*%
%TO.N,unconnected-(M1-IO2-PadN19)*%
X171850002Y-63300002D03*
%TO.P,M1,N20,IO4_N20*%
%TO.N,unconnected-(M1-IO4-PadN20)*%
X171050001Y-63300002D03*
%TO.P,M1,N21,IO3_N21*%
%TO.N,unconnected-(M1-IO3-PadN21)*%
X170250002Y-63300000D03*
%TO.P,M1,N22,V33_N22*%
%TO.N,unconnected-(M1-V33-PadN22)*%
X169450001Y-63300002D03*
%TO.P,M1,N23,IO5_N23*%
%TO.N,unconnected-(M1-IO5-PadN23)*%
X168650001Y-63300002D03*
%TO.P,M1,N24,UART8_RX_N24*%
%TO.N,unconnected-(M1-UART8_RX-PadN24)*%
X163150001Y-63300002D03*
%TO.P,M1,N25,UART8_TX_N25*%
%TO.N,unconnected-(M1-UART8_TX-PadN25)*%
X162350000Y-63300002D03*
%TO.P,M1,N26,IN_VIGN_N26*%
%TO.N,unconnected-(M1-IN_VIGN-PadN26)*%
X161550002Y-63300002D03*
%TO.P,M1,N27,VBAT_N27*%
%TO.N,unconnected-(M1-VBAT-PadN27)*%
X160750004Y-63300002D03*
%TO.P,M1,N28,V33_SWITCHABLE_N28*%
%TO.N,unconnected-(M1-V33_SWITCHABLE-PadN28)*%
X159950005Y-63300002D03*
%TO.P,M1,N29,OUT_PWR_EN_N29*%
%TO.N,unconnected-(M1-OUT_PWR_EN-PadN29)*%
X152150001Y-63300002D03*
%TO.P,M1,N30,V5A_SWITCHABLE_N30*%
%TO.N,unconnected-(M1-V5A_SWITCHABLE-PadN30)*%
X151350002Y-63300002D03*
%TO.P,M1,N31,VCC_N31*%
%TO.N,unconnected-(M1-VCC-PadN31)*%
X150550004Y-63300002D03*
%TO.P,M1,N32,V33_N32*%
%TO.N,unconnected-(M1-V33-PadN32)*%
X144550000Y-63300002D03*
%TO.P,M1,S1,IN_D4_S1*%
%TO.N,unconnected-(M1-IN_D4-PadS1)*%
X185650000Y-102800007D03*
%TO.P,M1,S2,IN_D3_S2*%
%TO.N,unconnected-(M1-IN_D3-PadS2)*%
X184449999Y-102800005D03*
%TO.P,M1,S3,IN_D2_S3*%
%TO.N,unconnected-(M1-IN_D2-PadS3)*%
X183250002Y-102800005D03*
%TO.P,M1,S4,IN_D1_S4*%
%TO.N,unconnected-(M1-IN_D1-PadS4)*%
X182050002Y-102800007D03*
%TO.P,M1,S5,VREF2_S5*%
%TO.N,unconnected-(M1-VREF2-PadS5)*%
X180850002Y-102800005D03*
%TO.P,M1,S6,IN_SENS4_S6*%
%TO.N,unconnected-(M1-IN_SENS4-PadS6)*%
X179750014Y-102800005D03*
%TO.P,M1,S7,IN_SENS3_S7*%
%TO.N,unconnected-(M1-IN_SENS3-PadS7)*%
X178550014Y-102800005D03*
%TO.P,M1,S8,IN_SENS2_S8*%
%TO.N,unconnected-(M1-IN_SENS2-PadS8)*%
X177350016Y-102800007D03*
%TO.P,M1,S9,IN_SENS1_S9*%
%TO.N,unconnected-(M1-IN_SENS1-PadS9)*%
X176150016Y-102800005D03*
%TO.P,M1,S10,IN_AUX4_S10*%
%TO.N,unconnected-(M1-IN_AUX4-PadS10)*%
X174950013Y-102800005D03*
%TO.P,M1,S11,IN_AUX3_S11*%
%TO.N,unconnected-(M1-IN_AUX3-PadS11)*%
X173750011Y-102800007D03*
%TO.P,M1,S12,IN_AUX2_S12*%
%TO.N,unconnected-(M1-IN_AUX2-PadS12)*%
X172550013Y-102800005D03*
%TO.P,M1,S13,IN_AUX1_S13*%
%TO.N,unconnected-(M1-IN_AUX1-PadS13)*%
X171350015Y-102800005D03*
%TO.P,M1,S14,IN_RES2_S14*%
%TO.N,unconnected-(M1-IN_RES2-PadS14)*%
X170150008Y-102800005D03*
%TO.P,M1,S15,IN_O2S2_S15*%
%TO.N,unconnected-(M1-IN_O2S2-PadS15)*%
X168950008Y-102800005D03*
%TO.P,M1,S16,IN_O2S_S16*%
%TO.N,unconnected-(M1-IN_O2S-PadS16)*%
X167750010Y-102800005D03*
%TO.P,M1,S17,IN_RES1_S17*%
%TO.N,unconnected-(M1-IN_RES1-PadS17)*%
X166550010Y-102800005D03*
%TO.P,M1,S18,IN_RES3_S18*%
%TO.N,unconnected-(M1-IN_RES3-PadS18)*%
X165350005Y-102800005D03*
%TO.P,M1,S19,IN_MAP3_S19*%
%TO.N,unconnected-(M1-IN_MAP3-PadS19)*%
X164150004Y-102800005D03*
%TO.P,M1,S20,IN_MAP2_S20*%
%TO.N,unconnected-(M1-IN_MAP2-PadS20)*%
X162950007Y-102800007D03*
%TO.P,M1,S21,IN_MAP1_S21*%
%TO.N,unconnected-(M1-IN_MAP1-PadS21)*%
X161750007Y-102800005D03*
%TO.P,M1,S22,IN_CRANK_S22*%
%TO.N,unconnected-(M1-IN_CRANK-PadS22)*%
X160550004Y-102800007D03*
%TO.P,M1,S23,IN_KNOCK_S23*%
%TO.N,unconnected-(M1-IN_KNOCK-PadS23)*%
X159350004Y-102800005D03*
%TO.P,M1,S24,IN_CAM_S24*%
%TO.N,unconnected-(M1-IN_CAM-PadS24)*%
X158150009Y-102800005D03*
%TO.P,M1,S25,IN_VSS_S25*%
%TO.N,unconnected-(M1-IN_VSS-PadS25)*%
X156950006Y-102800007D03*
%TO.P,M1,S26,IN_IAT_S26*%
%TO.N,unconnected-(M1-IN_IAT-PadS26)*%
X155750001Y-102800005D03*
%TO.P,M1,S27,IN_AT1_S27*%
%TO.N,unconnected-(M1-IN_AT1-PadS27)*%
X154550001Y-102800007D03*
%TO.P,M1,S28,IN_CLT_S28*%
%TO.N,unconnected-(M1-IN_CLT-PadS28)*%
X153350003Y-102800005D03*
%TO.P,M1,S29,IN_AT2_S29*%
%TO.N,unconnected-(M1-IN_AT2-PadS29)*%
X152150003Y-102800005D03*
%TO.P,M1,S30,IN_TPS_S30*%
%TO.N,unconnected-(M1-IN_TPS-PadS30)*%
X150949998Y-102800005D03*
%TO.P,M1,S31,IN_PPS_S31*%
%TO.N,unconnected-(M1-IN_PPS-PadS31)*%
X149749998Y-102800005D03*
%TO.P,M1,S32,IN_TPS2_S32*%
%TO.N,unconnected-(M1-IN_TPS2-PadS32)*%
X148550000Y-102800005D03*
%TO.P,M1,S33,IN_PPS2_S33*%
%TO.N,unconnected-(M1-IN_PPS2-PadS33)*%
X147350000Y-102800005D03*
%TO.P,M1,S35,VREF1_S35*%
%TO.N,unconnected-(M1-VREF1-PadS35)*%
X144950000Y-102800005D03*
%TO.P,M1,W1,GNDA_W1*%
%TO.N,unconnected-(M1-GNDA-PadW1)*%
X144549998Y-100300002D03*
%TO.P,M1,W2,V5A_SWITCHABLE_W2*%
%TO.N,unconnected-(M1-V5A_SWITCHABLE-PadW2)*%
X144549998Y-99300001D03*
%TO.P,M1,W3,V33_REF_W3*%
%TO.N,unconnected-(M1-V33_REF-PadW3)*%
X144550000Y-92899999D03*
%TO.P,M1,W3a,BOOT1_W3a*%
%TO.N,unconnected-(M1-BOOT1-PadW3a)*%
X144549999Y-86900001D03*
%TO.P,M1,W4,IGN8_W4*%
%TO.N,unconnected-(M1-IGN8-PadW4)*%
X144550000Y-85900003D03*
%TO.P,M1,W5,IGN7_W5*%
%TO.N,unconnected-(M1-IGN7-PadW5)*%
X144550000Y-84900002D03*
%TO.P,M1,W6,IGN6_W6*%
%TO.N,unconnected-(M1-IGN6-PadW6)*%
X144550000Y-83900004D03*
%TO.P,M1,W7,IGN5_W7*%
%TO.N,unconnected-(M1-IGN5-PadW7)*%
X144550000Y-82900004D03*
%TO.P,M1,W8,IGN4_W8*%
%TO.N,unconnected-(M1-IGN4-PadW8)*%
X144550000Y-81900003D03*
%TO.P,M1,W9,IGN3_W9*%
%TO.N,unconnected-(M1-IGN3-PadW9)*%
X144550000Y-80900005D03*
%TO.P,M1,W10,IGN2_W10*%
%TO.N,unconnected-(M1-IGN2-PadW10)*%
X144550000Y-79900005D03*
%TO.P,M1,W11,IGN1_W11*%
%TO.N,unconnected-(M1-IGN1-PadW11)*%
X144550000Y-78900007D03*
%TO.P,M1,W11a,LED_RED_W11a*%
%TO.N,unconnected-(M1-LED_RED-PadW11a)*%
X144549999Y-77900001D03*
%TO.P,M1,W11b,LED_GREEN_W11b*%
%TO.N,unconnected-(M1-LED_GREEN-PadW11b)*%
X144549999Y-76900001D03*
%TO.P,M1,W11c,LED_BLUE_W11c*%
%TO.N,unconnected-(M1-LED_BLUE-PadW11c)*%
X144549999Y-75900001D03*
%TO.P,M1,W11d,LED_YELLOW_W11d*%
%TO.N,unconnected-(M1-LED_YELLOW-PadW11d)*%
X144549999Y-74900001D03*
%TO.P,M1,W12,CANH_W12*%
%TO.N,unconnected-(M1-CANH-PadW12)*%
X144549999Y-73900001D03*
%TO.P,M1,W13,CANL_W13*%
%TO.N,unconnected-(M1-CANL-PadW13)*%
X144549999Y-72900001D03*
%TD*%
M02*
