M48
; DRILL file KiCad 10.0.4 date 2026-07-03T13:53:19
; FORMAT={-:-/ absolute / metric / decimal}
; #@! TF.CreationDate,2026-07-03T13:53:19+02:00
; #@! TF.GenerationSoftware,Kicad,Pcbnew,10.0.4
; #@! TF.FileFunction,Plated,1,2,PTH
FMAT,2
METRIC
; #@! TA.AperFunction,Plated,PTH,ComponentDrill
T1C0.300
%
G90
G05
T1
X144.55Y-99.3
X144.55Y-100.3
X144.55Y-72.9
X144.55Y-73.9
X144.55Y-74.9
X144.55Y-75.9
X144.55Y-76.9
X144.55Y-77.9
X144.55Y-86.9
X144.55Y-63.3
X144.55Y-78.9
X144.55Y-79.9
X144.55Y-80.9
X144.55Y-81.9
X144.55Y-82.9
X144.55Y-83.9
X144.55Y-84.9
X144.55Y-85.9
X144.55Y-92.9
X144.95Y-102.8
X147.35Y-102.8
X148.55Y-102.8
X149.75Y-102.8
X150.55Y-63.3
X150.95Y-102.8
X151.35Y-63.3
X152.15Y-63.3
X152.15Y-102.8
X153.35Y-102.8
X154.55Y-102.8
X155.75Y-102.8
X156.95Y-102.8
X158.15Y-102.8
X159.35Y-102.8
X159.95Y-63.3
X160.55Y-102.8
X160.75Y-63.3
X161.55Y-63.3
X161.75Y-102.8
X162.35Y-63.3
X162.95Y-102.8
X163.15Y-63.3
X164.15Y-102.8
X165.35Y-102.8
X166.55Y-102.8
X167.75Y-102.8
X168.65Y-63.3
X168.95Y-102.8
X169.45Y-63.3
X170.15Y-102.8
X170.25Y-63.3
X171.05Y-63.3
X171.35Y-102.8
X171.85Y-63.3
X172.55Y-102.8
X172.65Y-63.3
X173.45Y-63.3
X173.75Y-102.8
X174.25Y-63.3
X174.95Y-102.8
X175.05Y-63.3
X175.85Y-63.3
X176.15Y-102.8
X176.65Y-63.3
X177.35Y-102.8
X177.45Y-63.3
X178.25Y-63.3
X178.55Y-102.8
X179.05Y-63.3
X179.75Y-102.8
X179.85Y-63.3
X180.65Y-63.3
X180.85Y-102.8
X181.45Y-63.3
X182.05Y-102.8
X182.25Y-63.3
X183.05Y-63.3
X183.25Y-102.8
X183.85Y-63.3
X184.45Y-102.8
X184.65Y-63.3
X185.45Y-63.3
X185.65Y-102.8
X186.25Y-69.9
X186.25Y-70.7
X186.25Y-74.7
X186.25Y-75.5
X186.25Y-76.3
X186.25Y-79.5
X186.25Y-80.3
X186.25Y-89.1
X186.25Y-99.8
X186.25Y-63.3
X186.25Y-65.9
X186.25Y-66.7
X186.25Y-67.5
X186.25Y-68.3
X186.25Y-69.1
X186.25Y-71.5
X186.25Y-72.3
X186.25Y-73.1
X186.25Y-73.9
X186.25Y-77.1
X186.25Y-77.9
X186.25Y-78.7
X186.25Y-81.1
X186.25Y-81.9
X186.25Y-82.7
X186.25Y-83.5
X186.25Y-84.3
X186.25Y-85.1
X186.25Y-85.9
X186.25Y-86.7
X186.25Y-87.5
X186.25Y-88.3
X186.25Y-89.9
X186.25Y-90.7
X186.25Y-91.5
X186.25Y-92.3
X186.25Y-93.1
X186.25Y-100.6
M30
