M48
; DRILL file {KiCad 8.0.9} date 2026-07-03T15:14:25+0200
; FORMAT={-:-/ absolute / inch / decimal}
; #@! TF.CreationDate,2026-07-03T15:14:25+02:00
; #@! TF.GenerationSoftware,Kicad,Pcbnew,8.0.9
; #@! TF.FileFunction,Plated,1,2,PTH
FMAT,2
INCH
; #@! TA.AperFunction,Plated,PTH,ComponentDrill
T1C0.0118
%
G90
G05
T1
X4.374Y-3.9055
X4.374Y-3.9449
X4.374Y-2.8661
X4.374Y-2.9055
X4.374Y-2.9449
X4.374Y-2.9843
X4.374Y-3.0236
X4.374Y-3.063
X4.374Y-3.4173
X4.374Y-2.4882
X4.374Y-3.1024
X4.374Y-3.1417
X4.374Y-3.1811
X4.374Y-3.2205
X4.374Y-3.2598
X4.374Y-3.2992
X4.374Y-3.3386
X4.374Y-3.378
X4.374Y-3.6535
X4.3898Y-4.0433
X4.4843Y-4.0433
X4.5315Y-4.0433
X4.5787Y-4.0433
X4.6102Y-2.4882
X4.626Y-4.0433
X4.6417Y-2.4882
X4.6732Y-2.4882
X4.6732Y-4.0433
X4.7205Y-4.0433
X4.7677Y-4.0433
X4.815Y-4.0433
X4.8622Y-4.0433
X4.9094Y-4.0433
X4.9567Y-4.0433
X4.9803Y-2.4882
X5.0039Y-4.0433
X5.0118Y-2.4882
X5.0433Y-2.4882
X5.0512Y-4.0433
X5.0748Y-2.4882
X5.0984Y-4.0433
X5.1063Y-2.4882
X5.1457Y-4.0433
X5.1929Y-4.0433
X5.2402Y-4.0433
X5.2874Y-4.0433
X5.3228Y-2.4882
X5.3346Y-4.0433
X5.3543Y-2.4882
X5.3819Y-4.0433
X5.3858Y-2.4882
X5.4173Y-2.4882
X5.4291Y-4.0433
X5.4488Y-2.4882
X5.4764Y-4.0433
X5.4803Y-2.4882
X5.5118Y-2.4882
X5.5236Y-4.0433
X5.5433Y-2.4882
X5.5709Y-4.0433
X5.5748Y-2.4882
X5.6063Y-2.4882
X5.6181Y-4.0433
X5.6378Y-2.4882
X5.6654Y-4.0433
X5.6693Y-2.4882
X5.7008Y-2.4882
X5.7126Y-4.0433
X5.7323Y-2.4882
X5.7598Y-4.0433
X5.7638Y-2.4882
X5.7953Y-2.4882
X5.8031Y-4.0433
X5.8268Y-2.4882
X5.8504Y-4.0433
X5.8583Y-2.4882
X5.8898Y-2.4882
X5.8976Y-4.0433
X5.9213Y-2.4882
X5.9449Y-4.0433
X5.9528Y-2.4882
X5.9843Y-2.4882
X5.9921Y-4.0433
X6.0157Y-2.748
X6.0157Y-2.7795
X6.0157Y-2.937
X6.0157Y-2.9685
X6.0157Y-3.0
X6.0157Y-3.126
X6.0157Y-3.1575
X6.0157Y-3.5039
X6.0157Y-3.9252
X6.0157Y-2.4882
X6.0157Y-2.5906
X6.0157Y-2.622
X6.0157Y-2.6535
X6.0157Y-2.685
X6.0157Y-2.7165
X6.0157Y-2.811
X6.0157Y-2.8425
X6.0157Y-2.874
X6.0157Y-2.9055
X6.0157Y-3.0315
X6.0157Y-3.063
X6.0157Y-3.0945
X6.0157Y-3.189
X6.0157Y-3.2205
X6.0157Y-3.252
X6.0157Y-3.2835
X6.0157Y-3.315
X6.0157Y-3.3465
X6.0157Y-3.378
X6.0157Y-3.4094
X6.0157Y-3.4409
X6.0157Y-3.4724
X6.0157Y-3.5354
X6.0157Y-3.5669
X6.0157Y-3.5984
X6.0157Y-3.6299
X6.0157Y-3.6614
X6.0157Y-3.9567
M30
