%TF.GenerationSoftware,KiCad,Pcbnew,8.0.9*%
%TF.CreationDate,2026-07-03T15:14:21+02:00*%
%TF.ProjectId,RRModule,52524d6f-6475-46c6-952e-6b696361645f,rev?*%
%TF.SameCoordinates,Original*%
%TF.FileFunction,Copper,L1,Top*%
%TF.FilePolarity,Positive*%
%FSLAX46Y46*%
G04 Gerber Fmt 4.6, Leading zero omitted, Abs format (unit mm)*
G04 Created by KiCad (PCBNEW 8.0.9) date 2026-07-03 15:14:21*
%MOMM*%
%LPD*%
G01*
G04 APERTURE LIST*
%TA.AperFunction,ComponentPad*%
%ADD10C,0.600000*%
%TD*%
%TA.AperFunction,SMDPad,CuDef*%
%ADD11R,0.200000X2.300000*%
%TD*%
%TA.AperFunction,SMDPad,CuDef*%
%ADD12R,0.200000X5.400000*%
%TD*%
%TA.AperFunction,SMDPad,CuDef*%
%ADD13R,0.200000X8.600000*%
%TD*%
%TA.AperFunction,SMDPad,CuDef*%
%ADD14R,0.200000X5.000000*%
%TD*%
%TA.AperFunction,SMDPad,CuDef*%
%ADD15R,1.400000X0.200000*%
%TD*%
%TA.AperFunction,SMDPad,CuDef*%
%ADD16R,5.000000X0.200000*%
%TD*%
%TA.AperFunction,SMDPad,CuDef*%
%ADD17R,6.800000X0.200000*%
%TD*%
%TA.AperFunction,SMDPad,CuDef*%
%ADD18R,4.500000X0.200000*%
%TD*%
%TA.AperFunction,SMDPad,CuDef*%
%ADD19R,0.200000X1.600000*%
%TD*%
%TA.AperFunction,SMDPad,CuDef*%
%ADD20R,0.200000X5.700000*%
%TD*%
%TA.AperFunction,SMDPad,CuDef*%
%ADD21R,0.200000X2.000000*%
%TD*%
G04 APERTURE END LIST*
D10*
%TO.P,M1,E1,SPI2_SCK/CAN2_TX*%
%TO.N,unconnected-(M1-SPI2_SCK{slash}CAN2_TX-PadE1)*%
X152800000Y-65800007D03*
%TO.P,M1,E2,SPI2_MISO*%
%TO.N,unconnected-(M1-SPI2_MISO-PadE2)*%
X152800000Y-66600008D03*
%TO.P,M1,E3,SPI2_MOSI*%
%TO.N,unconnected-(M1-SPI2_MOSI-PadE3)*%
X152800000Y-67400006D03*
%TO.P,M1,E4,SPI2_CS/CAN2_RX*%
%TO.N,unconnected-(M1-SPI2_CS{slash}CAN2_RX-PadE4)*%
X152800000Y-68200007D03*
%TO.P,M1,E6,OUT_IO3*%
%TO.N,unconnected-(M1-OUT_IO3-PadE6)*%
X152800000Y-69000008D03*
%TO.P,M1,E7,OUT_IO5*%
%TO.N,unconnected-(M1-OUT_IO5-PadE7)*%
X152799997Y-69800006D03*
%TO.P,M1,E8,OUT_IO1*%
%TO.N,unconnected-(M1-OUT_IO1-PadE8)*%
X152799997Y-70600007D03*
%TO.P,M1,E9,OUT_IO6*%
%TO.N,unconnected-(M1-OUT_IO6-PadE9)*%
X152800000Y-71400011D03*
%TO.P,M1,E10,OUT_IO10*%
%TO.N,unconnected-(M1-OUT_IO10-PadE10)*%
X152800000Y-72200007D03*
%TO.P,M1,E11,OUT_IO9*%
%TO.N,unconnected-(M1-OUT_IO9-PadE11)*%
X152800000Y-73000007D03*
%TO.P,M1,E12,OUT_IO2*%
%TO.N,unconnected-(M1-OUT_IO2-PadE12)*%
X152800000Y-73800008D03*
%TO.P,M1,E13,OUT_IO12*%
%TO.N,unconnected-(M1-OUT_IO12-PadE13)*%
X152799997Y-74600007D03*
%TO.P,M1,E14,OUT_PWM5*%
%TO.N,unconnected-(M1-OUT_PWM5-PadE14)*%
X152799997Y-75400008D03*
%TO.P,M1,E15,OUT_PWM4*%
%TO.N,unconnected-(M1-OUT_PWM4-PadE15)*%
X152799997Y-76200009D03*
%TO.P,M1,E16,OUT_PWM3*%
%TO.N,unconnected-(M1-OUT_PWM3-PadE16)*%
X152800000Y-77000007D03*
%TO.P,M1,E17,OUT_PWM2*%
%TO.N,unconnected-(M1-OUT_PWM2-PadE17)*%
X152800000Y-77800008D03*
%TO.P,M1,E18,OUT_INJ2*%
%TO.N,unconnected-(M1-OUT_INJ2-PadE18)*%
X152800000Y-78600006D03*
%TO.P,M1,E19,OUT_INJ1*%
%TO.N,unconnected-(M1-OUT_INJ1-PadE19)*%
X152799997Y-79400007D03*
%TO.P,M1,E20,OUT_IO13*%
%TO.N,unconnected-(M1-OUT_IO13-PadE20)*%
X152799997Y-80200008D03*
%TO.P,M1,E21,OUT_IO4*%
%TO.N,unconnected-(M1-OUT_IO4-PadE21)*%
X152800000Y-81000007D03*
%TO.P,M1,E22,OUT_IO8*%
%TO.N,unconnected-(M1-OUT_IO8-PadE22)*%
X152800000Y-81800008D03*
%TO.P,M1,E23,OUT_IO7*%
%TO.N,unconnected-(M1-OUT_IO7-PadE23)*%
X152800000Y-82600009D03*
%TO.P,M1,E24,OUT_IO11*%
%TO.N,unconnected-(M1-OUT_IO11-PadE24)*%
X152800000Y-83400007D03*
%TO.P,M1,E25,OUT_PWM7*%
%TO.N,unconnected-(M1-OUT_PWM7-PadE25)*%
X152800000Y-84200008D03*
%TO.P,M1,E26,OUT_PWM6*%
%TO.N,unconnected-(M1-OUT_PWM6-PadE26)*%
X152800000Y-85000006D03*
%TO.P,M1,E27,OUT_PWM1*%
%TO.N,unconnected-(M1-OUT_PWM1-PadE27)*%
X152800000Y-85800007D03*
%TO.P,M1,E28,OUT_PWM8*%
%TO.N,unconnected-(M1-OUT_PWM8-PadE28)*%
X152800000Y-86600008D03*
%TO.P,M1,E29,OUT_INJ3*%
%TO.N,unconnected-(M1-OUT_INJ3-PadE29)*%
X152800000Y-87400007D03*
%TO.P,M1,E30,OUT_INJ4*%
%TO.N,unconnected-(M1-OUT_INJ4-PadE30)*%
X152800000Y-88200008D03*
%TO.P,M1,E31,OUT_INJ5*%
%TO.N,unconnected-(M1-OUT_INJ5-PadE31)*%
X152799997Y-89000006D03*
%TO.P,M1,E32,OUT_INJ6*%
%TO.N,unconnected-(M1-OUT_INJ6-PadE32)*%
X152800000Y-89800009D03*
%TO.P,M1,E33,OUT_INJ7*%
%TO.N,unconnected-(M1-OUT_INJ7-PadE33)*%
X152800000Y-90600008D03*
%TO.P,M1,E34,OUT_INJ8*%
%TO.N,unconnected-(M1-OUT_INJ8-PadE34)*%
X152800000Y-91400006D03*
%TO.P,M1,E35,IO6*%
%TO.N,unconnected-(M1-IO6-PadE35)*%
X152800000Y-92200007D03*
%TO.P,M1,E36,IO7*%
%TO.N,unconnected-(M1-IO7-PadE36)*%
X152800000Y-93000008D03*
%TO.P,M1,E38,V5A_SWITCHABLE*%
%TO.N,unconnected-(M1-V5A_SWITCHABLE-PadE38)*%
X152799997Y-99700002D03*
%TO.P,M1,E39,GNDA*%
%TO.N,unconnected-(M1-GNDA-PadE39)*%
X152800000Y-100500003D03*
D11*
%TO.P,M1,G,GND*%
%TO.N,unconnected-(M1-GND-PadG)*%
X110899995Y-101850003D03*
D12*
X110899997Y-96000000D03*
D13*
X110899998Y-68000003D03*
D14*
X110899998Y-89800003D03*
D15*
X112700004Y-102900006D03*
D16*
X114099999Y-63000005D03*
D17*
X122600002Y-63000005D03*
D18*
X132450005Y-63000005D03*
D19*
X153000000Y-64500004D03*
D20*
X153000000Y-96350007D03*
D21*
X153000000Y-102000000D03*
D10*
%TO.P,M1,N1,USBID*%
%TO.N,unconnected-(M1-USBID-PadN1)*%
X152800000Y-63200004D03*
%TO.P,M1,N2,USBM*%
%TO.N,unconnected-(M1-USBM-PadN2)*%
X152000002Y-63200002D03*
%TO.P,M1,N3,USBP*%
%TO.N,unconnected-(M1-USBP-PadN3)*%
X151200001Y-63200002D03*
%TO.P,M1,N4,VBUS*%
%TO.N,unconnected-(M1-VBUS-PadN4)*%
X150400002Y-63200004D03*
%TO.P,M1,N5,BOOT0*%
%TO.N,unconnected-(M1-BOOT0-PadN5)*%
X149600001Y-63200004D03*
%TO.P,M1,N6,SWO*%
%TO.N,unconnected-(M1-SWO-PadN6)*%
X148800000Y-63200004D03*
%TO.P,M1,N7,SWDIO*%
%TO.N,unconnected-(M1-SWDIO-PadN7)*%
X148000002Y-63200004D03*
%TO.P,M1,N8,SWCLK*%
%TO.N,unconnected-(M1-SWCLK-PadN8)*%
X147200001Y-63200002D03*
%TO.P,M1,N9,nReset*%
%TO.N,unconnected-(M1-nReset-PadN9)*%
X146400003Y-63200004D03*
%TO.P,M1,N10,SPI3_CS*%
%TO.N,unconnected-(M1-SPI3_CS-PadN10)*%
X145600002Y-63200004D03*
%TO.P,M1,N11,SPI3_SCK*%
%TO.N,unconnected-(M1-SPI3_SCK-PadN11)*%
X144800001Y-63200004D03*
%TO.P,M1,N12,SPI3_MISO*%
%TO.N,unconnected-(M1-SPI3_MISO-PadN12)*%
X144000000Y-63200004D03*
%TO.P,M1,N13,SPI3_MOSI*%
%TO.N,unconnected-(M1-SPI3_MOSI-PadN13)*%
X143200001Y-63200004D03*
%TO.P,M1,N14,I2C_SCL*%
%TO.N,unconnected-(M1-I2C_SCL-PadN14)*%
X142400000Y-63200004D03*
%TO.P,M1,N15,I2C_SDA*%
%TO.N,unconnected-(M1-I2C_SDA-PadN15)*%
X141599999Y-63200002D03*
%TO.P,M1,N16,IO1*%
%TO.N,unconnected-(M1-IO1-PadN16)*%
X140799999Y-63200002D03*
%TO.P,M1,N17,UART2_TX*%
%TO.N,unconnected-(M1-UART2_TX-PadN17)*%
X140000000Y-63200004D03*
%TO.P,M1,N18,UART2_RX*%
%TO.N,unconnected-(M1-UART2_RX-PadN18)*%
X139199999Y-63200004D03*
%TO.P,M1,N19,IO2*%
%TO.N,unconnected-(M1-IO2-PadN19)*%
X138400001Y-63200004D03*
%TO.P,M1,N20,IO4*%
%TO.N,unconnected-(M1-IO4-PadN20)*%
X137600000Y-63200004D03*
%TO.P,M1,N21,IO3*%
%TO.N,unconnected-(M1-IO3-PadN21)*%
X136800001Y-63200002D03*
%TO.P,M1,N22,V33*%
%TO.N,unconnected-(M1-V33-PadN22)*%
X136000000Y-63200004D03*
%TO.P,M1,N23,IO5*%
%TO.N,unconnected-(M1-IO5-PadN23)*%
X135200000Y-63200004D03*
%TO.P,M1,N24,UART8_RX*%
%TO.N,unconnected-(M1-UART8_RX-PadN24)*%
X129700000Y-63200004D03*
%TO.P,M1,N25,UART8_TX*%
%TO.N,unconnected-(M1-UART8_TX-PadN25)*%
X128899999Y-63200004D03*
%TO.P,M1,N26,IN_VIGN*%
%TO.N,unconnected-(M1-IN_VIGN-PadN26)*%
X128100001Y-63200004D03*
%TO.P,M1,N27,VBAT*%
%TO.N,unconnected-(M1-VBAT-PadN27)*%
X127300003Y-63200004D03*
%TO.P,M1,N28,V33_SWITCHABLE*%
%TO.N,unconnected-(M1-V33_SWITCHABLE-PadN28)*%
X126500004Y-63200004D03*
%TO.P,M1,N29,OUT_PWR_EN*%
%TO.N,unconnected-(M1-OUT_PWR_EN-PadN29)*%
X118700000Y-63200004D03*
%TO.P,M1,N30,V5A_SWITCHABLE*%
%TO.N,unconnected-(M1-V5A_SWITCHABLE-PadN30)*%
X117900001Y-63200004D03*
%TO.P,M1,N31,VCC*%
%TO.N,unconnected-(M1-VCC-PadN31)*%
X117100003Y-63200004D03*
%TO.P,M1,N32,V33*%
%TO.N,unconnected-(M1-V33-PadN32)*%
X111099999Y-63200004D03*
%TO.P,M1,S1,IN_D4*%
%TO.N,unconnected-(M1-IN_D4-PadS1)*%
X152199999Y-102700009D03*
%TO.P,M1,S2,IN_D3*%
%TO.N,unconnected-(M1-IN_D3-PadS2)*%
X150999998Y-102700007D03*
%TO.P,M1,S3,IN_D2*%
%TO.N,unconnected-(M1-IN_D2-PadS3)*%
X149800001Y-102700007D03*
%TO.P,M1,S4,IN_D1*%
%TO.N,unconnected-(M1-IN_D1-PadS4)*%
X148600001Y-102700009D03*
%TO.P,M1,S5,VREF2*%
%TO.N,unconnected-(M1-VREF2-PadS5)*%
X147400001Y-102700007D03*
%TO.P,M1,S6,IN_SENS4*%
%TO.N,unconnected-(M1-IN_SENS4-PadS6)*%
X146300013Y-102700007D03*
%TO.P,M1,S7,IN_SENS3*%
%TO.N,unconnected-(M1-IN_SENS3-PadS7)*%
X145100013Y-102700007D03*
%TO.P,M1,S8,IN_SENS2*%
%TO.N,unconnected-(M1-IN_SENS2-PadS8)*%
X143900015Y-102700009D03*
%TO.P,M1,S9,IN_SENS1*%
%TO.N,unconnected-(M1-IN_SENS1-PadS9)*%
X142700015Y-102700007D03*
%TO.P,M1,S10,IN_AUX4*%
%TO.N,unconnected-(M1-IN_AUX4-PadS10)*%
X141500012Y-102700007D03*
%TO.P,M1,S11,IN_AUX3*%
%TO.N,unconnected-(M1-IN_AUX3-PadS11)*%
X140300010Y-102700009D03*
%TO.P,M1,S12,IN_AUX2*%
%TO.N,unconnected-(M1-IN_AUX2-PadS12)*%
X139100012Y-102700007D03*
%TO.P,M1,S13,IN_AUX1*%
%TO.N,unconnected-(M1-IN_AUX1-PadS13)*%
X137900014Y-102700007D03*
%TO.P,M1,S14,IN_RES2*%
%TO.N,unconnected-(M1-IN_RES2-PadS14)*%
X136700007Y-102700007D03*
%TO.P,M1,S15,IN_O2S2*%
%TO.N,unconnected-(M1-IN_O2S2-PadS15)*%
X135500007Y-102700007D03*
%TO.P,M1,S16,IN_O2S*%
%TO.N,unconnected-(M1-IN_O2S-PadS16)*%
X134300009Y-102700007D03*
%TO.P,M1,S17,IN_RES1*%
%TO.N,unconnected-(M1-IN_RES1-PadS17)*%
X133100009Y-102700007D03*
%TO.P,M1,S18,IN_RES3*%
%TO.N,unconnected-(M1-IN_RES3-PadS18)*%
X131900004Y-102700007D03*
%TO.P,M1,S19,IN_MAP3*%
%TO.N,unconnected-(M1-IN_MAP3-PadS19)*%
X130700003Y-102700007D03*
%TO.P,M1,S20,IN_MAP2*%
%TO.N,unconnected-(M1-IN_MAP2-PadS20)*%
X129500006Y-102700009D03*
%TO.P,M1,S21,IN_MAP1*%
%TO.N,unconnected-(M1-IN_MAP1-PadS21)*%
X128300006Y-102700007D03*
%TO.P,M1,S22,IN_CRANK*%
%TO.N,unconnected-(M1-IN_CRANK-PadS22)*%
X127100003Y-102700009D03*
%TO.P,M1,S23,IN_KNOCK*%
%TO.N,unconnected-(M1-IN_KNOCK-PadS23)*%
X125900003Y-102700007D03*
%TO.P,M1,S24,IN_CAM*%
%TO.N,unconnected-(M1-IN_CAM-PadS24)*%
X124700008Y-102700007D03*
%TO.P,M1,S25,IN_VSS*%
%TO.N,unconnected-(M1-IN_VSS-PadS25)*%
X123500005Y-102700009D03*
%TO.P,M1,S26,IN_IAT*%
%TO.N,unconnected-(M1-IN_IAT-PadS26)*%
X122300000Y-102700007D03*
%TO.P,M1,S27,IN_AT1*%
%TO.N,unconnected-(M1-IN_AT1-PadS27)*%
X121100000Y-102700009D03*
%TO.P,M1,S28,IN_CLT*%
%TO.N,unconnected-(M1-IN_CLT-PadS28)*%
X119900002Y-102700007D03*
%TO.P,M1,S29,IN_AT2*%
%TO.N,unconnected-(M1-IN_AT2-PadS29)*%
X118700002Y-102700007D03*
%TO.P,M1,S30,IN_TPS*%
%TO.N,unconnected-(M1-IN_TPS-PadS30)*%
X117499997Y-102700007D03*
%TO.P,M1,S31,IN_PPS*%
%TO.N,unconnected-(M1-IN_PPS-PadS31)*%
X116299997Y-102700007D03*
%TO.P,M1,S32,IN_TPS2*%
%TO.N,unconnected-(M1-IN_TPS2-PadS32)*%
X115099999Y-102700007D03*
%TO.P,M1,S33,IN_PPS2*%
%TO.N,unconnected-(M1-IN_PPS2-PadS33)*%
X113899999Y-102700007D03*
%TO.P,M1,S35,VREF1*%
%TO.N,unconnected-(M1-VREF1-PadS35)*%
X111499999Y-102700007D03*
%TO.P,M1,W1,GNDA*%
%TO.N,unconnected-(M1-GNDA-PadW1)*%
X111099997Y-100200004D03*
%TO.P,M1,W2,V5A_SWITCHABLE*%
%TO.N,unconnected-(M1-V5A_SWITCHABLE-PadW2)*%
X111099997Y-99200003D03*
%TO.P,M1,W3,V33_REF*%
%TO.N,unconnected-(M1-V33_REF-PadW3)*%
X111099999Y-92800001D03*
%TO.P,M1,W3a,BOOT1*%
%TO.N,unconnected-(M1-BOOT1-PadW3a)*%
X111099998Y-86800003D03*
%TO.P,M1,W4,IGN8*%
%TO.N,unconnected-(M1-IGN8-PadW4)*%
X111099999Y-85800005D03*
%TO.P,M1,W5,IGN7*%
%TO.N,unconnected-(M1-IGN7-PadW5)*%
X111099999Y-84800004D03*
%TO.P,M1,W6,IGN6*%
%TO.N,unconnected-(M1-IGN6-PadW6)*%
X111099999Y-83800006D03*
%TO.P,M1,W7,IGN5*%
%TO.N,unconnected-(M1-IGN5-PadW7)*%
X111099999Y-82800006D03*
%TO.P,M1,W8,IGN4*%
%TO.N,unconnected-(M1-IGN4-PadW8)*%
X111099999Y-81800005D03*
%TO.P,M1,W9,IGN3*%
%TO.N,unconnected-(M1-IGN3-PadW9)*%
X111099999Y-80800007D03*
%TO.P,M1,W10,IGN2*%
%TO.N,unconnected-(M1-IGN2-PadW10)*%
X111099999Y-79800007D03*
%TO.P,M1,W11,IGN1*%
%TO.N,unconnected-(M1-IGN1-PadW11)*%
X111099999Y-78800009D03*
%TO.P,M1,W11a,LED_RED*%
%TO.N,unconnected-(M1-LED_RED-PadW11a)*%
X111099998Y-77800003D03*
%TO.P,M1,W11b,LED_GREEN*%
%TO.N,unconnected-(M1-LED_GREEN-PadW11b)*%
X111099998Y-76800003D03*
%TO.P,M1,W11c,LED_BLUE*%
%TO.N,unconnected-(M1-LED_BLUE-PadW11c)*%
X111099998Y-75800003D03*
%TO.P,M1,W11d,LED_YELLOW*%
%TO.N,unconnected-(M1-LED_YELLOW-PadW11d)*%
X111099998Y-74800003D03*
%TO.P,M1,W12,CANH*%
%TO.N,unconnected-(M1-CANH-PadW12)*%
X111099998Y-73800003D03*
%TO.P,M1,W13,CANL*%
%TO.N,unconnected-(M1-CANL-PadW13)*%
X111099998Y-72800003D03*
%TD*%
M02*
