G04 #@! TF.GenerationSoftware,KiCad,Pcbnew,8.0.9-8.0.9-0~ubuntu24.04.1*
G04 #@! TF.CreationDate,2026-07-03T21:36:16+00:00*
G04 #@! TF.ProjectId,RRModule,52524d6f-6475-46c6-952e-6b696361645f,rev?*
G04 #@! TF.SameCoordinates,Original*
G04 #@! TF.FileFunction,Legend,Bot*
G04 #@! TF.FilePolarity,Positive*
%FSLAX46Y46*%
G04 Gerber Fmt 4.6, Leading zero omitted, Abs format (unit mm)*
G04 Created by KiCad (PCBNEW 8.0.9-8.0.9-0~ubuntu24.04.1) date 2026-07-03 21:36:16*
%MOMM*%
%LPD*%
G01*
G04 APERTURE LIST*
%ADD10C,0.200000*%
G04 APERTURE END LIST*
D10*
G04 #@! TO.C,M1*
X10325002Y49825003D02*
X10324999Y9925004D01*
X11624999Y9925004D02*
X10324999Y9925004D01*
X52425002Y49825003D02*
X10325002Y49825003D01*
X52425002Y49825003D02*
X52425002Y9925004D01*
X52425002Y9925004D02*
X11624999Y9925004D01*
G04 #@! TO.C,M4*
X56124999Y31650001D02*
X56124999Y19575001D01*
X56374618Y31899619D02*
X56124999Y31650001D01*
X57125000Y19575001D02*
X56124999Y19575001D01*
X57875001Y18825000D02*
X57125000Y19575001D01*
X57875001Y18825000D02*
X57875001Y18226291D01*
X63613351Y18226291D02*
X57875001Y18226291D01*
X63724999Y31899619D02*
X56374618Y31899619D01*
X63974999Y31649620D02*
X63724999Y31899619D01*
X63974999Y31649620D02*
X63974999Y18587939D01*
X63974999Y18587939D02*
X63613351Y18226291D01*
G04 #@! TO.C,M2*
X67424999Y59572827D02*
X78599999Y59611674D01*
X67424999Y53875005D02*
X67424999Y59572827D01*
X67424999Y53875005D02*
X67700003Y53599999D01*
X67700003Y52775000D02*
X67700003Y53599999D01*
X67700003Y52775000D02*
X67756205Y52725000D01*
X67756205Y52725000D02*
X78599999Y52725000D01*
X78599999Y52718797D02*
X78599999Y59611674D01*
G04 #@! TO.C,M3*
X64424997Y21000007D02*
X64425000Y50900000D01*
X64425000Y50900000D02*
X64925000Y51400000D01*
X64825002Y20600002D02*
X64424997Y21000007D01*
X77350003Y20600002D02*
X64825002Y20600002D01*
X77350003Y20600002D02*
X78900003Y22150002D01*
X77975006Y51400000D02*
X64925000Y51400000D01*
X78900003Y50475002D02*
X77975006Y51400000D01*
X78900003Y22150002D02*
X78900003Y50480000D01*
G04 #@! TO.C,M5*
X63100002Y10500000D02*
X63100002Y13700003D01*
X63100002Y-1600000D02*
X63100002Y8800002D01*
X63100002Y-3500000D02*
X63100002Y-3200000D01*
X63100002Y-3500000D02*
X78500002Y-3500000D01*
X64600002Y17099998D02*
X79900001Y17100000D01*
X79899999Y10400002D02*
X79899999Y15200002D01*
X79899999Y4200000D02*
X79899999Y6900000D01*
X79899999Y1500002D02*
X79899999Y2600005D01*
X79899999Y-2050000D02*
X79900004Y-500000D01*
X79900001Y16800002D02*
X79900001Y17100000D01*
G04 #@! TD*
M02*
