G04 #@! TF.GenerationSoftware,KiCad,Pcbnew,8.0.9-8.0.9-0~ubuntu24.04.1*
G04 #@! TF.CreationDate,2026-07-03T21:36:16+00:00*
G04 #@! TF.ProjectId,RRModule,52524d6f-6475-46c6-952e-6b696361645f,rev?*
G04 #@! TF.SameCoordinates,Original*
G04 #@! TF.FileFunction,Soldermask,Top*
G04 #@! TF.FilePolarity,Negative*
%FSLAX46Y46*%
G04 Gerber Fmt 4.6, Leading zero omitted, Abs format (unit mm)*
G04 Created by KiCad (PCBNEW 8.0.9-8.0.9-0~ubuntu24.04.1) date 2026-07-03 21:36:16*
%MOMM*%
%LPD*%
G01*
G04 APERTURE LIST*
%ADD10O,0.200000X0.399999*%
%ADD11C,0.599999*%
%ADD12O,0.499999X0.250000*%
%ADD13O,0.250000X0.499999*%
%ADD14C,1.500000*%
%ADD15C,0.600000*%
G04 APERTURE END LIST*
D10*
G04 #@! TO.C,M4*
X56225052Y31724621D03*
X56985031Y31724621D03*
X58160024Y31724621D03*
X59335011Y31724621D03*
X60174923Y31724621D03*
X60924995Y31724621D03*
X62100006Y31724621D03*
X63275003Y31724621D03*
D11*
X58235000Y21625014D03*
X56399990Y22050022D03*
X58449998Y22600019D03*
X58235003Y23474978D03*
X58159996Y24325001D03*
X56399990Y24650017D03*
X57709990Y25949984D03*
X56399990Y26600001D03*
X62325005Y19424998D03*
X58249999Y19725000D03*
G04 #@! TD*
D12*
G04 #@! TO.C,M2*
X78324995Y52900003D03*
D13*
X67975001Y52950001D03*
X68475002Y52950001D03*
D11*
X75024999Y53999999D03*
X74149997Y54524999D03*
X75325001Y55274997D03*
X75249998Y58824998D03*
G04 #@! TD*
G04 #@! TO.C,KDFI1*
G36*
G01*
X4681600Y6720000D02*
X4681600Y5220000D01*
G75*
G02*
X4580000Y5118400I-101600J0D01*
G01*
X3080000Y5118400D01*
G75*
G02*
X2978400Y5220000I0J101600D01*
G01*
X2978400Y6720000D01*
G75*
G02*
X3080000Y6821600I101600J0D01*
G01*
X4580000Y6821600D01*
G75*
G02*
X4681600Y6720000I0J-101600D01*
G01*
G37*
G36*
X5999621Y5137804D02*
G01*
X5987498Y5148158D01*
X5548158Y5587498D01*
X5519651Y5643446D01*
X5518400Y5659340D01*
X5518400Y6280660D01*
X5537804Y6340379D01*
X5548158Y6352502D01*
X5987498Y6791842D01*
X6043446Y6820349D01*
X6059340Y6821600D01*
X6680660Y6821600D01*
X6740379Y6802196D01*
X6752502Y6791842D01*
X7191842Y6352502D01*
X7220349Y6296554D01*
X7221600Y6280660D01*
X7221600Y5659340D01*
X7202196Y5599621D01*
X7191842Y5587498D01*
X6752502Y5148158D01*
X6696554Y5119651D01*
X6680660Y5118400D01*
X6059340Y5118400D01*
X5999621Y5137804D01*
G37*
G36*
X3459621Y7677804D02*
G01*
X3447498Y7688158D01*
X3008158Y8127498D01*
X2979651Y8183446D01*
X2978400Y8199340D01*
X2978400Y8820660D01*
X2997804Y8880379D01*
X3008158Y8892502D01*
X3447498Y9331842D01*
X3503446Y9360349D01*
X3519340Y9361600D01*
X4140660Y9361600D01*
X4200379Y9342196D01*
X4212502Y9331842D01*
X4651842Y8892502D01*
X4680349Y8836554D01*
X4681600Y8820660D01*
X4681600Y8199340D01*
X4662196Y8139621D01*
X4651842Y8127498D01*
X4212502Y7688158D01*
X4156554Y7659651D01*
X4140660Y7658400D01*
X3519340Y7658400D01*
X3459621Y7677804D01*
G37*
G36*
X5999621Y7677804D02*
G01*
X5987498Y7688158D01*
X5548158Y8127498D01*
X5519651Y8183446D01*
X5518400Y8199340D01*
X5518400Y8820660D01*
X5537804Y8880379D01*
X5548158Y8892502D01*
X5987498Y9331842D01*
X6043446Y9360349D01*
X6059340Y9361600D01*
X6680660Y9361600D01*
X6740379Y9342196D01*
X6752502Y9331842D01*
X7191842Y8892502D01*
X7220349Y8836554D01*
X7221600Y8820660D01*
X7221600Y8199340D01*
X7202196Y8139621D01*
X7191842Y8127498D01*
X6752502Y7688158D01*
X6696554Y7659651D01*
X6680660Y7658400D01*
X6059340Y7658400D01*
X5999621Y7677804D01*
G37*
G36*
X3459621Y10217804D02*
G01*
X3447498Y10228158D01*
X3008158Y10667498D01*
X2979651Y10723446D01*
X2978400Y10739340D01*
X2978400Y11360660D01*
X2997804Y11420379D01*
X3008158Y11432502D01*
X3447498Y11871842D01*
X3503446Y11900349D01*
X3519340Y11901600D01*
X4140660Y11901600D01*
X4200379Y11882196D01*
X4212502Y11871842D01*
X4651842Y11432502D01*
X4680349Y11376554D01*
X4681600Y11360660D01*
X4681600Y10739340D01*
X4662196Y10679621D01*
X4651842Y10667498D01*
X4212502Y10228158D01*
X4156554Y10199651D01*
X4140660Y10198400D01*
X3519340Y10198400D01*
X3459621Y10217804D01*
G37*
G36*
X5999621Y10217804D02*
G01*
X5987498Y10228158D01*
X5548158Y10667498D01*
X5519651Y10723446D01*
X5518400Y10739340D01*
X5518400Y11360660D01*
X5537804Y11420379D01*
X5548158Y11432502D01*
X5987498Y11871842D01*
X6043446Y11900349D01*
X6059340Y11901600D01*
X6680660Y11901600D01*
X6740379Y11882196D01*
X6752502Y11871842D01*
X7191842Y11432502D01*
X7220349Y11376554D01*
X7221600Y11360660D01*
X7221600Y10739340D01*
X7202196Y10679621D01*
X7191842Y10667498D01*
X6752502Y10228158D01*
X6696554Y10199651D01*
X6680660Y10198400D01*
X6059340Y10198400D01*
X5999621Y10217804D01*
G37*
G36*
X3459621Y12757804D02*
G01*
X3447498Y12768158D01*
X3008158Y13207498D01*
X2979651Y13263446D01*
X2978400Y13279340D01*
X2978400Y13900660D01*
X2997804Y13960379D01*
X3008158Y13972502D01*
X3447498Y14411842D01*
X3503446Y14440349D01*
X3519340Y14441600D01*
X4140660Y14441600D01*
X4200379Y14422196D01*
X4212502Y14411842D01*
X4651842Y13972502D01*
X4680349Y13916554D01*
X4681600Y13900660D01*
X4681600Y13279340D01*
X4662196Y13219621D01*
X4651842Y13207498D01*
X4212502Y12768158D01*
X4156554Y12739651D01*
X4140660Y12738400D01*
X3519340Y12738400D01*
X3459621Y12757804D01*
G37*
G36*
X5999621Y12757804D02*
G01*
X5987498Y12768158D01*
X5548158Y13207498D01*
X5519651Y13263446D01*
X5518400Y13279340D01*
X5518400Y13900660D01*
X5537804Y13960379D01*
X5548158Y13972502D01*
X5987498Y14411842D01*
X6043446Y14440349D01*
X6059340Y14441600D01*
X6680660Y14441600D01*
X6740379Y14422196D01*
X6752502Y14411842D01*
X7191842Y13972502D01*
X7220349Y13916554D01*
X7221600Y13900660D01*
X7221600Y13279340D01*
X7202196Y13219621D01*
X7191842Y13207498D01*
X6752502Y12768158D01*
X6696554Y12739651D01*
X6680660Y12738400D01*
X6059340Y12738400D01*
X5999621Y12757804D01*
G37*
G36*
X3459621Y15297804D02*
G01*
X3447498Y15308158D01*
X3008158Y15747498D01*
X2979651Y15803446D01*
X2978400Y15819340D01*
X2978400Y16440660D01*
X2997804Y16500379D01*
X3008158Y16512502D01*
X3447498Y16951842D01*
X3503446Y16980349D01*
X3519340Y16981600D01*
X4140660Y16981600D01*
X4200379Y16962196D01*
X4212502Y16951842D01*
X4651842Y16512502D01*
X4680349Y16456554D01*
X4681600Y16440660D01*
X4681600Y15819340D01*
X4662196Y15759621D01*
X4651842Y15747498D01*
X4212502Y15308158D01*
X4156554Y15279651D01*
X4140660Y15278400D01*
X3519340Y15278400D01*
X3459621Y15297804D01*
G37*
G36*
X5999621Y15297804D02*
G01*
X5987498Y15308158D01*
X5548158Y15747498D01*
X5519651Y15803446D01*
X5518400Y15819340D01*
X5518400Y16440660D01*
X5537804Y16500379D01*
X5548158Y16512502D01*
X5987498Y16951842D01*
X6043446Y16980349D01*
X6059340Y16981600D01*
X6680660Y16981600D01*
X6740379Y16962196D01*
X6752502Y16951842D01*
X7191842Y16512502D01*
X7220349Y16456554D01*
X7221600Y16440660D01*
X7221600Y15819340D01*
X7202196Y15759621D01*
X7191842Y15747498D01*
X6752502Y15308158D01*
X6696554Y15279651D01*
X6680660Y15278400D01*
X6059340Y15278400D01*
X5999621Y15297804D01*
G37*
G36*
X3459621Y17837804D02*
G01*
X3447498Y17848158D01*
X3008158Y18287498D01*
X2979651Y18343446D01*
X2978400Y18359340D01*
X2978400Y18980660D01*
X2997804Y19040379D01*
X3008158Y19052502D01*
X3447498Y19491842D01*
X3503446Y19520349D01*
X3519340Y19521600D01*
X4140660Y19521600D01*
X4200379Y19502196D01*
X4212502Y19491842D01*
X4651842Y19052502D01*
X4680349Y18996554D01*
X4681600Y18980660D01*
X4681600Y18359340D01*
X4662196Y18299621D01*
X4651842Y18287498D01*
X4212502Y17848158D01*
X4156554Y17819651D01*
X4140660Y17818400D01*
X3519340Y17818400D01*
X3459621Y17837804D01*
G37*
G36*
X5999621Y17837804D02*
G01*
X5987498Y17848158D01*
X5548158Y18287498D01*
X5519651Y18343446D01*
X5518400Y18359340D01*
X5518400Y18980660D01*
X5537804Y19040379D01*
X5548158Y19052502D01*
X5987498Y19491842D01*
X6043446Y19520349D01*
X6059340Y19521600D01*
X6680660Y19521600D01*
X6740379Y19502196D01*
X6752502Y19491842D01*
X7191842Y19052502D01*
X7220349Y18996554D01*
X7221600Y18980660D01*
X7221600Y18359340D01*
X7202196Y18299621D01*
X7191842Y18287498D01*
X6752502Y17848158D01*
X6696554Y17819651D01*
X6680660Y17818400D01*
X6059340Y17818400D01*
X5999621Y17837804D01*
G37*
G36*
X3459621Y20377804D02*
G01*
X3447498Y20388158D01*
X3008158Y20827498D01*
X2979651Y20883446D01*
X2978400Y20899340D01*
X2978400Y21520660D01*
X2997804Y21580379D01*
X3008158Y21592502D01*
X3447498Y22031842D01*
X3503446Y22060349D01*
X3519340Y22061600D01*
X4140660Y22061600D01*
X4200379Y22042196D01*
X4212502Y22031842D01*
X4651842Y21592502D01*
X4680349Y21536554D01*
X4681600Y21520660D01*
X4681600Y20899340D01*
X4662196Y20839621D01*
X4651842Y20827498D01*
X4212502Y20388158D01*
X4156554Y20359651D01*
X4140660Y20358400D01*
X3519340Y20358400D01*
X3459621Y20377804D01*
G37*
G36*
X5999621Y20377804D02*
G01*
X5987498Y20388158D01*
X5548158Y20827498D01*
X5519651Y20883446D01*
X5518400Y20899340D01*
X5518400Y21520660D01*
X5537804Y21580379D01*
X5548158Y21592502D01*
X5987498Y22031842D01*
X6043446Y22060349D01*
X6059340Y22061600D01*
X6680660Y22061600D01*
X6740379Y22042196D01*
X6752502Y22031842D01*
X7191842Y21592502D01*
X7220349Y21536554D01*
X7221600Y21520660D01*
X7221600Y20899340D01*
X7202196Y20839621D01*
X7191842Y20827498D01*
X6752502Y20388158D01*
X6696554Y20359651D01*
X6680660Y20358400D01*
X6059340Y20358400D01*
X5999621Y20377804D01*
G37*
G36*
X3459621Y22917804D02*
G01*
X3447498Y22928158D01*
X3008158Y23367498D01*
X2979651Y23423446D01*
X2978400Y23439340D01*
X2978400Y24060660D01*
X2997804Y24120379D01*
X3008158Y24132502D01*
X3447498Y24571842D01*
X3503446Y24600349D01*
X3519340Y24601600D01*
X4140660Y24601600D01*
X4200379Y24582196D01*
X4212502Y24571842D01*
X4651842Y24132502D01*
X4680349Y24076554D01*
X4681600Y24060660D01*
X4681600Y23439340D01*
X4662196Y23379621D01*
X4651842Y23367498D01*
X4212502Y22928158D01*
X4156554Y22899651D01*
X4140660Y22898400D01*
X3519340Y22898400D01*
X3459621Y22917804D01*
G37*
G36*
X5999621Y22917804D02*
G01*
X5987498Y22928158D01*
X5548158Y23367498D01*
X5519651Y23423446D01*
X5518400Y23439340D01*
X5518400Y24060660D01*
X5537804Y24120379D01*
X5548158Y24132502D01*
X5987498Y24571842D01*
X6043446Y24600349D01*
X6059340Y24601600D01*
X6680660Y24601600D01*
X6740379Y24582196D01*
X6752502Y24571842D01*
X7191842Y24132502D01*
X7220349Y24076554D01*
X7221600Y24060660D01*
X7221600Y23439340D01*
X7202196Y23379621D01*
X7191842Y23367498D01*
X6752502Y22928158D01*
X6696554Y22899651D01*
X6680660Y22898400D01*
X6059340Y22898400D01*
X5999621Y22917804D01*
G37*
G36*
X3459621Y25457804D02*
G01*
X3447498Y25468158D01*
X3008158Y25907498D01*
X2979651Y25963446D01*
X2978400Y25979340D01*
X2978400Y26600660D01*
X2997804Y26660379D01*
X3008158Y26672502D01*
X3447498Y27111842D01*
X3503446Y27140349D01*
X3519340Y27141600D01*
X4140660Y27141600D01*
X4200379Y27122196D01*
X4212502Y27111842D01*
X4651842Y26672502D01*
X4680349Y26616554D01*
X4681600Y26600660D01*
X4681600Y25979340D01*
X4662196Y25919621D01*
X4651842Y25907498D01*
X4212502Y25468158D01*
X4156554Y25439651D01*
X4140660Y25438400D01*
X3519340Y25438400D01*
X3459621Y25457804D01*
G37*
G36*
X5999621Y25457804D02*
G01*
X5987498Y25468158D01*
X5548158Y25907498D01*
X5519651Y25963446D01*
X5518400Y25979340D01*
X5518400Y26600660D01*
X5537804Y26660379D01*
X5548158Y26672502D01*
X5987498Y27111842D01*
X6043446Y27140349D01*
X6059340Y27141600D01*
X6680660Y27141600D01*
X6740379Y27122196D01*
X6752502Y27111842D01*
X7191842Y26672502D01*
X7220349Y26616554D01*
X7221600Y26600660D01*
X7221600Y25979340D01*
X7202196Y25919621D01*
X7191842Y25907498D01*
X6752502Y25468158D01*
X6696554Y25439651D01*
X6680660Y25438400D01*
X6059340Y25438400D01*
X5999621Y25457804D01*
G37*
G36*
X3459621Y27997804D02*
G01*
X3447498Y28008158D01*
X3008158Y28447498D01*
X2979651Y28503446D01*
X2978400Y28519340D01*
X2978400Y29140660D01*
X2997804Y29200379D01*
X3008158Y29212502D01*
X3447498Y29651842D01*
X3503446Y29680349D01*
X3519340Y29681600D01*
X4140660Y29681600D01*
X4200379Y29662196D01*
X4212502Y29651842D01*
X4651842Y29212502D01*
X4680349Y29156554D01*
X4681600Y29140660D01*
X4681600Y28519340D01*
X4662196Y28459621D01*
X4651842Y28447498D01*
X4212502Y28008158D01*
X4156554Y27979651D01*
X4140660Y27978400D01*
X3519340Y27978400D01*
X3459621Y27997804D01*
G37*
G36*
X5999621Y27997804D02*
G01*
X5987498Y28008158D01*
X5548158Y28447498D01*
X5519651Y28503446D01*
X5518400Y28519340D01*
X5518400Y29140660D01*
X5537804Y29200379D01*
X5548158Y29212502D01*
X5987498Y29651842D01*
X6043446Y29680349D01*
X6059340Y29681600D01*
X6680660Y29681600D01*
X6740379Y29662196D01*
X6752502Y29651842D01*
X7191842Y29212502D01*
X7220349Y29156554D01*
X7221600Y29140660D01*
X7221600Y28519340D01*
X7202196Y28459621D01*
X7191842Y28447498D01*
X6752502Y28008158D01*
X6696554Y27979651D01*
X6680660Y27978400D01*
X6059340Y27978400D01*
X5999621Y27997804D01*
G37*
G36*
X3459621Y30537804D02*
G01*
X3447498Y30548158D01*
X3008158Y30987498D01*
X2979651Y31043446D01*
X2978400Y31059340D01*
X2978400Y31680660D01*
X2997804Y31740379D01*
X3008158Y31752502D01*
X3447498Y32191842D01*
X3503446Y32220349D01*
X3519340Y32221600D01*
X4140660Y32221600D01*
X4200379Y32202196D01*
X4212502Y32191842D01*
X4651842Y31752502D01*
X4680349Y31696554D01*
X4681600Y31680660D01*
X4681600Y31059340D01*
X4662196Y30999621D01*
X4651842Y30987498D01*
X4212502Y30548158D01*
X4156554Y30519651D01*
X4140660Y30518400D01*
X3519340Y30518400D01*
X3459621Y30537804D01*
G37*
G36*
X5999621Y30537804D02*
G01*
X5987498Y30548158D01*
X5548158Y30987498D01*
X5519651Y31043446D01*
X5518400Y31059340D01*
X5518400Y31680660D01*
X5537804Y31740379D01*
X5548158Y31752502D01*
X5987498Y32191842D01*
X6043446Y32220349D01*
X6059340Y32221600D01*
X6680660Y32221600D01*
X6740379Y32202196D01*
X6752502Y32191842D01*
X7191842Y31752502D01*
X7220349Y31696554D01*
X7221600Y31680660D01*
X7221600Y31059340D01*
X7202196Y30999621D01*
X7191842Y30987498D01*
X6752502Y30548158D01*
X6696554Y30519651D01*
X6680660Y30518400D01*
X6059340Y30518400D01*
X5999621Y30537804D01*
G37*
G36*
X3459621Y33077804D02*
G01*
X3447498Y33088158D01*
X3008158Y33527498D01*
X2979651Y33583446D01*
X2978400Y33599340D01*
X2978400Y34220660D01*
X2997804Y34280379D01*
X3008158Y34292502D01*
X3447498Y34731842D01*
X3503446Y34760349D01*
X3519340Y34761600D01*
X4140660Y34761600D01*
X4200379Y34742196D01*
X4212502Y34731842D01*
X4651842Y34292502D01*
X4680349Y34236554D01*
X4681600Y34220660D01*
X4681600Y33599340D01*
X4662196Y33539621D01*
X4651842Y33527498D01*
X4212502Y33088158D01*
X4156554Y33059651D01*
X4140660Y33058400D01*
X3519340Y33058400D01*
X3459621Y33077804D01*
G37*
G36*
X5999621Y33077804D02*
G01*
X5987498Y33088158D01*
X5548158Y33527498D01*
X5519651Y33583446D01*
X5518400Y33599340D01*
X5518400Y34220660D01*
X5537804Y34280379D01*
X5548158Y34292502D01*
X5987498Y34731842D01*
X6043446Y34760349D01*
X6059340Y34761600D01*
X6680660Y34761600D01*
X6740379Y34742196D01*
X6752502Y34731842D01*
X7191842Y34292502D01*
X7220349Y34236554D01*
X7221600Y34220660D01*
X7221600Y33599340D01*
X7202196Y33539621D01*
X7191842Y33527498D01*
X6752502Y33088158D01*
X6696554Y33059651D01*
X6680660Y33058400D01*
X6059340Y33058400D01*
X5999621Y33077804D01*
G37*
G36*
X3459621Y35617804D02*
G01*
X3447498Y35628158D01*
X3008158Y36067498D01*
X2979651Y36123446D01*
X2978400Y36139340D01*
X2978400Y36760660D01*
X2997804Y36820379D01*
X3008158Y36832502D01*
X3447498Y37271842D01*
X3503446Y37300349D01*
X3519340Y37301600D01*
X4140660Y37301600D01*
X4200379Y37282196D01*
X4212502Y37271842D01*
X4651842Y36832502D01*
X4680349Y36776554D01*
X4681600Y36760660D01*
X4681600Y36139340D01*
X4662196Y36079621D01*
X4651842Y36067498D01*
X4212502Y35628158D01*
X4156554Y35599651D01*
X4140660Y35598400D01*
X3519340Y35598400D01*
X3459621Y35617804D01*
G37*
G36*
X5999621Y35617804D02*
G01*
X5987498Y35628158D01*
X5548158Y36067498D01*
X5519651Y36123446D01*
X5518400Y36139340D01*
X5518400Y36760660D01*
X5537804Y36820379D01*
X5548158Y36832502D01*
X5987498Y37271842D01*
X6043446Y37300349D01*
X6059340Y37301600D01*
X6680660Y37301600D01*
X6740379Y37282196D01*
X6752502Y37271842D01*
X7191842Y36832502D01*
X7220349Y36776554D01*
X7221600Y36760660D01*
X7221600Y36139340D01*
X7202196Y36079621D01*
X7191842Y36067498D01*
X6752502Y35628158D01*
X6696554Y35599651D01*
X6680660Y35598400D01*
X6059340Y35598400D01*
X5999621Y35617804D01*
G37*
G36*
X3459621Y38157804D02*
G01*
X3447498Y38168158D01*
X3008158Y38607498D01*
X2979651Y38663446D01*
X2978400Y38679340D01*
X2978400Y39300660D01*
X2997804Y39360379D01*
X3008158Y39372502D01*
X3447498Y39811842D01*
X3503446Y39840349D01*
X3519340Y39841600D01*
X4140660Y39841600D01*
X4200379Y39822196D01*
X4212502Y39811842D01*
X4651842Y39372502D01*
X4680349Y39316554D01*
X4681600Y39300660D01*
X4681600Y38679340D01*
X4662196Y38619621D01*
X4651842Y38607498D01*
X4212502Y38168158D01*
X4156554Y38139651D01*
X4140660Y38138400D01*
X3519340Y38138400D01*
X3459621Y38157804D01*
G37*
G36*
X5999621Y38157804D02*
G01*
X5987498Y38168158D01*
X5548158Y38607498D01*
X5519651Y38663446D01*
X5518400Y38679340D01*
X5518400Y39300660D01*
X5537804Y39360379D01*
X5548158Y39372502D01*
X5987498Y39811842D01*
X6043446Y39840349D01*
X6059340Y39841600D01*
X6680660Y39841600D01*
X6740379Y39822196D01*
X6752502Y39811842D01*
X7191842Y39372502D01*
X7220349Y39316554D01*
X7221600Y39300660D01*
X7221600Y38679340D01*
X7202196Y38619621D01*
X7191842Y38607498D01*
X6752502Y38168158D01*
X6696554Y38139651D01*
X6680660Y38138400D01*
X6059340Y38138400D01*
X5999621Y38157804D01*
G37*
G36*
X3459621Y40697804D02*
G01*
X3447498Y40708158D01*
X3008158Y41147498D01*
X2979651Y41203446D01*
X2978400Y41219340D01*
X2978400Y41840660D01*
X2997804Y41900379D01*
X3008158Y41912502D01*
X3447498Y42351842D01*
X3503446Y42380349D01*
X3519340Y42381600D01*
X4140660Y42381600D01*
X4200379Y42362196D01*
X4212502Y42351842D01*
X4651842Y41912502D01*
X4680349Y41856554D01*
X4681600Y41840660D01*
X4681600Y41219340D01*
X4662196Y41159621D01*
X4651842Y41147498D01*
X4212502Y40708158D01*
X4156554Y40679651D01*
X4140660Y40678400D01*
X3519340Y40678400D01*
X3459621Y40697804D01*
G37*
G36*
X5999621Y40697804D02*
G01*
X5987498Y40708158D01*
X5548158Y41147498D01*
X5519651Y41203446D01*
X5518400Y41219340D01*
X5518400Y41840660D01*
X5537804Y41900379D01*
X5548158Y41912502D01*
X5987498Y42351842D01*
X6043446Y42380349D01*
X6059340Y42381600D01*
X6680660Y42381600D01*
X6740379Y42362196D01*
X6752502Y42351842D01*
X7191842Y41912502D01*
X7220349Y41856554D01*
X7221600Y41840660D01*
X7221600Y41219340D01*
X7202196Y41159621D01*
X7191842Y41147498D01*
X6752502Y40708158D01*
X6696554Y40679651D01*
X6680660Y40678400D01*
X6059340Y40678400D01*
X5999621Y40697804D01*
G37*
G36*
X3459621Y43237804D02*
G01*
X3447498Y43248158D01*
X3008158Y43687498D01*
X2979651Y43743446D01*
X2978400Y43759340D01*
X2978400Y44380660D01*
X2997804Y44440379D01*
X3008158Y44452502D01*
X3447498Y44891842D01*
X3503446Y44920349D01*
X3519340Y44921600D01*
X4140660Y44921600D01*
X4200379Y44902196D01*
X4212502Y44891842D01*
X4651842Y44452502D01*
X4680349Y44396554D01*
X4681600Y44380660D01*
X4681600Y43759340D01*
X4662196Y43699621D01*
X4651842Y43687498D01*
X4212502Y43248158D01*
X4156554Y43219651D01*
X4140660Y43218400D01*
X3519340Y43218400D01*
X3459621Y43237804D01*
G37*
G36*
X5999621Y43237804D02*
G01*
X5987498Y43248158D01*
X5548158Y43687498D01*
X5519651Y43743446D01*
X5518400Y43759340D01*
X5518400Y44380660D01*
X5537804Y44440379D01*
X5548158Y44452502D01*
X5987498Y44891842D01*
X6043446Y44920349D01*
X6059340Y44921600D01*
X6680660Y44921600D01*
X6740379Y44902196D01*
X6752502Y44891842D01*
X7191842Y44452502D01*
X7220349Y44396554D01*
X7221600Y44380660D01*
X7221600Y43759340D01*
X7202196Y43699621D01*
X7191842Y43687498D01*
X6752502Y43248158D01*
X6696554Y43219651D01*
X6680660Y43218400D01*
X6059340Y43218400D01*
X5999621Y43237804D01*
G37*
G36*
X3459621Y45777804D02*
G01*
X3447498Y45788158D01*
X3008158Y46227498D01*
X2979651Y46283446D01*
X2978400Y46299340D01*
X2978400Y46920660D01*
X2997804Y46980379D01*
X3008158Y46992502D01*
X3447498Y47431842D01*
X3503446Y47460349D01*
X3519340Y47461600D01*
X4140660Y47461600D01*
X4200379Y47442196D01*
X4212502Y47431842D01*
X4651842Y46992502D01*
X4680349Y46936554D01*
X4681600Y46920660D01*
X4681600Y46299340D01*
X4662196Y46239621D01*
X4651842Y46227498D01*
X4212502Y45788158D01*
X4156554Y45759651D01*
X4140660Y45758400D01*
X3519340Y45758400D01*
X3459621Y45777804D01*
G37*
G36*
X5999621Y45777804D02*
G01*
X5987498Y45788158D01*
X5548158Y46227498D01*
X5519651Y46283446D01*
X5518400Y46299340D01*
X5518400Y46920660D01*
X5537804Y46980379D01*
X5548158Y46992502D01*
X5987498Y47431842D01*
X6043446Y47460349D01*
X6059340Y47461600D01*
X6680660Y47461600D01*
X6740379Y47442196D01*
X6752502Y47431842D01*
X7191842Y46992502D01*
X7220349Y46936554D01*
X7221600Y46920660D01*
X7221600Y46299340D01*
X7202196Y46239621D01*
X7191842Y46227498D01*
X6752502Y45788158D01*
X6696554Y45759651D01*
X6680660Y45758400D01*
X6059340Y45758400D01*
X5999621Y45777804D01*
G37*
G36*
X3459621Y48317804D02*
G01*
X3447498Y48328158D01*
X3008158Y48767498D01*
X2979651Y48823446D01*
X2978400Y48839340D01*
X2978400Y49460660D01*
X2997804Y49520379D01*
X3008158Y49532502D01*
X3447498Y49971842D01*
X3503446Y50000349D01*
X3519340Y50001600D01*
X4140660Y50001600D01*
X4200379Y49982196D01*
X4212502Y49971842D01*
X4651842Y49532502D01*
X4680349Y49476554D01*
X4681600Y49460660D01*
X4681600Y48839340D01*
X4662196Y48779621D01*
X4651842Y48767498D01*
X4212502Y48328158D01*
X4156554Y48299651D01*
X4140660Y48298400D01*
X3519340Y48298400D01*
X3459621Y48317804D01*
G37*
G36*
X5999621Y48317804D02*
G01*
X5987498Y48328158D01*
X5548158Y48767498D01*
X5519651Y48823446D01*
X5518400Y48839340D01*
X5518400Y49460660D01*
X5537804Y49520379D01*
X5548158Y49532502D01*
X5987498Y49971842D01*
X6043446Y50000349D01*
X6059340Y50001600D01*
X6680660Y50001600D01*
X6740379Y49982196D01*
X6752502Y49971842D01*
X7191842Y49532502D01*
X7220349Y49476554D01*
X7221600Y49460660D01*
X7221600Y48839340D01*
X7202196Y48779621D01*
X7191842Y48767498D01*
X6752502Y48328158D01*
X6696554Y48299651D01*
X6680660Y48298400D01*
X6059340Y48298400D01*
X5999621Y48317804D01*
G37*
G36*
X3459621Y50857804D02*
G01*
X3447498Y50868158D01*
X3008158Y51307498D01*
X2979651Y51363446D01*
X2978400Y51379340D01*
X2978400Y52000660D01*
X2997804Y52060379D01*
X3008158Y52072502D01*
X3447498Y52511842D01*
X3503446Y52540349D01*
X3519340Y52541600D01*
X4140660Y52541600D01*
X4200379Y52522196D01*
X4212502Y52511842D01*
X4651842Y52072502D01*
X4680349Y52016554D01*
X4681600Y52000660D01*
X4681600Y51379340D01*
X4662196Y51319621D01*
X4651842Y51307498D01*
X4212502Y50868158D01*
X4156554Y50839651D01*
X4140660Y50838400D01*
X3519340Y50838400D01*
X3459621Y50857804D01*
G37*
G36*
X5999621Y50857804D02*
G01*
X5987498Y50868158D01*
X5548158Y51307498D01*
X5519651Y51363446D01*
X5518400Y51379340D01*
X5518400Y52000660D01*
X5537804Y52060379D01*
X5548158Y52072502D01*
X5987498Y52511842D01*
X6043446Y52540349D01*
X6059340Y52541600D01*
X6680660Y52541600D01*
X6740379Y52522196D01*
X6752502Y52511842D01*
X7191842Y52072502D01*
X7220349Y52016554D01*
X7221600Y52000660D01*
X7221600Y51379340D01*
X7202196Y51319621D01*
X7191842Y51307498D01*
X6752502Y50868158D01*
X6696554Y50839651D01*
X6680660Y50838400D01*
X6059340Y50838400D01*
X5999621Y50857804D01*
G37*
G36*
X3459621Y53397804D02*
G01*
X3447498Y53408158D01*
X3008158Y53847498D01*
X2979651Y53903446D01*
X2978400Y53919340D01*
X2978400Y54540660D01*
X2997804Y54600379D01*
X3008158Y54612502D01*
X3447498Y55051842D01*
X3503446Y55080349D01*
X3519340Y55081600D01*
X4140660Y55081600D01*
X4200379Y55062196D01*
X4212502Y55051842D01*
X4651842Y54612502D01*
X4680349Y54556554D01*
X4681600Y54540660D01*
X4681600Y53919340D01*
X4662196Y53859621D01*
X4651842Y53847498D01*
X4212502Y53408158D01*
X4156554Y53379651D01*
X4140660Y53378400D01*
X3519340Y53378400D01*
X3459621Y53397804D01*
G37*
G36*
X5999621Y53397804D02*
G01*
X5987498Y53408158D01*
X5548158Y53847498D01*
X5519651Y53903446D01*
X5518400Y53919340D01*
X5518400Y54540660D01*
X5537804Y54600379D01*
X5548158Y54612502D01*
X5987498Y55051842D01*
X6043446Y55080349D01*
X6059340Y55081600D01*
X6680660Y55081600D01*
X6740379Y55062196D01*
X6752502Y55051842D01*
X7191842Y54612502D01*
X7220349Y54556554D01*
X7221600Y54540660D01*
X7221600Y53919340D01*
X7202196Y53859621D01*
X7191842Y53847498D01*
X6752502Y53408158D01*
X6696554Y53379651D01*
X6680660Y53378400D01*
X6059340Y53378400D01*
X5999621Y53397804D01*
G37*
G36*
G01*
X59181600Y6770000D02*
X59181600Y5270000D01*
G75*
G02*
X59080000Y5168400I-101600J0D01*
G01*
X57580000Y5168400D01*
G75*
G02*
X57478400Y5270000I0J101600D01*
G01*
X57478400Y6770000D01*
G75*
G02*
X57580000Y6871600I101600J0D01*
G01*
X59080000Y6871600D01*
G75*
G02*
X59181600Y6770000I0J-101600D01*
G01*
G37*
G36*
X60499621Y5187804D02*
G01*
X60487498Y5198158D01*
X60048158Y5637498D01*
X60019651Y5693446D01*
X60018400Y5709340D01*
X60018400Y6330660D01*
X60037804Y6390379D01*
X60048158Y6402502D01*
X60487498Y6841842D01*
X60543446Y6870349D01*
X60559340Y6871600D01*
X61180660Y6871600D01*
X61240379Y6852196D01*
X61252502Y6841842D01*
X61691842Y6402502D01*
X61720349Y6346554D01*
X61721600Y6330660D01*
X61721600Y5709340D01*
X61702196Y5649621D01*
X61691842Y5637498D01*
X61252502Y5198158D01*
X61196554Y5169651D01*
X61180660Y5168400D01*
X60559340Y5168400D01*
X60499621Y5187804D01*
G37*
G36*
X57959621Y7727804D02*
G01*
X57947498Y7738158D01*
X57508158Y8177498D01*
X57479651Y8233446D01*
X57478400Y8249340D01*
X57478400Y8870660D01*
X57497804Y8930379D01*
X57508158Y8942502D01*
X57947498Y9381842D01*
X58003446Y9410349D01*
X58019340Y9411600D01*
X58640660Y9411600D01*
X58700379Y9392196D01*
X58712502Y9381842D01*
X59151842Y8942502D01*
X59180349Y8886554D01*
X59181600Y8870660D01*
X59181600Y8249340D01*
X59162196Y8189621D01*
X59151842Y8177498D01*
X58712502Y7738158D01*
X58656554Y7709651D01*
X58640660Y7708400D01*
X58019340Y7708400D01*
X57959621Y7727804D01*
G37*
G36*
X60499621Y7727804D02*
G01*
X60487498Y7738158D01*
X60048158Y8177498D01*
X60019651Y8233446D01*
X60018400Y8249340D01*
X60018400Y8870660D01*
X60037804Y8930379D01*
X60048158Y8942502D01*
X60487498Y9381842D01*
X60543446Y9410349D01*
X60559340Y9411600D01*
X61180660Y9411600D01*
X61240379Y9392196D01*
X61252502Y9381842D01*
X61691842Y8942502D01*
X61720349Y8886554D01*
X61721600Y8870660D01*
X61721600Y8249340D01*
X61702196Y8189621D01*
X61691842Y8177498D01*
X61252502Y7738158D01*
X61196554Y7709651D01*
X61180660Y7708400D01*
X60559340Y7708400D01*
X60499621Y7727804D01*
G37*
G36*
X57959621Y10267804D02*
G01*
X57947498Y10278158D01*
X57508158Y10717498D01*
X57479651Y10773446D01*
X57478400Y10789340D01*
X57478400Y11410660D01*
X57497804Y11470379D01*
X57508158Y11482502D01*
X57947498Y11921842D01*
X58003446Y11950349D01*
X58019340Y11951600D01*
X58640660Y11951600D01*
X58700379Y11932196D01*
X58712502Y11921842D01*
X59151842Y11482502D01*
X59180349Y11426554D01*
X59181600Y11410660D01*
X59181600Y10789340D01*
X59162196Y10729621D01*
X59151842Y10717498D01*
X58712502Y10278158D01*
X58656554Y10249651D01*
X58640660Y10248400D01*
X58019340Y10248400D01*
X57959621Y10267804D01*
G37*
G36*
X60499621Y10267804D02*
G01*
X60487498Y10278158D01*
X60048158Y10717498D01*
X60019651Y10773446D01*
X60018400Y10789340D01*
X60018400Y11410660D01*
X60037804Y11470379D01*
X60048158Y11482502D01*
X60487498Y11921842D01*
X60543446Y11950349D01*
X60559340Y11951600D01*
X61180660Y11951600D01*
X61240379Y11932196D01*
X61252502Y11921842D01*
X61691842Y11482502D01*
X61720349Y11426554D01*
X61721600Y11410660D01*
X61721600Y10789340D01*
X61702196Y10729621D01*
X61691842Y10717498D01*
X61252502Y10278158D01*
X61196554Y10249651D01*
X61180660Y10248400D01*
X60559340Y10248400D01*
X60499621Y10267804D01*
G37*
G36*
X57959621Y12807804D02*
G01*
X57947498Y12818158D01*
X57508158Y13257498D01*
X57479651Y13313446D01*
X57478400Y13329340D01*
X57478400Y13950660D01*
X57497804Y14010379D01*
X57508158Y14022502D01*
X57947498Y14461842D01*
X58003446Y14490349D01*
X58019340Y14491600D01*
X58640660Y14491600D01*
X58700379Y14472196D01*
X58712502Y14461842D01*
X59151842Y14022502D01*
X59180349Y13966554D01*
X59181600Y13950660D01*
X59181600Y13329340D01*
X59162196Y13269621D01*
X59151842Y13257498D01*
X58712502Y12818158D01*
X58656554Y12789651D01*
X58640660Y12788400D01*
X58019340Y12788400D01*
X57959621Y12807804D01*
G37*
G36*
X60499621Y12807804D02*
G01*
X60487498Y12818158D01*
X60048158Y13257498D01*
X60019651Y13313446D01*
X60018400Y13329340D01*
X60018400Y13950660D01*
X60037804Y14010379D01*
X60048158Y14022502D01*
X60487498Y14461842D01*
X60543446Y14490349D01*
X60559340Y14491600D01*
X61180660Y14491600D01*
X61240379Y14472196D01*
X61252502Y14461842D01*
X61691842Y14022502D01*
X61720349Y13966554D01*
X61721600Y13950660D01*
X61721600Y13329340D01*
X61702196Y13269621D01*
X61691842Y13257498D01*
X61252502Y12818158D01*
X61196554Y12789651D01*
X61180660Y12788400D01*
X60559340Y12788400D01*
X60499621Y12807804D01*
G37*
G36*
X57959621Y15347804D02*
G01*
X57947498Y15358158D01*
X57508158Y15797498D01*
X57479651Y15853446D01*
X57478400Y15869340D01*
X57478400Y16490660D01*
X57497804Y16550379D01*
X57508158Y16562502D01*
X57947498Y17001842D01*
X58003446Y17030349D01*
X58019340Y17031600D01*
X58640660Y17031600D01*
X58700379Y17012196D01*
X58712502Y17001842D01*
X59151842Y16562502D01*
X59180349Y16506554D01*
X59181600Y16490660D01*
X59181600Y15869340D01*
X59162196Y15809621D01*
X59151842Y15797498D01*
X58712502Y15358158D01*
X58656554Y15329651D01*
X58640660Y15328400D01*
X58019340Y15328400D01*
X57959621Y15347804D01*
G37*
G36*
X60499621Y15347804D02*
G01*
X60487498Y15358158D01*
X60048158Y15797498D01*
X60019651Y15853446D01*
X60018400Y15869340D01*
X60018400Y16490660D01*
X60037804Y16550379D01*
X60048158Y16562502D01*
X60487498Y17001842D01*
X60543446Y17030349D01*
X60559340Y17031600D01*
X61180660Y17031600D01*
X61240379Y17012196D01*
X61252502Y17001842D01*
X61691842Y16562502D01*
X61720349Y16506554D01*
X61721600Y16490660D01*
X61721600Y15869340D01*
X61702196Y15809621D01*
X61691842Y15797498D01*
X61252502Y15358158D01*
X61196554Y15329651D01*
X61180660Y15328400D01*
X60559340Y15328400D01*
X60499621Y15347804D01*
G37*
G36*
G01*
X82681600Y6720000D02*
X82681600Y5220000D01*
G75*
G02*
X82580000Y5118400I-101600J0D01*
G01*
X81080000Y5118400D01*
G75*
G02*
X80978400Y5220000I0J101600D01*
G01*
X80978400Y6720000D01*
G75*
G02*
X81080000Y6821600I101600J0D01*
G01*
X82580000Y6821600D01*
G75*
G02*
X82681600Y6720000I0J-101600D01*
G01*
G37*
G36*
X83999621Y5137804D02*
G01*
X83987498Y5148158D01*
X83548158Y5587498D01*
X83519651Y5643446D01*
X83518400Y5659340D01*
X83518400Y6280660D01*
X83537804Y6340379D01*
X83548158Y6352502D01*
X83987498Y6791842D01*
X84043446Y6820349D01*
X84059340Y6821600D01*
X84680660Y6821600D01*
X84740379Y6802196D01*
X84752502Y6791842D01*
X85191842Y6352502D01*
X85220349Y6296554D01*
X85221600Y6280660D01*
X85221600Y5659340D01*
X85202196Y5599621D01*
X85191842Y5587498D01*
X84752502Y5148158D01*
X84696554Y5119651D01*
X84680660Y5118400D01*
X84059340Y5118400D01*
X83999621Y5137804D01*
G37*
G36*
X81459621Y7677804D02*
G01*
X81447498Y7688158D01*
X81008158Y8127498D01*
X80979651Y8183446D01*
X80978400Y8199340D01*
X80978400Y8820660D01*
X80997804Y8880379D01*
X81008158Y8892502D01*
X81447498Y9331842D01*
X81503446Y9360349D01*
X81519340Y9361600D01*
X82140660Y9361600D01*
X82200379Y9342196D01*
X82212502Y9331842D01*
X82651842Y8892502D01*
X82680349Y8836554D01*
X82681600Y8820660D01*
X82681600Y8199340D01*
X82662196Y8139621D01*
X82651842Y8127498D01*
X82212502Y7688158D01*
X82156554Y7659651D01*
X82140660Y7658400D01*
X81519340Y7658400D01*
X81459621Y7677804D01*
G37*
G36*
X83999621Y7677804D02*
G01*
X83987498Y7688158D01*
X83548158Y8127498D01*
X83519651Y8183446D01*
X83518400Y8199340D01*
X83518400Y8820660D01*
X83537804Y8880379D01*
X83548158Y8892502D01*
X83987498Y9331842D01*
X84043446Y9360349D01*
X84059340Y9361600D01*
X84680660Y9361600D01*
X84740379Y9342196D01*
X84752502Y9331842D01*
X85191842Y8892502D01*
X85220349Y8836554D01*
X85221600Y8820660D01*
X85221600Y8199340D01*
X85202196Y8139621D01*
X85191842Y8127498D01*
X84752502Y7688158D01*
X84696554Y7659651D01*
X84680660Y7658400D01*
X84059340Y7658400D01*
X83999621Y7677804D01*
G37*
G36*
X81459621Y10217804D02*
G01*
X81447498Y10228158D01*
X81008158Y10667498D01*
X80979651Y10723446D01*
X80978400Y10739340D01*
X80978400Y11360660D01*
X80997804Y11420379D01*
X81008158Y11432502D01*
X81447498Y11871842D01*
X81503446Y11900349D01*
X81519340Y11901600D01*
X82140660Y11901600D01*
X82200379Y11882196D01*
X82212502Y11871842D01*
X82651842Y11432502D01*
X82680349Y11376554D01*
X82681600Y11360660D01*
X82681600Y10739340D01*
X82662196Y10679621D01*
X82651842Y10667498D01*
X82212502Y10228158D01*
X82156554Y10199651D01*
X82140660Y10198400D01*
X81519340Y10198400D01*
X81459621Y10217804D01*
G37*
G36*
X83999621Y10217804D02*
G01*
X83987498Y10228158D01*
X83548158Y10667498D01*
X83519651Y10723446D01*
X83518400Y10739340D01*
X83518400Y11360660D01*
X83537804Y11420379D01*
X83548158Y11432502D01*
X83987498Y11871842D01*
X84043446Y11900349D01*
X84059340Y11901600D01*
X84680660Y11901600D01*
X84740379Y11882196D01*
X84752502Y11871842D01*
X85191842Y11432502D01*
X85220349Y11376554D01*
X85221600Y11360660D01*
X85221600Y10739340D01*
X85202196Y10679621D01*
X85191842Y10667498D01*
X84752502Y10228158D01*
X84696554Y10199651D01*
X84680660Y10198400D01*
X84059340Y10198400D01*
X83999621Y10217804D01*
G37*
G36*
X81459621Y12757804D02*
G01*
X81447498Y12768158D01*
X81008158Y13207498D01*
X80979651Y13263446D01*
X80978400Y13279340D01*
X80978400Y13900660D01*
X80997804Y13960379D01*
X81008158Y13972502D01*
X81447498Y14411842D01*
X81503446Y14440349D01*
X81519340Y14441600D01*
X82140660Y14441600D01*
X82200379Y14422196D01*
X82212502Y14411842D01*
X82651842Y13972502D01*
X82680349Y13916554D01*
X82681600Y13900660D01*
X82681600Y13279340D01*
X82662196Y13219621D01*
X82651842Y13207498D01*
X82212502Y12768158D01*
X82156554Y12739651D01*
X82140660Y12738400D01*
X81519340Y12738400D01*
X81459621Y12757804D01*
G37*
G36*
X83999621Y12757804D02*
G01*
X83987498Y12768158D01*
X83548158Y13207498D01*
X83519651Y13263446D01*
X83518400Y13279340D01*
X83518400Y13900660D01*
X83537804Y13960379D01*
X83548158Y13972502D01*
X83987498Y14411842D01*
X84043446Y14440349D01*
X84059340Y14441600D01*
X84680660Y14441600D01*
X84740379Y14422196D01*
X84752502Y14411842D01*
X85191842Y13972502D01*
X85220349Y13916554D01*
X85221600Y13900660D01*
X85221600Y13279340D01*
X85202196Y13219621D01*
X85191842Y13207498D01*
X84752502Y12768158D01*
X84696554Y12739651D01*
X84680660Y12738400D01*
X84059340Y12738400D01*
X83999621Y12757804D01*
G37*
G36*
X81459621Y15297804D02*
G01*
X81447498Y15308158D01*
X81008158Y15747498D01*
X80979651Y15803446D01*
X80978400Y15819340D01*
X80978400Y16440660D01*
X80997804Y16500379D01*
X81008158Y16512502D01*
X81447498Y16951842D01*
X81503446Y16980349D01*
X81519340Y16981600D01*
X82140660Y16981600D01*
X82200379Y16962196D01*
X82212502Y16951842D01*
X82651842Y16512502D01*
X82680349Y16456554D01*
X82681600Y16440660D01*
X82681600Y15819340D01*
X82662196Y15759621D01*
X82651842Y15747498D01*
X82212502Y15308158D01*
X82156554Y15279651D01*
X82140660Y15278400D01*
X81519340Y15278400D01*
X81459621Y15297804D01*
G37*
G36*
X83999621Y15297804D02*
G01*
X83987498Y15308158D01*
X83548158Y15747498D01*
X83519651Y15803446D01*
X83518400Y15819340D01*
X83518400Y16440660D01*
X83537804Y16500379D01*
X83548158Y16512502D01*
X83987498Y16951842D01*
X84043446Y16980349D01*
X84059340Y16981600D01*
X84680660Y16981600D01*
X84740379Y16962196D01*
X84752502Y16951842D01*
X85191842Y16512502D01*
X85220349Y16456554D01*
X85221600Y16440660D01*
X85221600Y15819340D01*
X85202196Y15759621D01*
X85191842Y15747498D01*
X84752502Y15308158D01*
X84696554Y15279651D01*
X84680660Y15278400D01*
X84059340Y15278400D01*
X83999621Y15297804D01*
G37*
G36*
X81459621Y17837804D02*
G01*
X81447498Y17848158D01*
X81008158Y18287498D01*
X80979651Y18343446D01*
X80978400Y18359340D01*
X80978400Y18980660D01*
X80997804Y19040379D01*
X81008158Y19052502D01*
X81447498Y19491842D01*
X81503446Y19520349D01*
X81519340Y19521600D01*
X82140660Y19521600D01*
X82200379Y19502196D01*
X82212502Y19491842D01*
X82651842Y19052502D01*
X82680349Y18996554D01*
X82681600Y18980660D01*
X82681600Y18359340D01*
X82662196Y18299621D01*
X82651842Y18287498D01*
X82212502Y17848158D01*
X82156554Y17819651D01*
X82140660Y17818400D01*
X81519340Y17818400D01*
X81459621Y17837804D01*
G37*
G36*
X83999621Y17837804D02*
G01*
X83987498Y17848158D01*
X83548158Y18287498D01*
X83519651Y18343446D01*
X83518400Y18359340D01*
X83518400Y18980660D01*
X83537804Y19040379D01*
X83548158Y19052502D01*
X83987498Y19491842D01*
X84043446Y19520349D01*
X84059340Y19521600D01*
X84680660Y19521600D01*
X84740379Y19502196D01*
X84752502Y19491842D01*
X85191842Y19052502D01*
X85220349Y18996554D01*
X85221600Y18980660D01*
X85221600Y18359340D01*
X85202196Y18299621D01*
X85191842Y18287498D01*
X84752502Y17848158D01*
X84696554Y17819651D01*
X84680660Y17818400D01*
X84059340Y17818400D01*
X83999621Y17837804D01*
G37*
G36*
X81459621Y20377804D02*
G01*
X81447498Y20388158D01*
X81008158Y20827498D01*
X80979651Y20883446D01*
X80978400Y20899340D01*
X80978400Y21520660D01*
X80997804Y21580379D01*
X81008158Y21592502D01*
X81447498Y22031842D01*
X81503446Y22060349D01*
X81519340Y22061600D01*
X82140660Y22061600D01*
X82200379Y22042196D01*
X82212502Y22031842D01*
X82651842Y21592502D01*
X82680349Y21536554D01*
X82681600Y21520660D01*
X82681600Y20899340D01*
X82662196Y20839621D01*
X82651842Y20827498D01*
X82212502Y20388158D01*
X82156554Y20359651D01*
X82140660Y20358400D01*
X81519340Y20358400D01*
X81459621Y20377804D01*
G37*
G36*
X83999621Y20377804D02*
G01*
X83987498Y20388158D01*
X83548158Y20827498D01*
X83519651Y20883446D01*
X83518400Y20899340D01*
X83518400Y21520660D01*
X83537804Y21580379D01*
X83548158Y21592502D01*
X83987498Y22031842D01*
X84043446Y22060349D01*
X84059340Y22061600D01*
X84680660Y22061600D01*
X84740379Y22042196D01*
X84752502Y22031842D01*
X85191842Y21592502D01*
X85220349Y21536554D01*
X85221600Y21520660D01*
X85221600Y20899340D01*
X85202196Y20839621D01*
X85191842Y20827498D01*
X84752502Y20388158D01*
X84696554Y20359651D01*
X84680660Y20358400D01*
X84059340Y20358400D01*
X83999621Y20377804D01*
G37*
G36*
X81459621Y22917804D02*
G01*
X81447498Y22928158D01*
X81008158Y23367498D01*
X80979651Y23423446D01*
X80978400Y23439340D01*
X80978400Y24060660D01*
X80997804Y24120379D01*
X81008158Y24132502D01*
X81447498Y24571842D01*
X81503446Y24600349D01*
X81519340Y24601600D01*
X82140660Y24601600D01*
X82200379Y24582196D01*
X82212502Y24571842D01*
X82651842Y24132502D01*
X82680349Y24076554D01*
X82681600Y24060660D01*
X82681600Y23439340D01*
X82662196Y23379621D01*
X82651842Y23367498D01*
X82212502Y22928158D01*
X82156554Y22899651D01*
X82140660Y22898400D01*
X81519340Y22898400D01*
X81459621Y22917804D01*
G37*
G36*
X83999621Y22917804D02*
G01*
X83987498Y22928158D01*
X83548158Y23367498D01*
X83519651Y23423446D01*
X83518400Y23439340D01*
X83518400Y24060660D01*
X83537804Y24120379D01*
X83548158Y24132502D01*
X83987498Y24571842D01*
X84043446Y24600349D01*
X84059340Y24601600D01*
X84680660Y24601600D01*
X84740379Y24582196D01*
X84752502Y24571842D01*
X85191842Y24132502D01*
X85220349Y24076554D01*
X85221600Y24060660D01*
X85221600Y23439340D01*
X85202196Y23379621D01*
X85191842Y23367498D01*
X84752502Y22928158D01*
X84696554Y22899651D01*
X84680660Y22898400D01*
X84059340Y22898400D01*
X83999621Y22917804D01*
G37*
G36*
X81459621Y25457804D02*
G01*
X81447498Y25468158D01*
X81008158Y25907498D01*
X80979651Y25963446D01*
X80978400Y25979340D01*
X80978400Y26600660D01*
X80997804Y26660379D01*
X81008158Y26672502D01*
X81447498Y27111842D01*
X81503446Y27140349D01*
X81519340Y27141600D01*
X82140660Y27141600D01*
X82200379Y27122196D01*
X82212502Y27111842D01*
X82651842Y26672502D01*
X82680349Y26616554D01*
X82681600Y26600660D01*
X82681600Y25979340D01*
X82662196Y25919621D01*
X82651842Y25907498D01*
X82212502Y25468158D01*
X82156554Y25439651D01*
X82140660Y25438400D01*
X81519340Y25438400D01*
X81459621Y25457804D01*
G37*
G36*
X83999621Y25457804D02*
G01*
X83987498Y25468158D01*
X83548158Y25907498D01*
X83519651Y25963446D01*
X83518400Y25979340D01*
X83518400Y26600660D01*
X83537804Y26660379D01*
X83548158Y26672502D01*
X83987498Y27111842D01*
X84043446Y27140349D01*
X84059340Y27141600D01*
X84680660Y27141600D01*
X84740379Y27122196D01*
X84752502Y27111842D01*
X85191842Y26672502D01*
X85220349Y26616554D01*
X85221600Y26600660D01*
X85221600Y25979340D01*
X85202196Y25919621D01*
X85191842Y25907498D01*
X84752502Y25468158D01*
X84696554Y25439651D01*
X84680660Y25438400D01*
X84059340Y25438400D01*
X83999621Y25457804D01*
G37*
G36*
X81459621Y27997804D02*
G01*
X81447498Y28008158D01*
X81008158Y28447498D01*
X80979651Y28503446D01*
X80978400Y28519340D01*
X80978400Y29140660D01*
X80997804Y29200379D01*
X81008158Y29212502D01*
X81447498Y29651842D01*
X81503446Y29680349D01*
X81519340Y29681600D01*
X82140660Y29681600D01*
X82200379Y29662196D01*
X82212502Y29651842D01*
X82651842Y29212502D01*
X82680349Y29156554D01*
X82681600Y29140660D01*
X82681600Y28519340D01*
X82662196Y28459621D01*
X82651842Y28447498D01*
X82212502Y28008158D01*
X82156554Y27979651D01*
X82140660Y27978400D01*
X81519340Y27978400D01*
X81459621Y27997804D01*
G37*
G36*
X83999621Y27997804D02*
G01*
X83987498Y28008158D01*
X83548158Y28447498D01*
X83519651Y28503446D01*
X83518400Y28519340D01*
X83518400Y29140660D01*
X83537804Y29200379D01*
X83548158Y29212502D01*
X83987498Y29651842D01*
X84043446Y29680349D01*
X84059340Y29681600D01*
X84680660Y29681600D01*
X84740379Y29662196D01*
X84752502Y29651842D01*
X85191842Y29212502D01*
X85220349Y29156554D01*
X85221600Y29140660D01*
X85221600Y28519340D01*
X85202196Y28459621D01*
X85191842Y28447498D01*
X84752502Y28008158D01*
X84696554Y27979651D01*
X84680660Y27978400D01*
X84059340Y27978400D01*
X83999621Y27997804D01*
G37*
G36*
X81459621Y30537804D02*
G01*
X81447498Y30548158D01*
X81008158Y30987498D01*
X80979651Y31043446D01*
X80978400Y31059340D01*
X80978400Y31680660D01*
X80997804Y31740379D01*
X81008158Y31752502D01*
X81447498Y32191842D01*
X81503446Y32220349D01*
X81519340Y32221600D01*
X82140660Y32221600D01*
X82200379Y32202196D01*
X82212502Y32191842D01*
X82651842Y31752502D01*
X82680349Y31696554D01*
X82681600Y31680660D01*
X82681600Y31059340D01*
X82662196Y30999621D01*
X82651842Y30987498D01*
X82212502Y30548158D01*
X82156554Y30519651D01*
X82140660Y30518400D01*
X81519340Y30518400D01*
X81459621Y30537804D01*
G37*
G36*
X83999621Y30537804D02*
G01*
X83987498Y30548158D01*
X83548158Y30987498D01*
X83519651Y31043446D01*
X83518400Y31059340D01*
X83518400Y31680660D01*
X83537804Y31740379D01*
X83548158Y31752502D01*
X83987498Y32191842D01*
X84043446Y32220349D01*
X84059340Y32221600D01*
X84680660Y32221600D01*
X84740379Y32202196D01*
X84752502Y32191842D01*
X85191842Y31752502D01*
X85220349Y31696554D01*
X85221600Y31680660D01*
X85221600Y31059340D01*
X85202196Y30999621D01*
X85191842Y30987498D01*
X84752502Y30548158D01*
X84696554Y30519651D01*
X84680660Y30518400D01*
X84059340Y30518400D01*
X83999621Y30537804D01*
G37*
G36*
X81459621Y33077804D02*
G01*
X81447498Y33088158D01*
X81008158Y33527498D01*
X80979651Y33583446D01*
X80978400Y33599340D01*
X80978400Y34220660D01*
X80997804Y34280379D01*
X81008158Y34292502D01*
X81447498Y34731842D01*
X81503446Y34760349D01*
X81519340Y34761600D01*
X82140660Y34761600D01*
X82200379Y34742196D01*
X82212502Y34731842D01*
X82651842Y34292502D01*
X82680349Y34236554D01*
X82681600Y34220660D01*
X82681600Y33599340D01*
X82662196Y33539621D01*
X82651842Y33527498D01*
X82212502Y33088158D01*
X82156554Y33059651D01*
X82140660Y33058400D01*
X81519340Y33058400D01*
X81459621Y33077804D01*
G37*
G36*
X83999621Y33077804D02*
G01*
X83987498Y33088158D01*
X83548158Y33527498D01*
X83519651Y33583446D01*
X83518400Y33599340D01*
X83518400Y34220660D01*
X83537804Y34280379D01*
X83548158Y34292502D01*
X83987498Y34731842D01*
X84043446Y34760349D01*
X84059340Y34761600D01*
X84680660Y34761600D01*
X84740379Y34742196D01*
X84752502Y34731842D01*
X85191842Y34292502D01*
X85220349Y34236554D01*
X85221600Y34220660D01*
X85221600Y33599340D01*
X85202196Y33539621D01*
X85191842Y33527498D01*
X84752502Y33088158D01*
X84696554Y33059651D01*
X84680660Y33058400D01*
X84059340Y33058400D01*
X83999621Y33077804D01*
G37*
G36*
X81459621Y35617804D02*
G01*
X81447498Y35628158D01*
X81008158Y36067498D01*
X80979651Y36123446D01*
X80978400Y36139340D01*
X80978400Y36760660D01*
X80997804Y36820379D01*
X81008158Y36832502D01*
X81447498Y37271842D01*
X81503446Y37300349D01*
X81519340Y37301600D01*
X82140660Y37301600D01*
X82200379Y37282196D01*
X82212502Y37271842D01*
X82651842Y36832502D01*
X82680349Y36776554D01*
X82681600Y36760660D01*
X82681600Y36139340D01*
X82662196Y36079621D01*
X82651842Y36067498D01*
X82212502Y35628158D01*
X82156554Y35599651D01*
X82140660Y35598400D01*
X81519340Y35598400D01*
X81459621Y35617804D01*
G37*
G36*
X83999621Y35617804D02*
G01*
X83987498Y35628158D01*
X83548158Y36067498D01*
X83519651Y36123446D01*
X83518400Y36139340D01*
X83518400Y36760660D01*
X83537804Y36820379D01*
X83548158Y36832502D01*
X83987498Y37271842D01*
X84043446Y37300349D01*
X84059340Y37301600D01*
X84680660Y37301600D01*
X84740379Y37282196D01*
X84752502Y37271842D01*
X85191842Y36832502D01*
X85220349Y36776554D01*
X85221600Y36760660D01*
X85221600Y36139340D01*
X85202196Y36079621D01*
X85191842Y36067498D01*
X84752502Y35628158D01*
X84696554Y35599651D01*
X84680660Y35598400D01*
X84059340Y35598400D01*
X83999621Y35617804D01*
G37*
G36*
X81459621Y38157804D02*
G01*
X81447498Y38168158D01*
X81008158Y38607498D01*
X80979651Y38663446D01*
X80978400Y38679340D01*
X80978400Y39300660D01*
X80997804Y39360379D01*
X81008158Y39372502D01*
X81447498Y39811842D01*
X81503446Y39840349D01*
X81519340Y39841600D01*
X82140660Y39841600D01*
X82200379Y39822196D01*
X82212502Y39811842D01*
X82651842Y39372502D01*
X82680349Y39316554D01*
X82681600Y39300660D01*
X82681600Y38679340D01*
X82662196Y38619621D01*
X82651842Y38607498D01*
X82212502Y38168158D01*
X82156554Y38139651D01*
X82140660Y38138400D01*
X81519340Y38138400D01*
X81459621Y38157804D01*
G37*
G36*
X83999621Y38157804D02*
G01*
X83987498Y38168158D01*
X83548158Y38607498D01*
X83519651Y38663446D01*
X83518400Y38679340D01*
X83518400Y39300660D01*
X83537804Y39360379D01*
X83548158Y39372502D01*
X83987498Y39811842D01*
X84043446Y39840349D01*
X84059340Y39841600D01*
X84680660Y39841600D01*
X84740379Y39822196D01*
X84752502Y39811842D01*
X85191842Y39372502D01*
X85220349Y39316554D01*
X85221600Y39300660D01*
X85221600Y38679340D01*
X85202196Y38619621D01*
X85191842Y38607498D01*
X84752502Y38168158D01*
X84696554Y38139651D01*
X84680660Y38138400D01*
X84059340Y38138400D01*
X83999621Y38157804D01*
G37*
G36*
X81459621Y40697804D02*
G01*
X81447498Y40708158D01*
X81008158Y41147498D01*
X80979651Y41203446D01*
X80978400Y41219340D01*
X80978400Y41840660D01*
X80997804Y41900379D01*
X81008158Y41912502D01*
X81447498Y42351842D01*
X81503446Y42380349D01*
X81519340Y42381600D01*
X82140660Y42381600D01*
X82200379Y42362196D01*
X82212502Y42351842D01*
X82651842Y41912502D01*
X82680349Y41856554D01*
X82681600Y41840660D01*
X82681600Y41219340D01*
X82662196Y41159621D01*
X82651842Y41147498D01*
X82212502Y40708158D01*
X82156554Y40679651D01*
X82140660Y40678400D01*
X81519340Y40678400D01*
X81459621Y40697804D01*
G37*
G36*
X83999621Y40697804D02*
G01*
X83987498Y40708158D01*
X83548158Y41147498D01*
X83519651Y41203446D01*
X83518400Y41219340D01*
X83518400Y41840660D01*
X83537804Y41900379D01*
X83548158Y41912502D01*
X83987498Y42351842D01*
X84043446Y42380349D01*
X84059340Y42381600D01*
X84680660Y42381600D01*
X84740379Y42362196D01*
X84752502Y42351842D01*
X85191842Y41912502D01*
X85220349Y41856554D01*
X85221600Y41840660D01*
X85221600Y41219340D01*
X85202196Y41159621D01*
X85191842Y41147498D01*
X84752502Y40708158D01*
X84696554Y40679651D01*
X84680660Y40678400D01*
X84059340Y40678400D01*
X83999621Y40697804D01*
G37*
G36*
X81459621Y43237804D02*
G01*
X81447498Y43248158D01*
X81008158Y43687498D01*
X80979651Y43743446D01*
X80978400Y43759340D01*
X80978400Y44380660D01*
X80997804Y44440379D01*
X81008158Y44452502D01*
X81447498Y44891842D01*
X81503446Y44920349D01*
X81519340Y44921600D01*
X82140660Y44921600D01*
X82200379Y44902196D01*
X82212502Y44891842D01*
X82651842Y44452502D01*
X82680349Y44396554D01*
X82681600Y44380660D01*
X82681600Y43759340D01*
X82662196Y43699621D01*
X82651842Y43687498D01*
X82212502Y43248158D01*
X82156554Y43219651D01*
X82140660Y43218400D01*
X81519340Y43218400D01*
X81459621Y43237804D01*
G37*
G36*
X83999621Y43237804D02*
G01*
X83987498Y43248158D01*
X83548158Y43687498D01*
X83519651Y43743446D01*
X83518400Y43759340D01*
X83518400Y44380660D01*
X83537804Y44440379D01*
X83548158Y44452502D01*
X83987498Y44891842D01*
X84043446Y44920349D01*
X84059340Y44921600D01*
X84680660Y44921600D01*
X84740379Y44902196D01*
X84752502Y44891842D01*
X85191842Y44452502D01*
X85220349Y44396554D01*
X85221600Y44380660D01*
X85221600Y43759340D01*
X85202196Y43699621D01*
X85191842Y43687498D01*
X84752502Y43248158D01*
X84696554Y43219651D01*
X84680660Y43218400D01*
X84059340Y43218400D01*
X83999621Y43237804D01*
G37*
G36*
X81459621Y45777804D02*
G01*
X81447498Y45788158D01*
X81008158Y46227498D01*
X80979651Y46283446D01*
X80978400Y46299340D01*
X80978400Y46920660D01*
X80997804Y46980379D01*
X81008158Y46992502D01*
X81447498Y47431842D01*
X81503446Y47460349D01*
X81519340Y47461600D01*
X82140660Y47461600D01*
X82200379Y47442196D01*
X82212502Y47431842D01*
X82651842Y46992502D01*
X82680349Y46936554D01*
X82681600Y46920660D01*
X82681600Y46299340D01*
X82662196Y46239621D01*
X82651842Y46227498D01*
X82212502Y45788158D01*
X82156554Y45759651D01*
X82140660Y45758400D01*
X81519340Y45758400D01*
X81459621Y45777804D01*
G37*
G36*
X83999621Y45777804D02*
G01*
X83987498Y45788158D01*
X83548158Y46227498D01*
X83519651Y46283446D01*
X83518400Y46299340D01*
X83518400Y46920660D01*
X83537804Y46980379D01*
X83548158Y46992502D01*
X83987498Y47431842D01*
X84043446Y47460349D01*
X84059340Y47461600D01*
X84680660Y47461600D01*
X84740379Y47442196D01*
X84752502Y47431842D01*
X85191842Y46992502D01*
X85220349Y46936554D01*
X85221600Y46920660D01*
X85221600Y46299340D01*
X85202196Y46239621D01*
X85191842Y46227498D01*
X84752502Y45788158D01*
X84696554Y45759651D01*
X84680660Y45758400D01*
X84059340Y45758400D01*
X83999621Y45777804D01*
G37*
G36*
X81459621Y48317804D02*
G01*
X81447498Y48328158D01*
X81008158Y48767498D01*
X80979651Y48823446D01*
X80978400Y48839340D01*
X80978400Y49460660D01*
X80997804Y49520379D01*
X81008158Y49532502D01*
X81447498Y49971842D01*
X81503446Y50000349D01*
X81519340Y50001600D01*
X82140660Y50001600D01*
X82200379Y49982196D01*
X82212502Y49971842D01*
X82651842Y49532502D01*
X82680349Y49476554D01*
X82681600Y49460660D01*
X82681600Y48839340D01*
X82662196Y48779621D01*
X82651842Y48767498D01*
X82212502Y48328158D01*
X82156554Y48299651D01*
X82140660Y48298400D01*
X81519340Y48298400D01*
X81459621Y48317804D01*
G37*
G36*
X83999621Y48317804D02*
G01*
X83987498Y48328158D01*
X83548158Y48767498D01*
X83519651Y48823446D01*
X83518400Y48839340D01*
X83518400Y49460660D01*
X83537804Y49520379D01*
X83548158Y49532502D01*
X83987498Y49971842D01*
X84043446Y50000349D01*
X84059340Y50001600D01*
X84680660Y50001600D01*
X84740379Y49982196D01*
X84752502Y49971842D01*
X85191842Y49532502D01*
X85220349Y49476554D01*
X85221600Y49460660D01*
X85221600Y48839340D01*
X85202196Y48779621D01*
X85191842Y48767498D01*
X84752502Y48328158D01*
X84696554Y48299651D01*
X84680660Y48298400D01*
X84059340Y48298400D01*
X83999621Y48317804D01*
G37*
G36*
X81459621Y50857804D02*
G01*
X81447498Y50868158D01*
X81008158Y51307498D01*
X80979651Y51363446D01*
X80978400Y51379340D01*
X80978400Y52000660D01*
X80997804Y52060379D01*
X81008158Y52072502D01*
X81447498Y52511842D01*
X81503446Y52540349D01*
X81519340Y52541600D01*
X82140660Y52541600D01*
X82200379Y52522196D01*
X82212502Y52511842D01*
X82651842Y52072502D01*
X82680349Y52016554D01*
X82681600Y52000660D01*
X82681600Y51379340D01*
X82662196Y51319621D01*
X82651842Y51307498D01*
X82212502Y50868158D01*
X82156554Y50839651D01*
X82140660Y50838400D01*
X81519340Y50838400D01*
X81459621Y50857804D01*
G37*
G36*
X83999621Y50857804D02*
G01*
X83987498Y50868158D01*
X83548158Y51307498D01*
X83519651Y51363446D01*
X83518400Y51379340D01*
X83518400Y52000660D01*
X83537804Y52060379D01*
X83548158Y52072502D01*
X83987498Y52511842D01*
X84043446Y52540349D01*
X84059340Y52541600D01*
X84680660Y52541600D01*
X84740379Y52522196D01*
X84752502Y52511842D01*
X85191842Y52072502D01*
X85220349Y52016554D01*
X85221600Y52000660D01*
X85221600Y51379340D01*
X85202196Y51319621D01*
X85191842Y51307498D01*
X84752502Y50868158D01*
X84696554Y50839651D01*
X84680660Y50838400D01*
X84059340Y50838400D01*
X83999621Y50857804D01*
G37*
G36*
X81459621Y53397804D02*
G01*
X81447498Y53408158D01*
X81008158Y53847498D01*
X80979651Y53903446D01*
X80978400Y53919340D01*
X80978400Y54540660D01*
X80997804Y54600379D01*
X81008158Y54612502D01*
X81447498Y55051842D01*
X81503446Y55080349D01*
X81519340Y55081600D01*
X82140660Y55081600D01*
X82200379Y55062196D01*
X82212502Y55051842D01*
X82651842Y54612502D01*
X82680349Y54556554D01*
X82681600Y54540660D01*
X82681600Y53919340D01*
X82662196Y53859621D01*
X82651842Y53847498D01*
X82212502Y53408158D01*
X82156554Y53379651D01*
X82140660Y53378400D01*
X81519340Y53378400D01*
X81459621Y53397804D01*
G37*
G36*
X83999621Y53397804D02*
G01*
X83987498Y53408158D01*
X83548158Y53847498D01*
X83519651Y53903446D01*
X83518400Y53919340D01*
X83518400Y54540660D01*
X83537804Y54600379D01*
X83548158Y54612502D01*
X83987498Y55051842D01*
X84043446Y55080349D01*
X84059340Y55081600D01*
X84680660Y55081600D01*
X84740379Y55062196D01*
X84752502Y55051842D01*
X85191842Y54612502D01*
X85220349Y54556554D01*
X85221600Y54540660D01*
X85221600Y53919340D01*
X85202196Y53859621D01*
X85191842Y53847498D01*
X84752502Y53408158D01*
X84696554Y53379651D01*
X84680660Y53378400D01*
X84059340Y53378400D01*
X83999621Y53397804D01*
G37*
G36*
G01*
X60018400Y43430000D02*
X60018400Y44930000D01*
G75*
G02*
X60120000Y45031600I101600J0D01*
G01*
X61620000Y45031600D01*
G75*
G02*
X61721600Y44930000I0J-101600D01*
G01*
X61721600Y43430000D01*
G75*
G02*
X61620000Y43328400I-101600J0D01*
G01*
X60120000Y43328400D01*
G75*
G02*
X60018400Y43430000I0J101600D01*
G01*
G37*
G36*
X58700379Y45012196D02*
G01*
X58712502Y45001842D01*
X59151842Y44562502D01*
X59180349Y44506554D01*
X59181600Y44490660D01*
X59181600Y43869340D01*
X59162196Y43809621D01*
X59151842Y43797498D01*
X58712502Y43358158D01*
X58656554Y43329651D01*
X58640660Y43328400D01*
X58019340Y43328400D01*
X57959621Y43347804D01*
X57947498Y43358158D01*
X57508158Y43797498D01*
X57479651Y43853446D01*
X57478400Y43869340D01*
X57478400Y44490660D01*
X57497804Y44550379D01*
X57508158Y44562502D01*
X57947498Y45001842D01*
X58003446Y45030349D01*
X58019340Y45031600D01*
X58640660Y45031600D01*
X58700379Y45012196D01*
G37*
G36*
X61240379Y42472196D02*
G01*
X61252502Y42461842D01*
X61691842Y42022502D01*
X61720349Y41966554D01*
X61721600Y41950660D01*
X61721600Y41329340D01*
X61702196Y41269621D01*
X61691842Y41257498D01*
X61252502Y40818158D01*
X61196554Y40789651D01*
X61180660Y40788400D01*
X60559340Y40788400D01*
X60499621Y40807804D01*
X60487498Y40818158D01*
X60048158Y41257498D01*
X60019651Y41313446D01*
X60018400Y41329340D01*
X60018400Y41950660D01*
X60037804Y42010379D01*
X60048158Y42022502D01*
X60487498Y42461842D01*
X60543446Y42490349D01*
X60559340Y42491600D01*
X61180660Y42491600D01*
X61240379Y42472196D01*
G37*
G36*
X58700379Y42472196D02*
G01*
X58712502Y42461842D01*
X59151842Y42022502D01*
X59180349Y41966554D01*
X59181600Y41950660D01*
X59181600Y41329340D01*
X59162196Y41269621D01*
X59151842Y41257498D01*
X58712502Y40818158D01*
X58656554Y40789651D01*
X58640660Y40788400D01*
X58019340Y40788400D01*
X57959621Y40807804D01*
X57947498Y40818158D01*
X57508158Y41257498D01*
X57479651Y41313446D01*
X57478400Y41329340D01*
X57478400Y41950660D01*
X57497804Y42010379D01*
X57508158Y42022502D01*
X57947498Y42461842D01*
X58003446Y42490349D01*
X58019340Y42491600D01*
X58640660Y42491600D01*
X58700379Y42472196D01*
G37*
G36*
X61240379Y39932196D02*
G01*
X61252502Y39921842D01*
X61691842Y39482502D01*
X61720349Y39426554D01*
X61721600Y39410660D01*
X61721600Y38789340D01*
X61702196Y38729621D01*
X61691842Y38717498D01*
X61252502Y38278158D01*
X61196554Y38249651D01*
X61180660Y38248400D01*
X60559340Y38248400D01*
X60499621Y38267804D01*
X60487498Y38278158D01*
X60048158Y38717498D01*
X60019651Y38773446D01*
X60018400Y38789340D01*
X60018400Y39410660D01*
X60037804Y39470379D01*
X60048158Y39482502D01*
X60487498Y39921842D01*
X60543446Y39950349D01*
X60559340Y39951600D01*
X61180660Y39951600D01*
X61240379Y39932196D01*
G37*
G36*
X58700379Y39932196D02*
G01*
X58712502Y39921842D01*
X59151842Y39482502D01*
X59180349Y39426554D01*
X59181600Y39410660D01*
X59181600Y38789340D01*
X59162196Y38729621D01*
X59151842Y38717498D01*
X58712502Y38278158D01*
X58656554Y38249651D01*
X58640660Y38248400D01*
X58019340Y38248400D01*
X57959621Y38267804D01*
X57947498Y38278158D01*
X57508158Y38717498D01*
X57479651Y38773446D01*
X57478400Y38789340D01*
X57478400Y39410660D01*
X57497804Y39470379D01*
X57508158Y39482502D01*
X57947498Y39921842D01*
X58003446Y39950349D01*
X58019340Y39951600D01*
X58640660Y39951600D01*
X58700379Y39932196D01*
G37*
G36*
X61240379Y37392196D02*
G01*
X61252502Y37381842D01*
X61691842Y36942502D01*
X61720349Y36886554D01*
X61721600Y36870660D01*
X61721600Y36249340D01*
X61702196Y36189621D01*
X61691842Y36177498D01*
X61252502Y35738158D01*
X61196554Y35709651D01*
X61180660Y35708400D01*
X60559340Y35708400D01*
X60499621Y35727804D01*
X60487498Y35738158D01*
X60048158Y36177498D01*
X60019651Y36233446D01*
X60018400Y36249340D01*
X60018400Y36870660D01*
X60037804Y36930379D01*
X60048158Y36942502D01*
X60487498Y37381842D01*
X60543446Y37410349D01*
X60559340Y37411600D01*
X61180660Y37411600D01*
X61240379Y37392196D01*
G37*
G36*
X58700379Y37392196D02*
G01*
X58712502Y37381842D01*
X59151842Y36942502D01*
X59180349Y36886554D01*
X59181600Y36870660D01*
X59181600Y36249340D01*
X59162196Y36189621D01*
X59151842Y36177498D01*
X58712502Y35738158D01*
X58656554Y35709651D01*
X58640660Y35708400D01*
X58019340Y35708400D01*
X57959621Y35727804D01*
X57947498Y35738158D01*
X57508158Y36177498D01*
X57479651Y36233446D01*
X57478400Y36249340D01*
X57478400Y36870660D01*
X57497804Y36930379D01*
X57508158Y36942502D01*
X57947498Y37381842D01*
X58003446Y37410349D01*
X58019340Y37411600D01*
X58640660Y37411600D01*
X58700379Y37392196D01*
G37*
G36*
X61240379Y34852196D02*
G01*
X61252502Y34841842D01*
X61691842Y34402502D01*
X61720349Y34346554D01*
X61721600Y34330660D01*
X61721600Y33709340D01*
X61702196Y33649621D01*
X61691842Y33637498D01*
X61252502Y33198158D01*
X61196554Y33169651D01*
X61180660Y33168400D01*
X60559340Y33168400D01*
X60499621Y33187804D01*
X60487498Y33198158D01*
X60048158Y33637498D01*
X60019651Y33693446D01*
X60018400Y33709340D01*
X60018400Y34330660D01*
X60037804Y34390379D01*
X60048158Y34402502D01*
X60487498Y34841842D01*
X60543446Y34870349D01*
X60559340Y34871600D01*
X61180660Y34871600D01*
X61240379Y34852196D01*
G37*
G36*
X58700379Y34852196D02*
G01*
X58712502Y34841842D01*
X59151842Y34402502D01*
X59180349Y34346554D01*
X59181600Y34330660D01*
X59181600Y33709340D01*
X59162196Y33649621D01*
X59151842Y33637498D01*
X58712502Y33198158D01*
X58656554Y33169651D01*
X58640660Y33168400D01*
X58019340Y33168400D01*
X57959621Y33187804D01*
X57947498Y33198158D01*
X57508158Y33637498D01*
X57479651Y33693446D01*
X57478400Y33709340D01*
X57478400Y34330660D01*
X57497804Y34390379D01*
X57508158Y34402502D01*
X57947498Y34841842D01*
X58003446Y34870349D01*
X58019340Y34871600D01*
X58640660Y34871600D01*
X58700379Y34852196D01*
G37*
G36*
G01*
X63480000Y54681600D02*
X64980000Y54681600D01*
G75*
G02*
X65081600Y54580000I0J-101600D01*
G01*
X65081600Y53080000D01*
G75*
G02*
X64980000Y52978400I-101600J0D01*
G01*
X63480000Y52978400D01*
G75*
G02*
X63378400Y53080000I0J101600D01*
G01*
X63378400Y54580000D01*
G75*
G02*
X63480000Y54681600I101600J0D01*
G01*
G37*
G36*
X65062196Y55999621D02*
G01*
X65051842Y55987498D01*
X64612502Y55548158D01*
X64556554Y55519651D01*
X64540660Y55518400D01*
X63919340Y55518400D01*
X63859621Y55537804D01*
X63847498Y55548158D01*
X63408158Y55987498D01*
X63379651Y56043446D01*
X63378400Y56059340D01*
X63378400Y56680660D01*
X63397804Y56740379D01*
X63408158Y56752502D01*
X63847498Y57191842D01*
X63903446Y57220349D01*
X63919340Y57221600D01*
X64540660Y57221600D01*
X64600379Y57202196D01*
X64612502Y57191842D01*
X65051842Y56752502D01*
X65080349Y56696554D01*
X65081600Y56680660D01*
X65081600Y56059340D01*
X65062196Y55999621D01*
G37*
G36*
X62522196Y53459621D02*
G01*
X62511842Y53447498D01*
X62072502Y53008158D01*
X62016554Y52979651D01*
X62000660Y52978400D01*
X61379340Y52978400D01*
X61319621Y52997804D01*
X61307498Y53008158D01*
X60868158Y53447498D01*
X60839651Y53503446D01*
X60838400Y53519340D01*
X60838400Y54140660D01*
X60857804Y54200379D01*
X60868158Y54212502D01*
X61307498Y54651842D01*
X61363446Y54680349D01*
X61379340Y54681600D01*
X62000660Y54681600D01*
X62060379Y54662196D01*
X62072502Y54651842D01*
X62511842Y54212502D01*
X62540349Y54156554D01*
X62541600Y54140660D01*
X62541600Y53519340D01*
X62522196Y53459621D01*
G37*
G36*
X62522196Y55999621D02*
G01*
X62511842Y55987498D01*
X62072502Y55548158D01*
X62016554Y55519651D01*
X62000660Y55518400D01*
X61379340Y55518400D01*
X61319621Y55537804D01*
X61307498Y55548158D01*
X60868158Y55987498D01*
X60839651Y56043446D01*
X60838400Y56059340D01*
X60838400Y56680660D01*
X60857804Y56740379D01*
X60868158Y56752502D01*
X61307498Y57191842D01*
X61363446Y57220349D01*
X61379340Y57221600D01*
X62000660Y57221600D01*
X62060379Y57202196D01*
X62072502Y57191842D01*
X62511842Y56752502D01*
X62540349Y56696554D01*
X62541600Y56680660D01*
X62541600Y56059340D01*
X62522196Y55999621D01*
G37*
G36*
X59982196Y53459621D02*
G01*
X59971842Y53447498D01*
X59532502Y53008158D01*
X59476554Y52979651D01*
X59460660Y52978400D01*
X58839340Y52978400D01*
X58779621Y52997804D01*
X58767498Y53008158D01*
X58328158Y53447498D01*
X58299651Y53503446D01*
X58298400Y53519340D01*
X58298400Y54140660D01*
X58317804Y54200379D01*
X58328158Y54212502D01*
X58767498Y54651842D01*
X58823446Y54680349D01*
X58839340Y54681600D01*
X59460660Y54681600D01*
X59520379Y54662196D01*
X59532502Y54651842D01*
X59971842Y54212502D01*
X60000349Y54156554D01*
X60001600Y54140660D01*
X60001600Y53519340D01*
X59982196Y53459621D01*
G37*
G36*
X59982196Y55999621D02*
G01*
X59971842Y55987498D01*
X59532502Y55548158D01*
X59476554Y55519651D01*
X59460660Y55518400D01*
X58839340Y55518400D01*
X58779621Y55537804D01*
X58767498Y55548158D01*
X58328158Y55987498D01*
X58299651Y56043446D01*
X58298400Y56059340D01*
X58298400Y56680660D01*
X58317804Y56740379D01*
X58328158Y56752502D01*
X58767498Y57191842D01*
X58823446Y57220349D01*
X58839340Y57221600D01*
X59460660Y57221600D01*
X59520379Y57202196D01*
X59532502Y57191842D01*
X59971842Y56752502D01*
X60000349Y56696554D01*
X60001600Y56680660D01*
X60001600Y56059340D01*
X59982196Y55999621D01*
G37*
G36*
X57442196Y53459621D02*
G01*
X57431842Y53447498D01*
X56992502Y53008158D01*
X56936554Y52979651D01*
X56920660Y52978400D01*
X56299340Y52978400D01*
X56239621Y52997804D01*
X56227498Y53008158D01*
X55788158Y53447498D01*
X55759651Y53503446D01*
X55758400Y53519340D01*
X55758400Y54140660D01*
X55777804Y54200379D01*
X55788158Y54212502D01*
X56227498Y54651842D01*
X56283446Y54680349D01*
X56299340Y54681600D01*
X56920660Y54681600D01*
X56980379Y54662196D01*
X56992502Y54651842D01*
X57431842Y54212502D01*
X57460349Y54156554D01*
X57461600Y54140660D01*
X57461600Y53519340D01*
X57442196Y53459621D01*
G37*
G36*
X57442196Y55999621D02*
G01*
X57431842Y55987498D01*
X56992502Y55548158D01*
X56936554Y55519651D01*
X56920660Y55518400D01*
X56299340Y55518400D01*
X56239621Y55537804D01*
X56227498Y55548158D01*
X55788158Y55987498D01*
X55759651Y56043446D01*
X55758400Y56059340D01*
X55758400Y56680660D01*
X55777804Y56740379D01*
X55788158Y56752502D01*
X56227498Y57191842D01*
X56283446Y57220349D01*
X56299340Y57221600D01*
X56920660Y57221600D01*
X56980379Y57202196D01*
X56992502Y57191842D01*
X57431842Y56752502D01*
X57460349Y56696554D01*
X57461600Y56680660D01*
X57461600Y56059340D01*
X57442196Y55999621D01*
G37*
G36*
X54902196Y53459621D02*
G01*
X54891842Y53447498D01*
X54452502Y53008158D01*
X54396554Y52979651D01*
X54380660Y52978400D01*
X53759340Y52978400D01*
X53699621Y52997804D01*
X53687498Y53008158D01*
X53248158Y53447498D01*
X53219651Y53503446D01*
X53218400Y53519340D01*
X53218400Y54140660D01*
X53237804Y54200379D01*
X53248158Y54212502D01*
X53687498Y54651842D01*
X53743446Y54680349D01*
X53759340Y54681600D01*
X54380660Y54681600D01*
X54440379Y54662196D01*
X54452502Y54651842D01*
X54891842Y54212502D01*
X54920349Y54156554D01*
X54921600Y54140660D01*
X54921600Y53519340D01*
X54902196Y53459621D01*
G37*
G36*
X54902196Y55999621D02*
G01*
X54891842Y55987498D01*
X54452502Y55548158D01*
X54396554Y55519651D01*
X54380660Y55518400D01*
X53759340Y55518400D01*
X53699621Y55537804D01*
X53687498Y55548158D01*
X53248158Y55987498D01*
X53219651Y56043446D01*
X53218400Y56059340D01*
X53218400Y56680660D01*
X53237804Y56740379D01*
X53248158Y56752502D01*
X53687498Y57191842D01*
X53743446Y57220349D01*
X53759340Y57221600D01*
X54380660Y57221600D01*
X54440379Y57202196D01*
X54452502Y57191842D01*
X54891842Y56752502D01*
X54920349Y56696554D01*
X54921600Y56680660D01*
X54921600Y56059340D01*
X54902196Y55999621D01*
G37*
G36*
X52362196Y53459621D02*
G01*
X52351842Y53447498D01*
X51912502Y53008158D01*
X51856554Y52979651D01*
X51840660Y52978400D01*
X51219340Y52978400D01*
X51159621Y52997804D01*
X51147498Y53008158D01*
X50708158Y53447498D01*
X50679651Y53503446D01*
X50678400Y53519340D01*
X50678400Y54140660D01*
X50697804Y54200379D01*
X50708158Y54212502D01*
X51147498Y54651842D01*
X51203446Y54680349D01*
X51219340Y54681600D01*
X51840660Y54681600D01*
X51900379Y54662196D01*
X51912502Y54651842D01*
X52351842Y54212502D01*
X52380349Y54156554D01*
X52381600Y54140660D01*
X52381600Y53519340D01*
X52362196Y53459621D01*
G37*
G36*
X52362196Y55999621D02*
G01*
X52351842Y55987498D01*
X51912502Y55548158D01*
X51856554Y55519651D01*
X51840660Y55518400D01*
X51219340Y55518400D01*
X51159621Y55537804D01*
X51147498Y55548158D01*
X50708158Y55987498D01*
X50679651Y56043446D01*
X50678400Y56059340D01*
X50678400Y56680660D01*
X50697804Y56740379D01*
X50708158Y56752502D01*
X51147498Y57191842D01*
X51203446Y57220349D01*
X51219340Y57221600D01*
X51840660Y57221600D01*
X51900379Y57202196D01*
X51912502Y57191842D01*
X52351842Y56752502D01*
X52380349Y56696554D01*
X52381600Y56680660D01*
X52381600Y56059340D01*
X52362196Y55999621D01*
G37*
G36*
X49822196Y53459621D02*
G01*
X49811842Y53447498D01*
X49372502Y53008158D01*
X49316554Y52979651D01*
X49300660Y52978400D01*
X48679340Y52978400D01*
X48619621Y52997804D01*
X48607498Y53008158D01*
X48168158Y53447498D01*
X48139651Y53503446D01*
X48138400Y53519340D01*
X48138400Y54140660D01*
X48157804Y54200379D01*
X48168158Y54212502D01*
X48607498Y54651842D01*
X48663446Y54680349D01*
X48679340Y54681600D01*
X49300660Y54681600D01*
X49360379Y54662196D01*
X49372502Y54651842D01*
X49811842Y54212502D01*
X49840349Y54156554D01*
X49841600Y54140660D01*
X49841600Y53519340D01*
X49822196Y53459621D01*
G37*
G36*
X49822196Y55999621D02*
G01*
X49811842Y55987498D01*
X49372502Y55548158D01*
X49316554Y55519651D01*
X49300660Y55518400D01*
X48679340Y55518400D01*
X48619621Y55537804D01*
X48607498Y55548158D01*
X48168158Y55987498D01*
X48139651Y56043446D01*
X48138400Y56059340D01*
X48138400Y56680660D01*
X48157804Y56740379D01*
X48168158Y56752502D01*
X48607498Y57191842D01*
X48663446Y57220349D01*
X48679340Y57221600D01*
X49300660Y57221600D01*
X49360379Y57202196D01*
X49372502Y57191842D01*
X49811842Y56752502D01*
X49840349Y56696554D01*
X49841600Y56680660D01*
X49841600Y56059340D01*
X49822196Y55999621D01*
G37*
G36*
X47282196Y53459621D02*
G01*
X47271842Y53447498D01*
X46832502Y53008158D01*
X46776554Y52979651D01*
X46760660Y52978400D01*
X46139340Y52978400D01*
X46079621Y52997804D01*
X46067498Y53008158D01*
X45628158Y53447498D01*
X45599651Y53503446D01*
X45598400Y53519340D01*
X45598400Y54140660D01*
X45617804Y54200379D01*
X45628158Y54212502D01*
X46067498Y54651842D01*
X46123446Y54680349D01*
X46139340Y54681600D01*
X46760660Y54681600D01*
X46820379Y54662196D01*
X46832502Y54651842D01*
X47271842Y54212502D01*
X47300349Y54156554D01*
X47301600Y54140660D01*
X47301600Y53519340D01*
X47282196Y53459621D01*
G37*
G36*
X47282196Y55999621D02*
G01*
X47271842Y55987498D01*
X46832502Y55548158D01*
X46776554Y55519651D01*
X46760660Y55518400D01*
X46139340Y55518400D01*
X46079621Y55537804D01*
X46067498Y55548158D01*
X45628158Y55987498D01*
X45599651Y56043446D01*
X45598400Y56059340D01*
X45598400Y56680660D01*
X45617804Y56740379D01*
X45628158Y56752502D01*
X46067498Y57191842D01*
X46123446Y57220349D01*
X46139340Y57221600D01*
X46760660Y57221600D01*
X46820379Y57202196D01*
X46832502Y57191842D01*
X47271842Y56752502D01*
X47300349Y56696554D01*
X47301600Y56680660D01*
X47301600Y56059340D01*
X47282196Y55999621D01*
G37*
G36*
X44742196Y53459621D02*
G01*
X44731842Y53447498D01*
X44292502Y53008158D01*
X44236554Y52979651D01*
X44220660Y52978400D01*
X43599340Y52978400D01*
X43539621Y52997804D01*
X43527498Y53008158D01*
X43088158Y53447498D01*
X43059651Y53503446D01*
X43058400Y53519340D01*
X43058400Y54140660D01*
X43077804Y54200379D01*
X43088158Y54212502D01*
X43527498Y54651842D01*
X43583446Y54680349D01*
X43599340Y54681600D01*
X44220660Y54681600D01*
X44280379Y54662196D01*
X44292502Y54651842D01*
X44731842Y54212502D01*
X44760349Y54156554D01*
X44761600Y54140660D01*
X44761600Y53519340D01*
X44742196Y53459621D01*
G37*
G36*
X44742196Y55999621D02*
G01*
X44731842Y55987498D01*
X44292502Y55548158D01*
X44236554Y55519651D01*
X44220660Y55518400D01*
X43599340Y55518400D01*
X43539621Y55537804D01*
X43527498Y55548158D01*
X43088158Y55987498D01*
X43059651Y56043446D01*
X43058400Y56059340D01*
X43058400Y56680660D01*
X43077804Y56740379D01*
X43088158Y56752502D01*
X43527498Y57191842D01*
X43583446Y57220349D01*
X43599340Y57221600D01*
X44220660Y57221600D01*
X44280379Y57202196D01*
X44292502Y57191842D01*
X44731842Y56752502D01*
X44760349Y56696554D01*
X44761600Y56680660D01*
X44761600Y56059340D01*
X44742196Y55999621D01*
G37*
G36*
X42202196Y53459621D02*
G01*
X42191842Y53447498D01*
X41752502Y53008158D01*
X41696554Y52979651D01*
X41680660Y52978400D01*
X41059340Y52978400D01*
X40999621Y52997804D01*
X40987498Y53008158D01*
X40548158Y53447498D01*
X40519651Y53503446D01*
X40518400Y53519340D01*
X40518400Y54140660D01*
X40537804Y54200379D01*
X40548158Y54212502D01*
X40987498Y54651842D01*
X41043446Y54680349D01*
X41059340Y54681600D01*
X41680660Y54681600D01*
X41740379Y54662196D01*
X41752502Y54651842D01*
X42191842Y54212502D01*
X42220349Y54156554D01*
X42221600Y54140660D01*
X42221600Y53519340D01*
X42202196Y53459621D01*
G37*
G36*
X42202196Y55999621D02*
G01*
X42191842Y55987498D01*
X41752502Y55548158D01*
X41696554Y55519651D01*
X41680660Y55518400D01*
X41059340Y55518400D01*
X40999621Y55537804D01*
X40987498Y55548158D01*
X40548158Y55987498D01*
X40519651Y56043446D01*
X40518400Y56059340D01*
X40518400Y56680660D01*
X40537804Y56740379D01*
X40548158Y56752502D01*
X40987498Y57191842D01*
X41043446Y57220349D01*
X41059340Y57221600D01*
X41680660Y57221600D01*
X41740379Y57202196D01*
X41752502Y57191842D01*
X42191842Y56752502D01*
X42220349Y56696554D01*
X42221600Y56680660D01*
X42221600Y56059340D01*
X42202196Y55999621D01*
G37*
G36*
X39662196Y53459621D02*
G01*
X39651842Y53447498D01*
X39212502Y53008158D01*
X39156554Y52979651D01*
X39140660Y52978400D01*
X38519340Y52978400D01*
X38459621Y52997804D01*
X38447498Y53008158D01*
X38008158Y53447498D01*
X37979651Y53503446D01*
X37978400Y53519340D01*
X37978400Y54140660D01*
X37997804Y54200379D01*
X38008158Y54212502D01*
X38447498Y54651842D01*
X38503446Y54680349D01*
X38519340Y54681600D01*
X39140660Y54681600D01*
X39200379Y54662196D01*
X39212502Y54651842D01*
X39651842Y54212502D01*
X39680349Y54156554D01*
X39681600Y54140660D01*
X39681600Y53519340D01*
X39662196Y53459621D01*
G37*
G36*
X39662196Y55999621D02*
G01*
X39651842Y55987498D01*
X39212502Y55548158D01*
X39156554Y55519651D01*
X39140660Y55518400D01*
X38519340Y55518400D01*
X38459621Y55537804D01*
X38447498Y55548158D01*
X38008158Y55987498D01*
X37979651Y56043446D01*
X37978400Y56059340D01*
X37978400Y56680660D01*
X37997804Y56740379D01*
X38008158Y56752502D01*
X38447498Y57191842D01*
X38503446Y57220349D01*
X38519340Y57221600D01*
X39140660Y57221600D01*
X39200379Y57202196D01*
X39212502Y57191842D01*
X39651842Y56752502D01*
X39680349Y56696554D01*
X39681600Y56680660D01*
X39681600Y56059340D01*
X39662196Y55999621D01*
G37*
G36*
X37122196Y53459621D02*
G01*
X37111842Y53447498D01*
X36672502Y53008158D01*
X36616554Y52979651D01*
X36600660Y52978400D01*
X35979340Y52978400D01*
X35919621Y52997804D01*
X35907498Y53008158D01*
X35468158Y53447498D01*
X35439651Y53503446D01*
X35438400Y53519340D01*
X35438400Y54140660D01*
X35457804Y54200379D01*
X35468158Y54212502D01*
X35907498Y54651842D01*
X35963446Y54680349D01*
X35979340Y54681600D01*
X36600660Y54681600D01*
X36660379Y54662196D01*
X36672502Y54651842D01*
X37111842Y54212502D01*
X37140349Y54156554D01*
X37141600Y54140660D01*
X37141600Y53519340D01*
X37122196Y53459621D01*
G37*
G36*
X37122196Y55999621D02*
G01*
X37111842Y55987498D01*
X36672502Y55548158D01*
X36616554Y55519651D01*
X36600660Y55518400D01*
X35979340Y55518400D01*
X35919621Y55537804D01*
X35907498Y55548158D01*
X35468158Y55987498D01*
X35439651Y56043446D01*
X35438400Y56059340D01*
X35438400Y56680660D01*
X35457804Y56740379D01*
X35468158Y56752502D01*
X35907498Y57191842D01*
X35963446Y57220349D01*
X35979340Y57221600D01*
X36600660Y57221600D01*
X36660379Y57202196D01*
X36672502Y57191842D01*
X37111842Y56752502D01*
X37140349Y56696554D01*
X37141600Y56680660D01*
X37141600Y56059340D01*
X37122196Y55999621D01*
G37*
G36*
X34582196Y53459621D02*
G01*
X34571842Y53447498D01*
X34132502Y53008158D01*
X34076554Y52979651D01*
X34060660Y52978400D01*
X33439340Y52978400D01*
X33379621Y52997804D01*
X33367498Y53008158D01*
X32928158Y53447498D01*
X32899651Y53503446D01*
X32898400Y53519340D01*
X32898400Y54140660D01*
X32917804Y54200379D01*
X32928158Y54212502D01*
X33367498Y54651842D01*
X33423446Y54680349D01*
X33439340Y54681600D01*
X34060660Y54681600D01*
X34120379Y54662196D01*
X34132502Y54651842D01*
X34571842Y54212502D01*
X34600349Y54156554D01*
X34601600Y54140660D01*
X34601600Y53519340D01*
X34582196Y53459621D01*
G37*
G36*
X34582196Y55999621D02*
G01*
X34571842Y55987498D01*
X34132502Y55548158D01*
X34076554Y55519651D01*
X34060660Y55518400D01*
X33439340Y55518400D01*
X33379621Y55537804D01*
X33367498Y55548158D01*
X32928158Y55987498D01*
X32899651Y56043446D01*
X32898400Y56059340D01*
X32898400Y56680660D01*
X32917804Y56740379D01*
X32928158Y56752502D01*
X33367498Y57191842D01*
X33423446Y57220349D01*
X33439340Y57221600D01*
X34060660Y57221600D01*
X34120379Y57202196D01*
X34132502Y57191842D01*
X34571842Y56752502D01*
X34600349Y56696554D01*
X34601600Y56680660D01*
X34601600Y56059340D01*
X34582196Y55999621D01*
G37*
G36*
X32042196Y53459621D02*
G01*
X32031842Y53447498D01*
X31592502Y53008158D01*
X31536554Y52979651D01*
X31520660Y52978400D01*
X30899340Y52978400D01*
X30839621Y52997804D01*
X30827498Y53008158D01*
X30388158Y53447498D01*
X30359651Y53503446D01*
X30358400Y53519340D01*
X30358400Y54140660D01*
X30377804Y54200379D01*
X30388158Y54212502D01*
X30827498Y54651842D01*
X30883446Y54680349D01*
X30899340Y54681600D01*
X31520660Y54681600D01*
X31580379Y54662196D01*
X31592502Y54651842D01*
X32031842Y54212502D01*
X32060349Y54156554D01*
X32061600Y54140660D01*
X32061600Y53519340D01*
X32042196Y53459621D01*
G37*
G36*
X32042196Y55999621D02*
G01*
X32031842Y55987498D01*
X31592502Y55548158D01*
X31536554Y55519651D01*
X31520660Y55518400D01*
X30899340Y55518400D01*
X30839621Y55537804D01*
X30827498Y55548158D01*
X30388158Y55987498D01*
X30359651Y56043446D01*
X30358400Y56059340D01*
X30358400Y56680660D01*
X30377804Y56740379D01*
X30388158Y56752502D01*
X30827498Y57191842D01*
X30883446Y57220349D01*
X30899340Y57221600D01*
X31520660Y57221600D01*
X31580379Y57202196D01*
X31592502Y57191842D01*
X32031842Y56752502D01*
X32060349Y56696554D01*
X32061600Y56680660D01*
X32061600Y56059340D01*
X32042196Y55999621D01*
G37*
G36*
X29502196Y53459621D02*
G01*
X29491842Y53447498D01*
X29052502Y53008158D01*
X28996554Y52979651D01*
X28980660Y52978400D01*
X28359340Y52978400D01*
X28299621Y52997804D01*
X28287498Y53008158D01*
X27848158Y53447498D01*
X27819651Y53503446D01*
X27818400Y53519340D01*
X27818400Y54140660D01*
X27837804Y54200379D01*
X27848158Y54212502D01*
X28287498Y54651842D01*
X28343446Y54680349D01*
X28359340Y54681600D01*
X28980660Y54681600D01*
X29040379Y54662196D01*
X29052502Y54651842D01*
X29491842Y54212502D01*
X29520349Y54156554D01*
X29521600Y54140660D01*
X29521600Y53519340D01*
X29502196Y53459621D01*
G37*
G36*
X29502196Y55999621D02*
G01*
X29491842Y55987498D01*
X29052502Y55548158D01*
X28996554Y55519651D01*
X28980660Y55518400D01*
X28359340Y55518400D01*
X28299621Y55537804D01*
X28287498Y55548158D01*
X27848158Y55987498D01*
X27819651Y56043446D01*
X27818400Y56059340D01*
X27818400Y56680660D01*
X27837804Y56740379D01*
X27848158Y56752502D01*
X28287498Y57191842D01*
X28343446Y57220349D01*
X28359340Y57221600D01*
X28980660Y57221600D01*
X29040379Y57202196D01*
X29052502Y57191842D01*
X29491842Y56752502D01*
X29520349Y56696554D01*
X29521600Y56680660D01*
X29521600Y56059340D01*
X29502196Y55999621D01*
G37*
G36*
X26962196Y53459621D02*
G01*
X26951842Y53447498D01*
X26512502Y53008158D01*
X26456554Y52979651D01*
X26440660Y52978400D01*
X25819340Y52978400D01*
X25759621Y52997804D01*
X25747498Y53008158D01*
X25308158Y53447498D01*
X25279651Y53503446D01*
X25278400Y53519340D01*
X25278400Y54140660D01*
X25297804Y54200379D01*
X25308158Y54212502D01*
X25747498Y54651842D01*
X25803446Y54680349D01*
X25819340Y54681600D01*
X26440660Y54681600D01*
X26500379Y54662196D01*
X26512502Y54651842D01*
X26951842Y54212502D01*
X26980349Y54156554D01*
X26981600Y54140660D01*
X26981600Y53519340D01*
X26962196Y53459621D01*
G37*
G36*
X26962196Y55999621D02*
G01*
X26951842Y55987498D01*
X26512502Y55548158D01*
X26456554Y55519651D01*
X26440660Y55518400D01*
X25819340Y55518400D01*
X25759621Y55537804D01*
X25747498Y55548158D01*
X25308158Y55987498D01*
X25279651Y56043446D01*
X25278400Y56059340D01*
X25278400Y56680660D01*
X25297804Y56740379D01*
X25308158Y56752502D01*
X25747498Y57191842D01*
X25803446Y57220349D01*
X25819340Y57221600D01*
X26440660Y57221600D01*
X26500379Y57202196D01*
X26512502Y57191842D01*
X26951842Y56752502D01*
X26980349Y56696554D01*
X26981600Y56680660D01*
X26981600Y56059340D01*
X26962196Y55999621D01*
G37*
G36*
X24422196Y53459621D02*
G01*
X24411842Y53447498D01*
X23972502Y53008158D01*
X23916554Y52979651D01*
X23900660Y52978400D01*
X23279340Y52978400D01*
X23219621Y52997804D01*
X23207498Y53008158D01*
X22768158Y53447498D01*
X22739651Y53503446D01*
X22738400Y53519340D01*
X22738400Y54140660D01*
X22757804Y54200379D01*
X22768158Y54212502D01*
X23207498Y54651842D01*
X23263446Y54680349D01*
X23279340Y54681600D01*
X23900660Y54681600D01*
X23960379Y54662196D01*
X23972502Y54651842D01*
X24411842Y54212502D01*
X24440349Y54156554D01*
X24441600Y54140660D01*
X24441600Y53519340D01*
X24422196Y53459621D01*
G37*
G36*
X24422196Y55999621D02*
G01*
X24411842Y55987498D01*
X23972502Y55548158D01*
X23916554Y55519651D01*
X23900660Y55518400D01*
X23279340Y55518400D01*
X23219621Y55537804D01*
X23207498Y55548158D01*
X22768158Y55987498D01*
X22739651Y56043446D01*
X22738400Y56059340D01*
X22738400Y56680660D01*
X22757804Y56740379D01*
X22768158Y56752502D01*
X23207498Y57191842D01*
X23263446Y57220349D01*
X23279340Y57221600D01*
X23900660Y57221600D01*
X23960379Y57202196D01*
X23972502Y57191842D01*
X24411842Y56752502D01*
X24440349Y56696554D01*
X24441600Y56680660D01*
X24441600Y56059340D01*
X24422196Y55999621D01*
G37*
G36*
X21882196Y53459621D02*
G01*
X21871842Y53447498D01*
X21432502Y53008158D01*
X21376554Y52979651D01*
X21360660Y52978400D01*
X20739340Y52978400D01*
X20679621Y52997804D01*
X20667498Y53008158D01*
X20228158Y53447498D01*
X20199651Y53503446D01*
X20198400Y53519340D01*
X20198400Y54140660D01*
X20217804Y54200379D01*
X20228158Y54212502D01*
X20667498Y54651842D01*
X20723446Y54680349D01*
X20739340Y54681600D01*
X21360660Y54681600D01*
X21420379Y54662196D01*
X21432502Y54651842D01*
X21871842Y54212502D01*
X21900349Y54156554D01*
X21901600Y54140660D01*
X21901600Y53519340D01*
X21882196Y53459621D01*
G37*
G36*
X21882196Y55999621D02*
G01*
X21871842Y55987498D01*
X21432502Y55548158D01*
X21376554Y55519651D01*
X21360660Y55518400D01*
X20739340Y55518400D01*
X20679621Y55537804D01*
X20667498Y55548158D01*
X20228158Y55987498D01*
X20199651Y56043446D01*
X20198400Y56059340D01*
X20198400Y56680660D01*
X20217804Y56740379D01*
X20228158Y56752502D01*
X20667498Y57191842D01*
X20723446Y57220349D01*
X20739340Y57221600D01*
X21360660Y57221600D01*
X21420379Y57202196D01*
X21432502Y57191842D01*
X21871842Y56752502D01*
X21900349Y56696554D01*
X21901600Y56680660D01*
X21901600Y56059340D01*
X21882196Y55999621D01*
G37*
G36*
X19342196Y53459621D02*
G01*
X19331842Y53447498D01*
X18892502Y53008158D01*
X18836554Y52979651D01*
X18820660Y52978400D01*
X18199340Y52978400D01*
X18139621Y52997804D01*
X18127498Y53008158D01*
X17688158Y53447498D01*
X17659651Y53503446D01*
X17658400Y53519340D01*
X17658400Y54140660D01*
X17677804Y54200379D01*
X17688158Y54212502D01*
X18127498Y54651842D01*
X18183446Y54680349D01*
X18199340Y54681600D01*
X18820660Y54681600D01*
X18880379Y54662196D01*
X18892502Y54651842D01*
X19331842Y54212502D01*
X19360349Y54156554D01*
X19361600Y54140660D01*
X19361600Y53519340D01*
X19342196Y53459621D01*
G37*
G36*
X19342196Y55999621D02*
G01*
X19331842Y55987498D01*
X18892502Y55548158D01*
X18836554Y55519651D01*
X18820660Y55518400D01*
X18199340Y55518400D01*
X18139621Y55537804D01*
X18127498Y55548158D01*
X17688158Y55987498D01*
X17659651Y56043446D01*
X17658400Y56059340D01*
X17658400Y56680660D01*
X17677804Y56740379D01*
X17688158Y56752502D01*
X18127498Y57191842D01*
X18183446Y57220349D01*
X18199340Y57221600D01*
X18820660Y57221600D01*
X18880379Y57202196D01*
X18892502Y57191842D01*
X19331842Y56752502D01*
X19360349Y56696554D01*
X19361600Y56680660D01*
X19361600Y56059340D01*
X19342196Y55999621D01*
G37*
G36*
X16802196Y53459621D02*
G01*
X16791842Y53447498D01*
X16352502Y53008158D01*
X16296554Y52979651D01*
X16280660Y52978400D01*
X15659340Y52978400D01*
X15599621Y52997804D01*
X15587498Y53008158D01*
X15148158Y53447498D01*
X15119651Y53503446D01*
X15118400Y53519340D01*
X15118400Y54140660D01*
X15137804Y54200379D01*
X15148158Y54212502D01*
X15587498Y54651842D01*
X15643446Y54680349D01*
X15659340Y54681600D01*
X16280660Y54681600D01*
X16340379Y54662196D01*
X16352502Y54651842D01*
X16791842Y54212502D01*
X16820349Y54156554D01*
X16821600Y54140660D01*
X16821600Y53519340D01*
X16802196Y53459621D01*
G37*
G36*
X16802196Y55999621D02*
G01*
X16791842Y55987498D01*
X16352502Y55548158D01*
X16296554Y55519651D01*
X16280660Y55518400D01*
X15659340Y55518400D01*
X15599621Y55537804D01*
X15587498Y55548158D01*
X15148158Y55987498D01*
X15119651Y56043446D01*
X15118400Y56059340D01*
X15118400Y56680660D01*
X15137804Y56740379D01*
X15148158Y56752502D01*
X15587498Y57191842D01*
X15643446Y57220349D01*
X15659340Y57221600D01*
X16280660Y57221600D01*
X16340379Y57202196D01*
X16352502Y57191842D01*
X16791842Y56752502D01*
X16820349Y56696554D01*
X16821600Y56680660D01*
X16821600Y56059340D01*
X16802196Y55999621D01*
G37*
G04 #@! TD*
D14*
G04 #@! TO.C,M5*
X79249998Y16000000D03*
X79249998Y9600003D03*
X79249998Y7700000D03*
X79249998Y3400000D03*
D15*
X79699997Y1000003D03*
X79699997Y2D03*
D14*
X79249998Y-2850000D03*
X63750001Y16450002D03*
X63750001Y14600003D03*
X63750001Y9650000D03*
X63750001Y-2399998D03*
G04 #@! TD*
M02*
