G04 #@! TF.GenerationSoftware,KiCad,Pcbnew,8.0.9-8.0.9-0~ubuntu24.04.1*
G04 #@! TF.CreationDate,2026-07-03T21:36:16+00:00*
G04 #@! TF.ProjectId,RRModule,52524d6f-6475-46c6-952e-6b696361645f,rev?*
G04 #@! TF.SameCoordinates,Original*
G04 #@! TF.FileFunction,Paste,Bot*
G04 #@! TF.FilePolarity,Positive*
%FSLAX46Y46*%
G04 Gerber Fmt 4.6, Leading zero omitted, Abs format (unit mm)*
G04 Created by KiCad (PCBNEW 8.0.9-8.0.9-0~ubuntu24.04.1) date 2026-07-03 21:36:16*
%MOMM*%
%LPD*%
G01*
G04 APERTURE LIST*
G04 APERTURE END LIST*
G04 #@! TO.C,M3*
G36*
G01*
X64548003Y22505000D02*
X64798003Y22505000D01*
G75*
G02*
X64923003Y22380000I0J-125000D01*
G01*
X64923003Y22380000D01*
G75*
G02*
X64798003Y22255000I-125000J0D01*
G01*
X64548003Y22255000D01*
G75*
G02*
X64423003Y22380000I0J125000D01*
G01*
X64423003Y22380000D01*
G75*
G02*
X64548003Y22505000I125000J0D01*
G01*
G37*
G36*
G01*
X64798003Y23355004D02*
X64548003Y23355004D01*
G75*
G02*
X64423003Y23480004I0J125000D01*
G01*
X64423003Y23480004D01*
G75*
G02*
X64548003Y23605004I125000J0D01*
G01*
X64798003Y23605004D01*
G75*
G02*
X64923003Y23480004I0J-125000D01*
G01*
X64923003Y23480004D01*
G75*
G02*
X64798003Y23355004I-125000J0D01*
G01*
G37*
G36*
G01*
X64798003Y24455005D02*
X64548003Y24455005D01*
G75*
G02*
X64423003Y24580005I0J125000D01*
G01*
X64423003Y24580005D01*
G75*
G02*
X64548003Y24705005I125000J0D01*
G01*
X64798003Y24705005D01*
G75*
G02*
X64923003Y24580005I0J-125000D01*
G01*
X64923003Y24580005D01*
G75*
G02*
X64798003Y24455005I-125000J0D01*
G01*
G37*
G36*
G01*
X64798003Y25555002D02*
X64548003Y25555002D01*
G75*
G02*
X64423003Y25680002I0J125000D01*
G01*
X64423003Y25680002D01*
G75*
G02*
X64548003Y25805002I125000J0D01*
G01*
X64798003Y25805002D01*
G75*
G02*
X64923003Y25680002I0J-125000D01*
G01*
X64923003Y25680002D01*
G75*
G02*
X64798003Y25555002I-125000J0D01*
G01*
G37*
G36*
G01*
X64798003Y26655000D02*
X64548003Y26655000D01*
G75*
G02*
X64423003Y26780000I0J125000D01*
G01*
X64423003Y26780000D01*
G75*
G02*
X64548003Y26905000I125000J0D01*
G01*
X64798003Y26905000D01*
G75*
G02*
X64923003Y26780000I0J-125000D01*
G01*
X64923003Y26780000D01*
G75*
G02*
X64798003Y26655000I-125000J0D01*
G01*
G37*
G36*
G01*
X64798003Y27754998D02*
X64548003Y27754998D01*
G75*
G02*
X64423003Y27879998I0J125000D01*
G01*
X64423003Y27879998D01*
G75*
G02*
X64548003Y28004998I125000J0D01*
G01*
X64798003Y28004998D01*
G75*
G02*
X64923003Y27879998I0J-125000D01*
G01*
X64923003Y27879998D01*
G75*
G02*
X64798003Y27754998I-125000J0D01*
G01*
G37*
G36*
G01*
X64798003Y28854996D02*
X64548003Y28854996D01*
G75*
G02*
X64423003Y28979996I0J125000D01*
G01*
X64423003Y28979996D01*
G75*
G02*
X64548003Y29104996I125000J0D01*
G01*
X64798003Y29104996D01*
G75*
G02*
X64923003Y28979996I0J-125000D01*
G01*
X64923003Y28979996D01*
G75*
G02*
X64798003Y28854996I-125000J0D01*
G01*
G37*
G36*
G01*
X64798003Y29954994D02*
X64548003Y29954994D01*
G75*
G02*
X64423003Y30079994I0J125000D01*
G01*
X64423003Y30079994D01*
G75*
G02*
X64548003Y30204994I125000J0D01*
G01*
X64798003Y30204994D01*
G75*
G02*
X64923003Y30079994I0J-125000D01*
G01*
X64923003Y30079994D01*
G75*
G02*
X64798003Y29954994I-125000J0D01*
G01*
G37*
G36*
G01*
X64798003Y31054991D02*
X64548003Y31054991D01*
G75*
G02*
X64423003Y31179991I0J125000D01*
G01*
X64423003Y31179991D01*
G75*
G02*
X64548003Y31304991I125000J0D01*
G01*
X64798003Y31304991D01*
G75*
G02*
X64923003Y31179991I0J-125000D01*
G01*
X64923003Y31179991D01*
G75*
G02*
X64798003Y31054991I-125000J0D01*
G01*
G37*
G36*
G01*
X64798003Y32154989D02*
X64548003Y32154989D01*
G75*
G02*
X64423003Y32279989I0J125000D01*
G01*
X64423003Y32279989D01*
G75*
G02*
X64548003Y32404989I125000J0D01*
G01*
X64798003Y32404989D01*
G75*
G02*
X64923003Y32279989I0J-125000D01*
G01*
X64923003Y32279989D01*
G75*
G02*
X64798003Y32154989I-125000J0D01*
G01*
G37*
G36*
G01*
X64798003Y33254987D02*
X64548003Y33254987D01*
G75*
G02*
X64423003Y33379987I0J125000D01*
G01*
X64423003Y33379987D01*
G75*
G02*
X64548003Y33504987I125000J0D01*
G01*
X64798003Y33504987D01*
G75*
G02*
X64923003Y33379987I0J-125000D01*
G01*
X64923003Y33379987D01*
G75*
G02*
X64798003Y33254987I-125000J0D01*
G01*
G37*
G36*
G01*
X64798003Y34354985D02*
X64548003Y34354985D01*
G75*
G02*
X64423003Y34479985I0J125000D01*
G01*
X64423003Y34479985D01*
G75*
G02*
X64548003Y34604985I125000J0D01*
G01*
X64798003Y34604985D01*
G75*
G02*
X64923003Y34479985I0J-125000D01*
G01*
X64923003Y34479985D01*
G75*
G02*
X64798003Y34354985I-125000J0D01*
G01*
G37*
G36*
G01*
X64798003Y35454983D02*
X64548003Y35454983D01*
G75*
G02*
X64423003Y35579983I0J125000D01*
G01*
X64423003Y35579983D01*
G75*
G02*
X64548003Y35704983I125000J0D01*
G01*
X64798003Y35704983D01*
G75*
G02*
X64923003Y35579983I0J-125000D01*
G01*
X64923003Y35579983D01*
G75*
G02*
X64798003Y35454983I-125000J0D01*
G01*
G37*
G36*
G01*
X64798003Y36554980D02*
X64548003Y36554980D01*
G75*
G02*
X64423003Y36679980I0J125000D01*
G01*
X64423003Y36679980D01*
G75*
G02*
X64548003Y36804980I125000J0D01*
G01*
X64798003Y36804980D01*
G75*
G02*
X64923003Y36679980I0J-125000D01*
G01*
X64923003Y36679980D01*
G75*
G02*
X64798003Y36554980I-125000J0D01*
G01*
G37*
G36*
G01*
X64798003Y37654978D02*
X64548003Y37654978D01*
G75*
G02*
X64423003Y37779978I0J125000D01*
G01*
X64423003Y37779978D01*
G75*
G02*
X64548003Y37904978I125000J0D01*
G01*
X64798003Y37904978D01*
G75*
G02*
X64923003Y37779978I0J-125000D01*
G01*
X64923003Y37779978D01*
G75*
G02*
X64798003Y37654978I-125000J0D01*
G01*
G37*
G36*
G01*
X64798003Y38754976D02*
X64548003Y38754976D01*
G75*
G02*
X64423003Y38879976I0J125000D01*
G01*
X64423003Y38879976D01*
G75*
G02*
X64548003Y39004976I125000J0D01*
G01*
X64798003Y39004976D01*
G75*
G02*
X64923003Y38879976I0J-125000D01*
G01*
X64923003Y38879976D01*
G75*
G02*
X64798003Y38754976I-125000J0D01*
G01*
G37*
G36*
G01*
X64798003Y39854974D02*
X64548003Y39854974D01*
G75*
G02*
X64423003Y39979974I0J125000D01*
G01*
X64423003Y39979974D01*
G75*
G02*
X64548003Y40104974I125000J0D01*
G01*
X64798003Y40104974D01*
G75*
G02*
X64923003Y39979974I0J-125000D01*
G01*
X64923003Y39979974D01*
G75*
G02*
X64798003Y39854974I-125000J0D01*
G01*
G37*
G36*
G01*
X64798003Y40954972D02*
X64548003Y40954972D01*
G75*
G02*
X64423003Y41079972I0J125000D01*
G01*
X64423003Y41079972D01*
G75*
G02*
X64548003Y41204972I125000J0D01*
G01*
X64798003Y41204972D01*
G75*
G02*
X64923003Y41079972I0J-125000D01*
G01*
X64923003Y41079972D01*
G75*
G02*
X64798003Y40954972I-125000J0D01*
G01*
G37*
G36*
G01*
X64798003Y42054969D02*
X64548003Y42054969D01*
G75*
G02*
X64423003Y42179969I0J125000D01*
G01*
X64423003Y42179969D01*
G75*
G02*
X64548003Y42304969I125000J0D01*
G01*
X64798003Y42304969D01*
G75*
G02*
X64923003Y42179969I0J-125000D01*
G01*
X64923003Y42179969D01*
G75*
G02*
X64798003Y42054969I-125000J0D01*
G01*
G37*
G36*
G01*
X64798003Y43154967D02*
X64548003Y43154967D01*
G75*
G02*
X64423003Y43279967I0J125000D01*
G01*
X64423003Y43279967D01*
G75*
G02*
X64548003Y43404967I125000J0D01*
G01*
X64798003Y43404967D01*
G75*
G02*
X64923003Y43279967I0J-125000D01*
G01*
X64923003Y43279967D01*
G75*
G02*
X64798003Y43154967I-125000J0D01*
G01*
G37*
G36*
G01*
X64798003Y44254965D02*
X64548003Y44254965D01*
G75*
G02*
X64423003Y44379965I0J125000D01*
G01*
X64423003Y44379965D01*
G75*
G02*
X64548003Y44504965I125000J0D01*
G01*
X64798003Y44504965D01*
G75*
G02*
X64923003Y44379965I0J-125000D01*
G01*
X64923003Y44379965D01*
G75*
G02*
X64798003Y44254965I-125000J0D01*
G01*
G37*
G36*
G01*
X64798003Y45354963D02*
X64548003Y45354963D01*
G75*
G02*
X64423003Y45479963I0J125000D01*
G01*
X64423003Y45479963D01*
G75*
G02*
X64548003Y45604963I125000J0D01*
G01*
X64798003Y45604963D01*
G75*
G02*
X64923003Y45479963I0J-125000D01*
G01*
X64923003Y45479963D01*
G75*
G02*
X64798003Y45354963I-125000J0D01*
G01*
G37*
G36*
G01*
X64798003Y46454961D02*
X64548003Y46454961D01*
G75*
G02*
X64423003Y46579961I0J125000D01*
G01*
X64423003Y46579961D01*
G75*
G02*
X64548003Y46704961I125000J0D01*
G01*
X64798003Y46704961D01*
G75*
G02*
X64923003Y46579961I0J-125000D01*
G01*
X64923003Y46579961D01*
G75*
G02*
X64798003Y46454961I-125000J0D01*
G01*
G37*
G36*
G01*
X64798003Y47554958D02*
X64548003Y47554958D01*
G75*
G02*
X64423003Y47679958I0J125000D01*
G01*
X64423003Y47679958D01*
G75*
G02*
X64548003Y47804958I125000J0D01*
G01*
X64798003Y47804958D01*
G75*
G02*
X64923003Y47679958I0J-125000D01*
G01*
X64923003Y47679958D01*
G75*
G02*
X64798003Y47554958I-125000J0D01*
G01*
G37*
G36*
G01*
X64798003Y48654956D02*
X64548003Y48654956D01*
G75*
G02*
X64423003Y48779956I0J125000D01*
G01*
X64423003Y48779956D01*
G75*
G02*
X64548003Y48904956I125000J0D01*
G01*
X64798003Y48904956D01*
G75*
G02*
X64923003Y48779956I0J-125000D01*
G01*
X64923003Y48779956D01*
G75*
G02*
X64798003Y48654956I-125000J0D01*
G01*
G37*
G36*
G01*
X64798003Y49754954D02*
X64548003Y49754954D01*
G75*
G02*
X64423003Y49879954I0J125000D01*
G01*
X64423003Y49879954D01*
G75*
G02*
X64548003Y50004954I125000J0D01*
G01*
X64798003Y50004954D01*
G75*
G02*
X64923003Y49879954I0J-125000D01*
G01*
X64923003Y49879954D01*
G75*
G02*
X64798003Y49754954I-125000J0D01*
G01*
G37*
G04 #@! TD*
M02*
