G04 #@! TF.GenerationSoftware,KiCad,Pcbnew,8.0.9-8.0.9-0~ubuntu24.04.1*
G04 #@! TF.CreationDate,2026-07-03T21:36:16+00:00*
G04 #@! TF.ProjectId,RRModule,52524d6f-6475-46c6-952e-6b696361645f,rev?*
G04 #@! TF.SameCoordinates,Original*
G04 #@! TF.FileFunction,Copper,L2,Bot*
G04 #@! TF.FilePolarity,Positive*
%FSLAX46Y46*%
G04 Gerber Fmt 4.6, Leading zero omitted, Abs format (unit mm)*
G04 Created by KiCad (PCBNEW 8.0.9-8.0.9-0~ubuntu24.04.1) date 2026-07-03 21:36:16*
%MOMM*%
%LPD*%
G01*
G04 APERTURE LIST*
G04 #@! TA.AperFunction,ComponentPad*
%ADD10C,0.600000*%
G04 #@! TD*
G04 #@! TA.AperFunction,SMDPad,CuDef*
%ADD11R,0.200000X2.300000*%
G04 #@! TD*
G04 #@! TA.AperFunction,SMDPad,CuDef*
%ADD12R,0.200000X5.400000*%
G04 #@! TD*
G04 #@! TA.AperFunction,SMDPad,CuDef*
%ADD13R,0.200000X8.600000*%
G04 #@! TD*
G04 #@! TA.AperFunction,SMDPad,CuDef*
%ADD14R,0.200000X5.000000*%
G04 #@! TD*
G04 #@! TA.AperFunction,SMDPad,CuDef*
%ADD15R,1.400000X0.200000*%
G04 #@! TD*
G04 #@! TA.AperFunction,SMDPad,CuDef*
%ADD16R,5.000000X0.200000*%
G04 #@! TD*
G04 #@! TA.AperFunction,SMDPad,CuDef*
%ADD17R,6.800000X0.200000*%
G04 #@! TD*
G04 #@! TA.AperFunction,SMDPad,CuDef*
%ADD18R,4.500000X0.200000*%
G04 #@! TD*
G04 #@! TA.AperFunction,SMDPad,CuDef*
%ADD19R,0.200000X1.600000*%
G04 #@! TD*
G04 #@! TA.AperFunction,SMDPad,CuDef*
%ADD20R,0.200000X5.700000*%
G04 #@! TD*
G04 #@! TA.AperFunction,SMDPad,CuDef*
%ADD21R,0.200000X2.000000*%
G04 #@! TD*
G04 #@! TA.AperFunction,ComponentPad*
%ADD22C,0.599999*%
G04 #@! TD*
G04 #@! TA.AperFunction,ComponentPad*
%ADD23R,1.500000X1.500000*%
G04 #@! TD*
G04 #@! TA.AperFunction,ComponentPad*
%ADD24C,1.500000*%
G04 #@! TD*
G04 #@! TA.AperFunction,SMDPad,CuDef*
%ADD25O,0.200000X3.300000*%
G04 #@! TD*
G04 #@! TA.AperFunction,SMDPad,CuDef*
%ADD26O,0.200000X10.200000*%
G04 #@! TD*
G04 #@! TA.AperFunction,SMDPad,CuDef*
%ADD27O,0.200000X0.300000*%
G04 #@! TD*
G04 #@! TA.AperFunction,SMDPad,CuDef*
%ADD28O,17.000000X0.200000*%
G04 #@! TD*
G04 #@! TA.AperFunction,SMDPad,CuDef*
%ADD29O,15.400000X0.200000*%
G04 #@! TD*
G04 #@! TA.AperFunction,SMDPad,CuDef*
%ADD30O,0.200000X4.800000*%
G04 #@! TD*
G04 #@! TA.AperFunction,SMDPad,CuDef*
%ADD31O,0.200000X2.600000*%
G04 #@! TD*
G04 #@! TA.AperFunction,SMDPad,CuDef*
%ADD32O,0.200000X1.000000*%
G04 #@! TD*
G04 #@! TA.AperFunction,SMDPad,CuDef*
%ADD33O,0.200000X1.500000*%
G04 #@! TD*
G04 APERTURE END LIST*
D10*
G04 #@! TO.P,M1,E1,SPI2_SCK/CAN2_TX*
G04 #@! TO.N,unconnected-(M1-SPI2_SCK{slash}CAN2_TX-PadE1)*
X10525000Y12725002D03*
G04 #@! TO.P,M1,E2,SPI2_MISO*
G04 #@! TO.N,unconnected-(M1-SPI2_MISO-PadE2)*
X10525000Y13525003D03*
G04 #@! TO.P,M1,E3,SPI2_MOSI*
G04 #@! TO.N,unconnected-(M1-SPI2_MOSI-PadE3)*
X10525000Y14325001D03*
G04 #@! TO.P,M1,E4,SPI2_CS/CAN2_RX*
G04 #@! TO.N,unconnected-(M1-SPI2_CS{slash}CAN2_RX-PadE4)*
X10525000Y15125002D03*
G04 #@! TO.P,M1,E6,OUT_IO3*
G04 #@! TO.N,unconnected-(M1-OUT_IO3-PadE6)*
X10525000Y15925003D03*
G04 #@! TO.P,M1,E7,OUT_IO5*
G04 #@! TO.N,unconnected-(M1-OUT_IO5-PadE7)*
X10525003Y16725001D03*
G04 #@! TO.P,M1,E8,OUT_IO1*
G04 #@! TO.N,unconnected-(M1-OUT_IO1-PadE8)*
X10525003Y17525002D03*
G04 #@! TO.P,M1,E9,OUT_IO6*
G04 #@! TO.N,unconnected-(M1-OUT_IO6-PadE9)*
X10525000Y18325006D03*
G04 #@! TO.P,M1,E10,OUT_IO10*
G04 #@! TO.N,unconnected-(M1-OUT_IO10-PadE10)*
X10525000Y19125002D03*
G04 #@! TO.P,M1,E11,OUT_IO9*
G04 #@! TO.N,unconnected-(M1-OUT_IO9-PadE11)*
X10525000Y19925002D03*
G04 #@! TO.P,M1,E12,OUT_IO2*
G04 #@! TO.N,unconnected-(M1-OUT_IO2-PadE12)*
X10525000Y20725003D03*
G04 #@! TO.P,M1,E13,OUT_IO12*
G04 #@! TO.N,unconnected-(M1-OUT_IO12-PadE13)*
X10525003Y21525002D03*
G04 #@! TO.P,M1,E14,OUT_PWM5*
G04 #@! TO.N,unconnected-(M1-OUT_PWM5-PadE14)*
X10525003Y22325003D03*
G04 #@! TO.P,M1,E15,OUT_PWM4*
G04 #@! TO.N,unconnected-(M1-OUT_PWM4-PadE15)*
X10525003Y23125004D03*
G04 #@! TO.P,M1,E16,OUT_PWM3*
G04 #@! TO.N,unconnected-(M1-OUT_PWM3-PadE16)*
X10525000Y23925002D03*
G04 #@! TO.P,M1,E17,OUT_PWM2*
G04 #@! TO.N,unconnected-(M1-OUT_PWM2-PadE17)*
X10525000Y24725003D03*
G04 #@! TO.P,M1,E18,OUT_INJ2*
G04 #@! TO.N,unconnected-(M1-OUT_INJ2-PadE18)*
X10525000Y25525001D03*
G04 #@! TO.P,M1,E19,OUT_INJ1*
G04 #@! TO.N,unconnected-(M1-OUT_INJ1-PadE19)*
X10525003Y26325002D03*
G04 #@! TO.P,M1,E20,OUT_IO13*
G04 #@! TO.N,unconnected-(M1-OUT_IO13-PadE20)*
X10525003Y27125003D03*
G04 #@! TO.P,M1,E21,OUT_IO4*
G04 #@! TO.N,unconnected-(M1-OUT_IO4-PadE21)*
X10525000Y27925002D03*
G04 #@! TO.P,M1,E22,OUT_IO8*
G04 #@! TO.N,unconnected-(M1-OUT_IO8-PadE22)*
X10525000Y28725003D03*
G04 #@! TO.P,M1,E23,OUT_IO7*
G04 #@! TO.N,unconnected-(M1-OUT_IO7-PadE23)*
X10525000Y29525004D03*
G04 #@! TO.P,M1,E24,OUT_IO11*
G04 #@! TO.N,unconnected-(M1-OUT_IO11-PadE24)*
X10525000Y30325002D03*
G04 #@! TO.P,M1,E25,OUT_PWM7*
G04 #@! TO.N,unconnected-(M1-OUT_PWM7-PadE25)*
X10525000Y31125003D03*
G04 #@! TO.P,M1,E26,OUT_PWM6*
G04 #@! TO.N,unconnected-(M1-OUT_PWM6-PadE26)*
X10525000Y31925001D03*
G04 #@! TO.P,M1,E27,OUT_PWM1*
G04 #@! TO.N,unconnected-(M1-OUT_PWM1-PadE27)*
X10525000Y32725002D03*
G04 #@! TO.P,M1,E28,OUT_PWM8*
G04 #@! TO.N,unconnected-(M1-OUT_PWM8-PadE28)*
X10525000Y33525003D03*
G04 #@! TO.P,M1,E29,OUT_INJ3*
G04 #@! TO.N,unconnected-(M1-OUT_INJ3-PadE29)*
X10525000Y34325002D03*
G04 #@! TO.P,M1,E30,OUT_INJ4*
G04 #@! TO.N,unconnected-(M1-OUT_INJ4-PadE30)*
X10525000Y35125003D03*
G04 #@! TO.P,M1,E31,OUT_INJ5*
G04 #@! TO.N,unconnected-(M1-OUT_INJ5-PadE31)*
X10525003Y35925001D03*
G04 #@! TO.P,M1,E32,OUT_INJ6*
G04 #@! TO.N,unconnected-(M1-OUT_INJ6-PadE32)*
X10525000Y36725004D03*
G04 #@! TO.P,M1,E33,OUT_INJ7*
G04 #@! TO.N,unconnected-(M1-OUT_INJ7-PadE33)*
X10525000Y37525003D03*
G04 #@! TO.P,M1,E34,OUT_INJ8*
G04 #@! TO.N,unconnected-(M1-OUT_INJ8-PadE34)*
X10525000Y38325001D03*
G04 #@! TO.P,M1,E35,IO6*
G04 #@! TO.N,unconnected-(M1-IO6-PadE35)*
X10525000Y39125002D03*
G04 #@! TO.P,M1,E36,IO7*
G04 #@! TO.N,unconnected-(M1-IO7-PadE36)*
X10525000Y39925003D03*
G04 #@! TO.P,M1,E38,V5A_SWITCHABLE*
G04 #@! TO.N,unconnected-(M1-V5A_SWITCHABLE-PadE38)*
X10525003Y46624997D03*
G04 #@! TO.P,M1,E39,GNDA*
G04 #@! TO.N,unconnected-(M1-GNDA-PadE39)*
X10525000Y47424998D03*
D11*
G04 #@! TO.P,M1,G,GND*
G04 #@! TO.N,unconnected-(M1-GND-PadG)*
X52425005Y48774998D03*
D12*
X52425003Y42924995D03*
D13*
X52425002Y14924998D03*
D14*
X52425002Y36724998D03*
D15*
X50624996Y49825001D03*
D16*
X49225001Y9925000D03*
D17*
X40724998Y9925000D03*
D18*
X30874995Y9925000D03*
D19*
X10325000Y11424999D03*
D20*
X10325000Y43275002D03*
D21*
X10325000Y48924995D03*
D10*
G04 #@! TO.P,M1,N1,USBID*
G04 #@! TO.N,unconnected-(M1-USBID-PadN1)*
X10525000Y10124999D03*
G04 #@! TO.P,M1,N2,USBM*
G04 #@! TO.N,unconnected-(M1-USBM-PadN2)*
X11324998Y10124997D03*
G04 #@! TO.P,M1,N3,USBP*
G04 #@! TO.N,unconnected-(M1-USBP-PadN3)*
X12124999Y10124997D03*
G04 #@! TO.P,M1,N4,VBUS*
G04 #@! TO.N,unconnected-(M1-VBUS-PadN4)*
X12924998Y10124999D03*
G04 #@! TO.P,M1,N5,BOOT0*
G04 #@! TO.N,unconnected-(M1-BOOT0-PadN5)*
X13724999Y10124999D03*
G04 #@! TO.P,M1,N6,SWO*
G04 #@! TO.N,unconnected-(M1-SWO-PadN6)*
X14525000Y10124999D03*
G04 #@! TO.P,M1,N7,SWDIO*
G04 #@! TO.N,unconnected-(M1-SWDIO-PadN7)*
X15324998Y10124999D03*
G04 #@! TO.P,M1,N8,SWCLK*
G04 #@! TO.N,unconnected-(M1-SWCLK-PadN8)*
X16124999Y10124997D03*
G04 #@! TO.P,M1,N9,nReset*
G04 #@! TO.N,unconnected-(M1-nReset-PadN9)*
X16924997Y10124999D03*
G04 #@! TO.P,M1,N10,SPI3_CS*
G04 #@! TO.N,unconnected-(M1-SPI3_CS-PadN10)*
X17724998Y10124999D03*
G04 #@! TO.P,M1,N11,SPI3_SCK*
G04 #@! TO.N,unconnected-(M1-SPI3_SCK-PadN11)*
X18524999Y10124999D03*
G04 #@! TO.P,M1,N12,SPI3_MISO*
G04 #@! TO.N,unconnected-(M1-SPI3_MISO-PadN12)*
X19325000Y10124999D03*
G04 #@! TO.P,M1,N13,SPI3_MOSI*
G04 #@! TO.N,unconnected-(M1-SPI3_MOSI-PadN13)*
X20124999Y10124999D03*
G04 #@! TO.P,M1,N14,I2C_SCL*
G04 #@! TO.N,unconnected-(M1-I2C_SCL-PadN14)*
X20925000Y10124999D03*
G04 #@! TO.P,M1,N15,I2C_SDA*
G04 #@! TO.N,unconnected-(M1-I2C_SDA-PadN15)*
X21725001Y10124997D03*
G04 #@! TO.P,M1,N16,IO1*
G04 #@! TO.N,unconnected-(M1-IO1-PadN16)*
X22525001Y10124997D03*
G04 #@! TO.P,M1,N17,UART2_TX*
G04 #@! TO.N,unconnected-(M1-UART2_TX-PadN17)*
X23325000Y10124999D03*
G04 #@! TO.P,M1,N18,UART2_RX*
G04 #@! TO.N,unconnected-(M1-UART2_RX-PadN18)*
X24125001Y10124999D03*
G04 #@! TO.P,M1,N19,IO2*
G04 #@! TO.N,unconnected-(M1-IO2-PadN19)*
X24924999Y10124999D03*
G04 #@! TO.P,M1,N20,IO4*
G04 #@! TO.N,unconnected-(M1-IO4-PadN20)*
X25725000Y10124999D03*
G04 #@! TO.P,M1,N21,IO3*
G04 #@! TO.N,unconnected-(M1-IO3-PadN21)*
X26524999Y10124997D03*
G04 #@! TO.P,M1,N22,V33*
G04 #@! TO.N,unconnected-(M1-V33-PadN22)*
X27325000Y10124999D03*
G04 #@! TO.P,M1,N23,IO5*
G04 #@! TO.N,unconnected-(M1-IO5-PadN23)*
X28125000Y10124999D03*
G04 #@! TO.P,M1,N24,UART8_RX*
G04 #@! TO.N,unconnected-(M1-UART8_RX-PadN24)*
X33625000Y10124999D03*
G04 #@! TO.P,M1,N25,UART8_TX*
G04 #@! TO.N,unconnected-(M1-UART8_TX-PadN25)*
X34425001Y10124999D03*
G04 #@! TO.P,M1,N26,IN_VIGN*
G04 #@! TO.N,unconnected-(M1-IN_VIGN-PadN26)*
X35224999Y10124999D03*
G04 #@! TO.P,M1,N27,VBAT*
G04 #@! TO.N,unconnected-(M1-VBAT-PadN27)*
X36024997Y10124999D03*
G04 #@! TO.P,M1,N28,V33_SWITCHABLE*
G04 #@! TO.N,unconnected-(M1-V33_SWITCHABLE-PadN28)*
X36824996Y10124999D03*
G04 #@! TO.P,M1,N29,OUT_PWR_EN*
G04 #@! TO.N,unconnected-(M1-OUT_PWR_EN-PadN29)*
X44625000Y10124999D03*
G04 #@! TO.P,M1,N30,V5A_SWITCHABLE*
G04 #@! TO.N,unconnected-(M1-V5A_SWITCHABLE-PadN30)*
X45424999Y10124999D03*
G04 #@! TO.P,M1,N31,VCC*
G04 #@! TO.N,unconnected-(M1-VCC-PadN31)*
X46224997Y10124999D03*
G04 #@! TO.P,M1,N32,V33*
G04 #@! TO.N,unconnected-(M1-V33-PadN32)*
X52225001Y10124999D03*
G04 #@! TO.P,M1,S1,IN_D4*
G04 #@! TO.N,unconnected-(M1-IN_D4-PadS1)*
X11125001Y49625004D03*
G04 #@! TO.P,M1,S2,IN_D3*
G04 #@! TO.N,unconnected-(M1-IN_D3-PadS2)*
X12325002Y49625002D03*
G04 #@! TO.P,M1,S3,IN_D2*
G04 #@! TO.N,unconnected-(M1-IN_D2-PadS3)*
X13524999Y49625002D03*
G04 #@! TO.P,M1,S4,IN_D1*
G04 #@! TO.N,unconnected-(M1-IN_D1-PadS4)*
X14724999Y49625004D03*
G04 #@! TO.P,M1,S5,VREF2*
G04 #@! TO.N,unconnected-(M1-VREF2-PadS5)*
X15924999Y49625002D03*
G04 #@! TO.P,M1,S6,IN_SENS4*
G04 #@! TO.N,unconnected-(M1-IN_SENS4-PadS6)*
X17024987Y49625002D03*
G04 #@! TO.P,M1,S7,IN_SENS3*
G04 #@! TO.N,unconnected-(M1-IN_SENS3-PadS7)*
X18224987Y49625002D03*
G04 #@! TO.P,M1,S8,IN_SENS2*
G04 #@! TO.N,unconnected-(M1-IN_SENS2-PadS8)*
X19424985Y49625004D03*
G04 #@! TO.P,M1,S9,IN_SENS1*
G04 #@! TO.N,unconnected-(M1-IN_SENS1-PadS9)*
X20624985Y49625002D03*
G04 #@! TO.P,M1,S10,IN_AUX4*
G04 #@! TO.N,unconnected-(M1-IN_AUX4-PadS10)*
X21824988Y49625002D03*
G04 #@! TO.P,M1,S11,IN_AUX3*
G04 #@! TO.N,unconnected-(M1-IN_AUX3-PadS11)*
X23024990Y49625004D03*
G04 #@! TO.P,M1,S12,IN_AUX2*
G04 #@! TO.N,unconnected-(M1-IN_AUX2-PadS12)*
X24224988Y49625002D03*
G04 #@! TO.P,M1,S13,IN_AUX1*
G04 #@! TO.N,unconnected-(M1-IN_AUX1-PadS13)*
X25424986Y49625002D03*
G04 #@! TO.P,M1,S14,IN_RES2*
G04 #@! TO.N,unconnected-(M1-IN_RES2-PadS14)*
X26624993Y49625002D03*
G04 #@! TO.P,M1,S15,IN_O2S2*
G04 #@! TO.N,unconnected-(M1-IN_O2S2-PadS15)*
X27824993Y49625002D03*
G04 #@! TO.P,M1,S16,IN_O2S*
G04 #@! TO.N,unconnected-(M1-IN_O2S-PadS16)*
X29024991Y49625002D03*
G04 #@! TO.P,M1,S17,IN_RES1*
G04 #@! TO.N,unconnected-(M1-IN_RES1-PadS17)*
X30224991Y49625002D03*
G04 #@! TO.P,M1,S18,IN_RES3*
G04 #@! TO.N,unconnected-(M1-IN_RES3-PadS18)*
X31424996Y49625002D03*
G04 #@! TO.P,M1,S19,IN_MAP3*
G04 #@! TO.N,unconnected-(M1-IN_MAP3-PadS19)*
X32624997Y49625002D03*
G04 #@! TO.P,M1,S20,IN_MAP2*
G04 #@! TO.N,unconnected-(M1-IN_MAP2-PadS20)*
X33824994Y49625004D03*
G04 #@! TO.P,M1,S21,IN_MAP1*
G04 #@! TO.N,unconnected-(M1-IN_MAP1-PadS21)*
X35024994Y49625002D03*
G04 #@! TO.P,M1,S22,IN_CRANK*
G04 #@! TO.N,unconnected-(M1-IN_CRANK-PadS22)*
X36224997Y49625004D03*
G04 #@! TO.P,M1,S23,IN_KNOCK*
G04 #@! TO.N,unconnected-(M1-IN_KNOCK-PadS23)*
X37424997Y49625002D03*
G04 #@! TO.P,M1,S24,IN_CAM*
G04 #@! TO.N,unconnected-(M1-IN_CAM-PadS24)*
X38624992Y49625002D03*
G04 #@! TO.P,M1,S25,IN_VSS*
G04 #@! TO.N,unconnected-(M1-IN_VSS-PadS25)*
X39824995Y49625004D03*
G04 #@! TO.P,M1,S26,IN_IAT*
G04 #@! TO.N,unconnected-(M1-IN_IAT-PadS26)*
X41025000Y49625002D03*
G04 #@! TO.P,M1,S27,IN_AT1*
G04 #@! TO.N,unconnected-(M1-IN_AT1-PadS27)*
X42225000Y49625004D03*
G04 #@! TO.P,M1,S28,IN_CLT*
G04 #@! TO.N,unconnected-(M1-IN_CLT-PadS28)*
X43424998Y49625002D03*
G04 #@! TO.P,M1,S29,IN_AT2*
G04 #@! TO.N,unconnected-(M1-IN_AT2-PadS29)*
X44624998Y49625002D03*
G04 #@! TO.P,M1,S30,IN_TPS*
G04 #@! TO.N,unconnected-(M1-IN_TPS-PadS30)*
X45825003Y49625002D03*
G04 #@! TO.P,M1,S31,IN_PPS*
G04 #@! TO.N,unconnected-(M1-IN_PPS-PadS31)*
X47025003Y49625002D03*
G04 #@! TO.P,M1,S32,IN_TPS2*
G04 #@! TO.N,unconnected-(M1-IN_TPS2-PadS32)*
X48225001Y49625002D03*
G04 #@! TO.P,M1,S33,IN_PPS2*
G04 #@! TO.N,unconnected-(M1-IN_PPS2-PadS33)*
X49425001Y49625002D03*
G04 #@! TO.P,M1,S35,VREF1*
G04 #@! TO.N,unconnected-(M1-VREF1-PadS35)*
X51825001Y49625002D03*
G04 #@! TO.P,M1,W1,GNDA*
G04 #@! TO.N,unconnected-(M1-GNDA-PadW1)*
X52225003Y47124999D03*
G04 #@! TO.P,M1,W2,V5A_SWITCHABLE*
G04 #@! TO.N,unconnected-(M1-V5A_SWITCHABLE-PadW2)*
X52225003Y46124998D03*
G04 #@! TO.P,M1,W3,V33_REF*
G04 #@! TO.N,unconnected-(M1-V33_REF-PadW3)*
X52225001Y39724996D03*
G04 #@! TO.P,M1,W3a,BOOT1*
G04 #@! TO.N,unconnected-(M1-BOOT1-PadW3a)*
X52225002Y33724998D03*
G04 #@! TO.P,M1,W4,IGN8*
G04 #@! TO.N,unconnected-(M1-IGN8-PadW4)*
X52225001Y32725000D03*
G04 #@! TO.P,M1,W5,IGN7*
G04 #@! TO.N,unconnected-(M1-IGN7-PadW5)*
X52225001Y31724999D03*
G04 #@! TO.P,M1,W6,IGN6*
G04 #@! TO.N,unconnected-(M1-IGN6-PadW6)*
X52225001Y30725001D03*
G04 #@! TO.P,M1,W7,IGN5*
G04 #@! TO.N,unconnected-(M1-IGN5-PadW7)*
X52225001Y29725001D03*
G04 #@! TO.P,M1,W8,IGN4*
G04 #@! TO.N,unconnected-(M1-IGN4-PadW8)*
X52225001Y28725000D03*
G04 #@! TO.P,M1,W9,IGN3*
G04 #@! TO.N,unconnected-(M1-IGN3-PadW9)*
X52225001Y27725002D03*
G04 #@! TO.P,M1,W10,IGN2*
G04 #@! TO.N,unconnected-(M1-IGN2-PadW10)*
X52225001Y26725002D03*
G04 #@! TO.P,M1,W11,IGN1*
G04 #@! TO.N,/IGN1*
X52225001Y25725004D03*
G04 #@! TO.P,M1,W11a,LED_RED*
G04 #@! TO.N,unconnected-(M1-LED_RED-PadW11a)*
X52225002Y24724998D03*
G04 #@! TO.P,M1,W11b,LED_GREEN*
G04 #@! TO.N,unconnected-(M1-LED_GREEN-PadW11b)*
X52225002Y23724998D03*
G04 #@! TO.P,M1,W11c,LED_BLUE*
G04 #@! TO.N,unconnected-(M1-LED_BLUE-PadW11c)*
X52225002Y22724998D03*
G04 #@! TO.P,M1,W11d,LED_YELLOW*
G04 #@! TO.N,unconnected-(M1-LED_YELLOW-PadW11d)*
X52225002Y21724998D03*
G04 #@! TO.P,M1,W12,CANH*
G04 #@! TO.N,unconnected-(M1-CANH-PadW12)*
X52225002Y20724998D03*
G04 #@! TO.P,M1,W13,CANL*
G04 #@! TO.N,unconnected-(M1-CANL-PadW13)*
X52225002Y19724998D03*
G04 #@! TD*
D22*
G04 #@! TO.P,M4,V1,IGN8*
G04 #@! TO.N,unconnected-(M4-IGN8-PadV1)*
X58235000Y21625014D03*
G04 #@! TO.P,M4,V2,IGN7*
G04 #@! TO.N,unconnected-(M4-IGN7-PadV2)*
X56399990Y22050022D03*
G04 #@! TO.P,M4,V3,IGN6*
G04 #@! TO.N,unconnected-(M4-IGN6-PadV3)*
X58449998Y22600019D03*
G04 #@! TO.P,M4,V4,IGN5*
G04 #@! TO.N,unconnected-(M4-IGN5-PadV4)*
X58235003Y23474978D03*
G04 #@! TO.P,M4,V5,IGN4*
G04 #@! TO.N,unconnected-(M4-IGN4-PadV5)*
X58159996Y24325001D03*
G04 #@! TO.P,M4,V6,IGN3*
G04 #@! TO.N,unconnected-(M4-IGN3-PadV6)*
X56399990Y24650017D03*
G04 #@! TO.P,M4,V7,IGN2*
G04 #@! TO.N,unconnected-(M4-IGN2-PadV7)*
X57709990Y25949984D03*
G04 #@! TO.P,M4,V8,IGN1*
G04 #@! TO.N,/IGN1*
X56399990Y26600001D03*
G04 #@! TO.P,M4,V9,VCC*
G04 #@! TO.N,unconnected-(M4-VCC-PadV9)*
X62325005Y19424998D03*
G04 #@! TO.P,M4,V10,V33*
G04 #@! TO.N,unconnected-(M4-V33-PadV10)*
X58249999Y19725000D03*
G04 #@! TD*
G04 #@! TO.P,M2,V1,V5*
G04 #@! TO.N,unconnected-(M2-V5-PadV1)*
X75024999Y53999999D03*
G04 #@! TO.P,M2,V2,CAN_VIO*
G04 #@! TO.N,unconnected-(M2-CAN_VIO-PadV2)*
X74149997Y54524999D03*
G04 #@! TO.P,M2,V5,CAN_TX*
G04 #@! TO.N,unconnected-(M2-CAN_TX-PadV5)*
X75325001Y55274997D03*
G04 #@! TO.P,M2,V6,CAN_RX*
G04 #@! TO.N,unconnected-(M2-CAN_RX-PadV6)*
X75249998Y58824998D03*
G04 #@! TD*
G04 #@! TO.P,M3,E1,GND*
G04 #@! TO.N,unconnected-(M3B-GND-PadE1)*
G04 #@! TA.AperFunction,SMDPad,CuDef*
G36*
G01*
X72766796Y51275002D02*
X72766796Y51025002D01*
G75*
G02*
X72641796Y50900002I-125000J0D01*
G01*
X72641796Y50900002D01*
G75*
G02*
X72516796Y51025002I0J125000D01*
G01*
X72516796Y51275002D01*
G75*
G02*
X72641796Y51400002I125000J0D01*
G01*
X72641796Y51400002D01*
G75*
G02*
X72766796Y51275002I0J-125000D01*
G01*
G37*
G04 #@! TD.AperFunction*
G04 #@! TO.P,M3,E2,V5*
G04 #@! TO.N,unconnected-(M3B-V5-PadE2)*
G04 #@! TA.AperFunction,SMDPad,CuDef*
G36*
G01*
X73426797Y51275002D02*
X73426797Y51025002D01*
G75*
G02*
X73301797Y50900002I-125000J0D01*
G01*
X73301797Y50900002D01*
G75*
G02*
X73176797Y51025002I0J125000D01*
G01*
X73176797Y51275002D01*
G75*
G02*
X73301797Y51400002I125000J0D01*
G01*
X73301797Y51400002D01*
G75*
G02*
X73426797Y51275002I0J-125000D01*
G01*
G37*
G04 #@! TD.AperFunction*
G04 #@! TO.P,M3,E3,WBO_O2S2*
G04 #@! TO.N,unconnected-(M3B-WBO_O2S2-PadE3)*
G04 #@! TA.AperFunction,SMDPad,CuDef*
G36*
G01*
X74086798Y51275002D02*
X74086798Y51025002D01*
G75*
G02*
X73961798Y50900002I-125000J0D01*
G01*
X73961798Y50900002D01*
G75*
G02*
X73836798Y51025002I0J125000D01*
G01*
X73836798Y51275002D01*
G75*
G02*
X73961798Y51400002I125000J0D01*
G01*
X73961798Y51400002D01*
G75*
G02*
X74086798Y51275002I0J-125000D01*
G01*
G37*
G04 #@! TD.AperFunction*
G04 #@! TO.P,M3,E4,WBO_O2S*
G04 #@! TO.N,unconnected-(M3B-WBO_O2S-PadE4)*
G04 #@! TA.AperFunction,SMDPad,CuDef*
G36*
G01*
X74746799Y51275002D02*
X74746799Y51025002D01*
G75*
G02*
X74621799Y50900002I-125000J0D01*
G01*
X74621799Y50900002D01*
G75*
G02*
X74496799Y51025002I0J125000D01*
G01*
X74496799Y51275002D01*
G75*
G02*
X74621799Y51400002I125000J0D01*
G01*
X74621799Y51400002D01*
G75*
G02*
X74746799Y51275002I0J-125000D01*
G01*
G37*
G04 #@! TD.AperFunction*
G04 #@! TO.P,M3,E5,V5A*
G04 #@! TO.N,unconnected-(M3B-V5A-PadE5)*
G04 #@! TA.AperFunction,SMDPad,CuDef*
G36*
G01*
X78046806Y51275002D02*
X78046806Y51025002D01*
G75*
G02*
X77921806Y50900002I-125000J0D01*
G01*
X77921806Y50900002D01*
G75*
G02*
X77796806Y51025002I0J125000D01*
G01*
X77796806Y51275002D01*
G75*
G02*
X77921806Y51400002I125000J0D01*
G01*
X77921806Y51400002D01*
G75*
G02*
X78046806Y51275002I0J-125000D01*
G01*
G37*
G04 #@! TD.AperFunction*
G04 #@! TO.P,M3,N1,V5A*
G04 #@! TO.N,unconnected-(M3B-V5A-PadN1)*
G04 #@! TA.AperFunction,SMDPad,CuDef*
G36*
G01*
X64548003Y22505000D02*
X64798003Y22505000D01*
G75*
G02*
X64923003Y22380000I0J-125000D01*
G01*
X64923003Y22380000D01*
G75*
G02*
X64798003Y22255000I-125000J0D01*
G01*
X64548003Y22255000D01*
G75*
G02*
X64423003Y22380000I0J125000D01*
G01*
X64423003Y22380000D01*
G75*
G02*
X64548003Y22505000I125000J0D01*
G01*
G37*
G04 #@! TD.AperFunction*
G04 #@! TO.P,M3,N2,GNDA*
G04 #@! TO.N,unconnected-(M3B-GNDA-PadN2)*
G04 #@! TA.AperFunction,SMDPad,CuDef*
G36*
G01*
X64798003Y23355004D02*
X64548003Y23355004D01*
G75*
G02*
X64423003Y23480004I0J125000D01*
G01*
X64423003Y23480004D01*
G75*
G02*
X64548003Y23605004I125000J0D01*
G01*
X64798003Y23605004D01*
G75*
G02*
X64923003Y23480004I0J-125000D01*
G01*
X64923003Y23480004D01*
G75*
G02*
X64798003Y23355004I-125000J0D01*
G01*
G37*
G04 #@! TD.AperFunction*
G04 #@! TO.P,M3,N3,RES2*
G04 #@! TO.N,unconnected-(M3A-RES2-PadN3)*
G04 #@! TA.AperFunction,SMDPad,CuDef*
G36*
G01*
X64798003Y24455005D02*
X64548003Y24455005D01*
G75*
G02*
X64423003Y24580005I0J125000D01*
G01*
X64423003Y24580005D01*
G75*
G02*
X64548003Y24705005I125000J0D01*
G01*
X64798003Y24705005D01*
G75*
G02*
X64923003Y24580005I0J-125000D01*
G01*
X64923003Y24580005D01*
G75*
G02*
X64798003Y24455005I-125000J0D01*
G01*
G37*
G04 #@! TD.AperFunction*
G04 #@! TO.P,M3,N4,O2S2*
G04 #@! TO.N,unconnected-(M3A-O2S2-PadN4)*
G04 #@! TA.AperFunction,SMDPad,CuDef*
G36*
G01*
X64798003Y25555002D02*
X64548003Y25555002D01*
G75*
G02*
X64423003Y25680002I0J125000D01*
G01*
X64423003Y25680002D01*
G75*
G02*
X64548003Y25805002I125000J0D01*
G01*
X64798003Y25805002D01*
G75*
G02*
X64923003Y25680002I0J-125000D01*
G01*
X64923003Y25680002D01*
G75*
G02*
X64798003Y25555002I-125000J0D01*
G01*
G37*
G04 #@! TD.AperFunction*
G04 #@! TO.P,M3,N5,PPS*
G04 #@! TO.N,unconnected-(M3A-PPS-PadN5)*
G04 #@! TA.AperFunction,SMDPad,CuDef*
G36*
G01*
X64798003Y26655000D02*
X64548003Y26655000D01*
G75*
G02*
X64423003Y26780000I0J125000D01*
G01*
X64423003Y26780000D01*
G75*
G02*
X64548003Y26905000I125000J0D01*
G01*
X64798003Y26905000D01*
G75*
G02*
X64923003Y26780000I0J-125000D01*
G01*
X64923003Y26780000D01*
G75*
G02*
X64798003Y26655000I-125000J0D01*
G01*
G37*
G04 #@! TD.AperFunction*
G04 #@! TO.P,M3,N6,RES1*
G04 #@! TO.N,unconnected-(M3A-RES1-PadN6)*
G04 #@! TA.AperFunction,SMDPad,CuDef*
G36*
G01*
X64798003Y27754998D02*
X64548003Y27754998D01*
G75*
G02*
X64423003Y27879998I0J125000D01*
G01*
X64423003Y27879998D01*
G75*
G02*
X64548003Y28004998I125000J0D01*
G01*
X64798003Y28004998D01*
G75*
G02*
X64923003Y27879998I0J-125000D01*
G01*
X64923003Y27879998D01*
G75*
G02*
X64798003Y27754998I-125000J0D01*
G01*
G37*
G04 #@! TD.AperFunction*
G04 #@! TO.P,M3,N7,AUX4*
G04 #@! TO.N,unconnected-(M3A-AUX4-PadN7)*
G04 #@! TA.AperFunction,SMDPad,CuDef*
G36*
G01*
X64798003Y28854996D02*
X64548003Y28854996D01*
G75*
G02*
X64423003Y28979996I0J125000D01*
G01*
X64423003Y28979996D01*
G75*
G02*
X64548003Y29104996I125000J0D01*
G01*
X64798003Y29104996D01*
G75*
G02*
X64923003Y28979996I0J-125000D01*
G01*
X64923003Y28979996D01*
G75*
G02*
X64798003Y28854996I-125000J0D01*
G01*
G37*
G04 #@! TD.AperFunction*
G04 #@! TO.P,M3,N8,AUX3*
G04 #@! TO.N,unconnected-(M3A-AUX3-PadN8)*
G04 #@! TA.AperFunction,SMDPad,CuDef*
G36*
G01*
X64798003Y29954994D02*
X64548003Y29954994D01*
G75*
G02*
X64423003Y30079994I0J125000D01*
G01*
X64423003Y30079994D01*
G75*
G02*
X64548003Y30204994I125000J0D01*
G01*
X64798003Y30204994D01*
G75*
G02*
X64923003Y30079994I0J-125000D01*
G01*
X64923003Y30079994D01*
G75*
G02*
X64798003Y29954994I-125000J0D01*
G01*
G37*
G04 #@! TD.AperFunction*
G04 #@! TO.P,M3,N9,AUX2*
G04 #@! TO.N,unconnected-(M3A-AUX2-PadN9)*
G04 #@! TA.AperFunction,SMDPad,CuDef*
G36*
G01*
X64798003Y31054991D02*
X64548003Y31054991D01*
G75*
G02*
X64423003Y31179991I0J125000D01*
G01*
X64423003Y31179991D01*
G75*
G02*
X64548003Y31304991I125000J0D01*
G01*
X64798003Y31304991D01*
G75*
G02*
X64923003Y31179991I0J-125000D01*
G01*
X64923003Y31179991D01*
G75*
G02*
X64798003Y31054991I-125000J0D01*
G01*
G37*
G04 #@! TD.AperFunction*
G04 #@! TO.P,M3,N10,AUX1*
G04 #@! TO.N,unconnected-(M3A-AUX1-PadN10)*
G04 #@! TA.AperFunction,SMDPad,CuDef*
G36*
G01*
X64798003Y32154989D02*
X64548003Y32154989D01*
G75*
G02*
X64423003Y32279989I0J125000D01*
G01*
X64423003Y32279989D01*
G75*
G02*
X64548003Y32404989I125000J0D01*
G01*
X64798003Y32404989D01*
G75*
G02*
X64923003Y32279989I0J-125000D01*
G01*
X64923003Y32279989D01*
G75*
G02*
X64798003Y32154989I-125000J0D01*
G01*
G37*
G04 #@! TD.AperFunction*
G04 #@! TO.P,M3,N11,RES3*
G04 #@! TO.N,unconnected-(M3A-RES3-PadN11)*
G04 #@! TA.AperFunction,SMDPad,CuDef*
G36*
G01*
X64798003Y33254987D02*
X64548003Y33254987D01*
G75*
G02*
X64423003Y33379987I0J125000D01*
G01*
X64423003Y33379987D01*
G75*
G02*
X64548003Y33504987I125000J0D01*
G01*
X64798003Y33504987D01*
G75*
G02*
X64923003Y33379987I0J-125000D01*
G01*
X64923003Y33379987D01*
G75*
G02*
X64798003Y33254987I-125000J0D01*
G01*
G37*
G04 #@! TD.AperFunction*
G04 #@! TO.P,M3,N12,MAP3*
G04 #@! TO.N,unconnected-(M3A-MAP3-PadN12)*
G04 #@! TA.AperFunction,SMDPad,CuDef*
G36*
G01*
X64798003Y34354985D02*
X64548003Y34354985D01*
G75*
G02*
X64423003Y34479985I0J125000D01*
G01*
X64423003Y34479985D01*
G75*
G02*
X64548003Y34604985I125000J0D01*
G01*
X64798003Y34604985D01*
G75*
G02*
X64923003Y34479985I0J-125000D01*
G01*
X64923003Y34479985D01*
G75*
G02*
X64798003Y34354985I-125000J0D01*
G01*
G37*
G04 #@! TD.AperFunction*
G04 #@! TO.P,M3,N13,MAP2*
G04 #@! TO.N,unconnected-(M3A-MAP2-PadN13)*
G04 #@! TA.AperFunction,SMDPad,CuDef*
G36*
G01*
X64798003Y35454983D02*
X64548003Y35454983D01*
G75*
G02*
X64423003Y35579983I0J125000D01*
G01*
X64423003Y35579983D01*
G75*
G02*
X64548003Y35704983I125000J0D01*
G01*
X64798003Y35704983D01*
G75*
G02*
X64923003Y35579983I0J-125000D01*
G01*
X64923003Y35579983D01*
G75*
G02*
X64798003Y35454983I-125000J0D01*
G01*
G37*
G04 #@! TD.AperFunction*
G04 #@! TO.P,M3,N14,MAP1*
G04 #@! TO.N,unconnected-(M3A-MAP1-PadN14)*
G04 #@! TA.AperFunction,SMDPad,CuDef*
G36*
G01*
X64798003Y36554980D02*
X64548003Y36554980D01*
G75*
G02*
X64423003Y36679980I0J125000D01*
G01*
X64423003Y36679980D01*
G75*
G02*
X64548003Y36804980I125000J0D01*
G01*
X64798003Y36804980D01*
G75*
G02*
X64923003Y36679980I0J-125000D01*
G01*
X64923003Y36679980D01*
G75*
G02*
X64798003Y36554980I-125000J0D01*
G01*
G37*
G04 #@! TD.AperFunction*
G04 #@! TO.P,M3,N15,IAT*
G04 #@! TO.N,unconnected-(M3A-IAT-PadN15)*
G04 #@! TA.AperFunction,SMDPad,CuDef*
G36*
G01*
X64798003Y37654978D02*
X64548003Y37654978D01*
G75*
G02*
X64423003Y37779978I0J125000D01*
G01*
X64423003Y37779978D01*
G75*
G02*
X64548003Y37904978I125000J0D01*
G01*
X64798003Y37904978D01*
G75*
G02*
X64923003Y37779978I0J-125000D01*
G01*
X64923003Y37779978D01*
G75*
G02*
X64798003Y37654978I-125000J0D01*
G01*
G37*
G04 #@! TD.AperFunction*
G04 #@! TO.P,M3,N16,CLT*
G04 #@! TO.N,unconnected-(M3A-CLT-PadN16)*
G04 #@! TA.AperFunction,SMDPad,CuDef*
G36*
G01*
X64798003Y38754976D02*
X64548003Y38754976D01*
G75*
G02*
X64423003Y38879976I0J125000D01*
G01*
X64423003Y38879976D01*
G75*
G02*
X64548003Y39004976I125000J0D01*
G01*
X64798003Y39004976D01*
G75*
G02*
X64923003Y38879976I0J-125000D01*
G01*
X64923003Y38879976D01*
G75*
G02*
X64798003Y38754976I-125000J0D01*
G01*
G37*
G04 #@! TD.AperFunction*
G04 #@! TO.P,M3,N17,TPS*
G04 #@! TO.N,unconnected-(M3A-TPS-PadN17)*
G04 #@! TA.AperFunction,SMDPad,CuDef*
G36*
G01*
X64798003Y39854974D02*
X64548003Y39854974D01*
G75*
G02*
X64423003Y39979974I0J125000D01*
G01*
X64423003Y39979974D01*
G75*
G02*
X64548003Y40104974I125000J0D01*
G01*
X64798003Y40104974D01*
G75*
G02*
X64923003Y39979974I0J-125000D01*
G01*
X64923003Y39979974D01*
G75*
G02*
X64798003Y39854974I-125000J0D01*
G01*
G37*
G04 #@! TD.AperFunction*
G04 #@! TO.P,M3,N18,O2S*
G04 #@! TO.N,unconnected-(M3A-O2S-PadN18)*
G04 #@! TA.AperFunction,SMDPad,CuDef*
G36*
G01*
X64798003Y40954972D02*
X64548003Y40954972D01*
G75*
G02*
X64423003Y41079972I0J125000D01*
G01*
X64423003Y41079972D01*
G75*
G02*
X64548003Y41204972I125000J0D01*
G01*
X64798003Y41204972D01*
G75*
G02*
X64923003Y41079972I0J-125000D01*
G01*
X64923003Y41079972D01*
G75*
G02*
X64798003Y40954972I-125000J0D01*
G01*
G37*
G04 #@! TD.AperFunction*
G04 #@! TO.P,M3,N19,CAM*
G04 #@! TO.N,unconnected-(M3A-CAM-PadN19)*
G04 #@! TA.AperFunction,SMDPad,CuDef*
G36*
G01*
X64798003Y42054969D02*
X64548003Y42054969D01*
G75*
G02*
X64423003Y42179969I0J125000D01*
G01*
X64423003Y42179969D01*
G75*
G02*
X64548003Y42304969I125000J0D01*
G01*
X64798003Y42304969D01*
G75*
G02*
X64923003Y42179969I0J-125000D01*
G01*
X64923003Y42179969D01*
G75*
G02*
X64798003Y42054969I-125000J0D01*
G01*
G37*
G04 #@! TD.AperFunction*
G04 #@! TO.P,M3,N20,VSS*
G04 #@! TO.N,unconnected-(M3A-VSS-PadN20)*
G04 #@! TA.AperFunction,SMDPad,CuDef*
G36*
G01*
X64798003Y43154967D02*
X64548003Y43154967D01*
G75*
G02*
X64423003Y43279967I0J125000D01*
G01*
X64423003Y43279967D01*
G75*
G02*
X64548003Y43404967I125000J0D01*
G01*
X64798003Y43404967D01*
G75*
G02*
X64923003Y43279967I0J-125000D01*
G01*
X64923003Y43279967D01*
G75*
G02*
X64798003Y43154967I-125000J0D01*
G01*
G37*
G04 #@! TD.AperFunction*
G04 #@! TO.P,M3,N21,CRANK*
G04 #@! TO.N,unconnected-(M3A-CRANK-PadN21)*
G04 #@! TA.AperFunction,SMDPad,CuDef*
G36*
G01*
X64798003Y44254965D02*
X64548003Y44254965D01*
G75*
G02*
X64423003Y44379965I0J125000D01*
G01*
X64423003Y44379965D01*
G75*
G02*
X64548003Y44504965I125000J0D01*
G01*
X64798003Y44504965D01*
G75*
G02*
X64923003Y44379965I0J-125000D01*
G01*
X64923003Y44379965D01*
G75*
G02*
X64798003Y44254965I-125000J0D01*
G01*
G37*
G04 #@! TD.AperFunction*
G04 #@! TO.P,M3,N22,KNOCK*
G04 #@! TO.N,unconnected-(M3A-KNOCK-PadN22)*
G04 #@! TA.AperFunction,SMDPad,CuDef*
G36*
G01*
X64798003Y45354963D02*
X64548003Y45354963D01*
G75*
G02*
X64423003Y45479963I0J125000D01*
G01*
X64423003Y45479963D01*
G75*
G02*
X64548003Y45604963I125000J0D01*
G01*
X64798003Y45604963D01*
G75*
G02*
X64923003Y45479963I0J-125000D01*
G01*
X64923003Y45479963D01*
G75*
G02*
X64798003Y45354963I-125000J0D01*
G01*
G37*
G04 #@! TD.AperFunction*
G04 #@! TO.P,M3,N23,SENS4*
G04 #@! TO.N,unconnected-(M3A-SENS4-PadN23)*
G04 #@! TA.AperFunction,SMDPad,CuDef*
G36*
G01*
X64798003Y46454961D02*
X64548003Y46454961D01*
G75*
G02*
X64423003Y46579961I0J125000D01*
G01*
X64423003Y46579961D01*
G75*
G02*
X64548003Y46704961I125000J0D01*
G01*
X64798003Y46704961D01*
G75*
G02*
X64923003Y46579961I0J-125000D01*
G01*
X64923003Y46579961D01*
G75*
G02*
X64798003Y46454961I-125000J0D01*
G01*
G37*
G04 #@! TD.AperFunction*
G04 #@! TO.P,M3,N24,SENS3*
G04 #@! TO.N,unconnected-(M3A-SENS3-PadN24)*
G04 #@! TA.AperFunction,SMDPad,CuDef*
G36*
G01*
X64798003Y47554958D02*
X64548003Y47554958D01*
G75*
G02*
X64423003Y47679958I0J125000D01*
G01*
X64423003Y47679958D01*
G75*
G02*
X64548003Y47804958I125000J0D01*
G01*
X64798003Y47804958D01*
G75*
G02*
X64923003Y47679958I0J-125000D01*
G01*
X64923003Y47679958D01*
G75*
G02*
X64798003Y47554958I-125000J0D01*
G01*
G37*
G04 #@! TD.AperFunction*
G04 #@! TO.P,M3,N25,SENS2*
G04 #@! TO.N,unconnected-(M3A-SENS2-PadN25)*
G04 #@! TA.AperFunction,SMDPad,CuDef*
G36*
G01*
X64798003Y48654956D02*
X64548003Y48654956D01*
G75*
G02*
X64423003Y48779956I0J125000D01*
G01*
X64423003Y48779956D01*
G75*
G02*
X64548003Y48904956I125000J0D01*
G01*
X64798003Y48904956D01*
G75*
G02*
X64923003Y48779956I0J-125000D01*
G01*
X64923003Y48779956D01*
G75*
G02*
X64798003Y48654956I-125000J0D01*
G01*
G37*
G04 #@! TD.AperFunction*
G04 #@! TO.P,M3,N26,SENS1*
G04 #@! TO.N,unconnected-(M3A-SENS1-PadN26)*
G04 #@! TA.AperFunction,SMDPad,CuDef*
G36*
G01*
X64798003Y49754954D02*
X64548003Y49754954D01*
G75*
G02*
X64423003Y49879954I0J125000D01*
G01*
X64423003Y49879954D01*
G75*
G02*
X64548003Y50004954I125000J0D01*
G01*
X64798003Y50004954D01*
G75*
G02*
X64923003Y49879954I0J-125000D01*
G01*
X64923003Y49879954D01*
G75*
G02*
X64798003Y49754954I-125000J0D01*
G01*
G37*
G04 #@! TD.AperFunction*
G04 #@! TO.P,M3,S1,IN_SENS1*
G04 #@! TO.N,unconnected-(M3C-IN_SENS1-PadS1)*
G04 #@! TA.AperFunction,SMDPad,CuDef*
G36*
G01*
X78760002Y49504010D02*
X78510002Y49504010D01*
G75*
G02*
X78385002Y49629010I0J125000D01*
G01*
X78385002Y49629010D01*
G75*
G02*
X78510002Y49754010I125000J0D01*
G01*
X78760002Y49754010D01*
G75*
G02*
X78885002Y49629010I0J-125000D01*
G01*
X78885002Y49629010D01*
G75*
G02*
X78760002Y49504010I-125000J0D01*
G01*
G37*
G04 #@! TD.AperFunction*
G04 #@! TO.P,M3,S2,IN_SENS2*
G04 #@! TO.N,unconnected-(M3C-IN_SENS2-PadS2)*
G04 #@! TA.AperFunction,SMDPad,CuDef*
G36*
G01*
X78760002Y48844008D02*
X78510002Y48844008D01*
G75*
G02*
X78385002Y48969008I0J125000D01*
G01*
X78385002Y48969008D01*
G75*
G02*
X78510002Y49094008I125000J0D01*
G01*
X78760002Y49094008D01*
G75*
G02*
X78885002Y48969008I0J-125000D01*
G01*
X78885002Y48969008D01*
G75*
G02*
X78760002Y48844008I-125000J0D01*
G01*
G37*
G04 #@! TD.AperFunction*
G04 #@! TO.P,M3,S3,IN_SENS3*
G04 #@! TO.N,unconnected-(M3C-IN_SENS3-PadS3)*
G04 #@! TA.AperFunction,SMDPad,CuDef*
G36*
G01*
X78760002Y48184007D02*
X78510002Y48184007D01*
G75*
G02*
X78385002Y48309007I0J125000D01*
G01*
X78385002Y48309007D01*
G75*
G02*
X78510002Y48434007I125000J0D01*
G01*
X78760002Y48434007D01*
G75*
G02*
X78885002Y48309007I0J-125000D01*
G01*
X78885002Y48309007D01*
G75*
G02*
X78760002Y48184007I-125000J0D01*
G01*
G37*
G04 #@! TD.AperFunction*
G04 #@! TO.P,M3,S4,IN_SENS4*
G04 #@! TO.N,unconnected-(M3C-IN_SENS4-PadS4)*
G04 #@! TA.AperFunction,SMDPad,CuDef*
G36*
G01*
X78760002Y47524006D02*
X78510002Y47524006D01*
G75*
G02*
X78385002Y47649006I0J125000D01*
G01*
X78385002Y47649006D01*
G75*
G02*
X78510002Y47774006I125000J0D01*
G01*
X78760002Y47774006D01*
G75*
G02*
X78885002Y47649006I0J-125000D01*
G01*
X78885002Y47649006D01*
G75*
G02*
X78760002Y47524006I-125000J0D01*
G01*
G37*
G04 #@! TD.AperFunction*
G04 #@! TO.P,M3,S5,IN_CAM*
G04 #@! TO.N,unconnected-(M3C-IN_CAM-PadS5)*
G04 #@! TA.AperFunction,SMDPad,CuDef*
G36*
G01*
X78760002Y46864005D02*
X78510002Y46864005D01*
G75*
G02*
X78385002Y46989005I0J125000D01*
G01*
X78385002Y46989005D01*
G75*
G02*
X78510002Y47114005I125000J0D01*
G01*
X78760002Y47114005D01*
G75*
G02*
X78885002Y46989005I0J-125000D01*
G01*
X78885002Y46989005D01*
G75*
G02*
X78760002Y46864005I-125000J0D01*
G01*
G37*
G04 #@! TD.AperFunction*
G04 #@! TO.P,M3,S6,IN_VSS*
G04 #@! TO.N,unconnected-(M3C-IN_VSS-PadS6)*
G04 #@! TA.AperFunction,SMDPad,CuDef*
G36*
G01*
X78760002Y46204003D02*
X78510002Y46204003D01*
G75*
G02*
X78385002Y46329003I0J125000D01*
G01*
X78385002Y46329003D01*
G75*
G02*
X78510002Y46454003I125000J0D01*
G01*
X78760002Y46454003D01*
G75*
G02*
X78885002Y46329003I0J-125000D01*
G01*
X78885002Y46329003D01*
G75*
G02*
X78760002Y46204003I-125000J0D01*
G01*
G37*
G04 #@! TD.AperFunction*
G04 #@! TO.P,M3,S7,IN_KNOCK*
G04 #@! TO.N,unconnected-(M3C-IN_KNOCK-PadS7)*
G04 #@! TA.AperFunction,SMDPad,CuDef*
G36*
G01*
X78760002Y44603006D02*
X78510002Y44603006D01*
G75*
G02*
X78385002Y44728006I0J125000D01*
G01*
X78385002Y44728006D01*
G75*
G02*
X78510002Y44853006I125000J0D01*
G01*
X78760002Y44853006D01*
G75*
G02*
X78885002Y44728006I0J-125000D01*
G01*
X78885002Y44728006D01*
G75*
G02*
X78760002Y44603006I-125000J0D01*
G01*
G37*
G04 #@! TD.AperFunction*
G04 #@! TO.P,M3,S8,IN_CRANK*
G04 #@! TO.N,unconnected-(M3C-IN_CRANK-PadS8)*
G04 #@! TA.AperFunction,SMDPad,CuDef*
G36*
G01*
X78760002Y43943005D02*
X78510002Y43943005D01*
G75*
G02*
X78385002Y44068005I0J125000D01*
G01*
X78385002Y44068005D01*
G75*
G02*
X78510002Y44193005I125000J0D01*
G01*
X78760002Y44193005D01*
G75*
G02*
X78885002Y44068005I0J-125000D01*
G01*
X78885002Y44068005D01*
G75*
G02*
X78760002Y43943005I-125000J0D01*
G01*
G37*
G04 #@! TD.AperFunction*
G04 #@! TO.P,M3,S9,IN_O2S*
G04 #@! TO.N,unconnected-(M3C-IN_O2S-PadS9)*
G04 #@! TA.AperFunction,SMDPad,CuDef*
G36*
G01*
X78760002Y43283003D02*
X78510002Y43283003D01*
G75*
G02*
X78385002Y43408003I0J125000D01*
G01*
X78385002Y43408003D01*
G75*
G02*
X78510002Y43533003I125000J0D01*
G01*
X78760002Y43533003D01*
G75*
G02*
X78885002Y43408003I0J-125000D01*
G01*
X78885002Y43408003D01*
G75*
G02*
X78760002Y43283003I-125000J0D01*
G01*
G37*
G04 #@! TD.AperFunction*
G04 #@! TO.P,M3,S10,IN_TPS*
G04 #@! TO.N,unconnected-(M3C-IN_TPS-PadS10)*
G04 #@! TA.AperFunction,SMDPad,CuDef*
G36*
G01*
X78760002Y42162104D02*
X78510002Y42162104D01*
G75*
G02*
X78385002Y42287104I0J125000D01*
G01*
X78385002Y42287104D01*
G75*
G02*
X78510002Y42412104I125000J0D01*
G01*
X78760002Y42412104D01*
G75*
G02*
X78885002Y42287104I0J-125000D01*
G01*
X78885002Y42287104D01*
G75*
G02*
X78760002Y42162104I-125000J0D01*
G01*
G37*
G04 #@! TD.AperFunction*
G04 #@! TO.P,M3,S11,IN_MAP1*
G04 #@! TO.N,unconnected-(M3C-IN_MAP1-PadS11)*
G04 #@! TA.AperFunction,SMDPad,CuDef*
G36*
G01*
X78760002Y41502103D02*
X78510002Y41502103D01*
G75*
G02*
X78385002Y41627103I0J125000D01*
G01*
X78385002Y41627103D01*
G75*
G02*
X78510002Y41752103I125000J0D01*
G01*
X78760002Y41752103D01*
G75*
G02*
X78885002Y41627103I0J-125000D01*
G01*
X78885002Y41627103D01*
G75*
G02*
X78760002Y41502103I-125000J0D01*
G01*
G37*
G04 #@! TD.AperFunction*
G04 #@! TO.P,M3,S12,IN_MAP2*
G04 #@! TO.N,unconnected-(M3C-IN_MAP2-PadS12)*
G04 #@! TA.AperFunction,SMDPad,CuDef*
G36*
G01*
X78760002Y40842102D02*
X78510002Y40842102D01*
G75*
G02*
X78385002Y40967102I0J125000D01*
G01*
X78385002Y40967102D01*
G75*
G02*
X78510002Y41092102I125000J0D01*
G01*
X78760002Y41092102D01*
G75*
G02*
X78885002Y40967102I0J-125000D01*
G01*
X78885002Y40967102D01*
G75*
G02*
X78760002Y40842102I-125000J0D01*
G01*
G37*
G04 #@! TD.AperFunction*
G04 #@! TO.P,M3,S13,VREF2*
G04 #@! TO.N,unconnected-(M3B-VREF2-PadS13)*
G04 #@! TA.AperFunction,SMDPad,CuDef*
G36*
G01*
X78760002Y40182100D02*
X78510002Y40182100D01*
G75*
G02*
X78385002Y40307100I0J125000D01*
G01*
X78385002Y40307100D01*
G75*
G02*
X78510002Y40432100I125000J0D01*
G01*
X78760002Y40432100D01*
G75*
G02*
X78885002Y40307100I0J-125000D01*
G01*
X78885002Y40307100D01*
G75*
G02*
X78760002Y40182100I-125000J0D01*
G01*
G37*
G04 #@! TD.AperFunction*
G04 #@! TO.P,M3,S14,VREF1*
G04 #@! TO.N,unconnected-(M3B-VREF1-PadS14)*
G04 #@! TA.AperFunction,SMDPad,CuDef*
G36*
G01*
X78760002Y36856006D02*
X78510002Y36856006D01*
G75*
G02*
X78385002Y36981006I0J125000D01*
G01*
X78385002Y36981006D01*
G75*
G02*
X78510002Y37106006I125000J0D01*
G01*
X78760002Y37106006D01*
G75*
G02*
X78885002Y36981006I0J-125000D01*
G01*
X78885002Y36981006D01*
G75*
G02*
X78760002Y36856006I-125000J0D01*
G01*
G37*
G04 #@! TD.AperFunction*
G04 #@! TO.P,M3,S15,IN_CLT*
G04 #@! TO.N,unconnected-(M3C-IN_CLT-PadS15)*
G04 #@! TA.AperFunction,SMDPad,CuDef*
G36*
G01*
X78760002Y36196005D02*
X78510002Y36196005D01*
G75*
G02*
X78385002Y36321005I0J125000D01*
G01*
X78385002Y36321005D01*
G75*
G02*
X78510002Y36446005I125000J0D01*
G01*
X78760002Y36446005D01*
G75*
G02*
X78885002Y36321005I0J-125000D01*
G01*
X78885002Y36321005D01*
G75*
G02*
X78760002Y36196005I-125000J0D01*
G01*
G37*
G04 #@! TD.AperFunction*
G04 #@! TO.P,M3,S16,IN_IAT*
G04 #@! TO.N,unconnected-(M3C-IN_IAT-PadS16)*
G04 #@! TA.AperFunction,SMDPad,CuDef*
G36*
G01*
X78760002Y35536003D02*
X78510002Y35536003D01*
G75*
G02*
X78385002Y35661003I0J125000D01*
G01*
X78385002Y35661003D01*
G75*
G02*
X78510002Y35786003I125000J0D01*
G01*
X78760002Y35786003D01*
G75*
G02*
X78885002Y35661003I0J-125000D01*
G01*
X78885002Y35661003D01*
G75*
G02*
X78760002Y35536003I-125000J0D01*
G01*
G37*
G04 #@! TD.AperFunction*
G04 #@! TO.P,M3,S17,IN_AUX1*
G04 #@! TO.N,unconnected-(M3C-IN_AUX1-PadS17)*
G04 #@! TA.AperFunction,SMDPad,CuDef*
G36*
G01*
X78760002Y32890012D02*
X78510002Y32890012D01*
G75*
G02*
X78385002Y33015012I0J125000D01*
G01*
X78385002Y33015012D01*
G75*
G02*
X78510002Y33140012I125000J0D01*
G01*
X78760002Y33140012D01*
G75*
G02*
X78885002Y33015012I0J-125000D01*
G01*
X78885002Y33015012D01*
G75*
G02*
X78760002Y32890012I-125000J0D01*
G01*
G37*
G04 #@! TD.AperFunction*
G04 #@! TO.P,M3,S18,IN_AUX2*
G04 #@! TO.N,unconnected-(M3C-IN_AUX2-PadS18)*
G04 #@! TA.AperFunction,SMDPad,CuDef*
G36*
G01*
X78760002Y32230011D02*
X78510002Y32230011D01*
G75*
G02*
X78385002Y32355011I0J125000D01*
G01*
X78385002Y32355011D01*
G75*
G02*
X78510002Y32480011I125000J0D01*
G01*
X78760002Y32480011D01*
G75*
G02*
X78885002Y32355011I0J-125000D01*
G01*
X78885002Y32355011D01*
G75*
G02*
X78760002Y32230011I-125000J0D01*
G01*
G37*
G04 #@! TD.AperFunction*
G04 #@! TO.P,M3,S19,IN_MAP3*
G04 #@! TO.N,unconnected-(M3C-IN_MAP3-PadS19)*
G04 #@! TA.AperFunction,SMDPad,CuDef*
G36*
G01*
X78760002Y31570009D02*
X78510002Y31570009D01*
G75*
G02*
X78385002Y31695009I0J125000D01*
G01*
X78385002Y31695009D01*
G75*
G02*
X78510002Y31820009I125000J0D01*
G01*
X78760002Y31820009D01*
G75*
G02*
X78885002Y31695009I0J-125000D01*
G01*
X78885002Y31695009D01*
G75*
G02*
X78760002Y31570009I-125000J0D01*
G01*
G37*
G04 #@! TD.AperFunction*
G04 #@! TO.P,M3,S20,IN_AUX3*
G04 #@! TO.N,unconnected-(M3C-IN_AUX3-PadS20)*
G04 #@! TA.AperFunction,SMDPad,CuDef*
G36*
G01*
X78760002Y30910008D02*
X78510002Y30910008D01*
G75*
G02*
X78385002Y31035008I0J125000D01*
G01*
X78385002Y31035008D01*
G75*
G02*
X78510002Y31160008I125000J0D01*
G01*
X78760002Y31160008D01*
G75*
G02*
X78885002Y31035008I0J-125000D01*
G01*
X78885002Y31035008D01*
G75*
G02*
X78760002Y30910008I-125000J0D01*
G01*
G37*
G04 #@! TD.AperFunction*
G04 #@! TO.P,M3,S21,IN_AUX4*
G04 #@! TO.N,unconnected-(M3C-IN_AUX4-PadS21)*
G04 #@! TA.AperFunction,SMDPad,CuDef*
G36*
G01*
X78760002Y30250007D02*
X78510002Y30250007D01*
G75*
G02*
X78385002Y30375007I0J125000D01*
G01*
X78385002Y30375007D01*
G75*
G02*
X78510002Y30500007I125000J0D01*
G01*
X78760002Y30500007D01*
G75*
G02*
X78885002Y30375007I0J-125000D01*
G01*
X78885002Y30375007D01*
G75*
G02*
X78760002Y30250007I-125000J0D01*
G01*
G37*
G04 #@! TD.AperFunction*
G04 #@! TO.P,M3,S22,IN_RES3*
G04 #@! TO.N,unconnected-(M3C-IN_RES3-PadS22)*
G04 #@! TA.AperFunction,SMDPad,CuDef*
G36*
G01*
X78760002Y29590006D02*
X78510002Y29590006D01*
G75*
G02*
X78385002Y29715006I0J125000D01*
G01*
X78385002Y29715006D01*
G75*
G02*
X78510002Y29840006I125000J0D01*
G01*
X78760002Y29840006D01*
G75*
G02*
X78885002Y29715006I0J-125000D01*
G01*
X78885002Y29715006D01*
G75*
G02*
X78760002Y29590006I-125000J0D01*
G01*
G37*
G04 #@! TD.AperFunction*
G04 #@! TO.P,M3,S23,IN_RES1*
G04 #@! TO.N,unconnected-(M3C-IN_RES1-PadS23)*
G04 #@! TA.AperFunction,SMDPad,CuDef*
G36*
G01*
X78760002Y28930004D02*
X78510002Y28930004D01*
G75*
G02*
X78385002Y29055004I0J125000D01*
G01*
X78385002Y29055004D01*
G75*
G02*
X78510002Y29180004I125000J0D01*
G01*
X78760002Y29180004D01*
G75*
G02*
X78885002Y29055004I0J-125000D01*
G01*
X78885002Y29055004D01*
G75*
G02*
X78760002Y28930004I-125000J0D01*
G01*
G37*
G04 #@! TD.AperFunction*
G04 #@! TO.P,M3,S24,IN_PPS*
G04 #@! TO.N,unconnected-(M3C-IN_PPS-PadS24)*
G04 #@! TA.AperFunction,SMDPad,CuDef*
G36*
G01*
X78760002Y28270003D02*
X78510002Y28270003D01*
G75*
G02*
X78385002Y28395003I0J125000D01*
G01*
X78385002Y28395003D01*
G75*
G02*
X78510002Y28520003I125000J0D01*
G01*
X78760002Y28520003D01*
G75*
G02*
X78885002Y28395003I0J-125000D01*
G01*
X78885002Y28395003D01*
G75*
G02*
X78760002Y28270003I-125000J0D01*
G01*
G37*
G04 #@! TD.AperFunction*
G04 #@! TO.P,M3,S25,IN_O2S2*
G04 #@! TO.N,unconnected-(M3C-IN_O2S2-PadS25)*
G04 #@! TA.AperFunction,SMDPad,CuDef*
G36*
G01*
X78760002Y27610002D02*
X78510002Y27610002D01*
G75*
G02*
X78385002Y27735002I0J125000D01*
G01*
X78385002Y27735002D01*
G75*
G02*
X78510002Y27860002I125000J0D01*
G01*
X78760002Y27860002D01*
G75*
G02*
X78885002Y27735002I0J-125000D01*
G01*
X78885002Y27735002D01*
G75*
G02*
X78760002Y27610002I-125000J0D01*
G01*
G37*
G04 #@! TD.AperFunction*
G04 #@! TO.P,M3,S26,IN_RES2*
G04 #@! TO.N,unconnected-(M3C-IN_RES2-PadS26)*
G04 #@! TA.AperFunction,SMDPad,CuDef*
G36*
G01*
X78760002Y26950000D02*
X78510002Y26950000D01*
G75*
G02*
X78385002Y27075000I0J125000D01*
G01*
X78385002Y27075000D01*
G75*
G02*
X78510002Y27200000I125000J0D01*
G01*
X78760002Y27200000D01*
G75*
G02*
X78885002Y27075000I0J-125000D01*
G01*
X78885002Y27075000D01*
G75*
G02*
X78760002Y26950000I-125000J0D01*
G01*
G37*
G04 #@! TD.AperFunction*
G04 #@! TD*
D23*
G04 #@! TO.P,KDFI1,1-1,GND@1*
G04 #@! TO.N,Net-(KDFI1A-GND@1)*
X3830000Y5970000D03*
G04 #@! TA.AperFunction,ComponentPad*
G04 #@! TO.P,KDFI1,1-2,GND@2*
G04 #@! TO.N,unconnected-(KDFI1A-GND@2-Pad1-2)*
G36*
X7120000Y5659340D02*
G01*
X6680660Y5220000D01*
X6059340Y5220000D01*
X5620000Y5659340D01*
X5620000Y6280660D01*
X6059340Y6720000D01*
X6680660Y6720000D01*
X7120000Y6280660D01*
X7120000Y5659340D01*
G37*
G04 #@! TD.AperFunction*
G04 #@! TA.AperFunction,ComponentPad*
G04 #@! TO.P,KDFI1,1-3,V_IN@3*
G04 #@! TO.N,unconnected-(KDFI1A-V_IN@3-Pad1-3)*
G36*
X4580000Y8199340D02*
G01*
X4140660Y7760000D01*
X3519340Y7760000D01*
X3080000Y8199340D01*
X3080000Y8820660D01*
X3519340Y9260000D01*
X4140660Y9260000D01*
X4580000Y8820660D01*
X4580000Y8199340D01*
G37*
G04 #@! TD.AperFunction*
G04 #@! TA.AperFunction,ComponentPad*
G04 #@! TO.P,KDFI1,1-4,V_IN@4*
G04 #@! TO.N,unconnected-(KDFI1A-V_IN@4-Pad1-4)*
G36*
X7120000Y8199340D02*
G01*
X6680660Y7760000D01*
X6059340Y7760000D01*
X5620000Y8199340D01*
X5620000Y8820660D01*
X6059340Y9260000D01*
X6680660Y9260000D01*
X7120000Y8820660D01*
X7120000Y8199340D01*
G37*
G04 #@! TD.AperFunction*
G04 #@! TA.AperFunction,ComponentPad*
G04 #@! TO.P,KDFI1,1-5,V_REF*
G04 #@! TO.N,unconnected-(KDFI1A-V_REF-Pad1-5)*
G36*
X4580000Y10739340D02*
G01*
X4140660Y10300000D01*
X3519340Y10300000D01*
X3080000Y10739340D01*
X3080000Y11360660D01*
X3519340Y11800000D01*
X4140660Y11800000D01*
X4580000Y11360660D01*
X4580000Y10739340D01*
G37*
G04 #@! TD.AperFunction*
G04 #@! TA.AperFunction,ComponentPad*
G04 #@! TO.P,KDFI1,1-6,N.C.*
G04 #@! TO.N,unconnected-(KDFI1A-N.C.-Pad1-6)*
G36*
X7120000Y10739340D02*
G01*
X6680660Y10300000D01*
X6059340Y10300000D01*
X5620000Y10739340D01*
X5620000Y11360660D01*
X6059340Y11800000D01*
X6680660Y11800000D01*
X7120000Y11360660D01*
X7120000Y10739340D01*
G37*
G04 #@! TD.AperFunction*
G04 #@! TA.AperFunction,ComponentPad*
G04 #@! TO.P,KDFI1,1-7,+5V*
G04 #@! TO.N,Net-(KDFI1A-+5V)*
G36*
X4580000Y13279340D02*
G01*
X4140660Y12840000D01*
X3519340Y12840000D01*
X3080000Y13279340D01*
X3080000Y13900660D01*
X3519340Y14340000D01*
X4140660Y14340000D01*
X4580000Y13900660D01*
X4580000Y13279340D01*
G37*
G04 #@! TD.AperFunction*
G04 #@! TA.AperFunction,ComponentPad*
G04 #@! TO.P,KDFI1,1-8,+12V_E*
G04 #@! TO.N,unconnected-(KDFI1A-+12V_E-Pad1-8)*
G36*
X7120000Y13279340D02*
G01*
X6680660Y12840000D01*
X6059340Y12840000D01*
X5620000Y13279340D01*
X5620000Y13900660D01*
X6059340Y14340000D01*
X6680660Y14340000D01*
X7120000Y13900660D01*
X7120000Y13279340D01*
G37*
G04 #@! TD.AperFunction*
G04 #@! TA.AperFunction,ComponentPad*
G04 #@! TO.P,KDFI1,1-9,LSU_DIAHD@9*
G04 #@! TO.N,unconnected-(KDFI1A-LSU_DIAHD@9-Pad1-9)*
G36*
X4580000Y15819340D02*
G01*
X4140660Y15380000D01*
X3519340Y15380000D01*
X3080000Y15819340D01*
X3080000Y16440660D01*
X3519340Y16880000D01*
X4140660Y16880000D01*
X4580000Y16440660D01*
X4580000Y15819340D01*
G37*
G04 #@! TD.AperFunction*
G04 #@! TA.AperFunction,ComponentPad*
G04 #@! TO.P,KDFI1,1-10,LSU_DIAHD@10*
G04 #@! TO.N,unconnected-(KDFI1A-LSU_DIAHD@10-Pad1-10)*
G36*
X7120000Y15819340D02*
G01*
X6680660Y15380000D01*
X6059340Y15380000D01*
X5620000Y15819340D01*
X5620000Y16440660D01*
X6059340Y16880000D01*
X6680660Y16880000D01*
X7120000Y16440660D01*
X7120000Y15819340D01*
G37*
G04 #@! TD.AperFunction*
G04 #@! TA.AperFunction,ComponentPad*
G04 #@! TO.P,KDFI1,1-11,+12V_LSU@11*
G04 #@! TO.N,unconnected-(KDFI1A-+12V_LSU@11-Pad1-11)*
G36*
X4580000Y18359340D02*
G01*
X4140660Y17920000D01*
X3519340Y17920000D01*
X3080000Y18359340D01*
X3080000Y18980660D01*
X3519340Y19420000D01*
X4140660Y19420000D01*
X4580000Y18980660D01*
X4580000Y18359340D01*
G37*
G04 #@! TD.AperFunction*
G04 #@! TA.AperFunction,ComponentPad*
G04 #@! TO.P,KDFI1,1-12,+12V_LSU@12*
G04 #@! TO.N,unconnected-(KDFI1A-+12V_LSU@12-Pad1-12)*
G36*
X7120000Y18359340D02*
G01*
X6680660Y17920000D01*
X6059340Y17920000D01*
X5620000Y18359340D01*
X5620000Y18980660D01*
X6059340Y19420000D01*
X6680660Y19420000D01*
X7120000Y18980660D01*
X7120000Y18359340D01*
G37*
G04 #@! TD.AperFunction*
G04 #@! TA.AperFunction,ComponentPad*
G04 #@! TO.P,KDFI1,1-13,LSU_UN*
G04 #@! TO.N,unconnected-(KDFI1A-LSU_UN-Pad1-13)*
G36*
X4580000Y20899340D02*
G01*
X4140660Y20460000D01*
X3519340Y20460000D01*
X3080000Y20899340D01*
X3080000Y21520660D01*
X3519340Y21960000D01*
X4140660Y21960000D01*
X4580000Y21520660D01*
X4580000Y20899340D01*
G37*
G04 #@! TD.AperFunction*
G04 #@! TA.AperFunction,ComponentPad*
G04 #@! TO.P,KDFI1,1-14,LSU_VM*
G04 #@! TO.N,unconnected-(KDFI1A-LSU_VM-Pad1-14)*
G36*
X7120000Y20899340D02*
G01*
X6680660Y20460000D01*
X6059340Y20460000D01*
X5620000Y20899340D01*
X5620000Y21520660D01*
X6059340Y21960000D01*
X6680660Y21960000D01*
X7120000Y21520660D01*
X7120000Y20899340D01*
G37*
G04 #@! TD.AperFunction*
G04 #@! TA.AperFunction,ComponentPad*
G04 #@! TO.P,KDFI1,1-15,LSU_IP*
G04 #@! TO.N,unconnected-(KDFI1A-LSU_IP-Pad1-15)*
G36*
X4580000Y23439340D02*
G01*
X4140660Y23000000D01*
X3519340Y23000000D01*
X3080000Y23439340D01*
X3080000Y24060660D01*
X3519340Y24500000D01*
X4140660Y24500000D01*
X4580000Y24060660D01*
X4580000Y23439340D01*
G37*
G04 #@! TD.AperFunction*
G04 #@! TA.AperFunction,ComponentPad*
G04 #@! TO.P,KDFI1,1-16,LSU_IA*
G04 #@! TO.N,unconnected-(KDFI1A-LSU_IA-Pad1-16)*
G36*
X7120000Y23439340D02*
G01*
X6680660Y23000000D01*
X6059340Y23000000D01*
X5620000Y23439340D01*
X5620000Y24060660D01*
X6059340Y24500000D01*
X6680660Y24500000D01*
X7120000Y24060660D01*
X7120000Y23439340D01*
G37*
G04 #@! TD.AperFunction*
G04 #@! TA.AperFunction,ComponentPad*
G04 #@! TO.P,KDFI1,1-17,UA*
G04 #@! TO.N,unconnected-(KDFI1A-UA-Pad1-17)*
G36*
X4580000Y25979340D02*
G01*
X4140660Y25540000D01*
X3519340Y25540000D01*
X3080000Y25979340D01*
X3080000Y26600660D01*
X3519340Y27040000D01*
X4140660Y27040000D01*
X4580000Y26600660D01*
X4580000Y25979340D01*
G37*
G04 #@! TD.AperFunction*
G04 #@! TA.AperFunction,ComponentPad*
G04 #@! TO.P,KDFI1,1-18,GP1*
G04 #@! TO.N,unconnected-(KDFI1A-GP1-Pad1-18)*
G36*
X7120000Y25979340D02*
G01*
X6680660Y25540000D01*
X6059340Y25540000D01*
X5620000Y25979340D01*
X5620000Y26600660D01*
X6059340Y27040000D01*
X6680660Y27040000D01*
X7120000Y26600660D01*
X7120000Y25979340D01*
G37*
G04 #@! TD.AperFunction*
G04 #@! TA.AperFunction,ComponentPad*
G04 #@! TO.P,KDFI1,1-19,GP2*
G04 #@! TO.N,unconnected-(KDFI1A-GP2-Pad1-19)*
G36*
X4580000Y28519340D02*
G01*
X4140660Y28080000D01*
X3519340Y28080000D01*
X3080000Y28519340D01*
X3080000Y29140660D01*
X3519340Y29580000D01*
X4140660Y29580000D01*
X4580000Y29140660D01*
X4580000Y28519340D01*
G37*
G04 #@! TD.AperFunction*
G04 #@! TA.AperFunction,ComponentPad*
G04 #@! TO.P,KDFI1,1-20,GP3*
G04 #@! TO.N,unconnected-(KDFI1A-GP3-Pad1-20)*
G36*
X7120000Y28519340D02*
G01*
X6680660Y28080000D01*
X6059340Y28080000D01*
X5620000Y28519340D01*
X5620000Y29140660D01*
X6059340Y29580000D01*
X6680660Y29580000D01*
X7120000Y29140660D01*
X7120000Y28519340D01*
G37*
G04 #@! TD.AperFunction*
G04 #@! TA.AperFunction,ComponentPad*
G04 #@! TO.P,KDFI1,1-21,CJ125_RXD*
G04 #@! TO.N,unconnected-(KDFI1A-CJ125_RXD-Pad1-21)*
G36*
X4580000Y31059340D02*
G01*
X4140660Y30620000D01*
X3519340Y30620000D01*
X3080000Y31059340D01*
X3080000Y31680660D01*
X3519340Y32120000D01*
X4140660Y32120000D01*
X4580000Y31680660D01*
X4580000Y31059340D01*
G37*
G04 #@! TD.AperFunction*
G04 #@! TA.AperFunction,ComponentPad*
G04 #@! TO.P,KDFI1,1-22,CJ125_TXD*
G04 #@! TO.N,unconnected-(KDFI1A-CJ125_TXD-Pad1-22)*
G36*
X7120000Y31059340D02*
G01*
X6680660Y30620000D01*
X6059340Y30620000D01*
X5620000Y31059340D01*
X5620000Y31680660D01*
X6059340Y32120000D01*
X6680660Y32120000D01*
X7120000Y31680660D01*
X7120000Y31059340D01*
G37*
G04 #@! TD.AperFunction*
G04 #@! TA.AperFunction,ComponentPad*
G04 #@! TO.P,KDFI1,1-23,GND@23*
G04 #@! TO.N,unconnected-(KDFI1A-GND@23-Pad1-23)*
G36*
X4580000Y33599340D02*
G01*
X4140660Y33160000D01*
X3519340Y33160000D01*
X3080000Y33599340D01*
X3080000Y34220660D01*
X3519340Y34660000D01*
X4140660Y34660000D01*
X4580000Y34220660D01*
X4580000Y33599340D01*
G37*
G04 #@! TD.AperFunction*
G04 #@! TA.AperFunction,ComponentPad*
G04 #@! TO.P,KDFI1,1-24,OXY-1_OUT*
G04 #@! TO.N,unconnected-(KDFI1A-OXY-1_OUT-Pad1-24)*
G36*
X7120000Y33599340D02*
G01*
X6680660Y33160000D01*
X6059340Y33160000D01*
X5620000Y33599340D01*
X5620000Y34220660D01*
X6059340Y34660000D01*
X6680660Y34660000D01*
X7120000Y34220660D01*
X7120000Y33599340D01*
G37*
G04 #@! TD.AperFunction*
G04 #@! TA.AperFunction,ComponentPad*
G04 #@! TO.P,KDFI1,1-25,OXY1*
G04 #@! TO.N,unconnected-(KDFI1A-OXY1-Pad1-25)*
G36*
X4580000Y36139340D02*
G01*
X4140660Y35700000D01*
X3519340Y35700000D01*
X3080000Y36139340D01*
X3080000Y36760660D01*
X3519340Y37200000D01*
X4140660Y37200000D01*
X4580000Y36760660D01*
X4580000Y36139340D01*
G37*
G04 #@! TD.AperFunction*
G04 #@! TA.AperFunction,ComponentPad*
G04 #@! TO.P,KDFI1,1-26,OXY2*
G04 #@! TO.N,unconnected-(KDFI1A-OXY2-Pad1-26)*
G36*
X7120000Y36139340D02*
G01*
X6680660Y35700000D01*
X6059340Y35700000D01*
X5620000Y36139340D01*
X5620000Y36760660D01*
X6059340Y37200000D01*
X6680660Y37200000D01*
X7120000Y36760660D01*
X7120000Y36139340D01*
G37*
G04 #@! TD.AperFunction*
G04 #@! TA.AperFunction,ComponentPad*
G04 #@! TO.P,KDFI1,1-27,BARO*
G04 #@! TO.N,unconnected-(KDFI1A-BARO-Pad1-27)*
G36*
X4580000Y38679340D02*
G01*
X4140660Y38240000D01*
X3519340Y38240000D01*
X3080000Y38679340D01*
X3080000Y39300660D01*
X3519340Y39740000D01*
X4140660Y39740000D01*
X4580000Y39300660D01*
X4580000Y38679340D01*
G37*
G04 #@! TD.AperFunction*
G04 #@! TA.AperFunction,ComponentPad*
G04 #@! TO.P,KDFI1,1-28,MAP*
G04 #@! TO.N,unconnected-(KDFI1A-MAP-Pad1-28)*
G36*
X7120000Y38679340D02*
G01*
X6680660Y38240000D01*
X6059340Y38240000D01*
X5620000Y38679340D01*
X5620000Y39300660D01*
X6059340Y39740000D01*
X6680660Y39740000D01*
X7120000Y39300660D01*
X7120000Y38679340D01*
G37*
G04 #@! TD.AperFunction*
G04 #@! TA.AperFunction,ComponentPad*
G04 #@! TO.P,KDFI1,1-29,TPS*
G04 #@! TO.N,unconnected-(KDFI1A-TPS-Pad1-29)*
G36*
X4580000Y41219340D02*
G01*
X4140660Y40780000D01*
X3519340Y40780000D01*
X3080000Y41219340D01*
X3080000Y41840660D01*
X3519340Y42280000D01*
X4140660Y42280000D01*
X4580000Y41840660D01*
X4580000Y41219340D01*
G37*
G04 #@! TD.AperFunction*
G04 #@! TA.AperFunction,ComponentPad*
G04 #@! TO.P,KDFI1,1-30,AIR*
G04 #@! TO.N,unconnected-(KDFI1A-AIR-Pad1-30)*
G36*
X7120000Y41219340D02*
G01*
X6680660Y40780000D01*
X6059340Y40780000D01*
X5620000Y41219340D01*
X5620000Y41840660D01*
X6059340Y42280000D01*
X6680660Y42280000D01*
X7120000Y41840660D01*
X7120000Y41219340D01*
G37*
G04 #@! TD.AperFunction*
G04 #@! TA.AperFunction,ComponentPad*
G04 #@! TO.P,KDFI1,1-31,CLT*
G04 #@! TO.N,unconnected-(KDFI1A-CLT-Pad1-31)*
G36*
X4580000Y43759340D02*
G01*
X4140660Y43320000D01*
X3519340Y43320000D01*
X3080000Y43759340D01*
X3080000Y44380660D01*
X3519340Y44820000D01*
X4140660Y44820000D01*
X4580000Y44380660D01*
X4580000Y43759340D01*
G37*
G04 #@! TD.AperFunction*
G04 #@! TA.AperFunction,ComponentPad*
G04 #@! TO.P,KDFI1,1-32,RESET*
G04 #@! TO.N,unconnected-(KDFI1A-RESET-Pad1-32)*
G36*
X7120000Y43759340D02*
G01*
X6680660Y43320000D01*
X6059340Y43320000D01*
X5620000Y43759340D01*
X5620000Y44380660D01*
X6059340Y44820000D01*
X6680660Y44820000D01*
X7120000Y44380660D01*
X7120000Y43759340D01*
G37*
G04 #@! TD.AperFunction*
G04 #@! TA.AperFunction,ComponentPad*
G04 #@! TO.P,KDFI1,1-33,BKGD*
G04 #@! TO.N,unconnected-(KDFI1A-BKGD-Pad1-33)*
G36*
X4580000Y46299340D02*
G01*
X4140660Y45860000D01*
X3519340Y45860000D01*
X3080000Y46299340D01*
X3080000Y46920660D01*
X3519340Y47360000D01*
X4140660Y47360000D01*
X4580000Y46920660D01*
X4580000Y46299340D01*
G37*
G04 #@! TD.AperFunction*
G04 #@! TA.AperFunction,ComponentPad*
G04 #@! TO.P,KDFI1,1-34,IAC1*
G04 #@! TO.N,unconnected-(KDFI1A-IAC1-Pad1-34)*
G36*
X7120000Y46299340D02*
G01*
X6680660Y45860000D01*
X6059340Y45860000D01*
X5620000Y46299340D01*
X5620000Y46920660D01*
X6059340Y47360000D01*
X6680660Y47360000D01*
X7120000Y46920660D01*
X7120000Y46299340D01*
G37*
G04 #@! TD.AperFunction*
G04 #@! TA.AperFunction,ComponentPad*
G04 #@! TO.P,KDFI1,1-35,IDLO*
G04 #@! TO.N,unconnected-(KDFI1A-IDLO-Pad1-35)*
G36*
X4580000Y48839340D02*
G01*
X4140660Y48400000D01*
X3519340Y48400000D01*
X3080000Y48839340D01*
X3080000Y49460660D01*
X3519340Y49900000D01*
X4140660Y49900000D01*
X4580000Y49460660D01*
X4580000Y48839340D01*
G37*
G04 #@! TD.AperFunction*
G04 #@! TA.AperFunction,ComponentPad*
G04 #@! TO.P,KDFI1,1-36,IDLC*
G04 #@! TO.N,unconnected-(KDFI1A-IDLC-Pad1-36)*
G36*
X7120000Y48839340D02*
G01*
X6680660Y48400000D01*
X6059340Y48400000D01*
X5620000Y48839340D01*
X5620000Y49460660D01*
X6059340Y49900000D01*
X6680660Y49900000D01*
X7120000Y49460660D01*
X7120000Y48839340D01*
G37*
G04 #@! TD.AperFunction*
G04 #@! TA.AperFunction,ComponentPad*
G04 #@! TO.P,KDFI1,1-37,RESERVE_1*
G04 #@! TO.N,unconnected-(KDFI1A-RESERVE_1-Pad1-37)*
G36*
X4580000Y51379340D02*
G01*
X4140660Y50940000D01*
X3519340Y50940000D01*
X3080000Y51379340D01*
X3080000Y52000660D01*
X3519340Y52440000D01*
X4140660Y52440000D01*
X4580000Y52000660D01*
X4580000Y51379340D01*
G37*
G04 #@! TD.AperFunction*
G04 #@! TA.AperFunction,ComponentPad*
G04 #@! TO.P,KDFI1,1-38,RESERVE_2*
G04 #@! TO.N,unconnected-(KDFI1A-RESERVE_2-Pad1-38)*
G36*
X7120000Y51379340D02*
G01*
X6680660Y50940000D01*
X6059340Y50940000D01*
X5620000Y51379340D01*
X5620000Y52000660D01*
X6059340Y52440000D01*
X6680660Y52440000D01*
X7120000Y52000660D01*
X7120000Y51379340D01*
G37*
G04 #@! TD.AperFunction*
G04 #@! TA.AperFunction,ComponentPad*
G04 #@! TO.P,KDFI1,1-39,FP*
G04 #@! TO.N,unconnected-(KDFI1A-FP-Pad1-39)*
G36*
X4580000Y53919340D02*
G01*
X4140660Y53480000D01*
X3519340Y53480000D01*
X3080000Y53919340D01*
X3080000Y54540660D01*
X3519340Y54980000D01*
X4140660Y54980000D01*
X4580000Y54540660D01*
X4580000Y53919340D01*
G37*
G04 #@! TD.AperFunction*
G04 #@! TA.AperFunction,ComponentPad*
G04 #@! TO.P,KDFI1,1-40,IAC2*
G04 #@! TO.N,unconnected-(KDFI1A-IAC2-Pad1-40)*
G36*
X7120000Y53919340D02*
G01*
X6680660Y53480000D01*
X6059340Y53480000D01*
X5620000Y53919340D01*
X5620000Y54540660D01*
X6059340Y54980000D01*
X6680660Y54980000D01*
X7120000Y54540660D01*
X7120000Y53919340D01*
G37*
G04 #@! TD.AperFunction*
G04 #@! TO.P,KDFI1,2-1,TBL*
G04 #@! TO.N,unconnected-(KDFI1B-TBL-Pad2-1)*
X58330000Y6020000D03*
G04 #@! TA.AperFunction,ComponentPad*
G04 #@! TO.P,KDFI1,2-2,JS7*
G04 #@! TO.N,unconnected-(KDFI1B-JS7-Pad2-2)*
G36*
X61620000Y5709340D02*
G01*
X61180660Y5270000D01*
X60559340Y5270000D01*
X60120000Y5709340D01*
X60120000Y6330660D01*
X60559340Y6770000D01*
X61180660Y6770000D01*
X61620000Y6330660D01*
X61620000Y5709340D01*
G37*
G04 #@! TD.AperFunction*
G04 #@! TA.AperFunction,ComponentPad*
G04 #@! TO.P,KDFI1,2-3,RPM-2*
G04 #@! TO.N,unconnected-(KDFI1B-RPM-2-Pad2-3)*
G36*
X59080000Y8249340D02*
G01*
X58640660Y7810000D01*
X58019340Y7810000D01*
X57580000Y8249340D01*
X57580000Y8870660D01*
X58019340Y9310000D01*
X58640660Y9310000D01*
X59080000Y8870660D01*
X59080000Y8249340D01*
G37*
G04 #@! TD.AperFunction*
G04 #@! TA.AperFunction,ComponentPad*
G04 #@! TO.P,KDFI1,2-4,RPM-2_OUT*
G04 #@! TO.N,unconnected-(KDFI1B-RPM-2_OUT-Pad2-4)*
G36*
X61620000Y8249340D02*
G01*
X61180660Y7810000D01*
X60559340Y7810000D01*
X60120000Y8249340D01*
X60120000Y8870660D01*
X60559340Y9310000D01*
X61180660Y9310000D01*
X61620000Y8870660D01*
X61620000Y8249340D01*
G37*
G04 #@! TD.AperFunction*
G04 #@! TA.AperFunction,ComponentPad*
G04 #@! TO.P,KDFI1,2-5,VR-2-N*
G04 #@! TO.N,unconnected-(KDFI1B-VR-2-N-Pad2-5)*
G36*
X59080000Y10789340D02*
G01*
X58640660Y10350000D01*
X58019340Y10350000D01*
X57580000Y10789340D01*
X57580000Y11410660D01*
X58019340Y11850000D01*
X58640660Y11850000D01*
X59080000Y11410660D01*
X59080000Y10789340D01*
G37*
G04 #@! TD.AperFunction*
G04 #@! TA.AperFunction,ComponentPad*
G04 #@! TO.P,KDFI1,2-6,VR-2-P*
G04 #@! TO.N,unconnected-(KDFI1B-VR-2-P-Pad2-6)*
G36*
X61620000Y10789340D02*
G01*
X61180660Y10350000D01*
X60559340Y10350000D01*
X60120000Y10789340D01*
X60120000Y11410660D01*
X60559340Y11850000D01*
X61180660Y11850000D01*
X61620000Y11410660D01*
X61620000Y10789340D01*
G37*
G04 #@! TD.AperFunction*
G04 #@! TA.AperFunction,ComponentPad*
G04 #@! TO.P,KDFI1,2-7,RPM-1*
G04 #@! TO.N,unconnected-(KDFI1B-RPM-1-Pad2-7)*
G36*
X59080000Y13329340D02*
G01*
X58640660Y12890000D01*
X58019340Y12890000D01*
X57580000Y13329340D01*
X57580000Y13950660D01*
X58019340Y14390000D01*
X58640660Y14390000D01*
X59080000Y13950660D01*
X59080000Y13329340D01*
G37*
G04 #@! TD.AperFunction*
G04 #@! TA.AperFunction,ComponentPad*
G04 #@! TO.P,KDFI1,2-8,RPM-1_OUT*
G04 #@! TO.N,unconnected-(KDFI1B-RPM-1_OUT-Pad2-8)*
G36*
X61620000Y13329340D02*
G01*
X61180660Y12890000D01*
X60559340Y12890000D01*
X60120000Y13329340D01*
X60120000Y13950660D01*
X60559340Y14390000D01*
X61180660Y14390000D01*
X61620000Y13950660D01*
X61620000Y13329340D01*
G37*
G04 #@! TD.AperFunction*
G04 #@! TA.AperFunction,ComponentPad*
G04 #@! TO.P,KDFI1,2-9,VR-1-N*
G04 #@! TO.N,unconnected-(KDFI1B-VR-1-N-Pad2-9)*
G36*
X59080000Y15869340D02*
G01*
X58640660Y15430000D01*
X58019340Y15430000D01*
X57580000Y15869340D01*
X57580000Y16490660D01*
X58019340Y16930000D01*
X58640660Y16930000D01*
X59080000Y16490660D01*
X59080000Y15869340D01*
G37*
G04 #@! TD.AperFunction*
G04 #@! TA.AperFunction,ComponentPad*
G04 #@! TO.P,KDFI1,2-10,VR-1-P*
G04 #@! TO.N,unconnected-(KDFI1B-VR-1-P-Pad2-10)*
G36*
X61620000Y15869340D02*
G01*
X61180660Y15430000D01*
X60559340Y15430000D01*
X60120000Y15869340D01*
X60120000Y16490660D01*
X60559340Y16930000D01*
X61180660Y16930000D01*
X61620000Y16490660D01*
X61620000Y15869340D01*
G37*
G04 #@! TD.AperFunction*
G04 #@! TO.P,KDFI1,3-1,IGN-A1*
G04 #@! TO.N,unconnected-(KDFI1C-IGN-A1-Pad3-1)*
X81830000Y5970000D03*
G04 #@! TA.AperFunction,ComponentPad*
G04 #@! TO.P,KDFI1,3-2,FB_A1*
G04 #@! TO.N,unconnected-(KDFI1C-FB_A1-Pad3-2)*
G36*
X85120000Y5659340D02*
G01*
X84680660Y5220000D01*
X84059340Y5220000D01*
X83620000Y5659340D01*
X83620000Y6280660D01*
X84059340Y6720000D01*
X84680660Y6720000D01*
X85120000Y6280660D01*
X85120000Y5659340D01*
G37*
G04 #@! TD.AperFunction*
G04 #@! TA.AperFunction,ComponentPad*
G04 #@! TO.P,KDFI1,3-3,IGN-B1*
G04 #@! TO.N,unconnected-(KDFI1C-IGN-B1-Pad3-3)*
G36*
X82580000Y8199340D02*
G01*
X82140660Y7760000D01*
X81519340Y7760000D01*
X81080000Y8199340D01*
X81080000Y8820660D01*
X81519340Y9260000D01*
X82140660Y9260000D01*
X82580000Y8820660D01*
X82580000Y8199340D01*
G37*
G04 #@! TD.AperFunction*
G04 #@! TA.AperFunction,ComponentPad*
G04 #@! TO.P,KDFI1,3-4,FB_B1*
G04 #@! TO.N,unconnected-(KDFI1C-FB_B1-Pad3-4)*
G36*
X85120000Y8199340D02*
G01*
X84680660Y7760000D01*
X84059340Y7760000D01*
X83620000Y8199340D01*
X83620000Y8820660D01*
X84059340Y9260000D01*
X84680660Y9260000D01*
X85120000Y8820660D01*
X85120000Y8199340D01*
G37*
G04 #@! TD.AperFunction*
G04 #@! TA.AperFunction,ComponentPad*
G04 #@! TO.P,KDFI1,3-5,IGN-C1*
G04 #@! TO.N,unconnected-(KDFI1C-IGN-C1-Pad3-5)*
G36*
X82580000Y10739340D02*
G01*
X82140660Y10300000D01*
X81519340Y10300000D01*
X81080000Y10739340D01*
X81080000Y11360660D01*
X81519340Y11800000D01*
X82140660Y11800000D01*
X82580000Y11360660D01*
X82580000Y10739340D01*
G37*
G04 #@! TD.AperFunction*
G04 #@! TA.AperFunction,ComponentPad*
G04 #@! TO.P,KDFI1,3-6,FB_C1*
G04 #@! TO.N,unconnected-(KDFI1C-FB_C1-Pad3-6)*
G36*
X85120000Y10739340D02*
G01*
X84680660Y10300000D01*
X84059340Y10300000D01*
X83620000Y10739340D01*
X83620000Y11360660D01*
X84059340Y11800000D01*
X84680660Y11800000D01*
X85120000Y11360660D01*
X85120000Y10739340D01*
G37*
G04 #@! TD.AperFunction*
G04 #@! TA.AperFunction,ComponentPad*
G04 #@! TO.P,KDFI1,3-7,IGN-D1*
G04 #@! TO.N,unconnected-(KDFI1C-IGN-D1-Pad3-7)*
G36*
X82580000Y13279340D02*
G01*
X82140660Y12840000D01*
X81519340Y12840000D01*
X81080000Y13279340D01*
X81080000Y13900660D01*
X81519340Y14340000D01*
X82140660Y14340000D01*
X82580000Y13900660D01*
X82580000Y13279340D01*
G37*
G04 #@! TD.AperFunction*
G04 #@! TA.AperFunction,ComponentPad*
G04 #@! TO.P,KDFI1,3-8,FB_D1*
G04 #@! TO.N,unconnected-(KDFI1C-FB_D1-Pad3-8)*
G36*
X85120000Y13279340D02*
G01*
X84680660Y12840000D01*
X84059340Y12840000D01*
X83620000Y13279340D01*
X83620000Y13900660D01*
X84059340Y14340000D01*
X84680660Y14340000D01*
X85120000Y13900660D01*
X85120000Y13279340D01*
G37*
G04 #@! TD.AperFunction*
G04 #@! TA.AperFunction,ComponentPad*
G04 #@! TO.P,KDFI1,3-9,RSP1*
G04 #@! TO.N,unconnected-(KDFI1C-RSP1-Pad3-9)*
G36*
X82580000Y15819340D02*
G01*
X82140660Y15380000D01*
X81519340Y15380000D01*
X81080000Y15819340D01*
X81080000Y16440660D01*
X81519340Y16880000D01*
X82140660Y16880000D01*
X82580000Y16440660D01*
X82580000Y15819340D01*
G37*
G04 #@! TD.AperFunction*
G04 #@! TA.AperFunction,ComponentPad*
G04 #@! TO.P,KDFI1,3-10,RSN1*
G04 #@! TO.N,unconnected-(KDFI1C-RSN1-Pad3-10)*
G36*
X85120000Y15819340D02*
G01*
X84680660Y15380000D01*
X84059340Y15380000D01*
X83620000Y15819340D01*
X83620000Y16440660D01*
X84059340Y16880000D01*
X84680660Y16880000D01*
X85120000Y16440660D01*
X85120000Y15819340D01*
G37*
G04 #@! TD.AperFunction*
G04 #@! TA.AperFunction,ComponentPad*
G04 #@! TO.P,KDFI1,3-11,IGN-E1*
G04 #@! TO.N,unconnected-(KDFI1C-IGN-E1-Pad3-11)*
G36*
X82580000Y18359340D02*
G01*
X82140660Y17920000D01*
X81519340Y17920000D01*
X81080000Y18359340D01*
X81080000Y18980660D01*
X81519340Y19420000D01*
X82140660Y19420000D01*
X82580000Y18980660D01*
X82580000Y18359340D01*
G37*
G04 #@! TD.AperFunction*
G04 #@! TA.AperFunction,ComponentPad*
G04 #@! TO.P,KDFI1,3-12,FB_E1*
G04 #@! TO.N,unconnected-(KDFI1C-FB_E1-Pad3-12)*
G36*
X85120000Y18359340D02*
G01*
X84680660Y17920000D01*
X84059340Y17920000D01*
X83620000Y18359340D01*
X83620000Y18980660D01*
X84059340Y19420000D01*
X84680660Y19420000D01*
X85120000Y18980660D01*
X85120000Y18359340D01*
G37*
G04 #@! TD.AperFunction*
G04 #@! TA.AperFunction,ComponentPad*
G04 #@! TO.P,KDFI1,3-13,IGN-F1*
G04 #@! TO.N,unconnected-(KDFI1C-IGN-F1-Pad3-13)*
G36*
X82580000Y20899340D02*
G01*
X82140660Y20460000D01*
X81519340Y20460000D01*
X81080000Y20899340D01*
X81080000Y21520660D01*
X81519340Y21960000D01*
X82140660Y21960000D01*
X82580000Y21520660D01*
X82580000Y20899340D01*
G37*
G04 #@! TD.AperFunction*
G04 #@! TA.AperFunction,ComponentPad*
G04 #@! TO.P,KDFI1,3-14,FB_F1*
G04 #@! TO.N,unconnected-(KDFI1C-FB_F1-Pad3-14)*
G36*
X85120000Y20899340D02*
G01*
X84680660Y20460000D01*
X84059340Y20460000D01*
X83620000Y20899340D01*
X83620000Y21520660D01*
X84059340Y21960000D01*
X84680660Y21960000D01*
X85120000Y21520660D01*
X85120000Y20899340D01*
G37*
G04 #@! TD.AperFunction*
G04 #@! TA.AperFunction,ComponentPad*
G04 #@! TO.P,KDFI1,3-15,IGN-A2*
G04 #@! TO.N,unconnected-(KDFI1C-IGN-A2-Pad3-15)*
G36*
X82580000Y23439340D02*
G01*
X82140660Y23000000D01*
X81519340Y23000000D01*
X81080000Y23439340D01*
X81080000Y24060660D01*
X81519340Y24500000D01*
X82140660Y24500000D01*
X82580000Y24060660D01*
X82580000Y23439340D01*
G37*
G04 #@! TD.AperFunction*
G04 #@! TA.AperFunction,ComponentPad*
G04 #@! TO.P,KDFI1,3-16,FB_A2*
G04 #@! TO.N,unconnected-(KDFI1C-FB_A2-Pad3-16)*
G36*
X85120000Y23439340D02*
G01*
X84680660Y23000000D01*
X84059340Y23000000D01*
X83620000Y23439340D01*
X83620000Y24060660D01*
X84059340Y24500000D01*
X84680660Y24500000D01*
X85120000Y24060660D01*
X85120000Y23439340D01*
G37*
G04 #@! TD.AperFunction*
G04 #@! TA.AperFunction,ComponentPad*
G04 #@! TO.P,KDFI1,3-17,IGN-B2*
G04 #@! TO.N,unconnected-(KDFI1C-IGN-B2-Pad3-17)*
G36*
X82580000Y25979340D02*
G01*
X82140660Y25540000D01*
X81519340Y25540000D01*
X81080000Y25979340D01*
X81080000Y26600660D01*
X81519340Y27040000D01*
X82140660Y27040000D01*
X82580000Y26600660D01*
X82580000Y25979340D01*
G37*
G04 #@! TD.AperFunction*
G04 #@! TA.AperFunction,ComponentPad*
G04 #@! TO.P,KDFI1,3-18,FB_B2*
G04 #@! TO.N,unconnected-(KDFI1C-FB_B2-Pad3-18)*
G36*
X85120000Y25979340D02*
G01*
X84680660Y25540000D01*
X84059340Y25540000D01*
X83620000Y25979340D01*
X83620000Y26600660D01*
X84059340Y27040000D01*
X84680660Y27040000D01*
X85120000Y26600660D01*
X85120000Y25979340D01*
G37*
G04 #@! TD.AperFunction*
G04 #@! TA.AperFunction,ComponentPad*
G04 #@! TO.P,KDFI1,3-19,RSP1/2*
G04 #@! TO.N,unconnected-(KDFI1C-RSP1{slash}2-Pad3-19)*
G36*
X82580000Y28519340D02*
G01*
X82140660Y28080000D01*
X81519340Y28080000D01*
X81080000Y28519340D01*
X81080000Y29140660D01*
X81519340Y29580000D01*
X82140660Y29580000D01*
X82580000Y29140660D01*
X82580000Y28519340D01*
G37*
G04 #@! TD.AperFunction*
G04 #@! TA.AperFunction,ComponentPad*
G04 #@! TO.P,KDFI1,3-20,RSN1/2*
G04 #@! TO.N,unconnected-(KDFI1C-RSN1{slash}2-Pad3-20)*
G36*
X85120000Y28519340D02*
G01*
X84680660Y28080000D01*
X84059340Y28080000D01*
X83620000Y28519340D01*
X83620000Y29140660D01*
X84059340Y29580000D01*
X84680660Y29580000D01*
X85120000Y29140660D01*
X85120000Y28519340D01*
G37*
G04 #@! TD.AperFunction*
G04 #@! TA.AperFunction,ComponentPad*
G04 #@! TO.P,KDFI1,3-21,IGN-C2*
G04 #@! TO.N,unconnected-(KDFI1C-IGN-C2-Pad3-21)*
G36*
X82580000Y31059340D02*
G01*
X82140660Y30620000D01*
X81519340Y30620000D01*
X81080000Y31059340D01*
X81080000Y31680660D01*
X81519340Y32120000D01*
X82140660Y32120000D01*
X82580000Y31680660D01*
X82580000Y31059340D01*
G37*
G04 #@! TD.AperFunction*
G04 #@! TA.AperFunction,ComponentPad*
G04 #@! TO.P,KDFI1,3-22,FB_C2*
G04 #@! TO.N,unconnected-(KDFI1C-FB_C2-Pad3-22)*
G36*
X85120000Y31059340D02*
G01*
X84680660Y30620000D01*
X84059340Y30620000D01*
X83620000Y31059340D01*
X83620000Y31680660D01*
X84059340Y32120000D01*
X84680660Y32120000D01*
X85120000Y31680660D01*
X85120000Y31059340D01*
G37*
G04 #@! TD.AperFunction*
G04 #@! TA.AperFunction,ComponentPad*
G04 #@! TO.P,KDFI1,3-23,IGN-D2*
G04 #@! TO.N,unconnected-(KDFI1C-IGN-D2-Pad3-23)*
G36*
X82580000Y33599340D02*
G01*
X82140660Y33160000D01*
X81519340Y33160000D01*
X81080000Y33599340D01*
X81080000Y34220660D01*
X81519340Y34660000D01*
X82140660Y34660000D01*
X82580000Y34220660D01*
X82580000Y33599340D01*
G37*
G04 #@! TD.AperFunction*
G04 #@! TA.AperFunction,ComponentPad*
G04 #@! TO.P,KDFI1,3-24,FB_D2*
G04 #@! TO.N,unconnected-(KDFI1C-FB_D2-Pad3-24)*
G36*
X85120000Y33599340D02*
G01*
X84680660Y33160000D01*
X84059340Y33160000D01*
X83620000Y33599340D01*
X83620000Y34220660D01*
X84059340Y34660000D01*
X84680660Y34660000D01*
X85120000Y34220660D01*
X85120000Y33599340D01*
G37*
G04 #@! TD.AperFunction*
G04 #@! TA.AperFunction,ComponentPad*
G04 #@! TO.P,KDFI1,3-25,IGN-E2*
G04 #@! TO.N,unconnected-(KDFI1C-IGN-E2-Pad3-25)*
G36*
X82580000Y36139340D02*
G01*
X82140660Y35700000D01*
X81519340Y35700000D01*
X81080000Y36139340D01*
X81080000Y36760660D01*
X81519340Y37200000D01*
X82140660Y37200000D01*
X82580000Y36760660D01*
X82580000Y36139340D01*
G37*
G04 #@! TD.AperFunction*
G04 #@! TA.AperFunction,ComponentPad*
G04 #@! TO.P,KDFI1,3-26,FB_E2*
G04 #@! TO.N,unconnected-(KDFI1C-FB_E2-Pad3-26)*
G36*
X85120000Y36139340D02*
G01*
X84680660Y35700000D01*
X84059340Y35700000D01*
X83620000Y36139340D01*
X83620000Y36760660D01*
X84059340Y37200000D01*
X84680660Y37200000D01*
X85120000Y36760660D01*
X85120000Y36139340D01*
G37*
G04 #@! TD.AperFunction*
G04 #@! TA.AperFunction,ComponentPad*
G04 #@! TO.P,KDFI1,3-27,IGN-F2*
G04 #@! TO.N,unconnected-(KDFI1C-IGN-F2-Pad3-27)*
G36*
X82580000Y38679340D02*
G01*
X82140660Y38240000D01*
X81519340Y38240000D01*
X81080000Y38679340D01*
X81080000Y39300660D01*
X81519340Y39740000D01*
X82140660Y39740000D01*
X82580000Y39300660D01*
X82580000Y38679340D01*
G37*
G04 #@! TD.AperFunction*
G04 #@! TA.AperFunction,ComponentPad*
G04 #@! TO.P,KDFI1,3-28,FB_F2*
G04 #@! TO.N,unconnected-(KDFI1C-FB_F2-Pad3-28)*
G36*
X85120000Y38679340D02*
G01*
X84680660Y38240000D01*
X84059340Y38240000D01*
X83620000Y38679340D01*
X83620000Y39300660D01*
X84059340Y39740000D01*
X84680660Y39740000D01*
X85120000Y39300660D01*
X85120000Y38679340D01*
G37*
G04 #@! TD.AperFunction*
G04 #@! TA.AperFunction,ComponentPad*
G04 #@! TO.P,KDFI1,3-29,RSP2*
G04 #@! TO.N,unconnected-(KDFI1C-RSP2-Pad3-29)*
G36*
X82580000Y41219340D02*
G01*
X82140660Y40780000D01*
X81519340Y40780000D01*
X81080000Y41219340D01*
X81080000Y41840660D01*
X81519340Y42280000D01*
X82140660Y42280000D01*
X82580000Y41840660D01*
X82580000Y41219340D01*
G37*
G04 #@! TD.AperFunction*
G04 #@! TA.AperFunction,ComponentPad*
G04 #@! TO.P,KDFI1,3-30,RSN2*
G04 #@! TO.N,unconnected-(KDFI1C-RSN2-Pad3-30)*
G36*
X85120000Y41219340D02*
G01*
X84680660Y40780000D01*
X84059340Y40780000D01*
X83620000Y41219340D01*
X83620000Y41840660D01*
X84059340Y42280000D01*
X84680660Y42280000D01*
X85120000Y41840660D01*
X85120000Y41219340D01*
G37*
G04 #@! TD.AperFunction*
G04 #@! TA.AperFunction,ComponentPad*
G04 #@! TO.P,KDFI1,3-31,MCU_PA.6*
G04 #@! TO.N,unconnected-(KDFI1C-MCU_PA.6-Pad3-31)*
G36*
X82580000Y43759340D02*
G01*
X82140660Y43320000D01*
X81519340Y43320000D01*
X81080000Y43759340D01*
X81080000Y44380660D01*
X81519340Y44820000D01*
X82140660Y44820000D01*
X82580000Y44380660D01*
X82580000Y43759340D01*
G37*
G04 #@! TD.AperFunction*
G04 #@! TA.AperFunction,ComponentPad*
G04 #@! TO.P,KDFI1,3-32,MCU_PA.7*
G04 #@! TO.N,unconnected-(KDFI1C-MCU_PA.7-Pad3-32)*
G36*
X85120000Y43759340D02*
G01*
X84680660Y43320000D01*
X84059340Y43320000D01*
X83620000Y43759340D01*
X83620000Y44380660D01*
X84059340Y44820000D01*
X84680660Y44820000D01*
X85120000Y44380660D01*
X85120000Y43759340D01*
G37*
G04 #@! TD.AperFunction*
G04 #@! TA.AperFunction,ComponentPad*
G04 #@! TO.P,KDFI1,3-33,INJ-1*
G04 #@! TO.N,unconnected-(KDFI1C-INJ-1-Pad3-33)*
G36*
X82580000Y46299340D02*
G01*
X82140660Y45860000D01*
X81519340Y45860000D01*
X81080000Y46299340D01*
X81080000Y46920660D01*
X81519340Y47360000D01*
X82140660Y47360000D01*
X82580000Y46920660D01*
X82580000Y46299340D01*
G37*
G04 #@! TD.AperFunction*
G04 #@! TA.AperFunction,ComponentPad*
G04 #@! TO.P,KDFI1,3-34,INJ-2*
G04 #@! TO.N,unconnected-(KDFI1C-INJ-2-Pad3-34)*
G36*
X85120000Y46299340D02*
G01*
X84680660Y45860000D01*
X84059340Y45860000D01*
X83620000Y46299340D01*
X83620000Y46920660D01*
X84059340Y47360000D01*
X84680660Y47360000D01*
X85120000Y46920660D01*
X85120000Y46299340D01*
G37*
G04 #@! TD.AperFunction*
G04 #@! TA.AperFunction,ComponentPad*
G04 #@! TO.P,KDFI1,3-35,INJ-3*
G04 #@! TO.N,unconnected-(KDFI1C-INJ-3-Pad3-35)*
G36*
X82580000Y48839340D02*
G01*
X82140660Y48400000D01*
X81519340Y48400000D01*
X81080000Y48839340D01*
X81080000Y49460660D01*
X81519340Y49900000D01*
X82140660Y49900000D01*
X82580000Y49460660D01*
X82580000Y48839340D01*
G37*
G04 #@! TD.AperFunction*
G04 #@! TA.AperFunction,ComponentPad*
G04 #@! TO.P,KDFI1,3-36,INJ-4*
G04 #@! TO.N,unconnected-(KDFI1C-INJ-4-Pad3-36)*
G36*
X85120000Y48839340D02*
G01*
X84680660Y48400000D01*
X84059340Y48400000D01*
X83620000Y48839340D01*
X83620000Y49460660D01*
X84059340Y49900000D01*
X84680660Y49900000D01*
X85120000Y49460660D01*
X85120000Y48839340D01*
G37*
G04 #@! TD.AperFunction*
G04 #@! TA.AperFunction,ComponentPad*
G04 #@! TO.P,KDFI1,3-37,INJ-5*
G04 #@! TO.N,unconnected-(KDFI1C-INJ-5-Pad3-37)*
G36*
X82580000Y51379340D02*
G01*
X82140660Y50940000D01*
X81519340Y50940000D01*
X81080000Y51379340D01*
X81080000Y52000660D01*
X81519340Y52440000D01*
X82140660Y52440000D01*
X82580000Y52000660D01*
X82580000Y51379340D01*
G37*
G04 #@! TD.AperFunction*
G04 #@! TA.AperFunction,ComponentPad*
G04 #@! TO.P,KDFI1,3-38,INJ-6*
G04 #@! TO.N,unconnected-(KDFI1C-INJ-6-Pad3-38)*
G36*
X85120000Y51379340D02*
G01*
X84680660Y50940000D01*
X84059340Y50940000D01*
X83620000Y51379340D01*
X83620000Y52000660D01*
X84059340Y52440000D01*
X84680660Y52440000D01*
X85120000Y52000660D01*
X85120000Y51379340D01*
G37*
G04 #@! TD.AperFunction*
G04 #@! TA.AperFunction,ComponentPad*
G04 #@! TO.P,KDFI1,3-39,INJ-7*
G04 #@! TO.N,unconnected-(KDFI1C-INJ-7-Pad3-39)*
G36*
X82580000Y53919340D02*
G01*
X82140660Y53480000D01*
X81519340Y53480000D01*
X81080000Y53919340D01*
X81080000Y54540660D01*
X81519340Y54980000D01*
X82140660Y54980000D01*
X82580000Y54540660D01*
X82580000Y53919340D01*
G37*
G04 #@! TD.AperFunction*
G04 #@! TA.AperFunction,ComponentPad*
G04 #@! TO.P,KDFI1,3-40,INJ-8*
G04 #@! TO.N,unconnected-(KDFI1C-INJ-8-Pad3-40)*
G36*
X85120000Y53919340D02*
G01*
X84680660Y53480000D01*
X84059340Y53480000D01*
X83620000Y53919340D01*
X83620000Y54540660D01*
X84059340Y54980000D01*
X84680660Y54980000D01*
X85120000Y54540660D01*
X85120000Y53919340D01*
G37*
G04 #@! TD.AperFunction*
G04 #@! TO.P,KDFI1,4-1,MCU_RXD*
G04 #@! TO.N,unconnected-(KDFI1D-MCU_RXD-Pad4-1)*
X60870000Y44180000D03*
G04 #@! TA.AperFunction,ComponentPad*
G04 #@! TO.P,KDFI1,4-2,MCU_TXD*
G04 #@! TO.N,unconnected-(KDFI1D-MCU_TXD-Pad4-2)*
G36*
X57580000Y44490660D02*
G01*
X58019340Y44930000D01*
X58640660Y44930000D01*
X59080000Y44490660D01*
X59080000Y43869340D01*
X58640660Y43430000D01*
X58019340Y43430000D01*
X57580000Y43869340D01*
X57580000Y44490660D01*
G37*
G04 #@! TD.AperFunction*
G04 #@! TA.AperFunction,ComponentPad*
G04 #@! TO.P,KDFI1,4-3,CAN_H*
G04 #@! TO.N,unconnected-(KDFI1D-CAN_H-Pad4-3)*
G36*
X60120000Y41950660D02*
G01*
X60559340Y42390000D01*
X61180660Y42390000D01*
X61620000Y41950660D01*
X61620000Y41329340D01*
X61180660Y40890000D01*
X60559340Y40890000D01*
X60120000Y41329340D01*
X60120000Y41950660D01*
G37*
G04 #@! TD.AperFunction*
G04 #@! TA.AperFunction,ComponentPad*
G04 #@! TO.P,KDFI1,4-4,CAN_L*
G04 #@! TO.N,unconnected-(KDFI1D-CAN_L-Pad4-4)*
G36*
X57580000Y41950660D02*
G01*
X58019340Y42390000D01*
X58640660Y42390000D01*
X59080000Y41950660D01*
X59080000Y41329340D01*
X58640660Y40890000D01*
X58019340Y40890000D01*
X57580000Y41329340D01*
X57580000Y41950660D01*
G37*
G04 #@! TD.AperFunction*
G04 #@! TA.AperFunction,ComponentPad*
G04 #@! TO.P,KDFI1,4-5,USB_RXD*
G04 #@! TO.N,unconnected-(KDFI1D-USB_RXD-Pad4-5)*
G36*
X60120000Y39410660D02*
G01*
X60559340Y39850000D01*
X61180660Y39850000D01*
X61620000Y39410660D01*
X61620000Y38789340D01*
X61180660Y38350000D01*
X60559340Y38350000D01*
X60120000Y38789340D01*
X60120000Y39410660D01*
G37*
G04 #@! TD.AperFunction*
G04 #@! TA.AperFunction,ComponentPad*
G04 #@! TO.P,KDFI1,4-6,USB_TXD*
G04 #@! TO.N,unconnected-(KDFI1D-USB_TXD-Pad4-6)*
G36*
X57580000Y39410660D02*
G01*
X58019340Y39850000D01*
X58640660Y39850000D01*
X59080000Y39410660D01*
X59080000Y38789340D01*
X58640660Y38350000D01*
X58019340Y38350000D01*
X57580000Y38789340D01*
X57580000Y39410660D01*
G37*
G04 #@! TD.AperFunction*
G04 #@! TA.AperFunction,ComponentPad*
G04 #@! TO.P,KDFI1,4-7,VBUS_USB*
G04 #@! TO.N,unconnected-(KDFI1D-VBUS_USB-Pad4-7)*
G36*
X60120000Y36870660D02*
G01*
X60559340Y37310000D01*
X61180660Y37310000D01*
X61620000Y36870660D01*
X61620000Y36249340D01*
X61180660Y35810000D01*
X60559340Y35810000D01*
X60120000Y36249340D01*
X60120000Y36870660D01*
G37*
G04 #@! TD.AperFunction*
G04 #@! TA.AperFunction,ComponentPad*
G04 #@! TO.P,KDFI1,4-8,GND_USB*
G04 #@! TO.N,unconnected-(KDFI1D-GND_USB-Pad4-8)*
G36*
X57580000Y36870660D02*
G01*
X58019340Y37310000D01*
X58640660Y37310000D01*
X59080000Y36870660D01*
X59080000Y36249340D01*
X58640660Y35810000D01*
X58019340Y35810000D01*
X57580000Y36249340D01*
X57580000Y36870660D01*
G37*
G04 #@! TD.AperFunction*
G04 #@! TA.AperFunction,ComponentPad*
G04 #@! TO.P,KDFI1,4-9,DP_USB*
G04 #@! TO.N,unconnected-(KDFI1D-DP_USB-Pad4-9)*
G36*
X60120000Y34330660D02*
G01*
X60559340Y34770000D01*
X61180660Y34770000D01*
X61620000Y34330660D01*
X61620000Y33709340D01*
X61180660Y33270000D01*
X60559340Y33270000D01*
X60120000Y33709340D01*
X60120000Y34330660D01*
G37*
G04 #@! TD.AperFunction*
G04 #@! TA.AperFunction,ComponentPad*
G04 #@! TO.P,KDFI1,4-10,DM_USB*
G04 #@! TO.N,unconnected-(KDFI1D-DM_USB-Pad4-10)*
G36*
X57580000Y34330660D02*
G01*
X58019340Y34770000D01*
X58640660Y34770000D01*
X59080000Y34330660D01*
X59080000Y33709340D01*
X58640660Y33270000D01*
X58019340Y33270000D01*
X57580000Y33709340D01*
X57580000Y34330660D01*
G37*
G04 #@! TD.AperFunction*
G04 #@! TO.P,KDFI1,5-1,GND*
G04 #@! TO.N,Net-(KDFI1A-GND@1)*
X64230000Y53830000D03*
G04 #@! TA.AperFunction,ComponentPad*
G04 #@! TO.P,KDFI1,5-2,+5V*
G04 #@! TO.N,Net-(KDFI1A-+5V)*
G36*
X64540660Y57120000D02*
G01*
X64980000Y56680660D01*
X64980000Y56059340D01*
X64540660Y55620000D01*
X63919340Y55620000D01*
X63480000Y56059340D01*
X63480000Y56680660D01*
X63919340Y57120000D01*
X64540660Y57120000D01*
G37*
G04 #@! TD.AperFunction*
G04 #@! TA.AperFunction,ComponentPad*
G04 #@! TO.P,KDFI1,5-3,EC_SCK*
G04 #@! TO.N,unconnected-(KDFI1E-EC_SCK-Pad5-3)*
G36*
X62000660Y54580000D02*
G01*
X62440000Y54140660D01*
X62440000Y53519340D01*
X62000660Y53080000D01*
X61379340Y53080000D01*
X60940000Y53519340D01*
X60940000Y54140660D01*
X61379340Y54580000D01*
X62000660Y54580000D01*
G37*
G04 #@! TD.AperFunction*
G04 #@! TA.AperFunction,ComponentPad*
G04 #@! TO.P,KDFI1,5-4,EC_SI*
G04 #@! TO.N,unconnected-(KDFI1E-EC_SI-Pad5-4)*
G36*
X62000660Y57120000D02*
G01*
X62440000Y56680660D01*
X62440000Y56059340D01*
X62000660Y55620000D01*
X61379340Y55620000D01*
X60940000Y56059340D01*
X60940000Y56680660D01*
X61379340Y57120000D01*
X62000660Y57120000D01*
G37*
G04 #@! TD.AperFunction*
G04 #@! TA.AperFunction,ComponentPad*
G04 #@! TO.P,KDFI1,5-5,EC_SO*
G04 #@! TO.N,unconnected-(KDFI1E-EC_SO-Pad5-5)*
G36*
X59460660Y54580000D02*
G01*
X59900000Y54140660D01*
X59900000Y53519340D01*
X59460660Y53080000D01*
X58839340Y53080000D01*
X58400000Y53519340D01*
X58400000Y54140660D01*
X58839340Y54580000D01*
X59460660Y54580000D01*
G37*
G04 #@! TD.AperFunction*
G04 #@! TA.AperFunction,ComponentPad*
G04 #@! TO.P,KDFI1,5-6,CS_EC1*
G04 #@! TO.N,unconnected-(KDFI1E-CS_EC1-Pad5-6)*
G36*
X59460660Y57120000D02*
G01*
X59900000Y56680660D01*
X59900000Y56059340D01*
X59460660Y55620000D01*
X58839340Y55620000D01*
X58400000Y56059340D01*
X58400000Y56680660D01*
X58839340Y57120000D01*
X59460660Y57120000D01*
G37*
G04 #@! TD.AperFunction*
G04 #@! TA.AperFunction,ComponentPad*
G04 #@! TO.P,KDFI1,5-7,MAXI_EC1*
G04 #@! TO.N,unconnected-(KDFI1E-MAXI_EC1-Pad5-7)*
G36*
X56920660Y54580000D02*
G01*
X57360000Y54140660D01*
X57360000Y53519340D01*
X56920660Y53080000D01*
X56299340Y53080000D01*
X55860000Y53519340D01*
X55860000Y54140660D01*
X56299340Y54580000D01*
X56920660Y54580000D01*
G37*
G04 #@! TD.AperFunction*
G04 #@! TA.AperFunction,ComponentPad*
G04 #@! TO.P,KDFI1,5-8,NOMI_EC1*
G04 #@! TO.N,unconnected-(KDFI1E-NOMI_EC1-Pad5-8)*
G36*
X56920660Y57120000D02*
G01*
X57360000Y56680660D01*
X57360000Y56059340D01*
X56920660Y55620000D01*
X56299340Y55620000D01*
X55860000Y56059340D01*
X55860000Y56680660D01*
X56299340Y57120000D01*
X56920660Y57120000D01*
G37*
G04 #@! TD.AperFunction*
G04 #@! TA.AperFunction,ComponentPad*
G04 #@! TO.P,KDFI1,5-9,SPKD_EC1*
G04 #@! TO.N,unconnected-(KDFI1E-SPKD_EC1-Pad5-9)*
G36*
X54380660Y54580000D02*
G01*
X54820000Y54140660D01*
X54820000Y53519340D01*
X54380660Y53080000D01*
X53759340Y53080000D01*
X53320000Y53519340D01*
X53320000Y54140660D01*
X53759340Y54580000D01*
X54380660Y54580000D01*
G37*
G04 #@! TD.AperFunction*
G04 #@! TA.AperFunction,ComponentPad*
G04 #@! TO.P,KDFI1,5-10,CS_EC2*
G04 #@! TO.N,unconnected-(KDFI1E-CS_EC2-Pad5-10)*
G36*
X54380660Y57120000D02*
G01*
X54820000Y56680660D01*
X54820000Y56059340D01*
X54380660Y55620000D01*
X53759340Y55620000D01*
X53320000Y56059340D01*
X53320000Y56680660D01*
X53759340Y57120000D01*
X54380660Y57120000D01*
G37*
G04 #@! TD.AperFunction*
G04 #@! TA.AperFunction,ComponentPad*
G04 #@! TO.P,KDFI1,5-11,MAXI_EC2*
G04 #@! TO.N,unconnected-(KDFI1E-MAXI_EC2-Pad5-11)*
G36*
X51840660Y54580000D02*
G01*
X52280000Y54140660D01*
X52280000Y53519340D01*
X51840660Y53080000D01*
X51219340Y53080000D01*
X50780000Y53519340D01*
X50780000Y54140660D01*
X51219340Y54580000D01*
X51840660Y54580000D01*
G37*
G04 #@! TD.AperFunction*
G04 #@! TA.AperFunction,ComponentPad*
G04 #@! TO.P,KDFI1,5-12,NOMI_EC2*
G04 #@! TO.N,unconnected-(KDFI1E-NOMI_EC2-Pad5-12)*
G36*
X51840660Y57120000D02*
G01*
X52280000Y56680660D01*
X52280000Y56059340D01*
X51840660Y55620000D01*
X51219340Y55620000D01*
X50780000Y56059340D01*
X50780000Y56680660D01*
X51219340Y57120000D01*
X51840660Y57120000D01*
G37*
G04 #@! TD.AperFunction*
G04 #@! TA.AperFunction,ComponentPad*
G04 #@! TO.P,KDFI1,5-13,SPKD_EC2*
G04 #@! TO.N,unconnected-(KDFI1E-SPKD_EC2-Pad5-13)*
G36*
X49300660Y54580000D02*
G01*
X49740000Y54140660D01*
X49740000Y53519340D01*
X49300660Y53080000D01*
X48679340Y53080000D01*
X48240000Y53519340D01*
X48240000Y54140660D01*
X48679340Y54580000D01*
X49300660Y54580000D01*
G37*
G04 #@! TD.AperFunction*
G04 #@! TA.AperFunction,ComponentPad*
G04 #@! TO.P,KDFI1,5-14,CS_EC3*
G04 #@! TO.N,unconnected-(KDFI1E-CS_EC3-Pad5-14)*
G36*
X49300660Y57120000D02*
G01*
X49740000Y56680660D01*
X49740000Y56059340D01*
X49300660Y55620000D01*
X48679340Y55620000D01*
X48240000Y56059340D01*
X48240000Y56680660D01*
X48679340Y57120000D01*
X49300660Y57120000D01*
G37*
G04 #@! TD.AperFunction*
G04 #@! TA.AperFunction,ComponentPad*
G04 #@! TO.P,KDFI1,5-15,MAXI_EC3*
G04 #@! TO.N,unconnected-(KDFI1E-MAXI_EC3-Pad5-15)*
G36*
X46760660Y54580000D02*
G01*
X47200000Y54140660D01*
X47200000Y53519340D01*
X46760660Y53080000D01*
X46139340Y53080000D01*
X45700000Y53519340D01*
X45700000Y54140660D01*
X46139340Y54580000D01*
X46760660Y54580000D01*
G37*
G04 #@! TD.AperFunction*
G04 #@! TA.AperFunction,ComponentPad*
G04 #@! TO.P,KDFI1,5-16,NOMI_EC3*
G04 #@! TO.N,unconnected-(KDFI1E-NOMI_EC3-Pad5-16)*
G36*
X46760660Y57120000D02*
G01*
X47200000Y56680660D01*
X47200000Y56059340D01*
X46760660Y55620000D01*
X46139340Y55620000D01*
X45700000Y56059340D01*
X45700000Y56680660D01*
X46139340Y57120000D01*
X46760660Y57120000D01*
G37*
G04 #@! TD.AperFunction*
G04 #@! TA.AperFunction,ComponentPad*
G04 #@! TO.P,KDFI1,5-17,SPKD_EC3*
G04 #@! TO.N,unconnected-(KDFI1E-SPKD_EC3-Pad5-17)*
G36*
X44220660Y54580000D02*
G01*
X44660000Y54140660D01*
X44660000Y53519340D01*
X44220660Y53080000D01*
X43599340Y53080000D01*
X43160000Y53519340D01*
X43160000Y54140660D01*
X43599340Y54580000D01*
X44220660Y54580000D01*
G37*
G04 #@! TD.AperFunction*
G04 #@! TA.AperFunction,ComponentPad*
G04 #@! TO.P,KDFI1,5-18,MCU_PA.3*
G04 #@! TO.N,unconnected-(KDFI1E-MCU_PA.3-Pad5-18)*
G36*
X44220660Y57120000D02*
G01*
X44660000Y56680660D01*
X44660000Y56059340D01*
X44220660Y55620000D01*
X43599340Y55620000D01*
X43160000Y56059340D01*
X43160000Y56680660D01*
X43599340Y57120000D01*
X44220660Y57120000D01*
G37*
G04 #@! TD.AperFunction*
G04 #@! TA.AperFunction,ComponentPad*
G04 #@! TO.P,KDFI1,5-19,MCU_PA.4*
G04 #@! TO.N,unconnected-(KDFI1E-MCU_PA.4-Pad5-19)*
G36*
X41680660Y54580000D02*
G01*
X42120000Y54140660D01*
X42120000Y53519340D01*
X41680660Y53080000D01*
X41059340Y53080000D01*
X40620000Y53519340D01*
X40620000Y54140660D01*
X41059340Y54580000D01*
X41680660Y54580000D01*
G37*
G04 #@! TD.AperFunction*
G04 #@! TA.AperFunction,ComponentPad*
G04 #@! TO.P,KDFI1,5-20,MCU_PA.5*
G04 #@! TO.N,unconnected-(KDFI1E-MCU_PA.5-Pad5-20)*
G36*
X41680660Y57120000D02*
G01*
X42120000Y56680660D01*
X42120000Y56059340D01*
X41680660Y55620000D01*
X41059340Y55620000D01*
X40620000Y56059340D01*
X40620000Y56680660D01*
X41059340Y57120000D01*
X41680660Y57120000D01*
G37*
G04 #@! TD.AperFunction*
G04 #@! TA.AperFunction,ComponentPad*
G04 #@! TO.P,KDFI1,5-21,MCU_PB.4*
G04 #@! TO.N,unconnected-(KDFI1E-MCU_PB.4-Pad5-21)*
G36*
X39140660Y54580000D02*
G01*
X39580000Y54140660D01*
X39580000Y53519340D01*
X39140660Y53080000D01*
X38519340Y53080000D01*
X38080000Y53519340D01*
X38080000Y54140660D01*
X38519340Y54580000D01*
X39140660Y54580000D01*
G37*
G04 #@! TD.AperFunction*
G04 #@! TA.AperFunction,ComponentPad*
G04 #@! TO.P,KDFI1,5-22,MCU_PB.5*
G04 #@! TO.N,unconnected-(KDFI1E-MCU_PB.5-Pad5-22)*
G36*
X39140660Y57120000D02*
G01*
X39580000Y56680660D01*
X39580000Y56059340D01*
X39140660Y55620000D01*
X38519340Y55620000D01*
X38080000Y56059340D01*
X38080000Y56680660D01*
X38519340Y57120000D01*
X39140660Y57120000D01*
G37*
G04 #@! TD.AperFunction*
G04 #@! TA.AperFunction,ComponentPad*
G04 #@! TO.P,KDFI1,5-23,MCU_PB.6*
G04 #@! TO.N,unconnected-(KDFI1E-MCU_PB.6-Pad5-23)*
G36*
X36600660Y54580000D02*
G01*
X37040000Y54140660D01*
X37040000Y53519340D01*
X36600660Y53080000D01*
X35979340Y53080000D01*
X35540000Y53519340D01*
X35540000Y54140660D01*
X35979340Y54580000D01*
X36600660Y54580000D01*
G37*
G04 #@! TD.AperFunction*
G04 #@! TA.AperFunction,ComponentPad*
G04 #@! TO.P,KDFI1,5-24,MCU_PB.7*
G04 #@! TO.N,unconnected-(KDFI1E-MCU_PB.7-Pad5-24)*
G36*
X36600660Y57120000D02*
G01*
X37040000Y56680660D01*
X37040000Y56059340D01*
X36600660Y55620000D01*
X35979340Y55620000D01*
X35540000Y56059340D01*
X35540000Y56680660D01*
X35979340Y57120000D01*
X36600660Y57120000D01*
G37*
G04 #@! TD.AperFunction*
G04 #@! TA.AperFunction,ComponentPad*
G04 #@! TO.P,KDFI1,5-25,MCU_PE.2*
G04 #@! TO.N,unconnected-(KDFI1E-MCU_PE.2-Pad5-25)*
G36*
X34060660Y54580000D02*
G01*
X34500000Y54140660D01*
X34500000Y53519340D01*
X34060660Y53080000D01*
X33439340Y53080000D01*
X33000000Y53519340D01*
X33000000Y54140660D01*
X33439340Y54580000D01*
X34060660Y54580000D01*
G37*
G04 #@! TD.AperFunction*
G04 #@! TA.AperFunction,ComponentPad*
G04 #@! TO.P,KDFI1,5-26,MCU_PE.3*
G04 #@! TO.N,unconnected-(KDFI1E-MCU_PE.3-Pad5-26)*
G36*
X34060660Y57120000D02*
G01*
X34500000Y56680660D01*
X34500000Y56059340D01*
X34060660Y55620000D01*
X33439340Y55620000D01*
X33000000Y56059340D01*
X33000000Y56680660D01*
X33439340Y57120000D01*
X34060660Y57120000D01*
G37*
G04 #@! TD.AperFunction*
G04 #@! TA.AperFunction,ComponentPad*
G04 #@! TO.P,KDFI1,5-27,MCU_PE.5*
G04 #@! TO.N,unconnected-(KDFI1E-MCU_PE.5-Pad5-27)*
G36*
X31520660Y54580000D02*
G01*
X31960000Y54140660D01*
X31960000Y53519340D01*
X31520660Y53080000D01*
X30899340Y53080000D01*
X30460000Y53519340D01*
X30460000Y54140660D01*
X30899340Y54580000D01*
X31520660Y54580000D01*
G37*
G04 #@! TD.AperFunction*
G04 #@! TA.AperFunction,ComponentPad*
G04 #@! TO.P,KDFI1,5-28,MCU_PE.6*
G04 #@! TO.N,unconnected-(KDFI1E-MCU_PE.6-Pad5-28)*
G36*
X31520660Y57120000D02*
G01*
X31960000Y56680660D01*
X31960000Y56059340D01*
X31520660Y55620000D01*
X30899340Y55620000D01*
X30460000Y56059340D01*
X30460000Y56680660D01*
X30899340Y57120000D01*
X31520660Y57120000D01*
G37*
G04 #@! TD.AperFunction*
G04 #@! TA.AperFunction,ComponentPad*
G04 #@! TO.P,KDFI1,5-29,MCU_PJ.6*
G04 #@! TO.N,unconnected-(KDFI1E-MCU_PJ.6-Pad5-29)*
G36*
X28980660Y54580000D02*
G01*
X29420000Y54140660D01*
X29420000Y53519340D01*
X28980660Y53080000D01*
X28359340Y53080000D01*
X27920000Y53519340D01*
X27920000Y54140660D01*
X28359340Y54580000D01*
X28980660Y54580000D01*
G37*
G04 #@! TD.AperFunction*
G04 #@! TA.AperFunction,ComponentPad*
G04 #@! TO.P,KDFI1,5-30,MCU_PJ.7*
G04 #@! TO.N,unconnected-(KDFI1E-MCU_PJ.7-Pad5-30)*
G36*
X28980660Y57120000D02*
G01*
X29420000Y56680660D01*
X29420000Y56059340D01*
X28980660Y55620000D01*
X28359340Y55620000D01*
X27920000Y56059340D01*
X27920000Y56680660D01*
X28359340Y57120000D01*
X28980660Y57120000D01*
G37*
G04 #@! TD.AperFunction*
G04 #@! TA.AperFunction,ComponentPad*
G04 #@! TO.P,KDFI1,5-31,MCU_PP.0*
G04 #@! TO.N,unconnected-(KDFI1E-MCU_PP.0-Pad5-31)*
G36*
X26440660Y54580000D02*
G01*
X26880000Y54140660D01*
X26880000Y53519340D01*
X26440660Y53080000D01*
X25819340Y53080000D01*
X25380000Y53519340D01*
X25380000Y54140660D01*
X25819340Y54580000D01*
X26440660Y54580000D01*
G37*
G04 #@! TD.AperFunction*
G04 #@! TA.AperFunction,ComponentPad*
G04 #@! TO.P,KDFI1,5-32,MCU_PP.1*
G04 #@! TO.N,unconnected-(KDFI1E-MCU_PP.1-Pad5-32)*
G36*
X26440660Y57120000D02*
G01*
X26880000Y56680660D01*
X26880000Y56059340D01*
X26440660Y55620000D01*
X25819340Y55620000D01*
X25380000Y56059340D01*
X25380000Y56680660D01*
X25819340Y57120000D01*
X26440660Y57120000D01*
G37*
G04 #@! TD.AperFunction*
G04 #@! TA.AperFunction,ComponentPad*
G04 #@! TO.P,KDFI1,5-33,MCU_PP.2*
G04 #@! TO.N,unconnected-(KDFI1E-MCU_PP.2-Pad5-33)*
G36*
X23900660Y54580000D02*
G01*
X24340000Y54140660D01*
X24340000Y53519340D01*
X23900660Y53080000D01*
X23279340Y53080000D01*
X22840000Y53519340D01*
X22840000Y54140660D01*
X23279340Y54580000D01*
X23900660Y54580000D01*
G37*
G04 #@! TD.AperFunction*
G04 #@! TA.AperFunction,ComponentPad*
G04 #@! TO.P,KDFI1,5-34,MCU_PP.3*
G04 #@! TO.N,unconnected-(KDFI1E-MCU_PP.3-Pad5-34)*
G36*
X23900660Y57120000D02*
G01*
X24340000Y56680660D01*
X24340000Y56059340D01*
X23900660Y55620000D01*
X23279340Y55620000D01*
X22840000Y56059340D01*
X22840000Y56680660D01*
X23279340Y57120000D01*
X23900660Y57120000D01*
G37*
G04 #@! TD.AperFunction*
G04 #@! TA.AperFunction,ComponentPad*
G04 #@! TO.P,KDFI1,5-35,MCU_PP.4*
G04 #@! TO.N,unconnected-(KDFI1E-MCU_PP.4-Pad5-35)*
G36*
X21360660Y54580000D02*
G01*
X21800000Y54140660D01*
X21800000Y53519340D01*
X21360660Y53080000D01*
X20739340Y53080000D01*
X20300000Y53519340D01*
X20300000Y54140660D01*
X20739340Y54580000D01*
X21360660Y54580000D01*
G37*
G04 #@! TD.AperFunction*
G04 #@! TA.AperFunction,ComponentPad*
G04 #@! TO.P,KDFI1,5-36,MCU_PP.5*
G04 #@! TO.N,unconnected-(KDFI1E-MCU_PP.5-Pad5-36)*
G36*
X21360660Y57120000D02*
G01*
X21800000Y56680660D01*
X21800000Y56059340D01*
X21360660Y55620000D01*
X20739340Y55620000D01*
X20300000Y56059340D01*
X20300000Y56680660D01*
X20739340Y57120000D01*
X21360660Y57120000D01*
G37*
G04 #@! TD.AperFunction*
G04 #@! TA.AperFunction,ComponentPad*
G04 #@! TO.P,KDFI1,5-37,MCU_PP.6*
G04 #@! TO.N,unconnected-(KDFI1E-MCU_PP.6-Pad5-37)*
G36*
X18820660Y54580000D02*
G01*
X19260000Y54140660D01*
X19260000Y53519340D01*
X18820660Y53080000D01*
X18199340Y53080000D01*
X17760000Y53519340D01*
X17760000Y54140660D01*
X18199340Y54580000D01*
X18820660Y54580000D01*
G37*
G04 #@! TD.AperFunction*
G04 #@! TA.AperFunction,ComponentPad*
G04 #@! TO.P,KDFI1,5-38,MCU_PP.7*
G04 #@! TO.N,unconnected-(KDFI1E-MCU_PP.7-Pad5-38)*
G36*
X18820660Y57120000D02*
G01*
X19260000Y56680660D01*
X19260000Y56059340D01*
X18820660Y55620000D01*
X18199340Y55620000D01*
X17760000Y56059340D01*
X17760000Y56680660D01*
X18199340Y57120000D01*
X18820660Y57120000D01*
G37*
G04 #@! TD.AperFunction*
G04 #@! TA.AperFunction,ComponentPad*
G04 #@! TO.P,KDFI1,5-39,MCU_PS.2*
G04 #@! TO.N,unconnected-(KDFI1E-MCU_PS.2-Pad5-39)*
G36*
X16280660Y54580000D02*
G01*
X16720000Y54140660D01*
X16720000Y53519340D01*
X16280660Y53080000D01*
X15659340Y53080000D01*
X15220000Y53519340D01*
X15220000Y54140660D01*
X15659340Y54580000D01*
X16280660Y54580000D01*
G37*
G04 #@! TD.AperFunction*
G04 #@! TA.AperFunction,ComponentPad*
G04 #@! TO.P,KDFI1,5-40,MCU_PS.3*
G04 #@! TO.N,unconnected-(KDFI1E-MCU_PS.3-Pad5-40)*
G36*
X16280660Y57120000D02*
G01*
X16720000Y56680660D01*
X16720000Y56059340D01*
X16280660Y55620000D01*
X15659340Y55620000D01*
X15220000Y56059340D01*
X15220000Y56680660D01*
X15659340Y57120000D01*
X16280660Y57120000D01*
G37*
G04 #@! TD.AperFunction*
G04 #@! TD*
D24*
G04 #@! TO.P,M5,E1,VBAT*
G04 #@! TO.N,unconnected-(M5-VBAT-PadE1)*
X79249998Y16000000D03*
G04 #@! TO.P,M5,E2,V12*
G04 #@! TO.N,unconnected-(M5-V12-PadE2)*
X79249998Y9600003D03*
G04 #@! TO.P,M5,E3,VIGN*
G04 #@! TO.N,unconnected-(M5-VIGN-PadE3)*
X79249998Y7700000D03*
G04 #@! TO.P,M5,E4,V5*
G04 #@! TO.N,unconnected-(M5-V5-PadE4)*
X79249998Y3400000D03*
D10*
G04 #@! TO.P,M5,E5,EN_5VP*
G04 #@! TO.N,unconnected-(M5-EN_5VP-PadE5)*
X79699997Y1000003D03*
G04 #@! TO.P,M5,E6,PG_5VP*
G04 #@! TO.N,unconnected-(M5-PG_5VP-PadE6)*
X79699997Y2D03*
D25*
G04 #@! TO.P,M5,S1,GND*
G04 #@! TO.N,unconnected-(M5-GND-PadS1)*
X63100002Y12150000D03*
D26*
X63100002Y3650002D03*
D27*
X63100002Y-3450000D03*
D28*
X71500000Y-3500000D03*
D29*
X72300001Y17100000D03*
D24*
X79249998Y-2850000D03*
D27*
X79899999Y17050000D03*
D30*
X79899999Y12850002D03*
D31*
X79899999Y5500000D03*
D32*
X79899999Y2000003D03*
D33*
X79899999Y-1299998D03*
D24*
G04 #@! TO.P,M5,V1,V12_PERM*
G04 #@! TO.N,unconnected-(M5-V12_PERM-PadV1)*
X63750001Y16450002D03*
G04 #@! TO.P,M5,V2,IN_VIGN*
G04 #@! TO.N,unconnected-(M5-IN_VIGN-PadV2)*
X63750001Y14600003D03*
G04 #@! TO.P,M5,V3,V12_RAW*
G04 #@! TO.N,unconnected-(M5-V12_RAW-PadV3)*
X63750001Y9650000D03*
G04 #@! TO.P,M5,V4,5VP*
G04 #@! TO.N,unconnected-(M5-5VP-PadV4)*
X63750001Y-2399998D03*
G04 #@! TD*
M02*
