M48
; DRILL file {KiCad 8.0.9-8.0.9-0~ubuntu24.04.1} date 2026-07-03T21:36:16+0000
; FORMAT={2:4/ absolute / inch / suppress leading zeros}
; #@! TF.CreationDate,2026-07-03T21:36:16+00:00
; #@! TF.GenerationSoftware,Kicad,Pcbnew,8.0.9-8.0.9-0~ubuntu24.04.1
; #@! TF.FileFunction,MixedPlating,1,2
FMAT,2
INCH,TZ
; #@! TA.AperFunction,Plated,PTH,ComponentDrill
T1C0.0118
; #@! TA.AperFunction,Plated,PTH,ComponentDrill
T2C0.0118
; #@! TA.AperFunction,Plated,PTH,ComponentDrill
T3C0.0394
%
G90
G05
T1
X22205Y10472
X22205Y9705
X22205Y8681
X22720Y10217
X22898Y9577
X22927Y8514
X22927Y9242
X22933Y7766
X23012Y8898
X24537Y7648
X29193Y21467
X29537Y21260
X29626Y23159
X29656Y21762
T2
X4144Y18671
X4144Y15719
X4144Y15404
X4144Y15089
X4144Y14774
X4144Y14459
X4144Y13829
X4144Y13514
X4144Y13199
X4144Y12884
X4144Y12569
X4144Y12254
X4144Y11939
X4144Y11624
X4144Y11309
X4144Y10994
X4144Y10049
X4144Y9734
X4144Y9419
X4144Y8159
X4144Y7844
X4144Y7530
X4144Y7215
X4144Y6270
X4144Y5955
X4144Y5640
X4144Y5325
X4144Y5010
X4144Y3986
X4144Y18356
X4144Y14144
X4144Y10679
X4144Y10364
X4144Y9104
X4144Y8789
X4144Y8474
X4144Y6900
X4144Y6585
X4380Y19537
X4459Y3986
X4774Y3986
X4852Y19537
X5089Y3986
X5325Y19537
X5404Y3986
X5719Y3986
X5797Y19537
X6033Y3986
X6270Y19537
X6348Y3986
X6663Y3986
X6703Y19537
X6978Y3986
X7175Y19537
X7293Y3986
X7608Y3986
X7648Y19537
X7923Y3986
X8120Y19537
X8238Y3986
X8553Y3986
X8593Y19537
X8868Y3986
X9065Y19537
X9183Y3986
X9498Y3986
X9537Y19537
X9813Y3986
X10010Y19537
X10128Y3986
X10443Y3986
X10482Y19537
X10758Y3986
X10955Y19537
X11073Y3986
X11427Y19537
X11900Y19537
X12372Y19537
X12844Y19537
X13238Y3986
X13317Y19537
X13553Y3986
X13789Y19537
X13868Y3986
X14183Y3986
X14262Y19537
X14498Y3986
X14734Y19537
X15207Y19537
X15679Y19537
X16152Y19537
X16624Y19537
X17096Y19537
X17569Y19537
X17569Y3986
X17884Y3986
X18041Y19537
X18199Y3986
X18514Y19537
X18986Y19537
X19459Y19537
X20404Y19537
X20561Y15640
X20561Y12884
X20561Y12490
X20561Y12096
X20561Y11703
X20561Y11309
X20561Y10915
X20561Y10522
X20561Y10128
X20561Y3986
X20561Y13278
X20561Y9734
X20561Y9341
X20561Y8947
X20561Y8553
X20561Y8159
X20561Y7766
X20561Y18553
X20561Y18159
X31378Y394
X31378Y0
T3
X1508Y21350
X1508Y20350
X1508Y19350
X1508Y18350
X1508Y17350
X1508Y16350
X1508Y15350
X1508Y14350
X1508Y13350
X1508Y12350
X1508Y11350
X1508Y10350
X1508Y9350
X1508Y8350
X1508Y7350
X1508Y6350
X1508Y5350
X1508Y4350
X1508Y3350
X1508Y2350
X2508Y21350
X2508Y20350
X2508Y19350
X2508Y18350
X2508Y17350
X2508Y16350
X2508Y15350
X2508Y14350
X2508Y13350
X2508Y12350
X2508Y11350
X2508Y10350
X2508Y9350
X2508Y8350
X2508Y7350
X2508Y6350
X2508Y5350
X2508Y4350
X2508Y3350
X2508Y2350
X6287Y22193
X6287Y21193
X7287Y22193
X7287Y21193
X8287Y22193
X8287Y21193
X9287Y22193
X9287Y21193
X10287Y22193
X10287Y21193
X11287Y22193
X11287Y21193
X12287Y22193
X12287Y21193
X13287Y22193
X13287Y21193
X14287Y22193
X14287Y21193
X15287Y22193
X15287Y21193
X16287Y22193
X16287Y21193
X17287Y22193
X17287Y21193
X18287Y22193
X18287Y21193
X19287Y22193
X19287Y21193
X20287Y22193
X20287Y21193
X21287Y22193
X21287Y21193
X22287Y22193
X22287Y21193
X22965Y17394
X22965Y16394
X22965Y15394
X22965Y14394
X22965Y13394
X22965Y6370
X22965Y5370
X22965Y4370
X22965Y3370
X22965Y2370
X23287Y22193
X23287Y21193
X23965Y17394
X23965Y16394
X23965Y15394
X23965Y14394
X23965Y13394
X23965Y6370
X23965Y5370
X23965Y4370
X23965Y3370
X23965Y2370
X24287Y22193
X24287Y21193
X25098Y6476
X25098Y5748
X25098Y3799
X25098Y-945
X25287Y22193
X25287Y21193
X31201Y6299
X31201Y3780
X31201Y3031
X31201Y1339
X31201Y-1122
X32217Y21350
X32217Y20350
X32217Y19350
X32217Y18350
X32217Y17350
X32217Y16350
X32217Y15350
X32217Y14350
X32217Y13350
X32217Y12350
X32217Y11350
X32217Y10350
X32217Y9350
X32217Y8350
X32217Y7350
X32217Y6350
X32217Y5350
X32217Y4350
X32217Y3350
X32217Y2350
X33217Y21350
X33217Y20350
X33217Y19350
X33217Y18350
X33217Y17350
X33217Y16350
X33217Y15350
X33217Y14350
X33217Y13350
X33217Y12350
X33217Y11350
X33217Y10350
X33217Y9350
X33217Y8350
X33217Y7350
X33217Y6350
X33217Y5350
X33217Y4350
X33217Y3350
X33217Y2350
M30
