G75*
G70*
%OFA0B0*%
%FSLAX25Y25*%
%IPPOS*%
%LPD*%
%AMOC8*
5,1,8,0,0,1.08239X$1,22.5*
%
%AMM1*
21,1,0.035430,0.030320,0.000000,0.000000,90.000000*
21,1,0.028350,0.037400,0.000000,0.000000,90.000000*
1,1,0.007090,0.015160,0.014170*
1,1,0.007090,0.015160,-0.014170*
1,1,0.007090,-0.015160,-0.014170*
1,1,0.007090,-0.015160,0.014170*
%
%AMM10*
21,1,0.025590,0.026380,0.000000,0.000000,90.000000*
21,1,0.020470,0.031500,0.000000,0.000000,90.000000*
1,1,0.005120,0.013190,0.010240*
1,1,0.005120,0.013190,-0.010240*
1,1,0.005120,-0.013190,-0.010240*
1,1,0.005120,-0.013190,0.010240*
%
%AMM11*
21,1,0.017720,0.027950,0.000000,0.000000,90.000000*
21,1,0.014170,0.031500,0.000000,0.000000,90.000000*
1,1,0.003540,0.013980,0.007090*
1,1,0.003540,0.013980,-0.007090*
1,1,0.003540,-0.013980,-0.007090*
1,1,0.003540,-0.013980,0.007090*
%
%AMM13*
21,1,0.012600,0.028980,0.000000,0.000000,90.000000*
21,1,0.010080,0.031500,0.000000,0.000000,90.000000*
1,1,0.002520,0.014490,0.005040*
1,1,0.002520,0.014490,-0.005040*
1,1,0.002520,-0.014490,-0.005040*
1,1,0.002520,-0.014490,0.005040*
%
%AMM16*
21,1,0.027560,0.018900,0.000000,0.000000,90.000000*
21,1,0.022840,0.023620,0.000000,0.000000,90.000000*
1,1,0.004720,0.009450,0.011420*
1,1,0.004720,0.009450,-0.011420*
1,1,0.004720,-0.009450,-0.011420*
1,1,0.004720,-0.009450,0.011420*
%
%AMM33*
21,1,0.033470,0.026770,0.000000,0.000000,180.000000*
21,1,0.026770,0.033470,0.000000,0.000000,180.000000*
1,1,0.006690,-0.013390,0.013390*
1,1,0.006690,0.013390,0.013390*
1,1,0.006690,0.013390,-0.013390*
1,1,0.006690,-0.013390,-0.013390*
%
%AMM34*
21,1,0.035430,0.030320,0.000000,0.000000,180.000000*
21,1,0.028350,0.037400,0.000000,0.000000,180.000000*
1,1,0.007090,-0.014170,0.015160*
1,1,0.007090,0.014170,0.015160*
1,1,0.007090,0.014170,-0.015160*
1,1,0.007090,-0.014170,-0.015160*
%
%AMM35*
21,1,0.035830,0.026770,0.000000,0.000000,0.000000*
21,1,0.029130,0.033470,0.000000,0.000000,0.000000*
1,1,0.006690,0.014570,-0.013390*
1,1,0.006690,-0.014570,-0.013390*
1,1,0.006690,-0.014570,0.013390*
1,1,0.006690,0.014570,0.013390*
%
%AMM36*
21,1,0.070870,0.036220,0.000000,0.000000,0.000000*
21,1,0.061810,0.045280,0.000000,0.000000,0.000000*
1,1,0.009060,0.030910,-0.018110*
1,1,0.009060,-0.030910,-0.018110*
1,1,0.009060,-0.030910,0.018110*
1,1,0.009060,0.030910,0.018110*
%
%AMM37*
21,1,0.059060,0.020470,0.000000,0.000000,90.000000*
21,1,0.053940,0.025590,0.000000,0.000000,90.000000*
1,1,0.005120,0.010240,0.026970*
1,1,0.005120,0.010240,-0.026970*
1,1,0.005120,-0.010240,-0.026970*
1,1,0.005120,-0.010240,0.026970*
%
%AMM38*
21,1,0.078740,0.045670,0.000000,0.000000,90.000000*
21,1,0.067320,0.057090,0.000000,0.000000,90.000000*
1,1,0.011420,0.022840,0.033660*
1,1,0.011420,0.022840,-0.033660*
1,1,0.011420,-0.022840,-0.033660*
1,1,0.011420,-0.022840,0.033660*
%
%AMM39*
21,1,0.025590,0.026380,0.000000,0.000000,0.000000*
21,1,0.020470,0.031500,0.000000,0.000000,0.000000*
1,1,0.005120,0.010240,-0.013190*
1,1,0.005120,-0.010240,-0.013190*
1,1,0.005120,-0.010240,0.013190*
1,1,0.005120,0.010240,0.013190*
%
%AMM40*
21,1,0.017720,0.027950,0.000000,0.000000,0.000000*
21,1,0.014170,0.031500,0.000000,0.000000,0.000000*
1,1,0.003540,0.007090,-0.013980*
1,1,0.003540,-0.007090,-0.013980*
1,1,0.003540,-0.007090,0.013980*
1,1,0.003540,0.007090,0.013980*
%
%AMM41*
21,1,0.027560,0.030710,0.000000,0.000000,90.000000*
21,1,0.022050,0.036220,0.000000,0.000000,90.000000*
1,1,0.005510,0.015350,0.011020*
1,1,0.005510,0.015350,-0.011020*
1,1,0.005510,-0.015350,-0.011020*
1,1,0.005510,-0.015350,0.011020*
%
%AMM42*
21,1,0.027560,0.049610,0.000000,0.000000,270.000000*
21,1,0.022050,0.055120,0.000000,0.000000,270.000000*
1,1,0.005510,-0.024800,-0.011020*
1,1,0.005510,-0.024800,0.011020*
1,1,0.005510,0.024800,0.011020*
1,1,0.005510,0.024800,-0.011020*
%
%AMM43*
21,1,0.027560,0.030710,0.000000,0.000000,0.000000*
21,1,0.022050,0.036220,0.000000,0.000000,0.000000*
1,1,0.005510,0.011020,-0.015350*
1,1,0.005510,-0.011020,-0.015350*
1,1,0.005510,-0.011020,0.015350*
1,1,0.005510,0.011020,0.015350*
%
%AMM44*
21,1,0.070870,0.036220,0.000000,0.000000,90.000000*
21,1,0.061810,0.045280,0.000000,0.000000,90.000000*
1,1,0.009060,0.018110,0.030910*
1,1,0.009060,0.018110,-0.030910*
1,1,0.009060,-0.018110,-0.030910*
1,1,0.009060,-0.018110,0.030910*
%
%AMM7*
21,1,0.027560,0.018900,0.000000,0.000000,180.000000*
21,1,0.022840,0.023620,0.000000,0.000000,180.000000*
1,1,0.004720,-0.011420,0.009450*
1,1,0.004720,0.011420,0.009450*
1,1,0.004720,0.011420,-0.009450*
1,1,0.004720,-0.011420,-0.009450*
%
%ADD100M40*%
%ADD101M41*%
%ADD102M42*%
%ADD103M43*%
%ADD104M44*%
%ADD105O,0.04961X0.00984*%
%ADD106R,0.00984X0.01378*%
%ADD107R,0.01378X0.00984*%
%ADD11R,0.00787X0.09055*%
%ADD12R,0.00787X0.21260*%
%ADD13R,0.00787X0.33858*%
%ADD14R,0.00787X0.19685*%
%ADD15R,0.05512X0.00787*%
%ADD16R,0.19685X0.00787*%
%ADD17R,0.26772X0.00787*%
%ADD18R,0.17717X0.00787*%
%ADD19R,0.00787X0.06299*%
%ADD20R,0.00787X0.22441*%
%ADD21R,0.00787X0.07874*%
%ADD27M1*%
%ADD33M7*%
%ADD37M10*%
%ADD38M11*%
%ADD42M13*%
%ADD48M16*%
%ADD90M33*%
%ADD91M34*%
%ADD92M35*%
%ADD93R,0.03937X0.04331*%
%ADD94M36*%
%ADD95M37*%
%ADD96M38*%
%ADD98R,0.09449X0.06693*%
%ADD99M39*%
X0000000Y0000000D02*
%LPD*%
G01*
X0200000Y0066929D02*
G01*
G75*
D12*
X0200394Y0094488D02*
D03*
D11*
X0200394Y0071457D02*
D03*
D14*
X0200394Y0118897D02*
D03*
D21*
X0366142Y0070866D02*
D03*
D16*
X0212992Y0224409D02*
D03*
D17*
X0246457Y0224409D02*
D03*
D18*
X0285236Y0224409D02*
D03*
D20*
X0366142Y0093110D02*
D03*
D19*
X0366142Y0218504D02*
D03*
D15*
X0207480Y0067323D02*
D03*
D13*
X0200394Y0204724D02*
D03*
D27*
X0211615Y0168171D02*
D03*
X0220867Y0171911D02*
D03*
D27*
X0211615Y0175652D02*
D03*
D33*
X0347982Y0163386D02*
D03*
X0347982Y0159449D02*
D03*
X0231693Y0118897D02*
D03*
X0231693Y0122834D02*
D03*
X0352362Y0161811D02*
D03*
X0352362Y0157874D02*
D03*
X0228642Y0221063D02*
D03*
X0228642Y0217126D02*
D03*
X0261825Y0143701D02*
D03*
X0261825Y0139764D02*
D03*
X0278730Y0143629D02*
D03*
X0278730Y0147566D02*
D03*
X0256693Y0140157D02*
D03*
X0256693Y0144094D02*
D03*
X0205499Y0123745D02*
D03*
X0205499Y0119808D02*
D03*
X0223228Y0192913D02*
D03*
X0223228Y0188976D02*
D03*
X0202756Y0212008D02*
D03*
X0202756Y0215945D02*
D03*
X0334646Y0136220D02*
D03*
X0334646Y0132283D02*
D03*
X0261024Y0200787D02*
D03*
X0261024Y0204724D02*
D03*
X0291241Y0134350D02*
D03*
X0291241Y0138287D02*
D03*
X0280216Y0215650D02*
D03*
X0280216Y0219586D02*
D03*
X0333071Y0148031D02*
D03*
X0333071Y0144094D02*
D03*
X0337008Y0148031D02*
D03*
X0337008Y0144094D02*
D03*
X0206890Y0212008D02*
D03*
X0206890Y0215945D02*
D03*
X0343898Y0163386D02*
D03*
X0343898Y0159449D02*
D03*
X0343701Y0185827D02*
D03*
X0343701Y0181890D02*
D03*
X0295571Y0134350D02*
D03*
X0295571Y0138287D02*
D03*
X0299213Y0220866D02*
D03*
X0299213Y0216929D02*
D03*
X0261024Y0171260D02*
D03*
X0261024Y0175197D02*
D03*
X0261024Y0167716D02*
D03*
X0261024Y0163779D02*
D03*
X0247638Y0091338D02*
D03*
X0247638Y0087401D02*
D03*
X0252362Y0091338D02*
D03*
X0252362Y0087401D02*
D03*
X0257087Y0091338D02*
D03*
X0257087Y0087401D02*
D03*
X0261811Y0091338D02*
D03*
X0261811Y0087401D02*
D03*
X0346457Y0072047D02*
D03*
X0346457Y0075984D02*
D03*
X0351181Y0075984D02*
D03*
X0351181Y0072047D02*
D03*
X0355905Y0072047D02*
D03*
X0355905Y0075984D02*
D03*
X0360630Y0072047D02*
D03*
X0360630Y0075984D02*
D03*
X0227756Y0118897D02*
D03*
X0227756Y0122834D02*
D03*
X0255709Y0118897D02*
D03*
X0255709Y0122834D02*
D03*
X0224016Y0091338D02*
D03*
X0224016Y0087401D02*
D03*
X0219292Y0091338D02*
D03*
X0219292Y0087401D02*
D03*
X0214567Y0091338D02*
D03*
X0214567Y0087401D02*
D03*
X0209843Y0091338D02*
D03*
X0209843Y0087401D02*
D03*
X0242914Y0091338D02*
D03*
X0242914Y0087401D02*
D03*
X0238189Y0091338D02*
D03*
X0238189Y0087401D02*
D03*
X0233465Y0091338D02*
D03*
X0233465Y0087401D02*
D03*
X0228740Y0091338D02*
D03*
X0228740Y0087401D02*
D03*
X0280709Y0091338D02*
D03*
X0280709Y0087401D02*
D03*
X0275985Y0091338D02*
D03*
X0275985Y0087401D02*
D03*
X0271260Y0091338D02*
D03*
X0271260Y0087401D02*
D03*
X0266536Y0091338D02*
D03*
X0266536Y0087401D02*
D03*
X0299607Y0087401D02*
D03*
X0299607Y0091338D02*
D03*
X0294882Y0091338D02*
D03*
X0294882Y0087401D02*
D03*
X0290158Y0091338D02*
D03*
X0290158Y0087401D02*
D03*
X0285433Y0091338D02*
D03*
X0285433Y0087401D02*
D03*
X0318504Y0091338D02*
D03*
X0318504Y0087401D02*
D03*
X0313780Y0091338D02*
D03*
X0313780Y0087401D02*
D03*
X0309055Y0091338D02*
D03*
X0309055Y0087401D02*
D03*
X0304331Y0091338D02*
D03*
X0304331Y0087401D02*
D03*
X0332677Y0091338D02*
D03*
X0332677Y0087401D02*
D03*
X0327953Y0091338D02*
D03*
X0327953Y0087401D02*
D03*
X0323228Y0091338D02*
D03*
X0323228Y0087401D02*
D03*
X0204724Y0082086D02*
D03*
X0204724Y0086023D02*
D03*
X0341733Y0075984D02*
D03*
X0341733Y0072047D02*
D03*
X0255709Y0108661D02*
D03*
X0255709Y0112598D02*
D03*
X0343307Y0087401D02*
D03*
X0343307Y0091338D02*
D03*
X0204724Y0074409D02*
D03*
X0204724Y0078346D02*
D03*
X0343307Y0083464D02*
D03*
X0343307Y0079527D02*
D03*
X0348425Y0213779D02*
D03*
X0348425Y0209842D02*
D03*
X0337402Y0091338D02*
D03*
X0337402Y0087401D02*
D03*
D37*
X0237402Y0183760D02*
D03*
X0244488Y0183760D02*
D03*
X0244488Y0173720D02*
D03*
X0237402Y0173720D02*
D03*
X0251969Y0135531D02*
D03*
X0244882Y0135531D02*
D03*
X0244882Y0145571D02*
D03*
X0251969Y0145571D02*
D03*
X0251969Y0151673D02*
D03*
X0244882Y0151673D02*
D03*
X0244882Y0161713D02*
D03*
X0251969Y0161713D02*
D03*
X0347441Y0115846D02*
D03*
X0340354Y0115846D02*
D03*
X0340354Y0105807D02*
D03*
X0347441Y0105807D02*
D03*
X0328937Y0105807D02*
D03*
X0336024Y0105807D02*
D03*
X0336024Y0115846D02*
D03*
X0328937Y0115846D02*
D03*
X0278937Y0115846D02*
D03*
X0271851Y0115846D02*
D03*
X0271851Y0105807D02*
D03*
X0278937Y0105807D02*
D03*
X0260433Y0105807D02*
D03*
X0267520Y0105807D02*
D03*
X0267520Y0115846D02*
D03*
X0260433Y0115846D02*
D03*
X0301772Y0115846D02*
D03*
X0294685Y0115846D02*
D03*
X0294685Y0105807D02*
D03*
X0301772Y0105807D02*
D03*
X0283268Y0105807D02*
D03*
X0290355Y0105807D02*
D03*
X0290355Y0115846D02*
D03*
X0283268Y0115846D02*
D03*
X0324607Y0115846D02*
D03*
X0317520Y0115846D02*
D03*
X0317520Y0105807D02*
D03*
X0324607Y0105807D02*
D03*
X0306103Y0105807D02*
D03*
X0313189Y0105807D02*
D03*
X0313189Y0115846D02*
D03*
X0306103Y0115846D02*
D03*
D38*
X0244488Y0177165D02*
D03*
X0244488Y0180315D02*
D03*
X0237402Y0180315D02*
D03*
X0237402Y0177165D02*
D03*
X0244882Y0142126D02*
D03*
X0244882Y0138976D02*
D03*
X0251969Y0138976D02*
D03*
X0251969Y0142126D02*
D03*
X0244882Y0158268D02*
D03*
X0244882Y0155118D02*
D03*
X0251969Y0155118D02*
D03*
X0251969Y0158268D02*
D03*
X0347441Y0112401D02*
D03*
X0347441Y0109252D02*
D03*
X0340354Y0109252D02*
D03*
X0340354Y0112401D02*
D03*
X0328937Y0109252D02*
D03*
X0328937Y0112401D02*
D03*
X0336024Y0112401D02*
D03*
X0336024Y0109252D02*
D03*
X0278937Y0112401D02*
D03*
X0278937Y0109252D02*
D03*
X0271851Y0109252D02*
D03*
X0271851Y0112401D02*
D03*
X0260433Y0109252D02*
D03*
X0260433Y0112401D02*
D03*
X0267520Y0112401D02*
D03*
X0267520Y0109252D02*
D03*
X0301772Y0112401D02*
D03*
X0301772Y0109252D02*
D03*
X0294685Y0109252D02*
D03*
X0294685Y0112401D02*
D03*
X0283268Y0109252D02*
D03*
X0283268Y0112401D02*
D03*
X0290355Y0112401D02*
D03*
X0290355Y0109252D02*
D03*
X0324607Y0112401D02*
D03*
X0324607Y0109252D02*
D03*
X0317520Y0109252D02*
D03*
X0317520Y0112401D02*
D03*
X0306103Y0109252D02*
D03*
X0306103Y0112401D02*
D03*
X0313189Y0112401D02*
D03*
X0313189Y0109252D02*
D03*
D42*
X0225394Y0177756D02*
D03*
X0225394Y0180315D02*
D03*
X0225394Y0182874D02*
D03*
X0232874Y0182874D02*
D03*
X0232874Y0177756D02*
D03*
D48*
X0243701Y0218307D02*
D03*
X0239764Y0218307D02*
D03*
X0359843Y0202559D02*
D03*
X0355905Y0202559D02*
D03*
X0218743Y0197738D02*
D03*
X0222680Y0197738D02*
D03*
X0244488Y0191732D02*
D03*
X0240551Y0191732D02*
D03*
X0232677Y0191732D02*
D03*
X0236614Y0191732D02*
D03*
X0341339Y0137008D02*
D03*
X0345276Y0137008D02*
D03*
X0272047Y0218898D02*
D03*
X0275984Y0218898D02*
D03*
X0340748Y0206693D02*
D03*
X0344685Y0206693D02*
D03*
X0313386Y0217716D02*
D03*
X0317323Y0217716D02*
D03*
X0268910Y0130907D02*
D03*
X0264973Y0130907D02*
D03*
X0259646Y0153543D02*
D03*
X0263583Y0153543D02*
D03*
X0269685Y0151968D02*
D03*
X0273622Y0151968D02*
D03*
X0268898Y0180315D02*
D03*
X0272835Y0180315D02*
D03*
X0364173Y0220472D02*
D03*
X0360236Y0220472D02*
D03*
X0250984Y0219488D02*
D03*
X0247047Y0219488D02*
D03*
X0233071Y0205118D02*
D03*
X0237008Y0205118D02*
D03*
X0344095Y0143307D02*
D03*
X0348032Y0143307D02*
D03*
X0344095Y0147244D02*
D03*
X0348032Y0147244D02*
D03*
X0344685Y0210630D02*
D03*
X0340748Y0210630D02*
D03*
X0317618Y0134744D02*
D03*
X0313681Y0134744D02*
D03*
X0261024Y0179921D02*
D03*
X0264961Y0179921D02*
D03*
X0261024Y0148228D02*
D03*
X0264961Y0148228D02*
D03*
X0269291Y0203543D02*
D03*
X0273228Y0203543D02*
D03*
X0268504Y0188189D02*
D03*
X0272441Y0188189D02*
D03*
X0283366Y0134350D02*
D03*
X0287303Y0134350D02*
D03*
X0337599Y0122047D02*
D03*
X0333662Y0122047D02*
D03*
X0269095Y0122047D02*
D03*
X0265158Y0122047D02*
D03*
X0291929Y0122047D02*
D03*
X0287992Y0122047D02*
D03*
X0314764Y0122047D02*
D03*
X0310827Y0122047D02*
D03*
X0275591Y0098031D02*
D03*
X0271654Y0098031D02*
D03*
X0220539Y0101575D02*
D03*
X0224476Y0101575D02*
D03*
X0211350Y0101575D02*
D03*
X0207413Y0101575D02*
D03*
X0245343Y0101575D02*
D03*
X0249280Y0101575D02*
D03*
X0236154Y0101575D02*
D03*
X0232217Y0101575D02*
D03*
X0209252Y0183464D02*
D03*
X0205315Y0183464D02*
D03*
X0213780Y0183464D02*
D03*
X0217717Y0183464D02*
D03*
X0250788Y0095275D02*
D03*
X0246851Y0095275D02*
D03*
X0203937Y0133071D02*
D03*
X0207874Y0133071D02*
D03*
X0203937Y0145472D02*
D03*
X0207874Y0145472D02*
D03*
X0203937Y0149606D02*
D03*
X0207874Y0149606D02*
D03*
X0203937Y0157874D02*
D03*
X0207874Y0157874D02*
D03*
X0203937Y0153740D02*
D03*
X0207874Y0153740D02*
D03*
X0203937Y0162008D02*
D03*
X0207874Y0162008D02*
D03*
X0203937Y0141339D02*
D03*
X0207874Y0141339D02*
D03*
X0203937Y0137205D02*
D03*
X0207874Y0137205D02*
D03*
D90*
X0253977Y0184449D02*
D03*
X0260197Y0184449D02*
D03*
D91*
X0356580Y0194800D02*
D03*
X0360320Y0185548D02*
D03*
X0274151Y0137049D02*
D03*
X0270411Y0146301D02*
D03*
X0210630Y0197913D02*
D03*
X0206890Y0207165D02*
D03*
X0216339Y0211338D02*
D03*
X0220079Y0202087D02*
D03*
X0352953Y0102953D02*
D03*
X0356693Y0093701D02*
D03*
X0356693Y0108596D02*
D03*
X0352953Y0117848D02*
D03*
X0352953Y0132743D02*
D03*
X0356693Y0123491D02*
D03*
X0352166Y0147638D02*
D03*
X0355906Y0138386D02*
D03*
D91*
X0352840Y0185548D02*
D03*
X0266671Y0137049D02*
D03*
X0203150Y0197913D02*
D03*
X0223819Y0211339D02*
D03*
X0360433Y0102953D02*
D03*
X0360433Y0117848D02*
D03*
X0360433Y0132743D02*
D03*
X0359646Y0147638D02*
D03*
D92*
X0204331Y0190551D02*
D03*
X0217323Y0190551D02*
D03*
X0241732Y0200787D02*
D03*
X0254725Y0200787D02*
D03*
D93*
X0236811Y0199212D02*
D03*
X0230118Y0199212D02*
D03*
D94*
X0359055Y0161417D02*
D03*
X0359055Y0172834D02*
D03*
D95*
X0297126Y0172453D02*
D03*
X0301457Y0172453D02*
D03*
X0305788Y0172453D02*
D03*
X0310118Y0172453D02*
D03*
X0314449Y0172453D02*
D03*
X0318780Y0172453D02*
D03*
X0323111Y0172453D02*
D03*
X0327441Y0172453D02*
D03*
D96*
X0336811Y0162217D02*
D03*
X0336811Y0194894D02*
D03*
X0282678Y0194894D02*
D03*
X0282678Y0162217D02*
D03*
D98*
X0272048Y0173425D02*
D03*
X0272048Y0158858D02*
D03*
D99*
X0318603Y0149606D02*
D03*
X0318603Y0142520D02*
D03*
X0328642Y0142520D02*
D03*
X0328642Y0149606D02*
D03*
X0249705Y0074606D02*
D03*
X0249705Y0081693D02*
D03*
X0259744Y0081693D02*
D03*
X0259744Y0074606D02*
D03*
X0221555Y0109055D02*
D03*
X0221555Y0116142D02*
D03*
X0211516Y0116142D02*
D03*
X0211516Y0109055D02*
D03*
X0211516Y0127559D02*
D03*
X0211516Y0120472D02*
D03*
X0221555Y0120472D02*
D03*
X0221555Y0127559D02*
D03*
X0249508Y0109055D02*
D03*
X0249508Y0116142D02*
D03*
X0239469Y0116142D02*
D03*
X0239469Y0109055D02*
D03*
X0239469Y0127559D02*
D03*
X0239469Y0120472D02*
D03*
X0249508Y0120472D02*
D03*
X0249508Y0127559D02*
D03*
X0211910Y0074606D02*
D03*
X0211910Y0081693D02*
D03*
X0221949Y0081693D02*
D03*
X0221949Y0074606D02*
D03*
X0230807Y0074606D02*
D03*
X0230807Y0081693D02*
D03*
X0240846Y0081693D02*
D03*
X0240846Y0074606D02*
D03*
X0268602Y0074606D02*
D03*
X0268602Y0081693D02*
D03*
X0278642Y0081693D02*
D03*
X0278642Y0074606D02*
D03*
X0287500Y0074606D02*
D03*
X0287500Y0081693D02*
D03*
X0297540Y0081693D02*
D03*
X0297540Y0074606D02*
D03*
X0306398Y0074606D02*
D03*
X0306398Y0081693D02*
D03*
X0316437Y0081693D02*
D03*
X0316437Y0074606D02*
D03*
X0325295Y0074606D02*
D03*
X0325295Y0081693D02*
D03*
X0335335Y0081693D02*
D03*
X0335335Y0074606D02*
D03*
X0358563Y0080315D02*
D03*
X0358563Y0087401D02*
D03*
X0348524Y0087401D02*
D03*
X0348524Y0080315D02*
D03*
D100*
X0322047Y0149606D02*
D03*
X0325197Y0149606D02*
D03*
X0325197Y0142520D02*
D03*
X0322047Y0142520D02*
D03*
X0256299Y0081693D02*
D03*
X0253150Y0081693D02*
D03*
X0253150Y0074606D02*
D03*
X0256299Y0074606D02*
D03*
X0218110Y0109055D02*
D03*
X0214961Y0109055D02*
D03*
X0214961Y0116142D02*
D03*
X0218110Y0116142D02*
D03*
X0214961Y0127559D02*
D03*
X0218110Y0127559D02*
D03*
X0218110Y0120472D02*
D03*
X0214961Y0120472D02*
D03*
X0246063Y0109055D02*
D03*
X0242913Y0109055D02*
D03*
X0242913Y0116142D02*
D03*
X0246063Y0116142D02*
D03*
X0242914Y0127559D02*
D03*
X0246063Y0127559D02*
D03*
X0246063Y0120472D02*
D03*
X0242914Y0120472D02*
D03*
X0218504Y0081693D02*
D03*
X0215355Y0081693D02*
D03*
X0215355Y0074606D02*
D03*
X0218504Y0074606D02*
D03*
X0237402Y0081693D02*
D03*
X0234252Y0081693D02*
D03*
X0234252Y0074606D02*
D03*
X0237402Y0074606D02*
D03*
X0275197Y0081693D02*
D03*
X0272047Y0081693D02*
D03*
X0272047Y0074606D02*
D03*
X0275197Y0074606D02*
D03*
X0294095Y0081693D02*
D03*
X0290945Y0081693D02*
D03*
X0290945Y0074606D02*
D03*
X0294095Y0074606D02*
D03*
X0312992Y0081693D02*
D03*
X0309843Y0081693D02*
D03*
X0309843Y0074606D02*
D03*
X0312992Y0074606D02*
D03*
X0331890Y0081693D02*
D03*
X0328740Y0081693D02*
D03*
X0328740Y0074606D02*
D03*
X0331890Y0074606D02*
D03*
X0355118Y0080315D02*
D03*
X0351969Y0080315D02*
D03*
X0351969Y0087401D02*
D03*
X0355118Y0087401D02*
D03*
D101*
X0343701Y0177165D02*
D03*
X0343701Y0170866D02*
D03*
X0290059Y0212894D02*
D03*
X0290059Y0219193D02*
D03*
X0204725Y0179134D02*
D03*
X0204725Y0172834D02*
D03*
X0349213Y0169685D02*
D03*
X0349213Y0175984D02*
D03*
D102*
X0269291Y0198622D02*
D03*
X0269291Y0192716D02*
D03*
D103*
X0260237Y0193701D02*
D03*
X0253937Y0193701D02*
D03*
X0260237Y0189075D02*
D03*
X0253937Y0189075D02*
D03*
D104*
X0211811Y0218307D02*
D03*
X0223228Y0218307D02*
D03*
D105*
X0213622Y0134055D02*
D03*
X0213622Y0136614D02*
D03*
X0213622Y0139173D02*
D03*
X0213622Y0141732D02*
D03*
X0213622Y0144291D02*
D03*
X0213622Y0146850D02*
D03*
X0213622Y0149409D02*
D03*
X0213622Y0151968D02*
D03*
X0213622Y0154527D02*
D03*
X0213622Y0157087D02*
D03*
X0213622Y0159645D02*
D03*
X0213622Y0162205D02*
D03*
X0236615Y0134055D02*
D03*
X0236615Y0136614D02*
D03*
X0236615Y0139173D02*
D03*
X0236615Y0141732D02*
D03*
X0236615Y0144291D02*
D03*
X0236615Y0146850D02*
D03*
X0236615Y0149409D02*
D03*
X0236615Y0151968D02*
D03*
X0236615Y0154527D02*
D03*
X0236615Y0157087D02*
D03*
X0236615Y0159645D02*
D03*
X0236615Y0162205D02*
D03*
D106*
X0356890Y0210236D02*
D03*
X0354922Y0210236D02*
D03*
X0354922Y0216535D02*
D03*
X0356890Y0216535D02*
D03*
D107*
X0352756Y0210433D02*
D03*
X0352756Y0212402D02*
D03*
X0352756Y0214370D02*
D03*
X0352756Y0216338D02*
D03*
X0359056Y0210433D02*
D03*
X0359056Y0216338D02*
D03*
X0359056Y0212402D02*
D03*
X0359056Y0214370D02*
D03*
M02*
