G75*
G70*
%OFA0B0*%
%FSLAX25Y25*%
%IPPOS*%
%LPD*%
%AMOC8*
5,1,8,0,0,1.08239X$1,22.5*
%
%AMM1*
21,1,0.035430,0.030320,0.000000,0.000000,90.000000*
21,1,0.028350,0.037400,0.000000,0.000000,90.000000*
1,1,0.007090,0.015160,0.014170*
1,1,0.007090,0.015160,-0.014170*
1,1,0.007090,-0.015160,-0.014170*
1,1,0.007090,-0.015160,0.014170*
%
%AMM10*
21,1,0.025590,0.026380,0.000000,0.000000,90.000000*
21,1,0.020470,0.031500,0.000000,0.000000,90.000000*
1,1,0.005120,0.013190,0.010240*
1,1,0.005120,0.013190,-0.010240*
1,1,0.005120,-0.013190,-0.010240*
1,1,0.005120,-0.013190,0.010240*
%
%AMM11*
21,1,0.017720,0.027950,0.000000,0.000000,90.000000*
21,1,0.014170,0.031500,0.000000,0.000000,90.000000*
1,1,0.003540,0.013980,0.007090*
1,1,0.003540,0.013980,-0.007090*
1,1,0.003540,-0.013980,-0.007090*
1,1,0.003540,-0.013980,0.007090*
%
%AMM12*
21,1,0.031500,0.072440,0.000000,0.000000,90.000000*
21,1,0.025200,0.078740,0.000000,0.000000,90.000000*
1,1,0.006300,0.036220,0.012600*
1,1,0.006300,0.036220,-0.012600*
1,1,0.006300,-0.036220,-0.012600*
1,1,0.006300,-0.036220,0.012600*
%
%AMM13*
21,1,0.012600,0.028980,0.000000,0.000000,90.000000*
21,1,0.010080,0.031500,0.000000,0.000000,90.000000*
1,1,0.002520,0.014490,0.005040*
1,1,0.002520,0.014490,-0.005040*
1,1,0.002520,-0.014490,-0.005040*
1,1,0.002520,-0.014490,0.005040*
%
%AMM14*
21,1,0.012600,0.028980,0.000000,0.000000,180.000000*
21,1,0.010080,0.031500,0.000000,0.000000,180.000000*
1,1,0.002520,-0.005040,0.014490*
1,1,0.002520,0.005040,0.014490*
1,1,0.002520,0.005040,-0.014490*
1,1,0.002520,-0.005040,-0.014490*
%
%AMM15*
21,1,0.039370,0.035430,0.000000,0.000000,270.000000*
21,1,0.031500,0.043310,0.000000,0.000000,270.000000*
1,1,0.007870,-0.017720,-0.015750*
1,1,0.007870,-0.017720,0.015750*
1,1,0.007870,0.017720,0.015750*
1,1,0.007870,0.017720,-0.015750*
%
%AMM16*
21,1,0.027560,0.018900,0.000000,0.000000,90.000000*
21,1,0.022840,0.023620,0.000000,0.000000,90.000000*
1,1,0.004720,0.009450,0.011420*
1,1,0.004720,0.009450,-0.011420*
1,1,0.004720,-0.009450,-0.011420*
1,1,0.004720,-0.009450,0.011420*
%
%AMM2*
21,1,0.043310,0.075980,0.000000,0.000000,0.000000*
21,1,0.034650,0.084650,0.000000,0.000000,0.000000*
1,1,0.008660,0.017320,-0.037990*
1,1,0.008660,-0.017320,-0.037990*
1,1,0.008660,-0.017320,0.037990*
1,1,0.008660,0.017320,0.037990*
%
%AMM3*
21,1,0.043310,0.075990,0.000000,0.000000,0.000000*
21,1,0.034650,0.084650,0.000000,0.000000,0.000000*
1,1,0.008660,0.017320,-0.037990*
1,1,0.008660,-0.017320,-0.037990*
1,1,0.008660,-0.017320,0.037990*
1,1,0.008660,0.017320,0.037990*
%
%AMM4*
21,1,0.137800,0.067720,0.000000,0.000000,0.000000*
21,1,0.120870,0.084650,0.000000,0.000000,0.000000*
1,1,0.016930,0.060430,-0.033860*
1,1,0.016930,-0.060430,-0.033860*
1,1,0.016930,-0.060430,0.033860*
1,1,0.016930,0.060430,0.033860*
%
%AMM5*
21,1,0.039370,0.035430,0.000000,0.000000,0.000000*
21,1,0.031500,0.043310,0.000000,0.000000,0.000000*
1,1,0.007870,0.015750,-0.017720*
1,1,0.007870,-0.015750,-0.017720*
1,1,0.007870,-0.015750,0.017720*
1,1,0.007870,0.015750,0.017720*
%
%AMM6*
21,1,0.023620,0.030710,0.000000,0.000000,180.000000*
21,1,0.018900,0.035430,0.000000,0.000000,180.000000*
1,1,0.004720,-0.009450,0.015350*
1,1,0.004720,0.009450,0.015350*
1,1,0.004720,0.009450,-0.015350*
1,1,0.004720,-0.009450,-0.015350*
%
%AMM7*
21,1,0.027560,0.018900,0.000000,0.000000,180.000000*
21,1,0.022840,0.023620,0.000000,0.000000,180.000000*
1,1,0.004720,-0.011420,0.009450*
1,1,0.004720,0.011420,0.009450*
1,1,0.004720,0.011420,-0.009450*
1,1,0.004720,-0.011420,-0.009450*
%
%AMM8*
21,1,0.023620,0.030710,0.000000,0.000000,270.000000*
21,1,0.018900,0.035430,0.000000,0.000000,270.000000*
1,1,0.004720,-0.015350,-0.009450*
1,1,0.004720,-0.015350,0.009450*
1,1,0.004720,0.015350,0.009450*
1,1,0.004720,0.015350,-0.009450*
%
%AMM9*
21,1,0.086610,0.073230,0.000000,0.000000,90.000000*
21,1,0.069290,0.090550,0.000000,0.000000,90.000000*
1,1,0.017320,0.036610,0.034650*
1,1,0.017320,0.036610,-0.034650*
1,1,0.017320,-0.036610,-0.034650*
1,1,0.017320,-0.036610,0.034650*
%
%ADD11R,0.00787X0.09055*%
%ADD12R,0.00787X0.21260*%
%ADD13R,0.00787X0.33858*%
%ADD14R,0.00787X0.19685*%
%ADD15R,0.05512X0.00787*%
%ADD16R,0.19685X0.00787*%
%ADD17R,0.26772X0.00787*%
%ADD18R,0.17717X0.00787*%
%ADD19R,0.00787X0.06299*%
%ADD20R,0.00787X0.22441*%
%ADD21R,0.00787X0.07874*%
%ADD25O,0.00866X0.05118*%
%ADD26O,0.05118X0.00866*%
%ADD27M1*%
%ADD28M2*%
%ADD29M3*%
%ADD30M4*%
%ADD31M5*%
%ADD32M6*%
%ADD33M7*%
%ADD34M8*%
%ADD35M9*%
%ADD36C,0.03150*%
%ADD37M10*%
%ADD38M11*%
%ADD39M12*%
%ADD40O,0.01181X0.04331*%
%ADD41O,0.04331X0.01181*%
%ADD42M13*%
%ADD43O,0.08661X0.02362*%
%ADD44M14*%
%ADD45R,0.01476X0.01378*%
%ADD46R,0.01378X0.01476*%
%ADD47M15*%
%ADD48M16*%
X0000000Y0000000D02*
%LPD*%
G01*
X0200000Y0066929D02*
G01*
G75*
D12*
X0200394Y0094488D02*
D03*
D11*
X0200394Y0071457D02*
D03*
D14*
X0200394Y0118897D02*
D03*
D21*
X0366142Y0070866D02*
D03*
D16*
X0212992Y0224409D02*
D03*
D17*
X0246457Y0224409D02*
D03*
D18*
X0285236Y0224409D02*
D03*
D20*
X0366142Y0093110D02*
D03*
D19*
X0366142Y0218504D02*
D03*
D15*
X0207480Y0067323D02*
D03*
D13*
X0200394Y0204724D02*
D03*
D25*
X0268405Y0218012D02*
D03*
X0270374Y0218012D02*
D03*
X0272342Y0218012D02*
D03*
X0274311Y0218012D02*
D03*
X0276279Y0218012D02*
D03*
X0278248Y0218012D02*
D03*
X0280216Y0218012D02*
D03*
X0282185Y0218012D02*
D03*
X0284153Y0218012D02*
D03*
X0286122Y0218012D02*
D03*
X0288090Y0218012D02*
D03*
X0290059Y0218012D02*
D03*
X0292028Y0218012D02*
D03*
X0293996Y0218012D02*
D03*
X0295965Y0218012D02*
D03*
X0297933Y0218012D02*
D03*
X0299902Y0218012D02*
D03*
X0301870Y0218012D02*
D03*
X0303839Y0218012D02*
D03*
X0305807Y0218012D02*
D03*
X0307776Y0218012D02*
D03*
X0309744Y0218012D02*
D03*
X0311713Y0218012D02*
D03*
X0313681Y0218012D02*
D03*
X0315650Y0218012D02*
D03*
X0317618Y0218012D02*
D03*
X0319587Y0218012D02*
D03*
X0321555Y0218012D02*
D03*
X0323524Y0218012D02*
D03*
X0325492Y0218012D02*
D03*
X0327461Y0218012D02*
D03*
X0329429Y0218012D02*
D03*
X0331398Y0218012D02*
D03*
X0333366Y0218012D02*
D03*
X0335335Y0218012D02*
D03*
X0337303Y0218012D02*
D03*
X0337303Y0134350D02*
D03*
X0335335Y0134350D02*
D03*
X0333366Y0134350D02*
D03*
X0331398Y0134350D02*
D03*
X0329429Y0134350D02*
D03*
X0327461Y0134350D02*
D03*
X0325492Y0134350D02*
D03*
X0323524Y0134350D02*
D03*
X0321555Y0134350D02*
D03*
X0319587Y0134350D02*
D03*
X0317618Y0134350D02*
D03*
X0315650Y0134350D02*
D03*
X0313681Y0134350D02*
D03*
X0311713Y0134350D02*
D03*
X0309744Y0134350D02*
D03*
X0307776Y0134350D02*
D03*
X0305807Y0134350D02*
D03*
X0303839Y0134350D02*
D03*
X0301870Y0134350D02*
D03*
X0299902Y0134350D02*
D03*
X0297933Y0134350D02*
D03*
X0295965Y0134350D02*
D03*
X0293996Y0134350D02*
D03*
X0292028Y0134350D02*
D03*
X0290059Y0134350D02*
D03*
X0288090Y0134350D02*
D03*
X0286122Y0134350D02*
D03*
X0284153Y0134350D02*
D03*
X0282185Y0134350D02*
D03*
X0280216Y0134350D02*
D03*
X0278248Y0134350D02*
D03*
X0276279Y0134350D02*
D03*
X0274311Y0134350D02*
D03*
X0272342Y0134350D02*
D03*
X0270374Y0134350D02*
D03*
X0268405Y0134350D02*
D03*
D26*
X0344685Y0210630D02*
D03*
X0344685Y0208661D02*
D03*
X0344685Y0206693D02*
D03*
X0344685Y0204724D02*
D03*
X0344685Y0202756D02*
D03*
X0344685Y0200787D02*
D03*
X0344685Y0198819D02*
D03*
X0344685Y0196850D02*
D03*
X0344685Y0194882D02*
D03*
X0344685Y0192913D02*
D03*
X0344685Y0190945D02*
D03*
X0344685Y0188976D02*
D03*
X0344685Y0187008D02*
D03*
X0344685Y0185039D02*
D03*
X0344685Y0183071D02*
D03*
X0344685Y0181102D02*
D03*
X0344685Y0179134D02*
D03*
X0344685Y0177165D02*
D03*
X0344685Y0175197D02*
D03*
X0344685Y0173228D02*
D03*
X0344685Y0171260D02*
D03*
X0344685Y0169291D02*
D03*
X0344685Y0167323D02*
D03*
X0344685Y0165354D02*
D03*
X0344685Y0163386D02*
D03*
X0344685Y0161417D02*
D03*
X0344685Y0159449D02*
D03*
X0344685Y0157480D02*
D03*
X0344685Y0155512D02*
D03*
X0344685Y0153543D02*
D03*
X0344685Y0151575D02*
D03*
X0344685Y0149606D02*
D03*
X0344685Y0147638D02*
D03*
X0344685Y0145669D02*
D03*
X0344685Y0143701D02*
D03*
X0344685Y0141732D02*
D03*
X0261024Y0141732D02*
D03*
X0261024Y0143701D02*
D03*
X0261024Y0145669D02*
D03*
X0261024Y0147638D02*
D03*
X0261024Y0149606D02*
D03*
X0261024Y0151575D02*
D03*
X0261024Y0153543D02*
D03*
X0261024Y0155512D02*
D03*
X0261024Y0157480D02*
D03*
X0261024Y0159449D02*
D03*
X0261024Y0161417D02*
D03*
X0261024Y0163386D02*
D03*
X0261024Y0165354D02*
D03*
X0261024Y0167323D02*
D03*
X0261024Y0169291D02*
D03*
X0261024Y0171260D02*
D03*
X0261024Y0173228D02*
D03*
X0261024Y0175197D02*
D03*
X0261024Y0177165D02*
D03*
X0261024Y0179134D02*
D03*
X0261024Y0181102D02*
D03*
X0261024Y0183071D02*
D03*
X0261024Y0185039D02*
D03*
X0261024Y0187008D02*
D03*
X0261024Y0188976D02*
D03*
X0261024Y0190945D02*
D03*
X0261024Y0192913D02*
D03*
X0261024Y0194882D02*
D03*
X0261024Y0196850D02*
D03*
X0261024Y0198819D02*
D03*
X0261024Y0200787D02*
D03*
X0261024Y0202756D02*
D03*
X0261024Y0204724D02*
D03*
X0261024Y0206693D02*
D03*
X0261024Y0208661D02*
D03*
X0261024Y0210630D02*
D03*
D27*
X0361030Y0194441D02*
D03*
X0351778Y0198181D02*
D03*
D27*
X0361030Y0201921D02*
D03*
D28*
X0207480Y0192126D02*
D03*
X0225591Y0192126D02*
D03*
D29*
X0216535Y0192126D02*
D03*
D30*
X0216535Y0216535D02*
D03*
D31*
X0237795Y0168110D02*
D03*
X0244488Y0168110D02*
D03*
X0244488Y0175197D02*
D03*
X0237795Y0175197D02*
D03*
X0237795Y0182283D02*
D03*
X0244488Y0182283D02*
D03*
X0244488Y0189370D02*
D03*
X0237795Y0189370D02*
D03*
X0227953Y0160630D02*
D03*
X0221260Y0160630D02*
D03*
X0244488Y0160630D02*
D03*
X0237795Y0160630D02*
D03*
X0227953Y0153543D02*
D03*
X0221260Y0153543D02*
D03*
X0244488Y0153543D02*
D03*
X0237795Y0153543D02*
D03*
X0227953Y0146457D02*
D03*
X0221260Y0146457D02*
D03*
X0244488Y0146457D02*
D03*
X0237795Y0146457D02*
D03*
X0221260Y0139370D02*
D03*
X0227953Y0139370D02*
D03*
X0244488Y0139370D02*
D03*
X0237795Y0139370D02*
D03*
D32*
X0360431Y0219068D02*
D03*
X0356691Y0219068D02*
D03*
X0352950Y0219068D02*
D03*
X0352950Y0209619D02*
D03*
X0356691Y0209619D02*
D03*
X0360431Y0209619D02*
D03*
D33*
X0204724Y0074409D02*
D03*
X0204724Y0078346D02*
D03*
X0351181Y0087401D02*
D03*
X0351181Y0083464D02*
D03*
X0247638Y0075984D02*
D03*
X0247638Y0072047D02*
D03*
X0261811Y0075984D02*
D03*
X0261811Y0072047D02*
D03*
X0280709Y0079921D02*
D03*
X0280709Y0075984D02*
D03*
X0280709Y0072047D02*
D03*
X0280709Y0075984D02*
D03*
X0290158Y0075984D02*
D03*
X0290158Y0079921D02*
D03*
X0290158Y0075984D02*
D03*
X0290158Y0072047D02*
D03*
X0313780Y0079921D02*
D03*
X0313780Y0075984D02*
D03*
X0337402Y0075984D02*
D03*
X0337402Y0079921D02*
D03*
X0337402Y0075984D02*
D03*
X0337402Y0072047D02*
D03*
X0254036Y0189764D02*
D03*
X0254036Y0193701D02*
D03*
X0342126Y0079527D02*
D03*
X0342126Y0083464D02*
D03*
X0204724Y0095079D02*
D03*
X0204724Y0091142D02*
D03*
X0216142Y0131102D02*
D03*
X0216142Y0135039D02*
D03*
X0360630Y0083464D02*
D03*
X0360630Y0087401D02*
D03*
X0355905Y0083464D02*
D03*
X0355905Y0087401D02*
D03*
X0346457Y0083464D02*
D03*
X0346457Y0087401D02*
D03*
X0209843Y0075984D02*
D03*
X0209843Y0079921D02*
D03*
X0214567Y0075984D02*
D03*
X0214567Y0079921D02*
D03*
X0219291Y0075984D02*
D03*
X0219291Y0079921D02*
D03*
X0224016Y0075984D02*
D03*
X0224016Y0079921D02*
D03*
X0209843Y0075984D02*
D03*
X0209843Y0072047D02*
D03*
X0214567Y0075984D02*
D03*
X0214567Y0072047D02*
D03*
X0219291Y0075984D02*
D03*
X0219291Y0072047D02*
D03*
X0224016Y0075984D02*
D03*
X0224016Y0072047D02*
D03*
X0228740Y0075984D02*
D03*
X0228740Y0079921D02*
D03*
X0233465Y0075984D02*
D03*
X0233465Y0079921D02*
D03*
X0238189Y0075984D02*
D03*
X0238189Y0079921D02*
D03*
X0243031Y0075984D02*
D03*
X0243031Y0079921D02*
D03*
X0228740Y0075984D02*
D03*
X0228740Y0072047D02*
D03*
X0233465Y0075984D02*
D03*
X0233465Y0072047D02*
D03*
X0238189Y0075984D02*
D03*
X0238189Y0072047D02*
D03*
X0242913Y0075984D02*
D03*
X0242913Y0072047D02*
D03*
X0247638Y0075984D02*
D03*
X0247638Y0079921D02*
D03*
X0252362Y0075984D02*
D03*
X0252362Y0079921D02*
D03*
X0257087Y0075984D02*
D03*
X0257087Y0079921D02*
D03*
X0261811Y0075984D02*
D03*
X0261811Y0079921D02*
D03*
X0252362Y0075984D02*
D03*
X0252362Y0072047D02*
D03*
X0257087Y0075984D02*
D03*
X0257087Y0072047D02*
D03*
X0266536Y0079921D02*
D03*
X0266536Y0075984D02*
D03*
X0271260Y0079921D02*
D03*
X0271260Y0075984D02*
D03*
X0275984Y0079921D02*
D03*
X0275984Y0075984D02*
D03*
X0266536Y0072047D02*
D03*
X0266536Y0075984D02*
D03*
X0271260Y0072047D02*
D03*
X0271260Y0075984D02*
D03*
X0275984Y0072047D02*
D03*
X0275984Y0075984D02*
D03*
X0285433Y0075984D02*
D03*
X0285433Y0079921D02*
D03*
X0294882Y0075984D02*
D03*
X0294882Y0079921D02*
D03*
X0299606Y0075984D02*
D03*
X0299606Y0079921D02*
D03*
X0285433Y0075984D02*
D03*
X0285433Y0072047D02*
D03*
X0294882Y0075984D02*
D03*
X0294882Y0072047D02*
D03*
X0299606Y0075984D02*
D03*
X0299606Y0072047D02*
D03*
X0304331Y0079921D02*
D03*
X0304331Y0075984D02*
D03*
X0309055Y0079921D02*
D03*
X0309055Y0075984D02*
D03*
X0318504Y0079921D02*
D03*
X0318504Y0075984D02*
D03*
X0304331Y0072047D02*
D03*
X0304331Y0075984D02*
D03*
X0309055Y0072047D02*
D03*
X0309055Y0075984D02*
D03*
X0313780Y0072047D02*
D03*
X0313780Y0075984D02*
D03*
X0318504Y0072047D02*
D03*
X0318504Y0075984D02*
D03*
X0323228Y0075984D02*
D03*
X0323228Y0079921D02*
D03*
X0327953Y0075984D02*
D03*
X0327953Y0079921D02*
D03*
X0332677Y0075984D02*
D03*
X0332677Y0079921D02*
D03*
X0323228Y0075984D02*
D03*
X0323228Y0072047D02*
D03*
X0327953Y0075984D02*
D03*
X0327953Y0072047D02*
D03*
X0332677Y0075984D02*
D03*
X0332677Y0072047D02*
D03*
X0346457Y0079921D02*
D03*
X0346457Y0075984D02*
D03*
X0351181Y0079921D02*
D03*
X0351181Y0075984D02*
D03*
X0355905Y0079921D02*
D03*
X0355905Y0075984D02*
D03*
X0360630Y0079921D02*
D03*
X0360630Y0075984D02*
D03*
X0346457Y0072047D02*
D03*
X0346457Y0075984D02*
D03*
X0351181Y0072047D02*
D03*
X0351181Y0075984D02*
D03*
X0355905Y0072047D02*
D03*
X0355905Y0075984D02*
D03*
X0360630Y0072047D02*
D03*
X0360630Y0075984D02*
D03*
X0204724Y0086023D02*
D03*
X0204724Y0082086D02*
D03*
X0240157Y0198819D02*
D03*
X0240157Y0202756D02*
D03*
D34*
X0259449Y0092716D02*
D03*
X0259449Y0088976D02*
D03*
X0259449Y0085236D02*
D03*
X0250000Y0085236D02*
D03*
X0250000Y0088976D02*
D03*
X0250000Y0092716D02*
D03*
X0221654Y0092716D02*
D03*
X0221654Y0088976D02*
D03*
X0221654Y0085236D02*
D03*
X0212205Y0085236D02*
D03*
X0212205Y0088976D02*
D03*
X0212205Y0092716D02*
D03*
X0240551Y0092716D02*
D03*
X0240551Y0088976D02*
D03*
X0240551Y0085236D02*
D03*
X0231102Y0085236D02*
D03*
X0231102Y0088976D02*
D03*
X0231102Y0092716D02*
D03*
X0278347Y0092716D02*
D03*
X0278347Y0088976D02*
D03*
X0278347Y0085236D02*
D03*
X0268898Y0085236D02*
D03*
X0268898Y0088976D02*
D03*
X0268898Y0092716D02*
D03*
X0297244Y0092716D02*
D03*
X0297244Y0088976D02*
D03*
X0297244Y0085236D02*
D03*
X0287795Y0085236D02*
D03*
X0287795Y0088976D02*
D03*
X0287795Y0092716D02*
D03*
X0316142Y0092716D02*
D03*
X0316142Y0088976D02*
D03*
X0316142Y0085236D02*
D03*
X0306693Y0085236D02*
D03*
X0306693Y0088976D02*
D03*
X0306693Y0092716D02*
D03*
X0335039Y0092716D02*
D03*
X0335039Y0088976D02*
D03*
X0335039Y0085236D02*
D03*
X0325591Y0085236D02*
D03*
X0325591Y0088976D02*
D03*
X0325591Y0092716D02*
D03*
D35*
X0356693Y0122834D02*
D03*
X0356693Y0140551D02*
D03*
D36*
X0342402Y0072047D02*
D03*
X0204724Y0070079D02*
D03*
D37*
X0211024Y0145571D02*
D03*
X0203937Y0145571D02*
D03*
X0203937Y0135531D02*
D03*
X0211024Y0135531D02*
D03*
X0211024Y0151673D02*
D03*
X0203937Y0151673D02*
D03*
X0203937Y0161713D02*
D03*
X0211024Y0161713D02*
D03*
D38*
X0203937Y0138976D02*
D03*
X0203937Y0142126D02*
D03*
X0211024Y0142126D02*
D03*
X0211024Y0138976D02*
D03*
X0211024Y0155118D02*
D03*
X0211024Y0158268D02*
D03*
X0203937Y0158268D02*
D03*
X0203937Y0155118D02*
D03*
D39*
X0358661Y0188582D02*
D03*
X0358661Y0172047D02*
D03*
X0358661Y0149213D02*
D03*
X0358661Y0165748D02*
D03*
D40*
X0345866Y0122047D02*
D03*
X0343307Y0122047D02*
D03*
X0340748Y0122047D02*
D03*
X0338189Y0122047D02*
D03*
X0335630Y0122047D02*
D03*
X0333071Y0122047D02*
D03*
X0330512Y0122047D02*
D03*
X0345866Y0099606D02*
D03*
X0343307Y0099606D02*
D03*
X0340748Y0099606D02*
D03*
X0338189Y0099606D02*
D03*
X0335630Y0099606D02*
D03*
X0333071Y0099606D02*
D03*
X0330512Y0099606D02*
D03*
X0277362Y0122047D02*
D03*
X0274803Y0122047D02*
D03*
X0272244Y0122047D02*
D03*
X0269685Y0122047D02*
D03*
X0267126Y0122047D02*
D03*
X0264567Y0122047D02*
D03*
X0262008Y0122047D02*
D03*
X0277362Y0099606D02*
D03*
X0274803Y0099606D02*
D03*
X0272244Y0099606D02*
D03*
X0269685Y0099606D02*
D03*
X0267126Y0099606D02*
D03*
X0264567Y0099606D02*
D03*
X0262008Y0099606D02*
D03*
X0300197Y0122047D02*
D03*
X0297638Y0122047D02*
D03*
X0295079Y0122047D02*
D03*
X0292520Y0122047D02*
D03*
X0289961Y0122047D02*
D03*
X0287402Y0122047D02*
D03*
X0284843Y0122047D02*
D03*
X0300197Y0099606D02*
D03*
X0297638Y0099606D02*
D03*
X0295079Y0099606D02*
D03*
X0292520Y0099606D02*
D03*
X0289961Y0099606D02*
D03*
X0287402Y0099606D02*
D03*
X0284843Y0099606D02*
D03*
X0323031Y0122047D02*
D03*
X0320472Y0122047D02*
D03*
X0317913Y0122047D02*
D03*
X0315354Y0122047D02*
D03*
X0312795Y0122047D02*
D03*
X0310236Y0122047D02*
D03*
X0307677Y0122047D02*
D03*
X0323031Y0099606D02*
D03*
X0320472Y0099606D02*
D03*
X0317913Y0099606D02*
D03*
X0315354Y0099606D02*
D03*
X0312795Y0099606D02*
D03*
X0310236Y0099606D02*
D03*
X0307677Y0099606D02*
D03*
D41*
X0255709Y0110630D02*
D03*
X0255709Y0113189D02*
D03*
X0255709Y0115748D02*
D03*
X0255709Y0118307D02*
D03*
X0255709Y0120866D02*
D03*
X0255709Y0123425D02*
D03*
X0255709Y0125984D02*
D03*
X0233268Y0110630D02*
D03*
X0233268Y0113189D02*
D03*
X0233268Y0115748D02*
D03*
X0233268Y0118307D02*
D03*
X0233268Y0120866D02*
D03*
X0233268Y0123425D02*
D03*
X0233268Y0125984D02*
D03*
X0227756Y0110630D02*
D03*
X0227756Y0113189D02*
D03*
X0227756Y0115748D02*
D03*
X0227756Y0118307D02*
D03*
X0227756Y0120866D02*
D03*
X0227756Y0123425D02*
D03*
X0227756Y0125984D02*
D03*
X0205315Y0110630D02*
D03*
X0205315Y0113189D02*
D03*
X0205315Y0115748D02*
D03*
X0205315Y0118307D02*
D03*
X0205315Y0120866D02*
D03*
X0205315Y0123425D02*
D03*
X0205315Y0125984D02*
D03*
D42*
X0238386Y0099016D02*
D03*
X0238386Y0101575D02*
D03*
X0238386Y0104134D02*
D03*
X0230906Y0099016D02*
D03*
X0230906Y0101575D02*
D03*
X0230906Y0104134D02*
D03*
X0218307Y0104134D02*
D03*
X0218307Y0101575D02*
D03*
X0218307Y0099016D02*
D03*
X0225787Y0104134D02*
D03*
X0225787Y0101575D02*
D03*
X0225787Y0099016D02*
D03*
X0213583Y0099016D02*
D03*
X0213583Y0101575D02*
D03*
X0213583Y0104134D02*
D03*
X0206102Y0099016D02*
D03*
X0206102Y0101575D02*
D03*
X0206102Y0104134D02*
D03*
X0243110Y0104134D02*
D03*
X0243110Y0101575D02*
D03*
X0243110Y0099016D02*
D03*
X0250591Y0104134D02*
D03*
X0250591Y0101575D02*
D03*
X0250591Y0099016D02*
D03*
D43*
X0207284Y0183486D02*
D03*
X0207284Y0178486D02*
D03*
X0207284Y0173486D02*
D03*
X0207284Y0168486D02*
D03*
X0226182Y0183486D02*
D03*
X0226182Y0178486D02*
D03*
X0226182Y0173486D02*
D03*
X0226182Y0168486D02*
D03*
D44*
X0359646Y0115945D02*
D03*
X0357087Y0115945D02*
D03*
X0354528Y0115945D02*
D03*
X0359646Y0108464D02*
D03*
X0357087Y0108464D02*
D03*
X0354528Y0108464D02*
D03*
X0359646Y0100590D02*
D03*
X0357087Y0100590D02*
D03*
X0354528Y0100590D02*
D03*
X0359646Y0093110D02*
D03*
X0357087Y0093110D02*
D03*
X0354528Y0093110D02*
D03*
D45*
X0245817Y0199606D02*
D03*
X0245817Y0201575D02*
D03*
X0245817Y0203543D02*
D03*
X0251821Y0203543D02*
D03*
X0251821Y0201575D02*
D03*
X0251821Y0199606D02*
D03*
D46*
X0247835Y0204577D02*
D03*
X0249803Y0204577D02*
D03*
X0249803Y0198573D02*
D03*
X0247835Y0198573D02*
D03*
D47*
X0234941Y0197638D02*
D03*
X0234941Y0204331D02*
D03*
D48*
X0243701Y0132677D02*
D03*
X0239764Y0132677D02*
D03*
M02*
