M48
INCH,TZ
T01C0.011800
T02C0.031500
T03C0.039200
%
T01
X20118Y8189
X20118Y7795
X20118Y18583
X20118Y18189
X20118Y17795
X20118Y17402
X20118Y17008
X20118Y16614
X20118Y13071
X20118Y22362
X20118Y16220
X20118Y15827
X20118Y15433
X20118Y15039
X20118Y14646
X20118Y14252
X20118Y13858
X20118Y13465
X20118Y10709
X20276Y6811
X21220Y6811
X21693Y6811
X22165Y6811
X22480Y22362
X22638Y6811
X22795Y22362
X23110Y22362
X23110Y6811
X23583Y6811
X24055Y6811
X24528Y6811
X25000Y6811
X25472Y6811
X25945Y6811
X26181Y22362
X26417Y6811
X26496Y22362
X26811Y22362
X26890Y6811
X27126Y22362
X27362Y6811
X27441Y22362
X27835Y6811
X28307Y6811
X28780Y6811
X29252Y6811
X29606Y22362
X29724Y6811
X29921Y22362
X30197Y6811
X30236Y22362
X30551Y22362
X30669Y6811
X30866Y22362
X31142Y6811
X31181Y22362
X31496Y22362
X31614Y6811
X31811Y22362
X32087Y6811
X32126Y22362
X32441Y22362
X32559Y6811
X32756Y22362
X33032Y6811
X33071Y22362
X33386Y22362
X33504Y6811
X33701Y22362
X33976Y6811
X34016Y22362
X34331Y22362
X34409Y6811
X34646Y22362
X34882Y6811
X34961Y22362
X35276Y22362
X35354Y6811
X35591Y22362
X35827Y6811
X35906Y22362
X36220Y22362
X36299Y6811
X36535Y19764
X36535Y19449
X36535Y17874
X36535Y17559
X36535Y17244
X36535Y15984
X36535Y15669
X36535Y12205
X36535Y7992
X36535Y22362
X36535Y21339
X36535Y21024
X36535Y20709
X36535Y20394
X36535Y20079
X36535Y19134
X36535Y18819
X36535Y18504
X36535Y18189
X36535Y16929
X36535Y16614
X36535Y16299
X36535Y15354
X36535Y15039
X36535Y14724
X36535Y14409
X36535Y14094
X36535Y13780
X36535Y13465
X36535Y13150
X36535Y12835
X36535Y12520
X36535Y11890
X36535Y11575
X36535Y11260
X36535Y10945
X36535Y10630
X36535Y7677
X20276Y6811
X20199Y7210
X20118Y7795
X20118Y8189
X20876Y8449
X21590Y8465
X21874Y8488
X22480Y8307
X22795Y8307
X23361Y8495
X23787Y8495
X24370Y8307
X24685Y8307
X25254Y8477
X25539Y8486
X26227Y8285
X26611Y8285
X27122Y8511
X27564Y8495
X28150Y8307
X28465Y8307
X29045Y8404
X29429Y8465
X30039Y8307
X30354Y8307
X30984Y8465
X31299Y8465
X31929Y8307
X32244Y8307
X32874Y8465
X33189Y8465
X33819Y8307
X34055Y8543
X34331Y9410
X34646Y9291
X34843Y9016
X35197Y9016
X35285Y9941
X34783Y9961
X34846Y10239
X34744Y11083
X35118Y11221
X35222Y11496
X35325Y10984
X35046Y12310
X35038Y12807
X34724Y12835
X34764Y13228
X34646Y14016
X34051Y14092
X33661Y14134
X33327Y14145
X33583Y13858
X33835Y13698
X33998Y14562
X34014Y14949
X33769Y15109
X34155Y15354
X34065Y16062
X34134Y16339
X34016Y17205
X33819Y17559
X34046Y18120
X34067Y18504
X34868Y18208
X35191Y17987
X35574Y17963
X35153Y19423
X35104Y20073
X35323Y20256
X34761Y20671
X34037Y20864
X33661Y20551
X33417Y20699
X33268Y21378
X32992Y21260
X34214Y21467
X34492Y21341
X34636Y21860
X34951Y21961
X35574Y21405
X31665Y21395
X31367Y21445
X31421Y20806
X31760Y20596
X32357Y19921
X32165Y19685
X31929Y19449
X31102Y19213
X30483Y19109
X30512Y19449
X30202Y19021
X30000Y18819
X30157Y17874
X30591Y17850
X31417Y18110
X31732Y18110
X31876Y17694
X32520Y17795
X32559Y18504
X32787Y18675
X33110Y18032
X33110Y17087
X32165Y16772
X31850Y16772
X31929Y16205
X31850Y15236
X32244Y15236
X32522Y15713
X33236Y15822
X33100Y15065
X33114Y14688
X32047Y14606
X32126Y13887
X32441Y13898
X31553Y13813
X31772Y13032
X32087Y12953
X32717Y13071
X32963Y12926
X33257Y12678
X32894Y12205
X32500Y12205
X31850Y11890
X31535Y11893
X31220Y11890
X30591Y12026
X30324Y12215
X30433Y12756
X30646Y12992
X30796Y12587
X29803Y12756
X29882Y13032
X29016Y13071
X28937Y12717
X28937Y11890
X29252Y11893
X29567Y11929
X29843Y11496
X29843Y11181
X29852Y10896
X30079Y10354
X30669Y10354
X31043Y10591
X31043Y11221
X30610Y11083
X32067Y10945
X32062Y11235
X32894Y11083
X33327Y11221
X33327Y10591
X32953Y10354
X32362Y10354
X31791Y9606
X31284Y9508
X30999Y9508
X29395Y9508
X29109Y9508
X28836Y9592
X28760Y10591
X28386Y10354
X27835Y10354
X27500Y10945
X27495Y11235
X27304Y11905
X26969Y11893
X26654Y11890
X26476Y11221
X26043Y11083
X26142Y10354
X26476Y10591
X26714Y9624
X27219Y9469
X27505Y9508
X25972Y9864
X25615Y9508
X25330Y9508
X25315Y10158
X25265Y10859
X25246Y11536
X25259Y11831
X25246Y12190
X25236Y12677
X25276Y13110
X24896Y13238
X24611Y13258
X24449Y12756
X24587Y12323
X24089Y12434
X23669Y12534
X23644Y12819
X23150Y12835
X22813Y12718
X22414Y13001
X22736Y13347
X23228Y13433
X23295Y13916
X23261Y14252
X23307Y14636
X23307Y14921
X23307Y15473
X23268Y16221
X23465Y16732
X23386Y17008
X23410Y17470
X23374Y18050
X23346Y18819
X22953Y18917
X22943Y19257
X22087Y19488
X22106Y18898
X22160Y18150
X21772Y18071
X21378Y18067
X20728Y18063
X20118Y18189
X20118Y17795
X20118Y17402
X20118Y17008
X20118Y16614
X20118Y16221
X20118Y15827
X20118Y15433
X20118Y15039
X20118Y14646
X20118Y14252
X20118Y13858
X20118Y13465
X20118Y13071
X20354Y12835
X20894Y13002
X20886Y12520
X21161Y12382
X21523Y12422
X21791Y12321
X22451Y12116
X22464Y11831
X22451Y11536
X22480Y11181
X21999Y11324
X21497Y11331
X21654Y10906
X21537Y10580
X21925Y10552
X21594Y10158
X21555Y9606
X21836Y9508
X22598Y9577
X23071Y9577
X23440Y9508
X23725Y9508
X24134Y9567
X24488Y9528
X24075Y10158
X24134Y10591
X24449Y10906
X24311Y11299
X24941Y11299
X24815Y10466
X23071Y10591
X22835Y10158
X23611Y11188
X23652Y11471
X23583Y12047
X24114Y13504
X24185Y14749
X24144Y15354
X24122Y15768
X24154Y16280
X24144Y16850
X24144Y17559
X24144Y18189
X24085Y18853
X24988Y18962
X25012Y19576
X25216Y19777
X25659Y19705
X25709Y19291
X25709Y19006
X25709Y18185
X25695Y17796
X25172Y17795
X25172Y17510
X25458Y17491
X25669Y17244
X25591Y16890
X25704Y16437
X26610Y16444
X26893Y16553
X26772Y16811
X26523Y17128
X26535Y16024
X26683Y15242
X26772Y14843
X26585Y14498
X26299Y13583
X25770Y13567
X25627Y13823
X25591Y12825
X25945Y12532
X26025Y12222
X26693Y12756
X27178Y12770
X27165Y13055
X27326Y14036
X27734Y14079
X27795Y13800
X28071Y14095
X28720Y14119
X28711Y13834
X29154Y14193
X29385Y13977
X29872Y14510
X28979Y14803
X28496Y14807
X28760Y15167
X29094Y15669
X29567Y16142
X28661Y16181
X28189Y17362
X27874Y17323
X27595Y16825
X27126Y16388
X27598Y15197
X25748Y15394
X25512Y14803
X25197Y14862
X24787Y14926
X24911Y14311
X25000Y16910
X26525Y18377
X26535Y18819
X26457Y19449
X26465Y19734
X26597Y20208
X26525Y20485
X26654Y20984
X26201Y21569
X26969Y22124
X27765Y22237
X28090Y22192
X28378Y22234
X28697Y22231
X29011Y22225
X28622Y21339
X28002Y21368
X27716Y21368
X27431Y21378
X27576Y20373
X27638Y20079
X27293Y19567
X27441Y18819
X27283Y18307
X28189Y18228
X28544Y18140
X28819Y17874
X28622Y19016
X28169Y18740
X29331Y19449
X28858Y19921
X28858Y20859
X29252Y21063
X29592Y21462
X30541Y21380
X29724Y20118
X30039Y16665
X30551Y16783
X30773Y16602
X30993Y16783
X31171Y16560
X31024Y15394
X30512Y15197
X30394Y15906
X28309Y12983
X28071Y12638
X27933Y12205
X28228Y12205
X28327Y11083
X28760Y11221
X28543Y7008
X28780Y6811
X29016Y7008
X29252Y6811
X29488Y7008
X29724Y6811
X29961Y7008
X30197Y6811
X30433Y7008
X30669Y6811
X30906Y7008
X31142Y6811
X31378Y7008
X31614Y6811
X31850Y7008
X32087Y6811
X32323Y7008
X32559Y6811
X32795Y7008
X33032Y6811
X33268Y7008
X33504Y6811
X33740Y7008
X33976Y6811
X34409Y6811
X34646Y7008
X34882Y6811
X35118Y7008
X35354Y6811
X35591Y7008
X35287Y7715
X34814Y7715
X33780Y9567
X33174Y9508
X32889Y9508
X33504Y11890
X33819Y11893
X34134Y11890
X34420Y11835
X35522Y14852
X33228Y19213
X33269Y19495
X25788Y20082
X25464Y20413
X25539Y20689
X25215Y20554
X24823Y21004
X24555Y20888
X24265Y20727
X23965Y20714
X24016Y20433
X24252Y19803
X24627Y19538
X24756Y21388
X24085Y21232
X23333Y20925
X22964Y21080
X22945Y20785
X23095Y20381
X22766Y20394
X22272Y20593
X21409Y20391
X21000Y20300
X21063Y20866
X20217Y20945
X20197Y20551
X20787Y21831
X20827Y22284
X21909Y22284
X22549Y21487
X23289Y21584
X24309Y22126
X25315Y22008
X21270Y19448
X21102Y19213
X20927Y18635
X20531Y18622
X20118Y18583
X21244Y17190
X21516Y16850
X21684Y16089
X22490Y16063
X22490Y15354
X22490Y14646
X22490Y13937
X22055Y13553
X21740Y13784
X21240Y13248
X20246Y12156
X20856Y11536
X20531Y10866
X20118Y10709
X20354Y10158
X20157Y9567
X20709Y9370
X20472Y8888
X21108Y9703
X20984Y10492
X20709Y7402
X20752Y6842
X20984Y7008
X21220Y6811
X21457Y7008
X21693Y6811
X21929Y7008
X22165Y6811
X22402Y7008
X22638Y6811
X22874Y7008
X23110Y6811
X23346Y7008
X23583Y6811
X23819Y7008
X24055Y6811
X24291Y7008
X24528Y6811
X24764Y7008
X25000Y6811
X25236Y7008
X25472Y6811
X25709Y7008
X25945Y6811
X26181Y7008
X26417Y6811
X26654Y7008
X26890Y6811
X27126Y7008
X27362Y6811
X27598Y7008
X27835Y6811
X28071Y7008
X28307Y6811
X21969Y17382
X35669Y17539
X35856Y17755
X36535Y17874
X36535Y18189
X36535Y18504
X36535Y18819
X36535Y19134
X36535Y19449
X36535Y19764
X36535Y20079
X36535Y20394
X36535Y20709
X36535Y21024
X36535Y21339
X36457Y21654
X36134Y21339
X36262Y20509
X36297Y19291
X36297Y18347
X35680Y18689
X35707Y16774
X36535Y16929
X36535Y17244
X36535Y17559
X36535Y16614
X36535Y16299
X36535Y15984
X36535Y15669
X36535Y15354
X36535Y15039
X36535Y14724
X36535Y14410
X36535Y14095
X36535Y13780
X36535Y13465
X36535Y13150
X36535Y12835
X36535Y12520
X36535Y12205
X36535Y11890
X36535Y11575
X36535Y11260
X36535Y10945
X36535Y10630
X35707Y10505
X35709Y9803
X36024Y9646
X36169Y9892
X36142Y9331
X36260Y9016
X36339Y8740
X36339Y8347
X36535Y7992
X36535Y7677
X36191Y7707
X35729Y7708
X35827Y6811
X36063Y7008
X36299Y6811
X36496Y7126
X36024Y11181
X35684Y11236
X36252Y14130
X35925Y15719
X35630Y15719
X35906Y22362
X36220Y22362
X36535Y22362
X35591Y22362
X35276Y22362
X34961Y22362
X34646Y22362
X34331Y22362
X34016Y22362
X33701Y22362
X33386Y22362
X33071Y22362
X32756Y22362
X32441Y22362
X32126Y22362
X31811Y22362
X31496Y22362
X31181Y22362
X30866Y22362
X30551Y22362
X30236Y22362
X29921Y22362
X29606Y22362
X27441Y22362
X27126Y22362
X26811Y22362
X26496Y22362
X26181Y22362
X24045Y22336
X23110Y22362
X22795Y22362
X22480Y22362
X20118Y22362
T02
X25984Y12913
X27677Y12795
X29409Y12835
X31299Y12795
X32441Y12795
X33622Y12795
X34134Y13268
T03
X20433Y22047
X23575Y21287
X23575Y22087
X25575Y21687
M30
