M48
; DRILL file {KiCad 8.0.9-8.0.9-0~ubuntu24.04.1} date 2026-07-03T15:40:44+0000
; FORMAT={2:4/ absolute / inch / suppress leading zeros}
; #@! TF.CreationDate,2026-07-03T15:40:44+00:00
; #@! TF.GenerationSoftware,Kicad,Pcbnew,8.0.9-8.0.9-0~ubuntu24.04.1
; #@! TF.FileFunction,MixedPlating,1,2
FMAT,2
INCH,TZ
; #@! TA.AperFunction,Plated,PTH,ComponentDrill
T1C0.0118
%
G90
G05
T1
X20118Y8189
X20118Y7795
X20118Y18583
X20118Y18189
X20118Y17795
X20118Y17402
X20118Y17008
X20118Y16614
X20118Y13071
X20118Y22362
X20118Y16220
X20118Y15827
X20118Y15433
X20118Y15039
X20118Y14646
X20118Y14252
X20118Y13858
X20118Y13465
X20118Y10709
X20276Y6811
X21220Y6811
X21693Y6811
X22165Y6811
X22480Y22362
X22638Y6811
X22795Y22362
X23110Y22362
X23110Y6811
X23583Y6811
X24055Y6811
X24528Y6811
X25000Y6811
X25472Y6811
X25945Y6811
X26181Y22362
X26417Y6811
X26496Y22362
X26811Y22362
X26890Y6811
X27126Y22362
X27362Y6811
X27441Y22362
X27835Y6811
X28307Y6811
X28780Y6811
X29252Y6811
X29606Y22362
X29724Y6811
X29921Y22362
X30197Y6811
X30236Y22362
X30551Y22362
X30669Y6811
X30866Y22362
X31142Y6811
X31181Y22362
X31496Y22362
X31614Y6811
X31811Y22362
X32087Y6811
X32126Y22362
X32441Y22362
X32559Y6811
X32756Y22362
X33032Y6811
X33071Y22362
X33386Y22362
X33504Y6811
X33701Y22362
X33976Y6811
X34016Y22362
X34331Y22362
X34409Y6811
X34646Y22362
X34882Y6811
X34961Y22362
X35276Y22362
X35354Y6811
X35591Y22362
X35827Y6811
X35906Y22362
X36220Y22362
X36299Y6811
X36535Y19764
X36535Y19449
X36535Y17874
X36535Y17559
X36535Y17244
X36535Y15984
X36535Y15669
X36535Y12205
X36535Y7992
X36535Y22362
X36535Y21339
X36535Y21024
X36535Y20709
X36535Y20394
X36535Y20079
X36535Y19134
X36535Y18819
X36535Y18504
X36535Y18189
X36535Y16929
X36535Y16614
X36535Y16299
X36535Y15354
X36535Y15039
X36535Y14724
X36535Y14409
X36535Y14094
X36535Y13780
X36535Y13465
X36535Y13150
X36535Y12835
X36535Y12520
X36535Y11890
X36535Y11575
X36535Y11260
X36535Y10945
X36535Y10630
X36535Y7677
M30
