G04 #@! TF.GenerationSoftware,KiCad,Pcbnew,8.0.9-8.0.9-0~ubuntu24.04.1*
G04 #@! TF.CreationDate,2026-07-03T13:35:22+00:00*
G04 #@! TF.ProjectId,RRModule,52524d6f-6475-46c6-952e-6b696361645f,rev?*
G04 #@! TF.SameCoordinates,Original*
G04 #@! TF.FileFunction,Copper,L1,Top*
G04 #@! TF.FilePolarity,Positive*
%FSLAX46Y46*%
G04 Gerber Fmt 4.6, Leading zero omitted, Abs format (unit mm)*
G04 Created by KiCad (PCBNEW 8.0.9-8.0.9-0~ubuntu24.04.1) date 2026-07-03 13:35:22*
%MOMM*%
%LPD*%
G01*
G04 APERTURE LIST*
G04 #@! TA.AperFunction,ComponentPad*
%ADD10C,0.600000*%
G04 #@! TD*
G04 #@! TA.AperFunction,SMDPad,CuDef*
%ADD11R,0.200000X2.300000*%
G04 #@! TD*
G04 #@! TA.AperFunction,SMDPad,CuDef*
%ADD12R,0.200000X5.400000*%
G04 #@! TD*
G04 #@! TA.AperFunction,SMDPad,CuDef*
%ADD13R,0.200000X8.600000*%
G04 #@! TD*
G04 #@! TA.AperFunction,SMDPad,CuDef*
%ADD14R,0.200000X5.000000*%
G04 #@! TD*
G04 #@! TA.AperFunction,SMDPad,CuDef*
%ADD15R,1.400000X0.200000*%
G04 #@! TD*
G04 #@! TA.AperFunction,SMDPad,CuDef*
%ADD16R,5.000000X0.200000*%
G04 #@! TD*
G04 #@! TA.AperFunction,SMDPad,CuDef*
%ADD17R,6.800000X0.200000*%
G04 #@! TD*
G04 #@! TA.AperFunction,SMDPad,CuDef*
%ADD18R,4.500000X0.200000*%
G04 #@! TD*
G04 #@! TA.AperFunction,SMDPad,CuDef*
%ADD19R,0.200000X1.600000*%
G04 #@! TD*
G04 #@! TA.AperFunction,SMDPad,CuDef*
%ADD20R,0.200000X5.700000*%
G04 #@! TD*
G04 #@! TA.AperFunction,SMDPad,CuDef*
%ADD21R,0.200000X2.000000*%
G04 #@! TD*
G04 APERTURE END LIST*
D10*
G04 #@! TO.P,M1,E1,SPI2_SCK/CAN2_TX*
G04 #@! TO.N,unconnected-(M1-SPI2_SCK{slash}CAN2_TX-PadE1)*
X92800000Y54199993D03*
G04 #@! TO.P,M1,E2,SPI2_MISO*
G04 #@! TO.N,unconnected-(M1-SPI2_MISO-PadE2)*
X92800000Y53399992D03*
G04 #@! TO.P,M1,E3,SPI2_MOSI*
G04 #@! TO.N,unconnected-(M1-SPI2_MOSI-PadE3)*
X92800000Y52599994D03*
G04 #@! TO.P,M1,E4,SPI2_CS/CAN2_RX*
G04 #@! TO.N,unconnected-(M1-SPI2_CS{slash}CAN2_RX-PadE4)*
X92800000Y51799993D03*
G04 #@! TO.P,M1,E6,OUT_IO3*
G04 #@! TO.N,unconnected-(M1-OUT_IO3-PadE6)*
X92800000Y50999992D03*
G04 #@! TO.P,M1,E7,OUT_IO5*
G04 #@! TO.N,unconnected-(M1-OUT_IO5-PadE7)*
X92799997Y50199994D03*
G04 #@! TO.P,M1,E8,OUT_IO1*
G04 #@! TO.N,unconnected-(M1-OUT_IO1-PadE8)*
X92799997Y49399993D03*
G04 #@! TO.P,M1,E9,OUT_IO6*
G04 #@! TO.N,unconnected-(M1-OUT_IO6-PadE9)*
X92800000Y48599989D03*
G04 #@! TO.P,M1,E10,OUT_IO10*
G04 #@! TO.N,unconnected-(M1-OUT_IO10-PadE10)*
X92800000Y47799993D03*
G04 #@! TO.P,M1,E11,OUT_IO9*
G04 #@! TO.N,unconnected-(M1-OUT_IO9-PadE11)*
X92800000Y46999993D03*
G04 #@! TO.P,M1,E12,OUT_IO2*
G04 #@! TO.N,unconnected-(M1-OUT_IO2-PadE12)*
X92800000Y46199992D03*
G04 #@! TO.P,M1,E13,OUT_IO12*
G04 #@! TO.N,unconnected-(M1-OUT_IO12-PadE13)*
X92799997Y45399993D03*
G04 #@! TO.P,M1,E14,OUT_PWM5*
G04 #@! TO.N,unconnected-(M1-OUT_PWM5-PadE14)*
X92799997Y44599992D03*
G04 #@! TO.P,M1,E15,OUT_PWM4*
G04 #@! TO.N,unconnected-(M1-OUT_PWM4-PadE15)*
X92799997Y43799991D03*
G04 #@! TO.P,M1,E16,OUT_PWM3*
G04 #@! TO.N,unconnected-(M1-OUT_PWM3-PadE16)*
X92800000Y42999993D03*
G04 #@! TO.P,M1,E17,OUT_PWM2*
G04 #@! TO.N,unconnected-(M1-OUT_PWM2-PadE17)*
X92800000Y42199992D03*
G04 #@! TO.P,M1,E18,OUT_INJ2*
G04 #@! TO.N,unconnected-(M1-OUT_INJ2-PadE18)*
X92800000Y41399994D03*
G04 #@! TO.P,M1,E19,OUT_INJ1*
G04 #@! TO.N,unconnected-(M1-OUT_INJ1-PadE19)*
X92799997Y40599993D03*
G04 #@! TO.P,M1,E20,OUT_IO13*
G04 #@! TO.N,unconnected-(M1-OUT_IO13-PadE20)*
X92799997Y39799992D03*
G04 #@! TO.P,M1,E21,OUT_IO4*
G04 #@! TO.N,unconnected-(M1-OUT_IO4-PadE21)*
X92800000Y38999993D03*
G04 #@! TO.P,M1,E22,OUT_IO8*
G04 #@! TO.N,unconnected-(M1-OUT_IO8-PadE22)*
X92800000Y38199992D03*
G04 #@! TO.P,M1,E23,OUT_IO7*
G04 #@! TO.N,unconnected-(M1-OUT_IO7-PadE23)*
X92800000Y37399991D03*
G04 #@! TO.P,M1,E24,OUT_IO11*
G04 #@! TO.N,unconnected-(M1-OUT_IO11-PadE24)*
X92800000Y36599993D03*
G04 #@! TO.P,M1,E25,OUT_PWM7*
G04 #@! TO.N,unconnected-(M1-OUT_PWM7-PadE25)*
X92800000Y35799992D03*
G04 #@! TO.P,M1,E26,OUT_PWM6*
G04 #@! TO.N,unconnected-(M1-OUT_PWM6-PadE26)*
X92800000Y34999994D03*
G04 #@! TO.P,M1,E27,OUT_PWM1*
G04 #@! TO.N,unconnected-(M1-OUT_PWM1-PadE27)*
X92800000Y34199993D03*
G04 #@! TO.P,M1,E28,OUT_PWM8*
G04 #@! TO.N,unconnected-(M1-OUT_PWM8-PadE28)*
X92800000Y33399992D03*
G04 #@! TO.P,M1,E29,OUT_INJ3*
G04 #@! TO.N,unconnected-(M1-OUT_INJ3-PadE29)*
X92800000Y32599993D03*
G04 #@! TO.P,M1,E30,OUT_INJ4*
G04 #@! TO.N,unconnected-(M1-OUT_INJ4-PadE30)*
X92800000Y31799992D03*
G04 #@! TO.P,M1,E31,OUT_INJ5*
G04 #@! TO.N,unconnected-(M1-OUT_INJ5-PadE31)*
X92799997Y30999994D03*
G04 #@! TO.P,M1,E32,OUT_INJ6*
G04 #@! TO.N,unconnected-(M1-OUT_INJ6-PadE32)*
X92800000Y30199991D03*
G04 #@! TO.P,M1,E33,OUT_INJ7*
G04 #@! TO.N,unconnected-(M1-OUT_INJ7-PadE33)*
X92800000Y29399992D03*
G04 #@! TO.P,M1,E34,OUT_INJ8*
G04 #@! TO.N,unconnected-(M1-OUT_INJ8-PadE34)*
X92800000Y28599994D03*
G04 #@! TO.P,M1,E35,IO6*
G04 #@! TO.N,unconnected-(M1-IO6-PadE35)*
X92800000Y27799993D03*
G04 #@! TO.P,M1,E36,IO7*
G04 #@! TO.N,unconnected-(M1-IO7-PadE36)*
X92800000Y26999992D03*
G04 #@! TO.P,M1,E38,V5A_SWITCHABLE*
G04 #@! TO.N,unconnected-(M1-V5A_SWITCHABLE-PadE38)*
X92799997Y20299998D03*
G04 #@! TO.P,M1,E39,GNDA*
G04 #@! TO.N,unconnected-(M1-GNDA-PadE39)*
X92800000Y19499997D03*
D11*
G04 #@! TO.P,M1,G,GND*
G04 #@! TO.N,unconnected-(M1-GND-PadG)*
X50899995Y18149997D03*
D12*
X50899997Y24000000D03*
D13*
X50899998Y51999997D03*
D14*
X50899998Y30199997D03*
D15*
X52700004Y17099994D03*
D16*
X54099999Y56999995D03*
D17*
X62600002Y56999995D03*
D18*
X72450005Y56999995D03*
D19*
X93000000Y55499996D03*
D20*
X93000000Y23649993D03*
D21*
X93000000Y18000000D03*
D10*
G04 #@! TO.P,M1,N1,USBID*
G04 #@! TO.N,unconnected-(M1-USBID-PadN1)*
X92800000Y56799996D03*
G04 #@! TO.P,M1,N2,USBM*
G04 #@! TO.N,unconnected-(M1-USBM-PadN2)*
X92000002Y56799998D03*
G04 #@! TO.P,M1,N3,USBP*
G04 #@! TO.N,unconnected-(M1-USBP-PadN3)*
X91200001Y56799998D03*
G04 #@! TO.P,M1,N4,VBUS*
G04 #@! TO.N,unconnected-(M1-VBUS-PadN4)*
X90400002Y56799996D03*
G04 #@! TO.P,M1,N5,BOOT0*
G04 #@! TO.N,unconnected-(M1-BOOT0-PadN5)*
X89600001Y56799996D03*
G04 #@! TO.P,M1,N6,SWO*
G04 #@! TO.N,unconnected-(M1-SWO-PadN6)*
X88800000Y56799996D03*
G04 #@! TO.P,M1,N7,SWDIO*
G04 #@! TO.N,unconnected-(M1-SWDIO-PadN7)*
X88000002Y56799996D03*
G04 #@! TO.P,M1,N8,SWCLK*
G04 #@! TO.N,unconnected-(M1-SWCLK-PadN8)*
X87200001Y56799998D03*
G04 #@! TO.P,M1,N9,nReset*
G04 #@! TO.N,unconnected-(M1-nReset-PadN9)*
X86400003Y56799996D03*
G04 #@! TO.P,M1,N10,SPI3_CS*
G04 #@! TO.N,unconnected-(M1-SPI3_CS-PadN10)*
X85600002Y56799996D03*
G04 #@! TO.P,M1,N11,SPI3_SCK*
G04 #@! TO.N,unconnected-(M1-SPI3_SCK-PadN11)*
X84800001Y56799996D03*
G04 #@! TO.P,M1,N12,SPI3_MISO*
G04 #@! TO.N,unconnected-(M1-SPI3_MISO-PadN12)*
X84000000Y56799996D03*
G04 #@! TO.P,M1,N13,SPI3_MOSI*
G04 #@! TO.N,unconnected-(M1-SPI3_MOSI-PadN13)*
X83200001Y56799996D03*
G04 #@! TO.P,M1,N14,I2C_SCL*
G04 #@! TO.N,unconnected-(M1-I2C_SCL-PadN14)*
X82400000Y56799996D03*
G04 #@! TO.P,M1,N15,I2C_SDA*
G04 #@! TO.N,unconnected-(M1-I2C_SDA-PadN15)*
X81599999Y56799998D03*
G04 #@! TO.P,M1,N16,IO1*
G04 #@! TO.N,unconnected-(M1-IO1-PadN16)*
X80799999Y56799998D03*
G04 #@! TO.P,M1,N17,UART2_TX*
G04 #@! TO.N,unconnected-(M1-UART2_TX-PadN17)*
X80000000Y56799996D03*
G04 #@! TO.P,M1,N18,UART2_RX*
G04 #@! TO.N,unconnected-(M1-UART2_RX-PadN18)*
X79199999Y56799996D03*
G04 #@! TO.P,M1,N19,IO2*
G04 #@! TO.N,unconnected-(M1-IO2-PadN19)*
X78400001Y56799996D03*
G04 #@! TO.P,M1,N20,IO4*
G04 #@! TO.N,unconnected-(M1-IO4-PadN20)*
X77600000Y56799996D03*
G04 #@! TO.P,M1,N21,IO3*
G04 #@! TO.N,unconnected-(M1-IO3-PadN21)*
X76800001Y56799998D03*
G04 #@! TO.P,M1,N22,V33*
G04 #@! TO.N,unconnected-(M1-V33-PadN22)*
X76000000Y56799996D03*
G04 #@! TO.P,M1,N23,IO5*
G04 #@! TO.N,unconnected-(M1-IO5-PadN23)*
X75200000Y56799996D03*
G04 #@! TO.P,M1,N24,UART8_RX*
G04 #@! TO.N,unconnected-(M1-UART8_RX-PadN24)*
X69700000Y56799996D03*
G04 #@! TO.P,M1,N25,UART8_TX*
G04 #@! TO.N,unconnected-(M1-UART8_TX-PadN25)*
X68899999Y56799996D03*
G04 #@! TO.P,M1,N26,IN_VIGN*
G04 #@! TO.N,unconnected-(M1-IN_VIGN-PadN26)*
X68100001Y56799996D03*
G04 #@! TO.P,M1,N27,VBAT*
G04 #@! TO.N,unconnected-(M1-VBAT-PadN27)*
X67300003Y56799996D03*
G04 #@! TO.P,M1,N28,V33_SWITCHABLE*
G04 #@! TO.N,unconnected-(M1-V33_SWITCHABLE-PadN28)*
X66500004Y56799996D03*
G04 #@! TO.P,M1,N29,OUT_PWR_EN*
G04 #@! TO.N,unconnected-(M1-OUT_PWR_EN-PadN29)*
X58700000Y56799996D03*
G04 #@! TO.P,M1,N30,V5A_SWITCHABLE*
G04 #@! TO.N,unconnected-(M1-V5A_SWITCHABLE-PadN30)*
X57900001Y56799996D03*
G04 #@! TO.P,M1,N31,VCC*
G04 #@! TO.N,unconnected-(M1-VCC-PadN31)*
X57100003Y56799996D03*
G04 #@! TO.P,M1,N32,V33*
G04 #@! TO.N,unconnected-(M1-V33-PadN32)*
X51099999Y56799996D03*
G04 #@! TO.P,M1,S1,IN_D4*
G04 #@! TO.N,unconnected-(M1-IN_D4-PadS1)*
X92199999Y17299991D03*
G04 #@! TO.P,M1,S2,IN_D3*
G04 #@! TO.N,unconnected-(M1-IN_D3-PadS2)*
X90999998Y17299993D03*
G04 #@! TO.P,M1,S3,IN_D2*
G04 #@! TO.N,unconnected-(M1-IN_D2-PadS3)*
X89800001Y17299993D03*
G04 #@! TO.P,M1,S4,IN_D1*
G04 #@! TO.N,unconnected-(M1-IN_D1-PadS4)*
X88600001Y17299991D03*
G04 #@! TO.P,M1,S5,VREF2*
G04 #@! TO.N,unconnected-(M1-VREF2-PadS5)*
X87400001Y17299993D03*
G04 #@! TO.P,M1,S6,IN_SENS4*
G04 #@! TO.N,unconnected-(M1-IN_SENS4-PadS6)*
X86300013Y17299993D03*
G04 #@! TO.P,M1,S7,IN_SENS3*
G04 #@! TO.N,unconnected-(M1-IN_SENS3-PadS7)*
X85100013Y17299993D03*
G04 #@! TO.P,M1,S8,IN_SENS2*
G04 #@! TO.N,unconnected-(M1-IN_SENS2-PadS8)*
X83900015Y17299991D03*
G04 #@! TO.P,M1,S9,IN_SENS1*
G04 #@! TO.N,unconnected-(M1-IN_SENS1-PadS9)*
X82700015Y17299993D03*
G04 #@! TO.P,M1,S10,IN_AUX4*
G04 #@! TO.N,unconnected-(M1-IN_AUX4-PadS10)*
X81500012Y17299993D03*
G04 #@! TO.P,M1,S11,IN_AUX3*
G04 #@! TO.N,unconnected-(M1-IN_AUX3-PadS11)*
X80300010Y17299991D03*
G04 #@! TO.P,M1,S12,IN_AUX2*
G04 #@! TO.N,unconnected-(M1-IN_AUX2-PadS12)*
X79100012Y17299993D03*
G04 #@! TO.P,M1,S13,IN_AUX1*
G04 #@! TO.N,unconnected-(M1-IN_AUX1-PadS13)*
X77900014Y17299993D03*
G04 #@! TO.P,M1,S14,IN_RES2*
G04 #@! TO.N,unconnected-(M1-IN_RES2-PadS14)*
X76700007Y17299993D03*
G04 #@! TO.P,M1,S15,IN_O2S2*
G04 #@! TO.N,unconnected-(M1-IN_O2S2-PadS15)*
X75500007Y17299993D03*
G04 #@! TO.P,M1,S16,IN_O2S*
G04 #@! TO.N,unconnected-(M1-IN_O2S-PadS16)*
X74300009Y17299993D03*
G04 #@! TO.P,M1,S17,IN_RES1*
G04 #@! TO.N,unconnected-(M1-IN_RES1-PadS17)*
X73100009Y17299993D03*
G04 #@! TO.P,M1,S18,IN_RES3*
G04 #@! TO.N,unconnected-(M1-IN_RES3-PadS18)*
X71900004Y17299993D03*
G04 #@! TO.P,M1,S19,IN_MAP3*
G04 #@! TO.N,unconnected-(M1-IN_MAP3-PadS19)*
X70700003Y17299993D03*
G04 #@! TO.P,M1,S20,IN_MAP2*
G04 #@! TO.N,unconnected-(M1-IN_MAP2-PadS20)*
X69500006Y17299991D03*
G04 #@! TO.P,M1,S21,IN_MAP1*
G04 #@! TO.N,unconnected-(M1-IN_MAP1-PadS21)*
X68300006Y17299993D03*
G04 #@! TO.P,M1,S22,IN_CRANK*
G04 #@! TO.N,unconnected-(M1-IN_CRANK-PadS22)*
X67100003Y17299991D03*
G04 #@! TO.P,M1,S23,IN_KNOCK*
G04 #@! TO.N,unconnected-(M1-IN_KNOCK-PadS23)*
X65900003Y17299993D03*
G04 #@! TO.P,M1,S24,IN_CAM*
G04 #@! TO.N,unconnected-(M1-IN_CAM-PadS24)*
X64700008Y17299993D03*
G04 #@! TO.P,M1,S25,IN_VSS*
G04 #@! TO.N,unconnected-(M1-IN_VSS-PadS25)*
X63500005Y17299991D03*
G04 #@! TO.P,M1,S26,IN_IAT*
G04 #@! TO.N,unconnected-(M1-IN_IAT-PadS26)*
X62300000Y17299993D03*
G04 #@! TO.P,M1,S27,IN_AT1*
G04 #@! TO.N,unconnected-(M1-IN_AT1-PadS27)*
X61100000Y17299991D03*
G04 #@! TO.P,M1,S28,IN_CLT*
G04 #@! TO.N,unconnected-(M1-IN_CLT-PadS28)*
X59900002Y17299993D03*
G04 #@! TO.P,M1,S29,IN_AT2*
G04 #@! TO.N,unconnected-(M1-IN_AT2-PadS29)*
X58700002Y17299993D03*
G04 #@! TO.P,M1,S30,IN_TPS*
G04 #@! TO.N,unconnected-(M1-IN_TPS-PadS30)*
X57499997Y17299993D03*
G04 #@! TO.P,M1,S31,IN_PPS*
G04 #@! TO.N,unconnected-(M1-IN_PPS-PadS31)*
X56299997Y17299993D03*
G04 #@! TO.P,M1,S32,IN_TPS2*
G04 #@! TO.N,unconnected-(M1-IN_TPS2-PadS32)*
X55099999Y17299993D03*
G04 #@! TO.P,M1,S33,IN_PPS2*
G04 #@! TO.N,unconnected-(M1-IN_PPS2-PadS33)*
X53899999Y17299993D03*
G04 #@! TO.P,M1,S35,VREF1*
G04 #@! TO.N,unconnected-(M1-VREF1-PadS35)*
X51499999Y17299993D03*
G04 #@! TO.P,M1,W1,GNDA*
G04 #@! TO.N,unconnected-(M1-GNDA-PadW1)*
X51099997Y19799996D03*
G04 #@! TO.P,M1,W2,V5A_SWITCHABLE*
G04 #@! TO.N,unconnected-(M1-V5A_SWITCHABLE-PadW2)*
X51099997Y20799997D03*
G04 #@! TO.P,M1,W3,V33_REF*
G04 #@! TO.N,unconnected-(M1-V33_REF-PadW3)*
X51099999Y27199999D03*
G04 #@! TO.P,M1,W3a,BOOT1*
G04 #@! TO.N,unconnected-(M1-BOOT1-PadW3a)*
X51099998Y33199997D03*
G04 #@! TO.P,M1,W4,IGN8*
G04 #@! TO.N,unconnected-(M1-IGN8-PadW4)*
X51099999Y34199995D03*
G04 #@! TO.P,M1,W5,IGN7*
G04 #@! TO.N,unconnected-(M1-IGN7-PadW5)*
X51099999Y35199996D03*
G04 #@! TO.P,M1,W6,IGN6*
G04 #@! TO.N,unconnected-(M1-IGN6-PadW6)*
X51099999Y36199994D03*
G04 #@! TO.P,M1,W7,IGN5*
G04 #@! TO.N,unconnected-(M1-IGN5-PadW7)*
X51099999Y37199994D03*
G04 #@! TO.P,M1,W8,IGN4*
G04 #@! TO.N,unconnected-(M1-IGN4-PadW8)*
X51099999Y38199995D03*
G04 #@! TO.P,M1,W9,IGN3*
G04 #@! TO.N,unconnected-(M1-IGN3-PadW9)*
X51099999Y39199993D03*
G04 #@! TO.P,M1,W10,IGN2*
G04 #@! TO.N,unconnected-(M1-IGN2-PadW10)*
X51099999Y40199993D03*
G04 #@! TO.P,M1,W11,IGN1*
G04 #@! TO.N,unconnected-(M1-IGN1-PadW11)*
X51099999Y41199991D03*
G04 #@! TO.P,M1,W11a,LED_RED*
G04 #@! TO.N,unconnected-(M1-LED_RED-PadW11a)*
X51099998Y42199997D03*
G04 #@! TO.P,M1,W11b,LED_GREEN*
G04 #@! TO.N,unconnected-(M1-LED_GREEN-PadW11b)*
X51099998Y43199997D03*
G04 #@! TO.P,M1,W11c,LED_BLUE*
G04 #@! TO.N,unconnected-(M1-LED_BLUE-PadW11c)*
X51099998Y44199997D03*
G04 #@! TO.P,M1,W11d,LED_YELLOW*
G04 #@! TO.N,unconnected-(M1-LED_YELLOW-PadW11d)*
X51099998Y45199997D03*
G04 #@! TO.P,M1,W12,CANH*
G04 #@! TO.N,unconnected-(M1-CANH-PadW12)*
X51099998Y46199997D03*
G04 #@! TO.P,M1,W13,CANL*
G04 #@! TO.N,unconnected-(M1-CANL-PadW13)*
X51099998Y47199997D03*
G04 #@! TD*
M02*
